<svg width="551" height="314" viewBox="0 0 551 314" fill="none" xmlns="http://www.w3.org/2000/svg">
<mask id="mask0" mask-type="alpha" maskUnits="userSpaceOnUse" x="0" y="0" width="551" height="314">
<path d="M0 23C0 10.2974 10.2975 0 23 0H528C540.703 0 551 10.2975 551 23V291C551 303.703 540.703 314 528 314H23C10.2974 314 0 303.703 0 291V23Z" fill="white"/>
<path d="M1 23C1 10.8497 10.8497 1 23 1H528C540.15 1 550 10.8497 550 23V291C550 303.15 540.15 313 528 313H23C10.8497 313 1 303.15 1 291V23Z" stroke="white" stroke-opacity="0.24" stroke-width="2"/>
</mask>
<g mask="url(#mask0)">
<rect width="551" height="314" rx="23" fill="url(#paint0_linear)"/>
<g filter="url(#filter0_d)">
<rect x="179" y="33" width="193" height="189" rx="35" fill="#FFB800"/>
<path d="M246.571 105.902C248.041 109.92 249.511 113.969 251.013 118.019C253.136 123.833 255.259 129.646 257.414 135.46C257.839 136.57 257.643 136.831 256.467 136.831C249.772 136.799 243.077 136.799 236.414 136.831C235.532 136.831 235.108 136.766 235.5 135.688C239.027 125.923 242.521 116.158 246.049 106.392C246.114 106.164 246.147 105.935 246.571 105.902ZM246.604 117.301C246.473 117.333 246.343 117.333 246.245 117.366C244.514 122.134 242.783 126.935 241.019 131.704C240.66 132.651 240.986 133.01 241.966 133.01C245.004 133.01 248.041 133.01 251.078 133.01C252.058 133.01 252.352 132.716 251.96 131.736C251.242 129.973 250.654 128.176 250.001 126.38C248.857 123.375 247.714 120.338 246.604 117.301Z" fill="#28268D"/>
<path d="M253.691 144.441C252.058 144.441 250.425 144.408 248.792 144.441C248.008 144.441 247.584 144.212 247.617 143.331C247.617 142.481 247.91 142.188 248.76 142.188C251.96 142.22 255.161 142.253 258.394 142.253C259.243 142.253 259.701 142.514 259.701 143.461C259.701 144.408 259.211 144.506 258.46 144.506C256.892 144.474 255.292 144.506 253.724 144.506C253.691 144.474 253.691 144.441 253.691 144.441Z" fill="white"/>
<path d="M236.708 144.441C235.075 144.441 233.475 144.408 231.842 144.441C231.025 144.474 230.666 144.18 230.699 143.331C230.699 142.481 231.025 142.188 231.842 142.188C235.075 142.22 238.341 142.253 241.575 142.253C242.358 142.253 242.75 142.547 242.75 143.396C242.75 144.278 242.391 144.506 241.575 144.506C239.942 144.474 238.341 144.506 236.708 144.506C236.708 144.474 236.708 144.441 236.708 144.441Z" fill="white"/>
<path d="M268.584 143.951C269.172 143.821 269.303 144.213 269.433 144.572C270.609 147.772 271.752 150.973 272.961 154.174C273.222 154.86 272.993 155.154 272.373 155.35C271.785 155.545 271.23 155.807 270.903 154.958C269.727 151.692 268.519 148.458 267.376 145.192C266.984 144.082 268.094 144.245 268.584 143.951Z" fill="white"/>
<path d="M266.984 138.203C267.049 138.856 266.494 138.921 266.069 139.117C265.547 139.346 265.155 139.281 264.926 138.66C263.783 135.459 262.575 132.226 261.399 129.025C261.105 128.242 261.53 127.948 262.183 127.719C262.673 127.556 263.097 127.36 263.359 128.046C264.534 131.312 265.743 134.578 266.919 137.844C266.951 137.942 266.984 138.072 266.984 138.203Z" fill="white"/>
<path d="M243.403 97.0516C243.305 97.3455 243.24 97.5415 243.142 97.7374C242.064 100.742 240.921 103.714 239.876 106.752C239.582 107.535 239.288 107.927 238.374 107.568C237.557 107.241 237.492 106.817 237.786 106.066C238.929 103.028 240.039 99.9583 241.117 96.9209C241.378 96.2351 241.738 95.9085 242.456 96.2024C242.881 96.3984 243.436 96.4637 243.403 97.0516Z" fill="white"/>
<path d="M226.616 140.097C225.865 139.771 224.787 139.836 225.343 138.432C226.486 135.46 227.563 132.455 228.609 129.45C228.902 128.666 229.229 128.307 230.144 128.634C231.189 128.993 230.895 129.548 230.633 130.267C229.556 133.206 228.478 136.178 227.4 139.117C227.269 139.477 227.269 140.065 226.616 140.097Z" fill="white"/>
<path d="M260.615 121.808C260.583 122.461 259.995 122.461 259.57 122.624C258.917 122.886 258.59 122.592 258.362 121.971C257.709 120.077 256.99 118.215 256.304 116.321C255.847 115.047 255.39 113.773 254.932 112.5C254.671 111.814 255.063 111.52 255.618 111.291C256.174 111.095 256.663 110.965 256.925 111.716C258.1 114.982 259.309 118.215 260.485 121.481C260.55 121.546 260.583 121.677 260.615 121.808Z" fill="white"/>
<path d="M220.509 155.872C219.725 155.676 218.909 155.48 219.333 154.272C220.476 151.169 221.619 148.066 222.73 144.931C222.958 144.31 223.22 144.049 223.906 144.31C224.591 144.572 225.081 144.866 224.755 145.715C223.579 148.883 222.436 152.018 221.293 155.186C221.162 155.578 221.031 155.937 220.509 155.872Z" fill="white"/>
<path d="M237.296 112.99C237.198 113.251 237.133 113.578 237.035 113.871C235.99 116.713 234.977 119.587 233.932 122.428C233.671 123.114 233.54 123.767 232.495 123.376C231.548 123.016 231.581 122.526 231.842 121.743C232.952 118.738 234.03 115.733 235.108 112.728C235.304 112.238 235.402 111.585 236.186 111.945C236.676 112.173 237.329 112.173 237.296 112.99Z" fill="white"/>
<path d="M250.392 95.1899C250.817 95.0919 250.882 95.5818 251.013 95.9738C252.156 99.0765 253.266 102.212 254.41 105.315C254.704 106.131 254.41 106.458 253.658 106.752C252.875 107.045 252.581 106.719 252.352 106.066C251.242 102.996 250.164 99.9256 249.021 96.8882C248.596 95.7125 249.38 95.4839 250.392 95.1899Z" fill="white"/>
<path d="M277.761 167.303C277.043 167.728 276.259 167.956 275.443 167.989C275.377 166.029 274.3 164.396 273.777 162.6C273.581 161.881 273.254 161.294 274.3 160.934C275.214 160.608 275.573 161 275.835 161.784C276.422 163.612 277.108 165.441 277.761 167.303Z" fill="white"/>
<path d="M286.613 158.811C284.98 153.586 285.11 148.458 287.494 143.461C289.095 140.097 291.609 137.485 294.778 135.59C295.071 135.427 295.333 135.264 295.594 135.068C295.659 135.002 295.692 134.872 295.79 134.708C294.908 134.349 293.994 134.023 293.145 133.598C289.291 131.606 287.396 127.654 288.246 123.375C288.344 122.788 288.409 122.2 288.507 121.612C289.389 119.424 290.238 117.17 291.805 115.341C294.418 112.271 297.652 110.148 301.407 108.711C301.995 108.483 302.583 108.189 303.171 107.895C305.588 107.601 307.907 106.784 310.324 106.458C311.826 106.262 313.328 106.294 314.863 106.229C315.451 106.196 316.072 106.36 316.594 105.935C321.82 106.229 327.046 106.458 332.108 108.156C333.675 108.678 335.047 109.528 336.517 110.148C342.853 114.329 344.649 120.763 345.368 127.785C345.76 131.475 345.498 135.166 345.662 138.824C345.596 140.947 345.302 143.102 345.466 145.225C345.204 148.72 345.596 152.149 346.576 155.513C347.327 158.158 348.405 160.804 347.883 163.645C347.099 168.12 342.657 171.745 337.823 171.875C337.268 171.875 336.745 171.875 336.19 171.875C332.892 171.124 330.344 169.23 328.352 166.519C327.797 165.768 327.274 165.735 326.458 166.258C324.857 167.27 323.159 168.087 321.493 169.001C316.202 171.32 310.683 172.202 304.967 171.875C304.38 171.843 303.792 171.679 303.204 171.582C301.016 170.928 298.795 170.504 296.704 169.491C292.491 167.434 289.421 164.266 287.331 160.085C287.135 159.661 286.874 159.236 286.613 158.811ZM316.594 123.931C310.748 123.669 308.429 125.825 305.163 131.932C305.849 132.226 306.437 131.834 307.058 131.704C310.683 130.887 314.406 130.463 317.933 129.189C319.142 129.156 320.252 128.764 321.428 128.47C323.584 127.948 323.877 127.001 322.408 125.27C321.885 124.682 321.232 124.355 320.481 124.192C319.174 123.963 317.901 123.8 316.594 123.931ZM341.514 138.497C341.579 134.806 341.71 131.083 341.416 127.393C340.599 117.431 336.256 112.5 326.425 110.736C320.709 109.691 314.929 109.724 309.213 110.573C305.229 111.161 301.505 112.532 298.207 114.819C295.137 116.941 292.981 119.75 292.263 123.473C291.838 125.629 291.969 127.719 293.798 129.32C296.541 131.736 300.82 131.41 302.616 128.274C305.882 122.592 310.454 119.718 317.15 119.946C324.367 120.207 326.784 122.232 327.568 129.418C327.666 130.43 327.405 130.822 326.425 131.116C321.559 132.488 316.627 133.598 311.695 134.708C307.45 135.656 303.073 136.08 299.056 137.876C293.308 140.424 289.813 144.735 289.552 151.169C289.291 157.701 292.23 162.6 297.946 165.735C302.877 168.446 308.168 168.446 313.524 167.532C318.815 166.617 323.29 163.972 327.503 160.836C328.385 160.183 328.744 160.249 329.299 161.163C330.409 163.025 331.716 164.788 333.382 166.225C335.733 168.348 338.444 168.609 341.024 167.042C343.8 165.343 344.649 163.319 343.767 159.955C342.69 155.839 341.383 151.822 341.514 147.478C341.579 144.474 341.514 141.469 341.514 138.497Z" fill="#28268D"/>
<path d="M341.514 138.497C341.514 141.502 341.579 144.474 341.481 147.478C341.35 151.822 342.657 155.839 343.734 159.954C344.616 163.286 343.767 165.343 340.991 167.042C338.411 168.609 335.7 168.348 333.349 166.225C331.716 164.755 330.409 163.024 329.266 161.163C328.711 160.216 328.319 160.183 327.47 160.836C323.257 163.972 318.75 166.617 313.491 167.532C308.135 168.446 302.844 168.446 297.913 165.735C292.197 162.6 289.258 157.701 289.519 151.169C289.78 144.735 293.275 140.424 299.023 137.876C303.04 136.08 307.417 135.655 311.662 134.708C316.594 133.598 321.526 132.487 326.392 131.116C327.372 130.854 327.633 130.43 327.535 129.417C326.751 122.232 324.334 120.207 317.117 119.946C310.421 119.717 305.849 122.592 302.583 128.274C300.787 131.41 296.508 131.736 293.765 129.319C291.936 127.719 291.772 125.629 292.23 123.473C292.981 119.75 295.104 116.941 298.174 114.818C301.505 112.532 305.228 111.161 309.18 110.573C314.928 109.724 320.677 109.691 326.392 110.736C336.223 112.5 340.566 117.431 341.383 127.393C341.71 131.083 341.579 134.774 341.514 138.497ZM327.633 143.265C327.633 142.155 327.6 141.273 327.633 140.391C327.666 139.607 327.404 139.477 326.686 139.738C321.624 141.371 316.333 142.22 311.172 143.461C309.409 143.886 307.776 144.604 306.339 145.682C304.706 146.923 303.922 148.556 303.857 150.581C303.759 154.108 306.012 157.146 309.572 158.191C317.313 160.477 325.804 155.284 327.176 147.38C327.404 145.943 327.502 144.474 327.633 143.265Z" fill="#FCFDFD"/>
<path d="M327.634 143.265C327.503 144.474 327.438 145.943 327.176 147.38C325.772 155.284 317.313 160.477 309.573 158.191C306.013 157.146 303.759 154.108 303.857 150.581C303.922 148.556 304.706 146.923 306.339 145.682C307.809 144.572 309.409 143.886 311.173 143.461C316.333 142.22 321.624 141.371 326.686 139.738C327.405 139.509 327.666 139.607 327.634 140.391C327.601 141.273 327.634 142.155 327.634 143.265ZM316.921 146.139C314.602 146.662 312.218 146.956 310.03 148.066C308.038 149.079 307.45 150.059 307.842 151.724C308.201 153.39 309.671 154.533 311.532 154.598C312.773 154.631 314.047 154.566 315.288 154.566C316.203 154.239 317.15 154.01 318.064 153.618C321.199 152.247 323.094 149.928 323.453 146.466C323.584 145.225 323.355 144.572 321.853 145.062C320.22 145.519 318.554 145.78 316.921 146.139Z" fill="#28268D"/>
<path d="M286.155 158.844C284.881 154.239 282.954 149.895 281.321 145.421C280.243 143.233 279.198 141.012 278.676 138.628C277.206 136.08 276.357 133.272 275.246 130.593C273.842 127.197 272.536 123.767 271.197 120.338C268.812 115.113 266.82 109.756 264.665 104.433C264.305 103.551 263.685 102.734 263.652 101.722C262.934 100.024 262.117 98.3907 261.529 96.6597C260.647 94.1123 259.08 91.9894 257.773 89.7032C254.703 86.7964 251.176 85.0655 246.865 85.0001C242.325 84.9348 238.537 86.6005 235.303 89.7032C235.14 90.3237 234.748 90.7809 234.291 91.2382C230.6 97.9008 228.347 105.217 225.505 112.239C222.109 120.599 218.875 128.993 215.577 137.387C215.381 137.877 215.087 138.366 214.858 138.856C214.238 141.077 213.29 143.167 212.409 145.29C211.004 149.046 209.633 152.802 208.228 156.525C207.902 157.44 207.673 158.387 207.575 159.301C207.575 159.301 206.367 164.331 210.057 168.675C213.748 173.019 219.104 172.627 222.043 171.647C222.37 171.549 222.925 171.255 223.48 170.961C224.199 170.7 224.819 170.308 225.407 169.851H225.44C226.452 169.001 227.236 167.891 227.955 166.683C228.575 165.605 229.131 164.494 229.718 163.417C230.992 159.955 232.233 156.493 233.507 153.031C233.768 152.312 234.389 152.312 234.977 152.312C236.512 152.312 238.014 152.345 239.549 152.345C245.689 152.345 251.829 152.345 257.969 152.28C259.112 152.28 259.635 152.737 259.994 153.717C261.268 157.375 262.738 160.902 264.24 164.462C266.428 169.753 271.425 172.757 276.487 171.712C282.725 170.406 286.383 166.029 286.285 159.955C286.187 159.628 286.187 159.236 286.155 158.844ZM277.761 167.303C277.043 167.728 276.259 167.956 275.442 167.989C271.948 168.283 269.629 166.683 268.192 163.613C267.898 162.959 267.571 162.339 267.31 161.686C265.742 157.701 264.142 153.717 262.607 149.699C262.248 148.752 261.79 148.393 260.745 148.393C251.274 148.426 241.803 148.426 232.364 148.393C231.384 148.393 230.959 148.687 230.633 149.601C229.294 153.325 227.889 157.048 226.452 160.739C225.734 162.567 225.179 164.592 223.742 165.899C223.546 166.062 223.382 166.258 223.219 166.421C222.958 166.552 222.729 166.683 222.501 166.879C221.292 167.858 217.83 168.708 214.891 166.879C214.793 166.813 214.695 166.715 214.597 166.65C213.682 165.997 212.997 165.278 212.474 164.527C212.474 164.494 212.441 164.494 212.441 164.462C212.376 164.396 212.343 164.298 212.311 164.233C212.017 163.743 211.821 163.286 211.723 162.959C211.298 161.653 211.298 160.183 211.755 158.485C212.082 157.211 212.539 156.003 212.997 154.794C218.647 140.424 224.264 126.054 229.98 111.716C232.135 106.098 234.03 100.35 236.708 94.9288C238.569 91.1729 241.607 89.0826 245.885 88.9193C250.457 88.756 253.919 90.5197 256.14 94.5042C256.826 95.7453 257.447 97.019 257.969 98.3254C265.383 116.615 272.732 134.905 280.113 153.227C280.897 155.186 281.648 157.179 282.072 159.269C282.791 162.763 281.092 165.866 277.761 167.303Z" fill="#28268D"/>
</g>
</g>
<path d="M111.986 263.57V256.844C111.986 255.922 111.806 255.055 111.447 254.242C111.103 253.414 110.627 252.695 110.017 252.086C109.408 251.477 108.689 251 107.861 250.656C107.048 250.297 106.181 250.117 105.259 250.117C104.337 250.117 103.462 250.297 102.634 250.656C101.822 251 101.111 251.477 100.502 252.086C99.8922 252.695 99.4078 253.414 99.0484 254.242C98.7047 255.055 98.5328 255.922 98.5328 256.844V263.57H111.986ZM118.712 277H111.986V270.273H98.5328V277H91.8297V256.844C91.8297 254.984 92.1812 253.242 92.8844 251.617C93.5875 249.977 94.5406 248.547 95.7437 247.328C96.9625 246.109 98.3844 245.148 100.009 244.445C101.65 243.742 103.4 243.391 105.259 243.391C107.119 243.391 108.861 243.742 110.486 244.445C112.127 245.148 113.556 246.109 114.775 247.328C115.994 248.547 116.955 249.977 117.658 251.617C118.361 253.242 118.712 254.984 118.712 256.844V277ZM132.714 277H126.269V241.914H132.714V277ZM146.458 286.562H140.012V251.898H141.559L144.114 254.922C144.692 254.375 145.325 253.859 146.012 253.375C146.7 252.891 147.411 252.477 148.145 252.133C148.895 251.773 149.669 251.492 150.466 251.289C151.262 251.086 152.067 250.984 152.88 250.984C154.645 250.984 156.302 251.305 157.848 251.945C159.411 252.57 160.77 253.461 161.927 254.617C163.098 255.773 164.02 257.172 164.692 258.812C165.364 260.438 165.7 262.242 165.7 264.227C165.7 266.289 165.364 268.148 164.692 269.805C164.02 271.445 163.098 272.844 161.927 274C160.77 275.141 159.411 276.016 157.848 276.625C156.302 277.234 154.645 277.539 152.88 277.539C152.317 277.539 151.755 277.477 151.192 277.352C150.645 277.227 150.098 277.062 149.552 276.859C149.02 276.641 148.489 276.398 147.958 276.133C147.442 275.867 146.942 275.594 146.458 275.312V286.562ZM159.278 264.227C159.278 263.164 159.106 262.211 158.762 261.367C158.434 260.523 157.981 259.812 157.403 259.234C156.825 258.641 156.145 258.188 155.364 257.875C154.583 257.562 153.755 257.406 152.88 257.406C152.005 257.406 151.177 257.562 150.395 257.875C149.63 258.188 148.958 258.641 148.38 259.234C147.802 259.812 147.341 260.523 146.997 261.367C146.669 262.211 146.505 263.164 146.505 264.227C146.505 265.242 146.669 266.172 146.997 267.016C147.341 267.859 147.802 268.578 148.38 269.172C148.958 269.766 149.63 270.227 150.395 270.555C151.177 270.883 152.005 271.047 152.88 271.047C153.755 271.047 154.583 270.883 155.364 270.555C156.145 270.227 156.825 269.766 157.403 269.172C157.981 268.578 158.434 267.859 158.762 267.016C159.106 266.172 159.278 265.242 159.278 264.227ZM178.061 277H171.662V241.914H178.061V253C178.827 252.422 179.616 252.016 180.428 251.781C181.241 251.531 182.069 251.406 182.912 251.406C184.459 251.406 185.912 251.703 187.272 252.297C188.631 252.875 189.811 253.68 190.811 254.711C191.827 255.727 192.623 256.922 193.202 258.297C193.795 259.656 194.092 261.109 194.092 262.656V277H187.647V262.656H187.694C187.694 262 187.569 261.383 187.319 260.805C187.069 260.211 186.725 259.695 186.287 259.258C185.85 258.82 185.342 258.477 184.764 258.227C184.186 257.977 183.569 257.852 182.912 257.852C182.241 257.852 181.608 257.977 181.014 258.227C180.42 258.477 179.905 258.82 179.467 259.258C179.03 259.695 178.686 260.211 178.436 260.805C178.186 261.383 178.061 262 178.061 262.656V277ZM225.367 277H223.82L221.336 273.555C220.727 274.102 220.078 274.617 219.391 275.102C218.719 275.57 218.008 275.984 217.258 276.344C216.508 276.688 215.734 276.961 214.937 277.164C214.156 277.367 213.359 277.469 212.547 277.469C210.781 277.469 209.117 277.172 207.555 276.578C206.008 275.984 204.648 275.125 203.477 274C202.32 272.859 201.406 271.469 200.734 269.828C200.062 268.188 199.727 266.32 199.727 264.227C199.727 262.273 200.062 260.484 200.734 258.859C201.406 257.219 202.32 255.812 203.477 254.641C204.648 253.469 206.008 252.562 207.555 251.922C209.117 251.266 210.781 250.938 212.547 250.938C213.359 250.938 214.164 251.039 214.961 251.242C215.758 251.445 216.531 251.727 217.281 252.086C218.031 252.445 218.742 252.867 219.414 253.352C220.102 253.836 220.742 254.359 221.336 254.922L223.82 251.945H225.367V277ZM218.922 264.227C218.922 263.352 218.75 262.508 218.406 261.695C218.078 260.867 217.625 260.141 217.047 259.516C216.469 258.875 215.789 258.367 215.008 257.992C214.242 257.602 213.422 257.406 212.547 257.406C211.672 257.406 210.844 257.555 210.062 257.852C209.297 258.148 208.625 258.586 208.047 259.164C207.484 259.742 207.039 260.461 206.711 261.32C206.383 262.164 206.219 263.133 206.219 264.227C206.219 265.32 206.383 266.297 206.711 267.156C207.039 268 207.484 268.711 208.047 269.289C208.625 269.867 209.297 270.305 210.062 270.602C210.844 270.898 211.672 271.047 212.547 271.047C213.422 271.047 214.242 270.859 215.008 270.484C215.789 270.094 216.469 269.586 217.047 268.961C217.625 268.32 218.078 267.594 218.406 266.781C218.75 265.953 218.922 265.102 218.922 264.227ZM257.791 264.227C257.791 266.195 257.455 267.992 256.783 269.617C256.111 271.242 255.197 272.641 254.041 273.812C252.884 274.969 251.525 275.867 249.962 276.508C248.416 277.148 246.752 277.469 244.97 277.469C243.205 277.469 241.541 277.141 239.978 276.484C238.431 275.828 237.072 274.914 235.9 273.742C234.744 272.57 233.83 271.18 233.158 269.57C232.486 267.945 232.15 266.164 232.15 264.227V241.914H238.572V253.633C238.916 253.195 239.33 252.805 239.814 252.461C240.314 252.117 240.845 251.836 241.408 251.617C241.986 251.398 242.58 251.234 243.189 251.125C243.798 251 244.392 250.938 244.97 250.938C246.752 250.938 248.416 251.273 249.962 251.945C251.525 252.602 252.884 253.523 254.041 254.711C255.197 255.898 256.111 257.305 256.783 258.93C257.455 260.539 257.791 262.305 257.791 264.227ZM251.345 264.227C251.345 263.258 251.173 262.359 250.83 261.531C250.502 260.688 250.048 259.961 249.47 259.352C248.892 258.742 248.212 258.266 247.431 257.922C246.666 257.578 245.845 257.406 244.97 257.406C244.095 257.406 243.267 257.602 242.486 257.992C241.72 258.367 241.048 258.875 240.47 259.516C239.892 260.141 239.439 260.867 239.111 261.695C238.783 262.508 238.619 263.352 238.619 264.227C238.619 265.195 238.783 266.094 239.111 266.922C239.439 267.75 239.892 268.469 240.47 269.078C241.048 269.688 241.72 270.172 242.486 270.531C243.267 270.875 244.095 271.047 244.97 271.047C245.845 271.047 246.666 270.875 247.431 270.531C248.212 270.172 248.892 269.688 249.47 269.078C250.048 268.469 250.502 267.75 250.83 266.922C251.173 266.094 251.345 265.195 251.345 264.227ZM273.737 270.859C273.987 270.938 274.237 270.992 274.487 271.023C274.737 271.039 274.987 271.047 275.237 271.047C275.862 271.047 276.464 270.961 277.042 270.789C277.62 270.617 278.159 270.375 278.659 270.062C279.175 269.734 279.628 269.344 280.019 268.891C280.425 268.422 280.753 267.906 281.003 267.344L285.691 272.055C285.097 272.898 284.409 273.656 283.628 274.328C282.862 275 282.027 275.57 281.12 276.039C280.23 276.508 279.284 276.859 278.284 277.094C277.3 277.344 276.284 277.469 275.237 277.469C273.472 277.469 271.808 277.141 270.245 276.484C268.698 275.828 267.339 274.914 266.167 273.742C265.011 272.57 264.097 271.18 263.425 269.57C262.753 267.945 262.417 266.164 262.417 264.227C262.417 262.242 262.753 260.43 263.425 258.789C264.097 257.148 265.011 255.75 266.167 254.594C267.339 253.438 268.698 252.539 270.245 251.898C271.808 251.258 273.472 250.938 275.237 250.938C276.284 250.938 277.308 251.062 278.308 251.312C279.308 251.562 280.253 251.922 281.144 252.391C282.05 252.859 282.894 253.438 283.675 254.125C284.456 254.797 285.144 255.555 285.737 256.398L273.737 270.859ZM277.019 257.664C276.722 257.555 276.425 257.484 276.128 257.453C275.847 257.422 275.55 257.406 275.237 257.406C274.362 257.406 273.534 257.57 272.753 257.898C271.987 258.211 271.316 258.664 270.737 259.258C270.175 259.852 269.73 260.57 269.402 261.414C269.073 262.242 268.909 263.18 268.909 264.227C268.909 264.461 268.917 264.727 268.933 265.023C268.964 265.32 269.003 265.625 269.05 265.938C269.112 266.234 269.183 266.523 269.261 266.805C269.339 267.086 269.441 267.336 269.566 267.555L277.019 257.664ZM303.958 277C302.411 277 300.958 276.711 299.598 276.133C298.239 275.539 297.044 274.734 296.012 273.719C294.997 272.688 294.192 271.492 293.598 270.133C293.02 268.773 292.731 267.32 292.731 265.773V258.32H289.614V251.945H292.731V241.914H299.106V251.945H308.809V258.32H299.106V265.773C299.106 266.445 299.231 267.078 299.481 267.672C299.731 268.25 300.075 268.758 300.512 269.195C300.95 269.633 301.466 269.984 302.059 270.25C302.653 270.5 303.286 270.625 303.958 270.625H308.809V277H303.958ZM345.461 277H338.758V250.117H328.656V243.391H355.539V250.117H345.461V277ZM365.017 277H358.619V251.898H360.166L362.275 254.875C363.306 253.938 364.478 253.219 365.791 252.719C367.103 252.203 368.462 251.945 369.869 251.945H375.517V258.32H369.869C369.197 258.32 368.564 258.445 367.97 258.695C367.377 258.945 366.861 259.289 366.423 259.727C365.986 260.164 365.642 260.68 365.392 261.273C365.142 261.867 365.017 262.5 365.017 263.172V277ZM404.73 277H403.183L400.698 273.555C400.089 274.102 399.441 274.617 398.753 275.102C398.081 275.57 397.37 275.984 396.62 276.344C395.87 276.688 395.097 276.961 394.3 277.164C393.519 277.367 392.722 277.469 391.909 277.469C390.144 277.469 388.48 277.172 386.917 276.578C385.37 275.984 384.011 275.125 382.839 274C381.683 272.859 380.769 271.469 380.097 269.828C379.425 268.188 379.089 266.32 379.089 264.227C379.089 262.273 379.425 260.484 380.097 258.859C380.769 257.219 381.683 255.812 382.839 254.641C384.011 253.469 385.37 252.562 386.917 251.922C388.48 251.266 390.144 250.938 391.909 250.938C392.722 250.938 393.527 251.039 394.323 251.242C395.12 251.445 395.894 251.727 396.644 252.086C397.394 252.445 398.105 252.867 398.777 253.352C399.464 253.836 400.105 254.359 400.698 254.922L403.183 251.945H404.73V277ZM398.284 264.227C398.284 263.352 398.112 262.508 397.769 261.695C397.441 260.867 396.987 260.141 396.409 259.516C395.831 258.875 395.152 258.367 394.37 257.992C393.605 257.602 392.784 257.406 391.909 257.406C391.034 257.406 390.206 257.555 389.425 257.852C388.659 258.148 387.987 258.586 387.409 259.164C386.847 259.742 386.402 260.461 386.073 261.32C385.745 262.164 385.581 263.133 385.581 264.227C385.581 265.32 385.745 266.297 386.073 267.156C386.402 268 386.847 268.711 387.409 269.289C387.987 269.867 388.659 270.305 389.425 270.602C390.206 270.898 391.034 271.047 391.909 271.047C392.784 271.047 393.605 270.859 394.37 270.484C395.152 270.094 395.831 269.586 396.409 268.961C396.987 268.32 397.441 267.594 397.769 266.781C398.112 265.953 398.284 265.102 398.284 264.227ZM433.966 256.891L429.278 261.602C429.044 260.945 428.723 260.359 428.317 259.844C427.911 259.312 427.45 258.867 426.934 258.508C426.434 258.148 425.887 257.875 425.294 257.688C424.7 257.5 424.091 257.406 423.466 257.406C422.591 257.406 421.762 257.586 420.981 257.945C420.216 258.305 419.544 258.812 418.966 259.469C418.403 260.109 417.958 260.875 417.63 261.766C417.302 262.656 417.137 263.641 417.137 264.719C417.137 265.594 417.302 266.414 417.63 267.18C417.958 267.945 418.403 268.617 418.966 269.195C419.544 269.773 420.216 270.227 420.981 270.555C421.762 270.883 422.591 271.047 423.466 271.047C424.091 271.047 424.692 270.961 425.27 270.789C425.848 270.617 426.387 270.375 426.887 270.062C427.403 269.734 427.856 269.344 428.247 268.891C428.653 268.422 428.981 267.906 429.231 267.344L433.919 272.055C433.325 272.898 432.637 273.656 431.856 274.328C431.091 275 430.255 275.57 429.348 276.039C428.458 276.508 427.512 276.859 426.512 277.094C425.528 277.344 424.512 277.469 423.466 277.469C421.7 277.469 420.036 277.141 418.473 276.484C416.927 275.812 415.567 274.898 414.395 273.742C413.239 272.586 412.325 271.234 411.653 269.688C410.981 268.141 410.645 266.484 410.645 264.719C410.645 262.797 410.981 261 411.653 259.328C412.325 257.656 413.239 256.203 414.395 254.969C415.567 253.719 416.927 252.734 418.473 252.016C420.036 251.297 421.7 250.938 423.466 250.938C424.512 250.938 425.536 251.07 426.536 251.336C427.552 251.602 428.512 251.992 429.419 252.508C430.341 253.008 431.184 253.625 431.95 254.359C432.731 255.094 433.403 255.938 433.966 256.891ZM449.116 270.859C449.366 270.938 449.616 270.992 449.866 271.023C450.116 271.039 450.366 271.047 450.616 271.047C451.241 271.047 451.842 270.961 452.42 270.789C452.998 270.617 453.538 270.375 454.038 270.062C454.553 269.734 455.006 269.344 455.397 268.891C455.803 268.422 456.131 267.906 456.381 267.344L461.069 272.055C460.475 272.898 459.788 273.656 459.006 274.328C458.241 275 457.405 275.57 456.498 276.039C455.608 276.508 454.663 276.859 453.663 277.094C452.678 277.344 451.663 277.469 450.616 277.469C448.85 277.469 447.186 277.141 445.623 276.484C444.077 275.828 442.717 274.914 441.545 273.742C440.389 272.57 439.475 271.18 438.803 269.57C438.131 267.945 437.795 266.164 437.795 264.227C437.795 262.242 438.131 260.43 438.803 258.789C439.475 257.148 440.389 255.75 441.545 254.594C442.717 253.438 444.077 252.539 445.623 251.898C447.186 251.258 448.85 250.938 450.616 250.938C451.663 250.938 452.686 251.062 453.686 251.312C454.686 251.562 455.631 251.922 456.522 252.391C457.428 252.859 458.272 253.438 459.053 254.125C459.834 254.797 460.522 255.555 461.116 256.398L449.116 270.859ZM452.397 257.664C452.1 257.555 451.803 257.484 451.506 257.453C451.225 257.422 450.928 257.406 450.616 257.406C449.741 257.406 448.913 257.57 448.131 257.898C447.366 258.211 446.694 258.664 446.116 259.258C445.553 259.852 445.108 260.57 444.78 261.414C444.452 262.242 444.288 263.18 444.288 264.227C444.288 264.461 444.295 264.727 444.311 265.023C444.342 265.32 444.381 265.625 444.428 265.938C444.491 266.234 444.561 266.523 444.639 266.805C444.717 267.086 444.819 267.336 444.944 267.555L452.397 257.664Z" fill="#123181"/>
<defs>
<filter id="filter0_d" x="150" y="7" width="281" height="277" filterUnits="userSpaceOnUse" color-interpolation-filters="sRGB">
<feFlood flood-opacity="0" result="BackgroundImageFix"/>
<feColorMatrix in="SourceAlpha" type="matrix" values="0 0 0 0 0 0 0 0 0 0 0 0 0 0 0 0 0 0 127 0"/>
<feOffset dx="15" dy="18"/>
<feGaussianBlur stdDeviation="22"/>
<feColorMatrix type="matrix" values="0 0 0 0 0 0 0 0 0 0 0 0 0 0 0 0 0 0 0.25 0"/>
<feBlend mode="normal" in2="BackgroundImageFix" result="effect1_dropShadow"/>
<feBlend mode="normal" in="SourceGraphic" in2="effect1_dropShadow" result="shape"/>
</filter>
<linearGradient id="paint0_linear" x1="275.5" y1="0" x2="275.5" y2="314" gradientUnits="userSpaceOnUse">
<stop stop-color="#00A3FF"/>
<stop offset="1" stop-color="#00FDEE"/>
</linearGradient>
</defs>
</svg>
