<svg width="194" height="224" viewBox="0 0 194 224" fill="none" xmlns="http://www.w3.org/2000/svg">
<path d="M97 194C150.572 194 194 150.572 194 97C194 43.4284 150.572 0 97 0C43.4284 0 0 43.4284 0 97C0 150.572 43.4284 194 97 194Z" fill="#98EAD5"/>
<path d="M98.8 218.9C98.6 219 98.5 219.2 98.5 219.4C98.5 219.6 98.7 219.8 98.8 219.8L111.7 223.6L116.6 219.1C116.7 219.1 102.6 217 98.8 218.9Z" fill="#35484F"/>
<path d="M85.2 218.9C85.4 219 85.5 219.2 85.5 219.4C85.5 219.6 85.3 219.8 85.1 219.8L72 223.6L67 219.1C67.1 219.1 81.4 217 85.2 218.9Z" fill="#35484F"/>
<path d="M98.7999 138.4H97.2V142.2H99.4999L98.7999 138.4Z" fill="#594F3C"/>
<path d="M97.4 139C97.4 140.1 98.3 141 99.4 141C100.5 141 101.4 140.1 101.4 139C101.4 137.9 100.5 137 99.4 137C98.3 137.1 97.4 138 97.4 139Z" fill="#594F3C"/>
<path d="M103.6 144.9C103.6 143.9 103 142.9 102.2 142.4C100.1 141.3 97.5 141 95.4 141.6C93.6 142.1 92.4 143.7 92.4 145.6V174C92.4 176.1 93.8 177.9 95.8 178.4C97.8 178.9 100 178.7 101.7 177.8C102.9 177.2 103.6 176 103.6 174.7V144.9Z" fill="#EFBB3A"/>
<path d="M101.8 145.5C101.8 144.6 101.5 143.8 101.1 143.4C100.2 142.5 99 142.2 98 142.7C97.2 143.1 96.6 144.5 96.6 146.1V170.3C96.6 172.1 97.2 173.7 98.1 174.1C99 174.5 100 174.3 100.8 173.6C101.3 173.1 101.7 172.1 101.7 171V145.5H101.8Z" fill="#FFCF64"/>
<path d="M103.5 149.4H92.4V151.1H103.5V149.4Z" fill="#DDA528"/>
<path d="M104.2 148.6H91.6V150.3H104.2V148.6Z" fill="#594F3C"/>
<path d="M103.5 158.5H92.4V160.2H103.5V158.5Z" fill="#DDA528"/>
<path d="M104.2 157.7H91.6V159.4H104.2V157.7Z" fill="#594F3C"/>
<path d="M103.5 169.5H92.4V171.2H103.5V169.5Z" fill="#DDA528"/>
<path d="M104.2 168.7H91.6V170.4H104.2V168.7Z" fill="#594F3C"/>
<path d="M97.9 139C97.9 139.8 98.6 140.5 99.4 140.5C100.2 140.5 100.9 139.8 100.9 139C100.9 138.2 100.2 137.5 99.4 137.5C98.5 137.5 97.9 138.2 97.9 139Z" fill="#CEC2AF"/>
<path d="M82.4999 139.7H80.8999V143.5H83.1999L82.4999 139.7Z" fill="#594F3C"/>
<path d="M81.0999 140.3C81.0999 141.4 81.9999 142.3 83.0999 142.3C84.1999 142.3 84.9999 141.4 84.9999 140.3C84.9999 139.2 84.0999 138.3 83.0999 138.3C81.9999 138.4 81.0999 139.3 81.0999 140.3Z" fill="#594F3C"/>
<path d="M87.2 146.2C87.2 145.2 86.6 144.2 85.8 143.7C83.7 142.6 81.1 142.3 79 142.9C77.2 143.4 76 145 76 146.9V175.3C76 177.4 77.4 179.2 79.4 179.7C81.4 180.2 83.6 180 85.3 179.1C86.5 178.5 87.2 177.3 87.2 176V146.2Z" fill="#EFBB3A"/>
<path d="M85.4999 146.8C85.4999 145.9 85.1999 145.1 84.7999 144.7C83.8999 143.8 82.7 143.5 81.7 144C80.9 144.4 80.2999 145.8 80.2999 147.4V171.6C80.2999 173.4 80.8999 175 81.7999 175.4C82.6999 175.8 83.6999 175.6 84.4999 174.9C84.9999 174.4 85.4 173.4 85.4 172.3V146.8H85.4999Z" fill="#FFCF64"/>
<path d="M87.1 150.7H76V152.4H87.1V150.7Z" fill="#DDA528"/>
<path d="M87.7999 149.9H75.2V151.6H87.7999V149.9Z" fill="#594F3C"/>
<path d="M87.1 159.8H76V161.5H87.1V159.8Z" fill="#DDA528"/>
<path d="M87.7999 159H75.2V160.7H87.7999V159Z" fill="#594F3C"/>
<path d="M87.1 170.8H76V172.5H87.1V170.8Z" fill="#DDA528"/>
<path d="M87.7999 170H75.2V171.7H87.7999V170Z" fill="#594F3C"/>
<path d="M81.5 140.3C81.5 141.1 82.2 141.8 83 141.8C83.8 141.8 84.5 141.1 84.5 140.3C84.5 139.5 83.8 138.8 83 138.8C82.2 138.8 81.5 139.5 81.5 140.3Z" fill="#CEC2AF"/>
<path d="M93 138.6H85.9V145.8H93V138.6Z" fill="#526670"/>
<path d="M74.2 184.1C72.1 177.3 73.9 149.5 80.1 145.7C83.2 143.8 98.8 142.7 100.6 145.7C102.4 148.7 108.8 176.6 105.9 182.6C103.1 188.7 74.2 184.1 74.2 184.1Z" fill="#526670"/>
<path d="M100.7 145.7C100.6 145.5 100.4 145.3 100.1 145.1C102.4 152.5 107 176.6 105 183.7C105.5 183.4 105.8 183 106 182.6C108.9 176.6 102.5 148.8 100.7 145.7Z" fill="#455860"/>
<path d="M83.4 219.1C81 210.5 77.2 200.9 74.4 184.1C73.7 179.8 74.3 171.4 75.9 168.5C75.9 168.5 104.4 169.9 105.9 170.6C107.4 171.3 106.1 203.2 100.2 219.4L98.7 219.2C98.7 219.2 100.1 189.1 90.6 188.9C81.3 188.7 85.5 219.4 85.5 219.4L83.4 219.1Z" fill="#526670"/>
<path d="M89.4 187.8C80.1 187.6 84.3 218.3 84.3 218.3L83.1 218.1C83.2 218.4 83.3 218.8 83.4 219.1L85.5 219.5C85.5 219.5 81.3 188.8 90.6 189C91.6 189 92.4 189.4 93.2 189.9C92.1 188.6 90.9 187.8 89.4 187.8Z" fill="#455860"/>
<path d="M105.8 170.6C105.7 170.5 105.4 170.5 105 170.4C105.9 176 104.3 203.6 98.9999 218.2H98.7C98.7 218.8 98.7 219.2 98.7 219.2L100.2 219.4C106 203.2 107.3 171.3 105.8 170.6Z" fill="#455860"/>
<path d="M63 171.9C59.8 165 60.6 151.2 81.1 145.5L80.3 151.4C80.3 151.4 62 158.3 65.9 171.3L63 171.9Z" fill="#526670"/>
<path d="M117.4 169.4C120.4 162.6 119.1 149.3 97.9 144.5L98.9 150.2C98.9 150.2 117.9 156.2 114.4 168.9L117.4 169.4Z" fill="#526670"/>
<path d="M106.9 179.6H73.1L74 183.8L106.3 183.7L106.9 179.6Z" fill="#35484F"/>
<path d="M82.9001 144.3L80.3 145.1V180.7H81.5001L82.9001 144.3Z" fill="#35484F"/>
<path d="M95.9 143.3L98.5 144.1V180.7H97.3L95.9 143.3Z" fill="#35484F"/>
<path d="M97.3 161.1H81.4V162.1H97.3V161.1Z" fill="#35484F"/>
<path d="M99.3 159.5H95.9V163.8H99.3V159.5Z" fill="#758F96"/>
<path d="M83.1 159.2H79.5V163.5H83.1V159.2Z" fill="#758F96"/>
<path d="M98.4999 160.4H96.7V162.9H98.4999V160.4Z" fill="#35484F"/>
<path d="M82.2 160.4H80.4V162.9H82.2V160.4Z" fill="#35484F"/>
<path d="M62.7 170.6C63.5 172.8 66.4 177.9 73.4 179.6L73.7 178C73.7 178 66.7 174.4 65.4 168L62.7 170.6Z" fill="#FABE82"/>
<path d="M66.8 171.6C66.2 170.6 65.7001 169.4 65.5001 168.1L62.8 170.7C63.2 171.9 64.2 173.8 66.1 175.6C66.1 174.1 66.4 172.8 66.8 171.6Z" fill="#ED9462"/>
<path d="M91.9001 180.3H86.3V182.4H91.9001V180.3Z" fill="#758F96"/>
<path d="M88.5999 154.5C87.9999 153.1 86.3999 152.4 85.0999 152.9C83.7999 153.5 83.1999 155.1 83.7999 156.5C84.3999 157.9 85.9999 158.6 87.2999 158.1C88.5999 157.5 89.1999 155.9 88.5999 154.5Z" fill="#202F33"/>
<path d="M84.7 154.7C82.9 152.8 78.6 142.4 86.1 142V143.8C86.1 143.8 80.9 144.5 86.1 154.4L84.7 154.7Z" fill="#202F33"/>
<path d="M106.7 169.5H98.1V170.5H106.7V169.5Z" fill="#35484F"/>
<path d="M81.1 169.5H72.9V170.5H81.1V169.5Z" fill="#35484F"/>
<path d="M65.9 166.8L61.2 170.5L62.9 172.8L66.2 168.9L65.9 166.8Z" fill="#758F96"/>
<path d="M118 168.8C117.5 171.2 114.9 176.9 106.7 180.4L106 178.9C106 178.9 113.9 173.6 114.1 167L118 168.8Z" fill="#FABE82"/>
<path d="M113.2 170.8C113.7 169.6 114.1 168.4 114.1 167L118 168.8C117.7 170.1 116.9 172.2 115 174.5C114.6 173.1 114 171.8 113.2 170.8Z" fill="#ED9462"/>
<path d="M113.3 165.9L119.9 168.3L118.3 171L113.3 168V165.9Z" fill="#758F96"/>
<path d="M75.3 181.9C76.3 181.3 76.1 179.8 75.3 178.9C74.5 178 72.5 177.4 72.1 178.3C71.7 179.1 72.8 180.3 73.3 182C73.7 183.1 74.5 182.4 75.3 181.9Z" fill="#FABE82"/>
<path d="M74.1 183C74.1 181.9 73.8 181 73.4 181C73 181 73.2 181.9 73.2 183.1C73.2 184.2 73.1 185.1 73.4 185.1C73.8 185 74.1 184.1 74.1 183Z" fill="#FABE82"/>
<path d="M75.2999 182.8C74.9999 181.7 74.5 180.9 74.2 181C73.8 181.1 74.2 182 74.4 183.1C74.7 184.2 74.6999 185.1 75.0999 185C75.4999 184.8 75.4999 183.9 75.2999 182.8Z" fill="#FABE82"/>
<path d="M76.5999 181.9C75.9999 181 75.2 180.4 74.9 180.6C74.6 180.8 75.2 181.5 75.9 182.4C76.5 183.3 76.9 184.1 77.2 183.9C77.5 183.7 77.1999 182.8 76.5999 181.9Z" fill="#FABE82"/>
<path d="M75.7999 178.3C74.6999 177.9 73.6999 178 73.5999 178.4C73.4999 178.8 74.3999 179 75.4999 179.3C76.5999 179.7 77.3999 180.1 77.4999 179.7C77.6999 179.3 76.8999 178.6 75.7999 178.3Z" fill="#FABE82"/>
<path d="M105 182.9C104 182.4 103.9 180.9 104.6 179.9C105.3 178.9 107 178.1 107.6 178.8C108.1 179.6 107.2 180.9 107 182.6C106.8 183.9 105.9 183.3 105 182.9Z" fill="#FABE82"/>
<path d="M106.3 183.8C106.1 182.7 106.3 181.7 106.6 181.7C106.9 181.6 107 182.6 107.1 183.7C107.3 184.8 107.5 185.7 107.2 185.7C106.9 185.8 106.5 184.9 106.3 183.8Z" fill="#FABE82"/>
<path d="M105.2 183.8C105.3 182.7 105.6 181.8 106 181.8C106.3 181.8 106.2 182.8 106.1 183.9C106 185 106.1 185.9 105.7 185.9C105.3 185.8 105.1 184.9 105.2 183.8Z" fill="#FABE82"/>
<path d="M103.8 183.1C104.3 182.1 104.9 181.4 105.2 181.6C105.5 181.8 105 182.5 104.5 183.6C104 184.6 103.8 185.5 103.4 185.3C103.2 185 103.4 184.1 103.8 183.1Z" fill="#FABE82"/>
<path d="M104.1 179.4C105.1 178.9 106 178.8 106.2 179.2C106.4 179.6 105.5 179.9 104.5 180.4C103.5 180.9 102.8 181.4 102.6 181.1C102.4 180.6 103.1 179.9 104.1 179.4Z" fill="#FABE82"/>
<path opacity="0.5" d="M91.3 151C97.8 150.7 103.7 149.5 107.9 148C106.6 147.3 105.2 146.7 103.6 146.1V144.8C103.6 143.8 103 142.8 102.2 142.3C101.4 141.8 100.4 141.5 99.5001 141.4L99.4001 140.9H99.5001C100.6 140.9 101.5 140 101.5 138.9C101.5 137.8 100.6 136.9 99.5001 136.9C98.6001 136.9 97.9001 137.5 97.7001 138.2H97.4001V141.1C96.8001 141.1 96.1001 141.2 95.5001 141.4C94.5001 141.7 93.7 142.3 93.1 143.2V138.5H86.0001V141.9C84.9001 142 84.0001 142.3 83.4001 142.8C83.3001 142.8 83.2 142.8 83.1 142.7L83.0001 142.2H83.1C84.2 142.2 85.0001 141.3 85.0001 140.2C85.0001 139.1 84.1 138.2 83.1 138.2C82.2 138.2 81.5 138.8 81.3 139.5H81.0001V142.4C80.4001 142.4 79.7 142.5 79.1 142.7C77.3 143.2 76.1 144.8 76.1 146.7V147.1C74.7 147.7 73.4 148.3 72.3 149C76.6 150.7 83.6 151.4 91.3 151Z" fill="#66493D"/>
<path d="M113 104.2C114.5 100 117.8 92.7 121.3 95.9C123.9 98.2 122.6 100.9 120.4 100.9C120.4 100.9 123 98.7 120.5 97.1C118.6 95.9 116 106.6 116 106.6L113 104.2Z" fill="#6B2A17"/>
<path d="M62.3 100.4C61 95.8 57.9001 87.7 52.9001 89.9C49.2001 91.5 50.4 94.5 53.3 95.1C53.3 95.1 50.3 92.2 53.8 91.4C56.5 90.7 58.2 102 58.2 102L62.3 100.4Z" fill="#6B2A17"/>
<path d="M61.2 113.4C61.3 108.9 57.5 104.9 54.3 106.4C51.3 107.9 54.7 123.2 58.8 122.2C61.3 121.6 61.2 113.4 61.2 113.4Z" fill="#FABE82"/>
<path d="M60.2001 114C60.3001 110.8 57.6001 108 55.3001 109.1C53.1001 110.1 55.6001 121 58.5001 120.3C60.3001 119.8 60.2001 114 60.2001 114Z" fill="#ED9462"/>
<path d="M59.2001 118.6C59.2001 117.1 58.0001 115.8 56.9001 116.3C55.9001 116.8 57.0001 121.9 58.4001 121.6C59.2001 121.3 59.2001 118.6 59.2001 118.6Z" fill="#FABE82"/>
<path d="M113.2 111.4C113.2 106.9 117.1 102.9 120.4 104.5C123.5 106 119.6 121.3 115.5 120.2C113 119.6 113.2 111.4 113.2 111.4Z" fill="#FABE82"/>
<path d="M114.2 112C114.2 108.8 117 106 119.3 107.1C121.5 108.2 118.8 119 115.8 118.2C114 117.8 114.2 112 114.2 112Z" fill="#ED9462"/>
<path d="M115.2 116.7C115.2 115.2 116.5 113.9 117.6 114.4C118.6 114.9 117.3 120 116 119.6C115.1 119.4 115.2 116.7 115.2 116.7Z" fill="#FABE82"/>
<path d="M61.2 117.1C59.1 104.2 46.4 63.3 68.8 61.6C68.8 61.6 74.7 30.7 94.9 36.6C99 37.8 100.3 42.6 97.5 48.5C97.5 48.5 102.7 49.2 99.1 57.5C99.1 57.5 109.9 55.4 107.7 67.5C107.7 67.5 115.7 59.5 113.4 73.7C113.4 73.7 127.8 57.5 116.5 102.7C105.1 148 61.2 117.1 61.2 117.1Z" fill="#843C20"/>
<path d="M89.9 102C76.7 103 64.6 98.5 56.2 90.7C57.4 101.1 60.1999 111.7 61.0999 117.2C61.0999 117.2 105 148.1 116.3 102.9C117.8 96.9 118.8 92 119.5 88C112.5 95.7 102 101 89.9 102Z" fill="#6B2A17"/>
<path d="M67.6 137C60.6 132.3 51.9 125 63.6 94.8C73.1 70.4 75.4 65.3 84 64.7C93.3 64 105.2 61.3 112.5 89.7C119.7 118 118.3 134.9 102.6 138.5C86.8 142.1 74.6 141.6 67.6 137Z" fill="#FABE82"/>
<mask id="mask0" mask-type="alpha" maskUnits="userSpaceOnUse" x="57" y="64" width="60" height="77">
<path d="M67.6 137C60.6 132.3 51.9 125 63.6 94.8C73.1 70.4 75.4 65.3 84 64.7C93.3 64 105.2 61.3 112.5 89.7C119.7 118 118.3 134.9 102.6 138.5C86.8 142.1 74.6 141.6 67.6 137Z" fill="url(#paint0_linear)"/>
</mask>
<g mask="url(#mask0)">
<path opacity="0.3" d="M67.6 137C60.6 132.3 51.9 125 63.6 94.8C73.1 70.4 75.4 65.3 84 64.7C93.3 64 105.2 61.3 112.5 89.7C119.7 118 118.3 134.9 102.6 138.5C86.8 142.1 74.6 141.6 67.6 137Z" fill="url(#paint1_linear)"/>
<path d="M82.0999 126.1L96.5999 125C96.5999 125 92.1999 135.9 89.4999 135.3C86.7999 134.6 82.0999 126.1 82.0999 126.1Z" fill="#542C23"/>
<path d="M92.0999 119.5C91.9999 118.5 89.9999 117.8 87.5999 118C85.1999 118.2 84.8999 119.1 84.8999 120.1C84.9999 121.1 85.4999 121.9 87.7999 121.8C90.2999 121.5 92.1999 120.5 92.0999 119.5Z" fill="#EFA460"/>
<path d="M91.4 119C91.3 118.2 89.4999 117.9 87.2999 118.2C85.0999 118.5 84.8 119.3 84.9 120C85 120.8 85.4999 121.4 87.5999 121C89.7999 120.7 91.5 119.8 91.4 119Z" fill="#FABE82"/>
<path d="M72.7 120.2C71.9 114.3 70.0001 100.5 77.9001 100.6C85.8001 100.7 83.5 117.7 83.5 117.7L72.7 120.2Z" fill="#823A2E"/>
<path d="M106.4 117.3C106.3 111.3 106 97.5 98.4 98.7C90.8 99.9 95.5 116.5 95.5 116.5L106.4 117.3Z" fill="#823A2E"/>
<path d="M73.7 120.1C72.9 114.5 71.2 101.6 78.2 101.7C85.2 101.8 83.3 117.8 83.3 117.8L73.7 120.1Z" fill="#FFF9E9"/>
<path d="M105.4 117.3C105.3 111.8 105 98.8 98.1 100C91.2 101.1 95.5 116.5 95.5 116.5L105.4 117.3Z" fill="#FFF9E9"/>
<path d="M81.1 114.1C80.9 111.9 79.6 110.2 78.1 110.4C76.6 110.5 75.6 112.4 75.7 114.6C75.9 116.8 77.2 118.5 78.7 118.3C80.2 118.1 81.3 116.2 81.1 114.1Z" fill="#5795AA"/>
<path d="M102.7 112.3C102.5 110.1 101.2 108.4 99.6999 108.6C98.1999 108.7 97.1998 110.6 97.2998 112.8C97.4998 115 98.7998 116.7 100.3 116.5C101.8 116.3 102.8 114.4 102.7 112.3Z" fill="#5795AA"/>
<path d="M101.3 110.9C101.2 110.1 100.7 109.5 100.1 109.5C99.4999 109.5 99.0999 110.2 99.0999 111.1C99.1999 111.9 99.6999 112.5 100.3 112.5C100.9 112.4 101.4 111.7 101.3 110.9Z" fill="#7DC5D8"/>
<path d="M79.2999 113.5C79.1999 112.7 78.6999 112.1 78.0999 112.1C77.4999 112.1 77.0999 112.8 77.0999 113.7C77.1999 114.5 77.6999 115.1 78.2999 115.1C78.8999 115.1 79.3999 114.4 79.2999 113.5Z" fill="#7DC5D8"/>
<path d="M78.9 94.2C75.3 94.1 72.2 96.2 71.2 98.6L71.4999 100.2C73.8999 98.2 75.8999 97.2 79.4999 96.9L78.9 94.2Z" fill="#843C20"/>
<path d="M98.0999 92.7C102 92.4 105.6 94.2 107 96.5L106.8 98.2C104 96.4 101.6 95.6 97.7 95.6L98.0999 92.7Z" fill="#843C20"/>
<path d="M83.7999 126.8L86.7 131.2L92.4999 131L95.4 125.7L83.7999 126.8Z" fill="#FFF9E9"/>
<path d="M97.7 124.8C97.5 124.4 97 124.3 96.4 124.5C95.9 124.7 95.5999 125.2 95.7999 125.5C95.9999 125.9 96.4999 126 97.0999 125.8C97.5999 125.6 97.9 125.1 97.7 124.8Z" fill="#542C23"/>
<path d="M83.0999 126.6C83.2999 126.2 83.0999 125.8 82.5999 125.5C82.0999 125.3 81.4999 125.4 81.2999 125.7C81.0999 126.1 81.2999 126.5 81.7999 126.8C82.3999 127 82.8999 126.9 83.0999 126.6Z" fill="#542C23"/>
<path d="M69.9 89C70.6 78 73.4 71.2 75.9999 66.4L70.4 71.9C67.9 81.6 69.9 89 69.9 89Z" fill="#843C20"/>
<path opacity="0.5" d="M64.9001 78C68.9001 74.5 106 73.3 111.5 77.9C117 82.5 116.4 92 113.8 93.6C110.8 95.6 101.7 95.2 97.8 92.9C93.2 90.1 92.9 86.6 88.2 86.4C84.6 86.2 83.1 90.8 80.3 93.6C79.3 94.6 65.2 98.1 62.8 94.9C60.7 91.8 59.0001 83.2 64.9001 78Z" fill="#66493D"/>
<path d="M64.6 75.2C68.6 71.4 105.7 70.1 111.2 75.1C116.7 80.1 116.1 90.4 113.5 92.2C110.5 94.3 101.4 94 97.5 91.4C92.9 88.3 92.6 84.6 87.9 84.3C84.3 84.1 82.8 89.1 80 92.2C79 93.3 64.9 97 62.5 93.6C60.4 90.3 58.7 80.9 64.6 75.2Z" fill="#D69F22"/>
<path d="M64.6 74.9C68.6 71.4 105.7 70.2 111.2 74.8C116.7 79.4 116.1 88.9 113.5 90.5C110.5 92.5 101.4 92.1 97.5 89.8C92.9 87 92.6 82.4 87.9 82.1C84.3 81.9 82.8 87.6 80 90.5C79 91.5 64.9 95 62.5 91.8C60.4 88.8 58.7 80.1 64.6 74.9Z" fill="#EFBB3A"/>
<path d="M66.7001 76.4C70.4001 73.7 104.9 72.8 110 76.4C115.1 79.9 114.6 87.2 112.2 88.5C109.4 90 100.9 89.8 97.4001 87.9C93.2001 85.7 92.8001 80.9 88.5001 80.6C85.1001 80.4 82.1001 86.2 79.5001 88.4C78.6001 89.2 67.2001 91.8 65.0001 89.4C62.7001 87.1 61.1001 80.4 66.7001 76.4Z" fill="#6F7E9B"/>
<path d="M88.4 80.7C92.8 80.9 93.0999 85.8 97.2999 88C97.3999 88 97.4999 88.1 97.5999 88.1L104.2 74.8C100 74.2 94.2999 74 88.4999 74L77.7 89.1C78.6 88.8 79.2 88.6 79.4 88.4C81.9 86.3 85 80.5 88.4 80.7Z" fill="#8A9AB5"/>
<path d="M66.6999 77.2C70.3999 74.5 104.9 73.6 110 77.2C112.7 79.1 113.8 82 113.9 84.5C114 81.8 113 78.5 110 76.4C104.9 72.9 70.3999 73.8 66.6999 76.4C63.6999 78.6 62.7999 81.5 62.8999 84.1C62.9999 81.7 63.9999 79.1 66.6999 77.2Z" fill="#4B5B75"/>
</g>
<defs>
<linearGradient id="paint0_linear" x1="87.2268" y1="115.155" x2="87.8577" y2="143.821" gradientUnits="userSpaceOnUse">
<stop/>
<stop offset="1" stop-color="white"/>
</linearGradient>
<linearGradient id="paint1_linear" x1="87.2268" y1="115.155" x2="87.8577" y2="143.821" gradientUnits="userSpaceOnUse">
<stop stop-color="#C04B00"/>
<stop offset="1" stop-color="#B73400"/>
</linearGradient>
</defs>
</svg>
