<svg width="195" height="218" viewBox="0 0 195 218" fill="none" xmlns="http://www.w3.org/2000/svg">
<path d="M97.3 194C150.872 194 194.3 150.572 194.3 97C194.3 43.4284 150.872 0 97.3 0C43.7284 0 0.300049 43.4284 0.300049 97C0.300049 150.572 43.7284 194 97.3 194Z" fill="#F2D36D"/>
<path d="M90.3 217.1C87.7 207 80 181.6 80.3 171.8L109.7 172.4L106.1 217.1H103.1C103.1 217.1 103.1 184.3 97.9 182.7C92.7 181 91.7 181.4 90.6 182.7C89.5 184 92.6 217.1 92.6 217.1H90.3Z" fill="#4C3425"/>
<path d="M98.7 180.4C92.5 178.7 90 179.9 88.6 181.2C87.4 182.3 91 209 91.8 217.1H92.6C92.6 217.1 89.4 183.9 90.6 182.7C91.7 181.4 92.6 181 97.9 182.7C103.1 184.4 103.1 217.1 103.1 217.1H104.7C104.4 209.8 104.1 181.9 98.7 180.4Z" fill="#3A261B"/>
<path d="M66.4 162.5C62.9 161.5 62.8001 140.8 84.2001 131.5V136.4C84.2001 136.4 75.6 144.7 72.9 150.4C70.3 156.3 70.6 163.8 66.4 162.5Z" fill="#AF6837"/>
<path d="M83 132.1V136.2C83 136.2 74.4 144.5 71.7 150.2C69.3 155.6 69.4 162.5 65.9 162.3C66 162.4 66.1 162.5 66.3 162.5C70.5 163.8 70.2 156.3 72.8 150.5C75.4 144.8 84.1 136.5 84.1 136.5V131.6C83.7 131.7 83.4 131.9 83 132.1Z" fill="#8C5028"/>
<path d="M102.9 131.3C118 133.5 115.2 163.2 122.1 158.6C129 154 131.2 164.9 121.3 167C111.4 169 107.3 139.2 101.5 140.7C95.7 142.2 102.9 131.3 102.9 131.3Z" fill="#AF6837"/>
<path d="M121.5 164C111.6 166 107.5 136.2 101.7 137.7C100.6 138 100 137.8 99.7001 137.4C98.9001 139.6 98.9001 141.3 101.5 140.7C107.3 139.2 111.4 169 121.3 167C126.8 165.9 128.6 161.9 127.9 159.5C127 161.4 125 163.3 121.5 164Z" fill="#8C5028"/>
<path d="M82.9 217H92.5C92.5 217 91.9 213.7 89.5 214.2C87.2 214.7 82.9 217 82.9 217Z" fill="#DBBCAB"/>
<path d="M112.3 217H102.8C102.8 217 103.4 213.7 105.7 214.2C108.1 214.7 112.3 217 112.3 217Z" fill="#DBBCAB"/>
<path d="M80.5001 173.4C79.4001 164.1 76.4001 137.5 80.7001 133.5C86.5001 128.1 104.8 130.5 107.4 132.9C109.9 135.3 112.4 161.3 109.5 173.4C95.1001 176.6 80.5001 173.4 80.5001 173.4Z" fill="#AF6837"/>
<path d="M96.7 175.5L92.4 175.4V177.3L96.7 177.4V175.5Z" fill="#CCB471"/>
<path d="M102.2 131.1C102.2 130.3 98.8001 129.7 94.7001 129.6C90.5001 129.6 87.2001 130.1 87.2001 130.9C87.2001 131.7 90.6001 132.3 94.7001 132.4C98.9001 132.4 102.2 131.9 102.2 131.1Z" fill="#894D24"/>
<path d="M95.5001 120.7C94.5001 120.7 93.5001 120.8 92.6001 120.9C92.3001 124.6 91.8001 128.4 91.7001 131.2C92.9001 131.4 94.2001 131.6 95.5001 131.6C96.7001 131.6 97.8001 131.5 98.9001 131.3C98.3001 128.3 98.0001 124.3 97.9001 120.9C97.0001 120.8 96.3001 120.7 95.5001 120.7Z" fill="#FABE82"/>
<path d="M110.2 147.7H78.5C78.5 149.1 78.5 150.5 78.6 152H110.6C110.4 150.6 110.3 149.1 110.2 147.7Z" fill="#D18652"/>
<path d="M110.6 154.3H78.6001C78.6001 154.7 78.6001 155.1 78.7001 155.4H110.7C110.6 155.1 110.6 154.7 110.6 154.3Z" fill="#D18652"/>
<g opacity="0.5">
<path opacity="0.5" d="M108.8 150.5C109.2 158.6 109.1 167.6 108 173.7C108.5 173.6 109 173.5 109.5 173.4C111.1 166.8 111.1 156 110.3 147.2C109.6 139.9 108.3 141.8 108.8 150.5Z" fill="#66493D"/>
<path opacity="0.5" d="M78.7001 139.8C77.7001 149.4 79.6001 166.4 80.5001 173.4C80.5001 173.4 81.0001 173.5 82.0001 173.7C81.4001 167.4 80.2001 155.1 80.3001 145.4C80.2001 139.2 79.1001 136.7 78.7001 139.8Z" fill="#66493D"/>
</g>
<path d="M80.1001 185.4C75.9001 182.8 73.3001 183.3 69.2001 186.2C69.2001 186.2 71.6001 154.7 76.6001 153.3C81.6001 151.8 80.1001 185.4 80.1001 185.4Z" fill="#3D404C"/>
<path d="M80.9001 188.7C79.2001 189.7 80.9001 163.8 77.1001 155.3L77.5001 153.5C77.4001 153.5 81.6001 151.1 80.9001 188.7Z" fill="#888C99"/>
<path d="M69 188.5C70.5 189.3 71.5 156.4 77.5 156L77.7 153.6C77.6 153.6 71.8 146.6 69 188.5Z" fill="#888C99"/>
<path d="M78.3 176.9C78.5 170.4 77.8001 161.8 76.0001 161.8C74.3001 161.8 73.1001 171.7 72.9001 178.2C72.7001 184.7 73.7001 185.4 75.4001 185.4C77.2001 185.3 78.1 183.4 78.3 176.9Z" fill="#4C4F5E"/>
<path d="M72.6 160.4C74.7 158.1 75.2 155.2 73.8 154.1C72.4 152.9 69.5 153.9 67.5 156.2C65.4 158.5 64.9 161.4 66.3 162.5C67.7 163.7 70.5 162.7 72.6 160.4Z" fill="#AF6837"/>
<path d="M73.8001 154.1C73.8001 154.1 73.7001 154.1 73.7001 154C73.5001 155.1 72.8001 156.4 71.8001 157.6C69.8001 159.9 67.1001 160.8 65.6001 159.8C65.4001 160.9 65.6001 162 66.3001 162.5C67.7001 163.7 70.6001 162.7 72.6001 160.4C74.7001 158.1 75.2001 155.3 73.8001 154.1Z" fill="#8C5028"/>
<path d="M76.6001 155.8L82.2001 131.1L85.5001 129.9L77.9001 156.1L76.6001 155.8Z" fill="#3D404C"/>
<path d="M79.3 157.4C80.5 155.8 77.4 154.1 75.7 154.2C74.1 154.2 72.1 155.5 72.5 156.7C73 157.9 74.3 157.9 76.7 159C78.7 159.8 78.5 158.4 79.3 157.4Z" fill="#FABE82"/>
<path d="M75.4 153.3C74.2 154 73.5 154.9 73.8 155.3C74.1 155.7 75 155 76.2 154.3C77.4 153.6 78.4 153.2 78.1 152.8C77.8 152.4 76.6 152.7 75.4 153.3Z" fill="#FABE82"/>
<path d="M125.7 160.1C125.3 158.4 130 152 132.6 154.4C135.2 156.7 132.7 160.3 131.2 160.8C129.4 161.4 126.1 162 125.7 160.1Z" fill="#FABE82"/>
<path d="M126.2 159.2C125.9 157.9 129.6 153 132 154.9C134.6 156.9 132 159.7 130.6 160C129.2 160.3 126.6 160.5 126.2 159.2Z" fill="#F49F60"/>
<path d="M130.1 168.4L126.5 142.6C126.4 142 126.7 141.5 127.2 141.2C127.7 140.9 128.4 141 128.8 141.4L146.8 158.8L144.6 159.8L130 145.3C129.8 145.1 129.5 145.1 129.3 145.2C129.1 145.3 128.9 145.6 128.9 145.9L132 167.9L130.1 168.4Z" fill="#3D404C"/>
<path d="M127.7 155.1C126.2 154.8 125 160.1 125.8 160.2C126.3 160.3 127.9 158.3 128.2 157.3C128.6 156.3 128.4 155.2 127.7 155.1Z" fill="#FABE82"/>
<path d="M129.6 158.5C130.5 157.7 127.9 154.5 127.4 154.9C127.1 155.2 127.6 157.1 128 157.7C128.5 158.5 129.3 158.9 129.6 158.5Z" fill="#FABE82"/>
<path d="M132.9 154.8C132.8 154.3 132.3 154 131.3 154.2C130.3 154.4 129.5 155 129.6 155.4C129.7 155.9 130.6 156.1 131.6 155.9C132.7 155.7 133 155.3 132.9 154.8Z" fill="#FABE82"/>
<path d="M133.3 156.8C133.2 156.3 132.7 156 131.7 156.2C130.7 156.4 129.9 157 130 157.4C130.1 157.9 131 158.1 132 157.9C133.1 157.7 133.4 157.3 133.3 156.8Z" fill="#FABE82"/>
<path d="M133.6 158.9C133.5 158.4 133 158.1 132 158.3C131 158.5 130.2 159.1 130.3 159.5C130.4 160 131.3 160.2 132.3 160C133.3 159.7 133.7 159.4 133.6 158.9Z" fill="#FABE82"/>
<path d="M126.154 138.07L125.186 138.591L126.893 141.761L127.861 141.239L126.154 138.07Z" fill="#9B9EA5"/>
<path d="M129 150.2L133.1 147L132.3 146.4L129 149.3V150.2Z" fill="#3D404C"/>
<path opacity="0.5" d="M109.7 135.1C109.1 134.4 108.4 133.8 107.6 133.2C107.5 133.1 107.4 133 107.4 132.9C106.7 132.2 104.8 131.6 102.3 131.1C102.2 130.6 100.8 130.2 98.7001 129.9C98.4001 127.8 98.2001 125.4 98.0001 123C97.7001 123 97.3001 123 97.0001 123C95.5001 123 94.0001 123 92.5001 123.1C92.3001 125.4 92.0001 127.8 91.9001 129.7C89.6001 129.9 87.9001 130.2 87.5001 130.7C86.7001 130.8 86 131 85.3 131.2L85.7001 129.9L82.4001 131L82.1001 132.5C81.3001 132.9 80.5001 133.4 79.7001 133.9C84.0001 135.2 90.2001 136.1 97.1001 136.1C101.6 136.2 106 135.8 109.7 135.1Z" fill="#66493D"/>
<path d="M92.0001 125.5C74.5001 129.6 43.4001 103.3 57.7001 71.7C55.1001 41.8 90.1001 36.7 104.1 26.3C104.1 26.3 145.2 89.1 128.5 109.6C112.8 129 92.0001 125.5 92.0001 125.5Z" fill="#87412B"/>
<mask id="mask0" mask-type="alpha" maskUnits="userSpaceOnUse" x="53" y="26" width="80" height="100">
<path d="M92 125.5C73.4 128.1 43.4 103.3 57.7 71.7C55.1 41.8 89.5 38.9 104.1 26.3C104.1 26.3 145.2 89.1 128.5 109.6C112.8 129 92 125.5 92 125.5Z" fill="url(#paint0_linear)"/>
</mask>
<g mask="url(#mask0)">
<path opacity="0.3" d="M92 125.5C73.4 128.1 43.4 103.3 57.7 71.7C55.1 41.8 89.5 38.9 104.1 26.3C104.1 26.3 145.2 89.1 128.5 109.6C112.8 129 92 125.5 92 125.5Z" fill="url(#paint1_linear)"/>
<path d="M102.5 83.1C91.5001 95.8 115.9 100.7 112.9 119.1C116.3 120.4 125.9 113.7 127.7 111.7C146.5 91.3 104.2 26.3 104.2 26.3C100.1 29.2 124.4 57.9 102.5 83.1Z" fill="#662C1D"/>
<path d="M131.4 93C133.3 90 133 86.3 130.6 84.9C128.3 83.4 124.8 84.7 122.9 87.7C121 90.7 119.6 96.4 121.9 97.8C124.3 99.3 129.5 96 131.4 93Z" fill="#FABE82"/>
<path d="M123.7 89.9C124.9 88 127.1 87.2 128.6 88.1C130.1 89 130.3 91.3 129.1 93.3C128.3 94.6 126.5 96 125 96.4C126.9 96 129.2 94.3 130.2 92.6C131.6 90.3 131.4 87.6 129.6 86.6C127.9 85.5 125.3 86.5 123.9 88.7C122.9 90.3 122.1 92.8 122.3 94.6C122.2 93.1 122.9 91.2 123.7 89.9Z" fill="#EFA460"/>
<path d="M125.5 93.7C126 94 126.2 94.6 126.1 95.3C126.3 95.1 126.5 94.9 126.7 94.6C127.5 93.5 127.5 92.2 126.7 91.6C125.9 91 124.6 91.4 123.8 92.5C123.5 93 123.3 93.5 123.2 93.9C124 93.4 124.9 93.3 125.5 93.7Z" fill="#EFA460"/>
<path d="M61.5001 91.8C58.4001 90 54.8001 90.6 53.4001 93C52.1001 95.4 53.5001 98.8 56.6001 100.6C59.7001 102.4 65.4001 103.5 66.8001 101.1C68.2001 98.6 64.6001 93.5 61.5001 91.8Z" fill="#FABE82"/>
<path d="M58.8001 99.7C56.8001 98.6 55.9001 96.4 56.7001 94.9C57.6001 93.4 59.8001 93 61.8001 94.2C63.1001 95 64.6001 96.6 65.1001 98.1C64.6001 96.3 62.7001 94 61.1001 93.1C58.8001 91.8 56.1001 92.2 55.1001 94C54.1001 95.8 55.2001 98.3 57.5001 99.6C59.1001 100.5 61.7001 101.2 63.5001 100.9C62.1001 101 60.1001 100.4 58.8001 99.7Z" fill="#EFA460"/>
<path d="M62.6001 97.7C62.9001 97.2 63.5001 97 64.2001 97C64.0001 96.8 63.8001 96.6 63.5001 96.4C62.4001 95.7 61.0001 95.7 60.5001 96.6C60.0001 97.4 60.4001 98.7 61.6001 99.4C62.1001 99.7 62.6001 99.9 63.0001 99.9C62.3001 99.2 62.1001 98.3 62.6001 97.7Z" fill="#EFA460"/>
<path d="M70.7 87.1C67.7 94.8 58.3 102.3 67.6 114.6C81 132.2 115.7 132.6 126.3 110.3C132.3 97.5 119.7 91.2 115.5 76.4C109.5 56 84.5 51.4 70.7 87.1Z" fill="#FABE82"/>
</g>
<mask id="mask1" mask-type="alpha" maskUnits="userSpaceOnUse" x="63" y="60" width="65" height="68">
<path d="M70.7 87.1C67.7 94.8 58.3 102.3 67.6 114.6C81 132.2 115.7 132.6 126.3 110.3C132.3 97.5 119.7 91.2 115.5 76.4C109.5 56 84.5 51.4 70.7 87.1Z" fill="url(#paint2_linear)"/>
</mask>
<g mask="url(#mask1)">
<path opacity="0.3" d="M70.7 87.1C67.7 94.8 58.3 102.3 67.6 114.6C81 132.2 115.7 132.6 126.3 110.3C132.3 97.5 119.7 91.2 115.5 76.4C109.5 56 84.5 51.4 70.7 87.1Z" fill="url(#paint3_linear)"/>
<path d="M99.4 88.7L112.9 99.2C112.9 99.2 117.7 96.5 118 93L102.2 82C102.1 81.9 99.5 86.4 99.4 88.7Z" fill="#FFD0A6"/>
<path d="M74.5 88L90.2 100.3C90.2 100.3 95 97.6 95.3 94.1L77.7 81.9C77.6 81.8 74.6 85.7 74.5 88Z" fill="#FFD0A6"/>
<path d="M86.7001 78.4C80.5001 77.4 74.8 82 73.8 88.7C72.8 95.3 77.0001 101.5 83.2001 102.5C89.4001 103.5 95.1 98.9 96.1 92.2C97 85.5 92.8001 79.3 86.7001 78.4ZM95.1 92C94.2 98.2 88.9001 102.5 83.2001 101.6C77.6001 100.7 73.8001 95 74.7001 88.7C75.6001 82.5 80.9 78.2 86.6 79.1C92.2 80 96 85.8 95.1 92Z" fill="#FFF0E6"/>
<path d="M110.6 78.8C105.1 77.9 99.8001 82.1 99.0001 88C98.1001 94 101.9 99.5 107.4 100.4C112.9 101.3 118.2 97.1 119 91.2C119.9 85.2 116.1 79.6 110.6 78.8ZM118.2 91C117.4 96.6 112.6 100.5 107.5 99.7C102.4 98.9 99 93.7 99.8 88.1C100.6 82.5 105.4 78.6 110.5 79.4C115.6 80.2 119 85.4 118.2 91Z" fill="#FFF0E6"/>
<path d="M103.9 102.5C103.6 101.1 101.7 100.4 99.6001 100.9C97.6001 101.4 96.2001 102.9 96.5001 104.2C96.8001 105.6 98.7001 106.3 100.8 105.8C102.9 105.3 104.3 103.8 103.9 102.5Z" fill="#EFA460"/>
<path d="M102.2 102.7C101.9 101.6 100.5 101.1 98.9001 101.5C97.3001 101.9 96.3001 103 96.5001 104.1C96.8001 105.2 98.2001 105.7 99.8001 105.3C101.4 104.9 102.4 103.8 102.2 102.7Z" fill="#FABE82"/>
<path d="M109.9 93.1C110.1 92 109.7 91 108.9 90.8C108.1 90.6 107.3 91.4 107.1 92.5C106.9 93.6 107.3 94.6 108.1 94.8C108.9 95 109.7 94.2 109.9 93.1Z" fill="#56473B"/>
<path d="M85.5 93.2C85.7 92.1 85.3 91.1 84.5 90.9C83.7 90.7 82.9 91.5 82.7 92.6C82.5 93.7 82.9 94.7 83.7 94.9C84.5 95 85.3 94.3 85.5 93.2Z" fill="#56473B"/>
<path d="M103.7 109.8C101.4 111.2 99.0001 111.8 96.5001 111.6C92.4001 111.3 89.7001 108.9 89.6001 108.8L90.2001 108.4C90.2001 108.4 92.8001 110.6 96.5001 110.9C99.7001 111.1 102.7 109.9 105.5 107.3L106.2 107.8C105.4 108.7 104.5 109.3 103.7 109.8Z" fill="#B76A4F"/>
<path d="M106.1 109.3C104.8 108.1 104.8 106.6 105.6 105.8L106.3 106.1C105.5 107 106.1 108.5 107.5 109.2L106.9 109.9C106.6 109.7 106.4 109.5 106.1 109.3Z" fill="#B76A4F"/>
<path d="M91.0001 108.1C90.1001 109.6 88.6001 109.9 87.6001 109.3L87.7001 108.6C88.8001 109.2 90.1001 108.3 90.5001 106.8L91.3001 107.3C91.3001 107.6 91.1001 107.9 91.0001 108.1Z" fill="#B76A4F"/>
<path d="M79.5 104.6C79.4 103.5 77.4 102.7 75.1 102.9C72.8 103.1 71 104.1 71.1 105.3C71.2 106.4 73.2 107.2 75.5 107C77.8 106.8 79.6 105.7 79.5 104.6Z" fill="#EFA460"/>
<path d="M113.7 102.8C113.9 103.8 115.8 104.4 117.9 104.1C120.1 103.8 121.7 102.7 121.5 101.7C121.3 100.7 119.4 100.1 117.3 100.4C115.2 100.7 113.5 101.8 113.7 102.8Z" fill="#EFA460"/>
<path d="M118 87.1L122.7 87.8L123.1 88.7L119 88.9L118 87.1Z" fill="#FFF0E6"/>
<path d="M75.0001 94.8L65.9001 95.7L65.6001 94.8L74.3001 92.8L75.0001 94.8Z" fill="#FFF0E6"/>
<path d="M99.1 90.5L95.4 90.8L95.6 91.9L99.3 91.5L99.1 90.5Z" fill="#FFF0E6"/>
<path d="M123 54.4C124.9 58.1 124.3 68.7 122.9 73.3L120.7 71.5C123.4 66.3 122.7 62.5 123 54.4Z" fill="#662C1D"/>
<path d="M118.1 49.4C120.9 52.4 123.4 62.7 123.3 67.6L120.7 66.5C121.9 60.8 120.2 57.3 118.1 49.4Z" fill="#662C1D"/>
</g>
<defs>
<linearGradient id="paint0_linear" x1="115.903" y1="86.8218" x2="76.4517" y2="69.9356" gradientUnits="userSpaceOnUse">
<stop/>
<stop offset="1" stop-color="white"/>
</linearGradient>
<linearGradient id="paint1_linear" x1="115.903" y1="86.8218" x2="76.4517" y2="69.9356" gradientUnits="userSpaceOnUse">
<stop stop-color="#C04B00"/>
<stop offset="1" stop-color="#B73400"/>
</linearGradient>
<linearGradient id="paint2_linear" x1="97.4997" y1="111.212" x2="101.956" y2="129.229" gradientUnits="userSpaceOnUse">
<stop/>
<stop offset="1" stop-color="white"/>
</linearGradient>
<linearGradient id="paint3_linear" x1="97.4997" y1="111.212" x2="101.956" y2="129.229" gradientUnits="userSpaceOnUse">
<stop stop-color="#C04B00"/>
<stop offset="1" stop-color="#B73400"/>
</linearGradient>
</defs>
</svg>
