<svg width="194" height="209" viewBox="0 0 194 209" fill="none" xmlns="http://www.w3.org/2000/svg">
<path d="M97 194C150.572 194 194 150.572 194 97C194 43.4284 150.572 0 97 0C43.4284 0 0 43.4284 0 97C0 150.572 43.4284 194 97 194Z" fill="#F97D7D"/>
<path d="M103.4 114.3L106.5 124.4L120.6 123.6L122.8 113.3C122.9 113.3 111.1 110.1 103.4 114.3Z" fill="#56411D"/>
<path d="M99.7999 206.7C99.7999 206.7 96.8999 180.4 104.3 175.6C111.7 170.8 115.3 171.1 123.5 175.3C131.7 179.5 133.2 207.1 133.2 207.1H126.7C126.7 207.1 121 184 118 183.8C114.9 183.7 110.4 183.3 109.3 184.7C106.6 188.2 106.1 206.7 106.1 206.7H99.7999Z" fill="#E5C028"/>
<path d="M106.8 195.9C107.3 191.2 108.1 186.5 109.3 184.8C110.4 183.4 114.9 183.8 118 183.9C119.5 184 121.8 190 123.6 195.9H132C130.7 187.7 128.2 177.8 123.5 175.3C115.3 171.1 111.6 170.8 104.3 175.6C100.1 178.3 99.2 188 99.3 195.8H106.8V195.9Z" fill="#D8981A"/>
<path d="M93.2999 192.2C92.2999 178.4 87.8999 119.8 110.3 117.3C141.5 113.8 137.9 190.9 137.9 190.9L93.2999 192.2Z" fill="#E5C028"/>
<path d="M112.9 131.3H111.1L112.5 191.1H114.4L112.9 131.3Z" fill="#F7D33C"/>
<path d="M105.9 118.3L112.7 135.1L121.3 118.8C121.3 118.8 112.1 112.9 105.9 118.3Z" fill="#56411D"/>
<path d="M116.2 103.8L108.8 104.3L110.1 119.3C111.3 121.7 116.7 121.1 117.5 118.8L116.2 103.8Z" fill="#AA6F48"/>
<path d="M138.4 186.3L92.8999 187.6V192.2L138.4 190.8V186.3Z" fill="#E2582D"/>
<path d="M133.3 141L94.2 141.8C93.9 143.2 93.7 144.7 93.5 146.2L134.3 145.4C134.1 143.9 133.7 142.4 133.3 141Z" fill="#E2582D"/>
<path d="M114.2 191.5L112.7 133.1L115.3 191.5H114.2Z" fill="#56411D"/>
<g opacity="0.5">
<path opacity="0.5" d="M122.2 120.7C135 136.1 134.4 182.9 134.2 191L137.8 190.9C137.9 190.8 140.5 135.3 122.2 120.7Z" fill="#D8AC1E"/>
<path opacity="0.5" d="M98.7999 126.6C89.6999 144.2 92.4999 181.5 93.2999 192.2L96.7999 192.1C96.0999 180 94.3999 146.1 100.6 127.9C101.9 124 100.6 123.1 98.7999 126.6Z" fill="#D8AC1E"/>
</g>
<path d="M148.6 144.3C145.5 144.3 144.8 145.6 142.2 141.3L138.4 149C138.4 149 134.6 147.6 132.9 150.4C131.5 152.6 134.8 158.3 138.8 155C144.8 150 148.6 144.3 148.6 144.3Z" fill="#E2582D"/>
<path d="M137 153.6C141.5 149.9 144.8 145.8 146.1 143.9C146.9 144.2 147.7 144.3 148.6 144.3C148.6 144.3 144.8 150 138.7 155C136.5 156.8 134.5 155.9 133.4 154.4C134.5 154.8 135.7 154.6 137 153.6Z" fill="#C13E1B"/>
<path d="M133.8 150.9C133.9 150.6 134.3 150.9 135 151C135.7 151.2 136.5 151.1 136.3 151.4C136.2 151.7 135.5 151.8 134.8 151.7C134.2 151.6 133.7 151.2 133.8 150.9Z" fill="#C13E1B"/>
<path d="M80.2 145.9C83.4 146.3 83.7999 147.6 87.0999 143.6L89.9 151.6C89.9 151.6 93.8999 150.7 95.2999 153.6C96.3999 155.9 92.3 161.3 88.7 157.5C83.3 152 80.2 145.9 80.2 145.9Z" fill="#E2582D"/>
<path d="M90.7 156.4C86.7 152.2 83.9999 147.8 82.7999 145.8C81.9999 146 81.1 146 80.2 145.9C80.2 145.9 83.3 152 88.7 157.6C90.7 159.7 92.7999 159 94.0999 157.5C93.0999 157.8 91.8 157.6 90.7 156.4Z" fill="#C13E1B"/>
<path d="M94.2999 154.1C94.1999 153.8 93.7999 154 93.0999 154.1C92.3999 154.2 91.5999 154.1 91.6999 154.4C91.7999 154.7 92.3999 154.9 93.1999 154.8C93.7999 154.7 94.3999 154.4 94.2999 154.1Z" fill="#C13E1B"/>
<path d="M84.9 155.5C77.6 149.9 74.3999 142.5 77.5999 136.5C81.2999 129.4 104.4 120.4 104.4 120.4C104.4 120.4 105.7 125 103.5 126.8C101.3 128.6 88.4999 136 86.7999 139.9C85.6999 142.6 91.2999 147.9 91.2999 147.9L84.9 155.5Z" fill="#E5C028"/>
<path d="M142.5 153.2C149.6 147.4 152.5 139.9 149.1 133.9C145 126.9 121.3 118.7 121.3 118.7C121.3 118.7 120.2 123.3 122.5 125.1C124.9 126.8 138 133.8 139.9 137.7C141.2 140.3 135.7 145.9 135.7 145.9L142.5 153.2Z" fill="#E5C028"/>
<path d="M107 124.1C107 124.1 102.2 114.9 103.5 114.3C104.8 113.7 108.1 123.7 108.1 123.7L107 124.1Z" fill="#F7D33C"/>
<path d="M119 123.1C119 123.1 121.4 113.3 122.9 113.3C124.4 113.3 120.3 122.8 120.3 122.8L119 123.1Z" fill="#F7D33C"/>
<path opacity="0.4" d="M135.9 124.7C130 121.9 123.9 119.6 122 118.9C123 116.3 123.9 113.3 123 113.3H122.9C122.9 113.3 120.4 112.6 116.9 112.3L116.4 106.6C115.7 106.6 115 106.6 114.2 106.6C112.4 106.6 110.7 106.6 108.9 106.7L109.4 112.4C107.3 112.7 105.2 113.3 103.3 114.3C102.7 114.6 103.5 117 104.6 119.4C103.9 119.9 103.2 120.5 102.6 121.1C100.7 121.9 97.4999 123.3 93.8999 125C99.6999 126.1 106.7 126.7 114.2 126.7C122.4 126.7 129.8 126 135.9 124.7Z" fill="#8F3B00"/>
<path d="M98.5999 27.6C99.9999 25.1 104.5 11.2 110.3 27.6H98.5999Z" fill="#E5C028"/>
<path d="M96.0999 28.4C97.1999 26.5 102.3 19.1 104.7 19.7C106.2 20.1 105.1 24.7 106.5 28.8L96.0999 28.4Z" fill="#F7D33C"/>
<path d="M157.6 85L84.7999 76.3L84.3999 113.3C100.8 110.6 137 108.7 154.4 116.9L157.6 85Z" fill="#CC9040"/>
<path d="M59.8 83C54.6 91.2 117.8 146.7 150.6 91.4C152.2 88.6 159.7 65.2 151.1 57C133.7 40.2 91.5999 35 91.5999 35L59.8 83Z" fill="#7C4628"/>
<path d="M143.3 56.3L96.2999 58.8L89.7999 109.8C96.7999 113.8 109.3 116.5 115 116C139.6 114.1 154 84.7 143.3 56.3Z" fill="#AA6F48"/>
<path d="M149.5 54.6H95V67.7H149.5V54.6Z" fill="#7C4628"/>
<path d="M63.2 110.4L82.7 118.7L86.9999 116.8L85.4 60.8H147.3L151.6 116L154.5 116.9C154.5 116.9 165.4 58.7 143.7 39.3C130.5 27.5 116 27 111.5 26.6C92.2999 24.6 37.8 26.5 63.2 110.4Z" fill="#F7D33C"/>
<path d="M155.2 57C146.8 33.6 130.3 23.7 106.4 25.8C109.1 29.3 113.3 50.3 114.9 52C124.1 62.4 147.5 59.9 147.5 59.9L150 61.1L154.5 116.8C154.4 116.9 163.4 79.9 155.2 57Z" fill="#E5C028"/>
<path d="M121.5 95.8C121.4 95 119.9 94.4 118.1 94.5C116.3 94.6 115 95.3 115.1 96.1C115.2 96.9 116.7 97.5 118.5 97.4C120.3 97.4 121.6 96.6 121.5 95.8Z" fill="#7C4628"/>
<path d="M121 95.3C120.9 94.6 119.6 94.1 118.2 94.2C116.7 94.3 115.6 94.9 115.7 95.6C115.8 96.3 117.1 96.8 118.5 96.7C120 96.6 121.1 96 121 95.3Z" fill="#AA6F48"/>
<path d="M69.9 53.5C71.5 49.1 71 45.3 68.8 45.2C66.6 45 63.6 48.4 62 52.8C60.4 57.2 60.8999 60.9 63.0999 61.1C65.2999 61.3 68.4 57.9 69.9 53.5Z" fill="#FFF683"/>
<path d="M134.6 46.3C141.6 51.2 148 52.5 149 49.2C150 45.9 145.2 39.3 138.2 34.4C131.2 29.5 124.8 28.2 123.8 31.5C122.8 34.7 127.6 41.4 134.6 46.3Z" fill="#F7D33C"/>
<path d="M62.2999 66.3C62.1999 64.8 61.5999 63.7 60.9999 63.9C60.2999 64.1 59.7999 65.5 59.8999 67C59.9999 68.5 60.5999 69.6 61.1999 69.4C61.8999 69.3 62.3999 67.9 62.2999 66.3Z" fill="#FFF683"/>
<path d="M82.7 118.7L83.0999 60.5L86.9 60.7L86.9999 116.8L82.7 118.7Z" fill="#D69718"/>
<path d="M110.9 100L123.8 99.7C123.7 99.7 115.9 121.8 110.9 100Z" fill="#4C2616"/>
<path d="M111.7 101L113.6 106.1L118.7 105.9L122 100.6L111.7 101Z" fill="#FFEFE9"/>
<path d="M124.3 99.7C124.2 99.4 124 99.3 123.7 99.3C123.4 99.3 123.2 99.6 123.2 99.8C123.3 100.1 123.5 100.2 123.8 100.2C124.1 100.2 124.3 99.9 124.3 99.7Z" fill="#4C2616"/>
<path d="M111.5 100.1C111.5 99.8 111.2 99.6 110.9 99.7C110.6 99.7 110.4 100 110.4 100.2C110.5 100.5 110.7 100.6 111 100.6C111.3 100.6 111.5 100.4 111.5 100.1Z" fill="#4C2616"/>
<path d="M82.5 63.3C82.5 63.3 153.4 65.4 153.2 60.6C153 55.8 82.7 59.8 82.7 59.8L82.5 63.3Z" fill="#FFF683"/>
<path d="M114.8 52.1C114.8 52.1 108.7 20.8 104.7 19.7C102.9 19.2 100.3 23.1 100.3 23.1C104.7 24.1 109.2 32.2 114.8 52.1Z" fill="#E2582D"/>
<path d="M79.4 150L88.9 145.4C87.9 144.1 86.9 142.6 86.7 141.4L77.2 146C77.7 147.3 78.5 148.6 79.4 150Z" fill="#E2582D"/>
<path d="M150.5 139.3L139 136.4C139.4 136.9 139.7 137.3 139.9 137.7C140.3 138.5 140 139.7 139.5 140.8L149.3 144.7C150.2 142.9 150.6 141 150.5 139.3Z" fill="#E2582D"/>
<path opacity="0.4" d="M138.3 148.6C140.2 146 144.4 139.7 143.1 137.1C141.7 134.1 134.9 130.6 129.1 127.8C126.1 126.4 125.2 126.8 127.6 128.2C132.4 131.1 138.8 135.1 140 137.7C141.3 140.3 135.8 145.9 135.8 145.9L138.3 148.6Z" fill="#D8AC1E"/>
<path d="M134.9 146.1L136.4 144.5L146 151.6L143.7 153.9L134.9 146.1Z" fill="#F7D33C"/>
<path opacity="0.4" d="M86.7998 139.9C87.9998 137 94.9998 132.4 99.5998 129.4C94.0998 131.7 85.3999 134.8 84.1999 138.1C82.9999 141.1 89.8998 149.2 90.0998 149.4L91.2998 148C91.2998 148 85.5998 142.6 86.7998 139.9Z" fill="#D8AC1E"/>
<path d="M92.8 148.2L91.2 146.7L82.5 154.6L84.9 156.8L92.8 148.2Z" fill="#F7D33C"/>
<path d="M107.1 204H98.7999L99.7999 206.6L105.6 208.4L107.1 204Z" fill="#E2582D"/>
<path d="M133.3 202.9L125.8 204.5L127.2 208.4L133.7 206.8L133.3 202.9Z" fill="#E2582D"/>
<path d="M96.8999 208.5H105.6C105.6 208.5 104.9 205.8 103.1 206C101.4 206.2 96.8999 208.5 96.8999 208.5Z" fill="#FFE7BD"/>
<path d="M136.5 208.5H127.3C127.3 208.5 128.1 205 129.9 205.3C131.8 205.6 136.5 208.5 136.5 208.5Z" fill="#FFE7BD"/>
<path d="M138.6 85.6C137.5 79.9 135.8 77 131.4 76.7C122.7 76.1 117.7 90.5 129.4 91.4C133.8 91.7 139.5 90.4 138.6 85.6Z" fill="#7C4628"/>
<path d="M138 85.9C136.9 80.2 135.2 77.3 130.8 77C122.1 76.4 117.1 90.8 128.8 91.7C133.2 92 138.9 90.7 138 85.9Z" fill="#FFF9E9"/>
<path d="M132.7 86.2C133 83.7 131.4 81.6 129.1 81.4C126.8 81.2 124.6 83.1 124.3 85.6C124 88.1 125.6 90.2 128 90.4C130.3 90.5 132.4 88.7 132.7 86.2Z" fill="#79ABC6"/>
<path d="M131.7 84.3C131.8 83.6 131.3 83 130.7 83C130.1 83 129.5 83.5 129.4 84.1C129.3 84.8 129.8 85.4 130.4 85.4C131.1 85.5 131.6 85 131.7 84.3Z" fill="#9ACCE2"/>
<path d="M113.9 84.7C114.7 80.3 113.4 76.8 108.9 76.9C98.0999 77.2 95.5999 91.2 104.5 91C109.1 90.9 113.1 89.6 113.9 84.7Z" fill="#7C4628"/>
<path d="M113.4 85.1C114.2 80.7 112.9 77.2 108.4 77.3C97.5999 77.6 95.0999 91.6 104 91.4C108.5 91.3 112.5 90 113.4 85.1Z" fill="#FFF9E9"/>
<path d="M109.8 86.3C110.1 83.8 108.5 81.7 106.2 81.5C103.9 81.3 101.8 83.2 101.4 85.7C101.1 88.2 102.7 90.3 105 90.5C107.4 90.6 109.5 88.8 109.8 86.3Z" fill="#79ABC6"/>
<path d="M108 83.9C108.1 83.2 107.6 82.6 107 82.6C106.4 82.6 105.8 83.1 105.7 83.7C105.6 84.4 106.1 85 106.7 85C107.3 85.1 107.9 84.6 108 83.9Z" fill="#9ACCE2"/>
<path d="M104.7 68.9L96.3999 70.7L97.0999 73.1L105.4 71.4L104.7 68.9Z" fill="#4F2916"/>
<path d="M140.6 72.7L132.9 69.4L132.1 71.8L139.8 75.1L140.6 72.7Z" fill="#4F2916"/>
</svg>
