<svg width="194" height="217" viewBox="0 0 194 217" fill="none" xmlns="http://www.w3.org/2000/svg">
<path d="M97 194C150.572 194 194 150.572 194 97C194 43.4284 150.572 0 97 0C43.4284 0 0 43.4284 0 97C0 150.572 43.4284 194 97 194Z" fill="#D36290"/>
<path d="M72.1 144.4C72.7 141.6 75.1001 138.4 77.7001 141C80.3001 143.6 82.2001 152.9 85.2001 151.4C88.1001 149.9 94.8 132.8 98.1 135C101.3 137.1 94.6001 160.5 84.5001 159.8C78.7001 159.5 71 149.3 72.1 144.4Z" fill="#966889"/>
<path d="M98.3 135C97.7 142.2 91.9001 156.4 83.9001 155.9C79.5001 155.6 74.1 149.9 72.1 144.9C71.6 149.9 78.9001 159.5 84.7001 159.8C94.8001 160.5 101.4 137.2 98.3 135Z" fill="#7C5072"/>
<path d="M104.7 215.9C101.8 202 90.4 175.6 92.6 165.5L125.7 167.8C125.7 167.8 119 204.3 117.8 215.9H115.2C115.2 215.9 113.1 179.7 107.5 180.3C102.9 180.8 108 215.9 108 215.9H104.7Z" fill="#525D68"/>
<path d="M107 180.5C106.5 179.9 106 179.6 105.4 179.6C101.2 180.1 105 210.6 105.7 215.9H107.9C108 215.9 103.2 183.2 107 180.5Z" fill="#3F4951"/>
<path d="M123.5 167.6C122.4 173.6 117 204.3 115.7 215.9H117.8C119.1 204.2 125.7 167.8 125.7 167.8L123.5 167.6Z" fill="#3F4951"/>
<path d="M124.4 170.4L92.3 169.8L93.1 174.6L123.3 178.4L124.4 170.4Z" fill="#3F4951"/>
<path d="M93.2 172.7C89.5 169.5 93.4 139.5 96.7 135.4C98.6 133.1 120.5 133.9 122.4 134.8C125.2 136.1 129.9 172.1 124.7 172.5C119.4 172.9 94.8 174.1 93.2 172.7Z" fill="#966889"/>
<path d="M104.5 143.1L96.2 155.8L115.7 156.1L104.5 143.1ZM104.5 144.6L113.6 155.1H97.4999L104.5 144.6Z" fill="#E0BB53"/>
<path d="M124.2 137C123.9 136.7 122.8 135.6 121.8 136.7C121.5 147.1 132.5 174.7 92.6 171.9C92.9 172.3 92.9 172.8 94.3 173.1C101.9 174.4 124.1 172.6 124.7 172.5C129.9 172.1 125.4 138.6 124.2 137Z" fill="#7C5072"/>
<path d="M102.4 161C102.4 161 126.1 181.4 126.7 181.4C127.3 181.4 141 172.2 143.4 164.9L120 143.8C120.1 143.8 108.4 150 102.4 161Z" fill="#493C46"/>
<path d="M127.4 150.5C128.3 152.2 129.1 154 129.7 156C132.9 166.1 130.5 175.8 124.5 179.8C125.8 180.8 126.6 181.5 126.7 181.4C127.3 181.4 141 172.2 143.4 164.9L127.4 150.5Z" fill="#3F323D"/>
<path d="M107.8 160.9C107.8 160.9 124.6 175.3 125 175.3C125.4 175.3 135.1 168.8 136.8 163.6L120.3 148.7C120.3 148.8 112 153.2 107.8 160.9Z" fill="#6D5E6A"/>
<path d="M135.1 172.7L133 170.9L132.5 171.3L134.6 173.2L135.1 172.7Z" fill="#6D5E6A"/>
<path d="M120.6 150.5C120.6 150.5 113.4 154.3 109.8 161.1C109.8 161.1 124.4 173.6 124.7 173.6C125 173.6 133.5 168 135 163.5L120.6 150.5ZM124.5 173.1C124.2 173.1 110.4 161.2 110.4 161.2C113.9 154.8 120.7 151.2 120.7 151.2L134.3 163.5C132.9 167.7 124.8 173 124.5 173.1Z" fill="#917E8E"/>
<path d="M121.2 134.9C127 132.3 138.7 147.3 138.6 150.7C138.6 154.1 132.9 165.8 130.8 166.6C128.7 167.4 125.2 165.6 125.9 162.7C126.6 159.8 132.4 154.3 130.8 151.2C129.2 148.1 112.7 138.9 121.2 134.9Z" fill="#966889"/>
<path d="M130.8 151.3C130.8 151.3 130.9 151.4 130.8 151.3C131.1 150.6 131.1 149.8 130.8 149.2C130.2 148 127.3 145.9 124.4 143.6C122.2 141.8 120.5 141.7 122.4 143.6C125.7 146.7 130 149.7 130.8 151.3Z" fill="#7C5072"/>
<path d="M137.3 147.4C137.5 148 137.7 148.5 137.7 148.8C137.7 152.2 132 163.9 129.9 164.7C128.7 165.2 127 164.8 125.9 163.7C126.1 166 129 167.3 130.9 166.6C133 165.8 138.7 154.1 138.7 150.7C138.7 150.1 138.2 148.8 137.3 147.4Z" fill="#7C5072"/>
<path d="M117.2 134.8C117.2 134.2 113.6 133.7 109.1 133.7C104.6 133.7 101 134.2 101 134.8C101 135.4 104.6 135.9 109.1 135.9C113.6 135.9 117.2 135.4 117.2 134.8Z" fill="#7C5072"/>
<path d="M111.4 128H105.5V135H111.4V128Z" fill="#FABE82"/>
<path d="M76.1 140.8C73.5 138.3 71.3 139.5 71.4 140.1C71.6 141.8 73.3 144 73.3 144C75.6 143.9 76.1 143 76.1 140.8Z" fill="#FABE82"/>
<path d="M72.6 140.6C72.7 138.8 66.8 133.7 64.6 136.7C62.3 139.7 65.5 142.6 67.1 142.7C69.1 142.8 72.6 142.6 72.6 140.6Z" fill="#FABE82"/>
<path d="M71.9001 139.8C72.0001 138.5 67.4 134.5 65.3 137C63.1 139.7 66.1 141.8 67.6 141.7C69.1 141.7 71.8001 141.3 71.9001 139.8Z" fill="#F49F60"/>
<path d="M68.2 149.6C68.2 149.6 66.8 142.9 66 136.6C65.8 134.8 65.6 133.1 65.5 131.5C65.3 128.2 65.5 125.8 66.5 125.7C67.3 125.6 68 127.9 68.6 131.1C68.9 132.6 69.1 134.3 69.4 136C70.2 142.3 70.7 149.1 70.7 149.1L68.2 149.6Z" fill="#495256"/>
<path d="M64.4 137.2C64.4 136.7 64.8 136.2 65.9 136.2C67 136.1 67.8 136.5 67.8 137C67.8 137.5 66.9 137.9 65.8 138C64.8 138 64.4 137.7 64.4 137.2Z" fill="#FABE82"/>
<path d="M64.1 139.2C64.1 138.7 64.6 138.3 65.7 138.2C66.8 138.1 67.6 138.5 67.6 139C67.6 139.5 66.7 139.9 65.6 140C64.6 140 64.1 139.7 64.1 139.2Z" fill="#FABE82"/>
<path d="M64.5 141C64.1 140.5 65.1 140.1 66.1 140.1C67.2 140.1 68 140.5 67.9 141C67.8 141.5 66.9 141.8 65.9 141.8C64.9 141.7 64.8 141.4 64.5 141Z" fill="#FABE82"/>
<path d="M69.1 135.9C70.9 135.4 73.4 140.4 72.4 140.7C71.8 140.9 69.5 139.1 68.9 138.2C68.3 137.2 68.3 136.1 69.1 135.9Z" fill="#FABE82"/>
<path d="M67.5 139.7C66.2 139.1 68.7001 135.4 69.4001 135.7C69.8001 135.9 69.6 137.9 69.3 138.6C68.9 139.5 68.1 140 67.5 139.7Z" fill="#FABE82"/>
<path d="M66.8 125.6C66.7 125.1 66.5 124.7 66.4 124.7C66.2 124.7 66.1 125.2 66.2 125.7C66.3 126.2 66.5 126.6 66.6 126.6C66.7 126.5 66.8 126.1 66.8 125.6Z" fill="#495256"/>
<path d="M68.6 131L65.5 131.4L65.6 131.9L68.7 131.6L68.6 131Z" fill="#8A9AA0"/>
<path d="M125.3 168.6C124.3 167.5 124.8 165.6 126 164.7C127.2 163.8 129.5 163.8 129.9 165C130.2 166.2 128.6 167.4 127.7 169.3C126.9 170.7 126.1 169.5 125.3 168.6Z" fill="#FABE82"/>
<path d="M124.3 168.8C125.6 168.1 126.5 167.2 126.3 166.8C126 166.4 125 167.1 123.7 167.9C122.3 168.6 121.1 169.1 121.4 169.5C121.6 169.8 123 169.5 124.3 168.8Z" fill="#FABE82"/>
<path d="M125.4 169.5C126.5 168.6 127.2 167.6 127 167.4C126.7 167.2 125.9 168 124.7 169C123.5 169.9 122.5 170.6 122.8 170.9C123 171.1 124.2 170.5 125.4 169.5Z" fill="#FABE82"/>
<path d="M126.9 170.2C127.8 169.2 128.2 168.2 127.9 168C127.6 167.8 126.9 168.8 126 169.8C125.1 170.8 124.2 171.6 124.6 171.8C125 172 126 171.2 126.9 170.2Z" fill="#FABE82"/>
<path d="M124.6 166C125.8 165.8 126.7 165.3 126.6 164.7C126.5 164.2 125.5 164.5 124.3 164.7C123.1 164.9 122 164.8 122.2 165.4C122.3 165.9 123.4 166.2 124.6 166Z" fill="#FABE82"/>
<path d="M98.7 216.2H108.3C108.3 216.2 107 213.7 106 213.7C102.9 213.7 98.7 216.2 98.7 216.2Z" fill="#BCA269"/>
<path d="M120.1 216.2H113.5C113.5 216.2 113.8 213.7 116.4 213.7C118.4 213.7 120.1 216.2 120.1 216.2Z" fill="#BCA269"/>
<path opacity="0.4" d="M129.6 138.2C127 136 124.3 134.4 122.2 134.7C121.3 134.4 118.5 134.2 115.1 134C114.1 133.9 112.8 133.7 111.4 133.7V128H105.5V133.8C104.5 133.9 103.6 134 102.9 134.1C100.6 134.3 98.7 134.5 97.6 134.9C96.4 134.9 94.9 136.6 93.4 139C97.8 140.3 103.7 141.1 110.3 141.1C118.1 141 125 139.9 129.6 138.2Z" fill="#8F3B00"/>
<path d="M93.9999 122.8C52.7999 93.6 81.2999 31.2 101.3 28.3C123.7 25 105.7 49.6 105.7 49.6C105.7 49.6 113.3 42.2 120 46.2C127.4 50.7 123.8 59.7 123.8 59.7C123.8 59.7 129.9 56.3 133.4 58.9C136.9 61.5 135.1 70.4 135.1 70.4C135.1 70.4 139 66.8 143.1 70.8C149.2 76.8 126.6 120.9 121.2 120.1C119.7 120 93.9999 122.8 93.9999 122.8Z" fill="#4C2E22"/>
<path d="M104 84C106.8 69.8 114.7 58.3 124.3 52.4C123.8 50.2 122.6 47.9 119.8 46.2C113.1 42.2 105.5 49.6 105.5 49.6C105.5 49.6 123.5 25 101.1 28.3C81.1 31.2 66.4 74.2 81 87.1C81 87.1 92.3 95.1 103.5 103C102.7 97.1 102.7 90.7 104 84Z" fill="#754432"/>
<path d="M71.6 104C71.9 101.5 75.3 100.4 79.1 101.5C82.9 102.6 85.7001 105.6 85.4001 108.1C85.1001 110.6 81.7001 111.7 77.9001 110.6C74.0001 109.4 71.2 106.5 71.6 104Z" fill="#FABE82"/>
<path d="M73.3 104.5C73.6 102.6 76.1001 101.8 78.9001 102.6C80.2001 103 81.4001 103.7 82.2001 104.5C81.5001 104 80.8001 103.6 79.9001 103.4C77.4001 102.6 75.1001 103.3 74.9001 104.9C74.7001 106.5 76.6 108.4 79.1 109.1C80.3 109.5 81.4 109.5 82.3 109.3C81.2 109.9 79.6001 110 77.9001 109.5C75.1001 108.6 73 106.4 73.3 104.5Z" fill="#EFA460"/>
<path d="M80.7001 105.2C81.1001 105.3 81.5001 105.4 81.9001 105.6C81.1001 105.7 80.6 106.1 80.6 106.6C80.6 107.1 81.0001 107.6 81.7001 107.9C81.4001 107.9 81.1001 107.9 80.8001 107.9C79.6001 107.7 78.6 107 78.6 106.3C78.5 105.5 79.5001 105.1 80.7001 105.2Z" fill="#EFA460"/>
<path d="M139 103.6C138.7 101.1 135.6 100 132.1 101.1C128.6 102.2 126.1 105.2 126.4 107.7C126.7 110.2 129.8 111.3 133.3 110.2C136.7 109.1 139.3 106.2 139 103.6Z" fill="#FABE82"/>
<path d="M137.4 104.2C137.2 102.3 134.9 101.5 132.2 102.3C131 102.7 129.9 103.4 129.1 104.2C129.7 103.7 130.4 103.3 131.2 103.1C133.5 102.3 135.5 103 135.7 104.6C135.9 106.2 134.2 108.1 131.9 108.8C130.8 109.2 129.8 109.2 128.9 109C129.9 109.6 131.3 109.7 132.9 109.2C135.7 108.3 137.7 106 137.4 104.2Z" fill="#EFA460"/>
<path d="M130.7 104.9C130.3 105 130 105.1 129.6 105.3C130.3 105.4 130.8 105.8 130.8 106.3C130.8 106.8 130.4 107.3 129.8 107.6C130.1 107.6 130.3 107.6 130.6 107.6C131.7 107.4 132.6 106.7 132.6 106C132.7 105.2 131.8 104.7 130.7 104.9Z" fill="#EFA460"/>
<path d="M87.3 59.2C77.6 70 72.4 121.5 105.5 130.4C123.6 135.3 134.4 94 130.4 85.5C118.7 60.5 94.9 51 87.3 59.2Z" fill="#FABE82"/>
<mask id="mask0" mask-type="alpha" maskUnits="userSpaceOnUse" x="79" y="56" width="53" height="75">
<path d="M87.3 59.2C77.6 70 72.4 121.5 105.5 130.4C123.6 135.3 134.4 94 130.4 85.5C118.7 60.5 94.9 51 87.3 59.2Z" fill="url(#paint0_linear)"/>
</mask>
<g mask="url(#mask0)">
<path opacity="0.3" d="M87.3 59.2C77.6 70 72.4 121.5 105.5 130.4C123.6 135.3 134.4 94 130.4 85.5C118.7 60.5 94.9 51 87.3 59.2Z" fill="url(#paint1_linear)"/>
<path d="M98.7 114.8L98.9 114.7C99.6 118.8 110.3 124.8 115 115.3L115.6 115.5C110.6 125.5 99.2 119.1 98.7 114.8Z" fill="#B76A4F"/>
<path d="M110.9 107.7C111 106.3 109.1 106.5 106.5 106.5C103.9 106.5 101.7 106.4 101.6 107.7C101.5 109.1 103.5 110.1 106 110.1C108.6 110.1 110.8 109 110.9 107.7Z" fill="#EFA460"/>
<path d="M86.8 108.6C86.7 109.8 88.5 110.6 90.8 110.8C93.1 111 95.1 110.5 95.2 109.3C95.3 108.1 93.5 107 91.2 106.8C88.9 106.6 86.9 107.4 86.8 108.6Z" fill="#EFA460"/>
<path d="M116.8 109.2C117.1 110.4 119.1 110.6 121.4 110.1C123.7 109.6 125.4 108.6 125.1 107.4C124.8 106.2 122.7 105.7 120.4 106.2C118.1 106.7 116.5 108 116.8 109.2Z" fill="#EFA460"/>
<path d="M110.1 107.4C110.2 106.5 108.9 106.5 107.2 106.4C105.5 106.3 104 106.1 103.9 107.1C103.8 108 105 108.9 106.7 109C108.4 109 109.9 108.3 110.1 107.4Z" fill="#FABE82"/>
<path d="M124.6 98.7C124.1 94.8 120.5 91.9 116.8 92.3C113.2 92.7 111.9 95.9 112.4 99.8C112.9 103.7 115.7 104.1 119.4 103.8C123.1 103.3 125.1 102.6 124.6 98.7Z" fill="#B76A4F"/>
<path d="M124.3 99.4001C123.8 95.5001 120.2 92.6 116.5 93C112.9 93.4 111.6 96.6 112.1 100.5C112.6 104.4 115.4 104.8 119.1 104.5C122.7 104 124.8 103.3 124.3 99.4001Z" fill="#FFF9E9"/>
<path d="M99.7999 98.7C99.3999 94.8 95.9999 91.7 92.2999 91.9C88.5999 92.1 87.1999 95.3 87.5999 99.2C87.9999 103.1 90.8 103.7 94.4 103.5C98 103.2 100.1 102.6 99.7999 98.7Z" fill="#B76A4F"/>
<path d="M99.4 99.4C99 95.5 95.6 92.4 91.9 92.6C88.2 92.8 86.8 96 87.2 99.9C87.6 103.8 90.4 104.4 94 104.2C97.7 103.9 99.8 103.3 99.4 99.4Z" fill="#FFF9E9"/>
<path d="M93.7 87.3C91.4 87.3 89.3 87.8 87.2 88.9L87.2999 90.1C89.3999 89 91.4999 88.5 93.5999 88.4L93.7 87.3Z" fill="#4C2E22"/>
<path d="M115.6 86.6L115.5 87.7C118.4 87.6 119 88.4 122.8 89.5L123.2 88.1C119.5 87.2 118.8 86.5 115.6 86.6Z" fill="#4C2E22"/>
<path d="M121.3 100.3C121.1 98.8 119.8 97.8 118.3 97.9C116.8 98.1 115.8 99.4 116 100.8C116.2 102.3 117.5 103.3 119 103.2C120.4 103.1 121.5 101.8 121.3 100.3Z" fill="#81ADC9"/>
<path d="M96.5 100.9C96.7 99.5 95.7 98.1 94.2 97.9C92.7 97.7 91.4 98.6999 91.2 100.1C91 101.5 92 102.9 93.5 103.1C94.9 103.3 96.3 102.3 96.5 100.9Z" fill="#81ADC9"/>
<path d="M95.4001 99.5C95.5001 99 95.1001 98.6 94.5001 98.5C94.0001 98.4 93.5001 98.7 93.4001 99.2C93.3001 99.7 93.7 100.1 94.3 100.2C94.9 100.3 95.4001 100 95.4001 99.5Z" fill="#AED1E5"/>
<path d="M119.9 99.2C119.8 98.7 119.3 98.4 118.8 98.5C118.3 98.6 117.9 99 117.9 99.5C118 100 118.5 100.3 119 100.2C119.6 100.1 119.9 99.7 119.9 99.2Z" fill="#AED1E5"/>
<path d="M110 76.2C115.5 73.2 116.7 69.6 110.4 69.9C104.1 70.2 99.2999 70.9 106 65.8C112.7 60.6 110.6 59.5 107.8 59.7C107.8 59.7 110.6 56.6 113.3 58.5C121.2 63.9 108.7 64.5999 108.3 67.0999C107.9 69.7999 112.7 65.1999 116.9 70.0999C118.3 71.7999 110 76.2 110 76.2Z" fill="#754432"/>
</g>
<defs>
<linearGradient id="paint0_linear" x1="109.856" y1="113.614" x2="113.901" y2="134.149" gradientUnits="userSpaceOnUse">
<stop/>
<stop offset="1" stop-color="white"/>
</linearGradient>
<linearGradient id="paint1_linear" x1="109.856" y1="113.614" x2="113.901" y2="134.149" gradientUnits="userSpaceOnUse">
<stop stop-color="#C04B00"/>
<stop offset="1" stop-color="#B73400"/>
</linearGradient>
</defs>
</svg>
