<svg width="195" height="212" viewBox="0 0 195 212" fill="none" xmlns="http://www.w3.org/2000/svg">
<path d="M97.3 194C150.872 194 194.3 150.572 194.3 97C194.3 43.4284 150.872 0 97.3 0C43.7284 0 0.300049 43.4284 0.300049 97C0.300049 150.572 43.7284 194 97.3 194Z" fill="#9CD5FF"/>
<path d="M93.7001 25.3C50.1001 28.5 46.2001 64.7 96.0001 64.8C138.9 64.9 140.1 26.8 93.7001 25.3Z" fill="#234154"/>
<path d="M92.9001 39.3C108.7 39.7 119.6 43.5 125.8 48.5C127.2 38.2 116.8 27 93.9001 26.2C73.0001 27.9 62.0001 38.4 62.6001 48.1C69.1001 43.6 79.3001 40.2 92.9001 39.3Z" fill="#2E4F68"/>
<path d="M89.2001 28.6C86.4001 35.2 100.9 38 98.3001 28.2C98.3001 28.2 99.8001 34.1 93.2001 33.3C89.4001 32.9 89.3001 29.7 89.2001 28.6Z" fill="#CCB73B"/>
<path d="M99.1001 28.4C101.8 28.5 106.2 29.8 99.3001 29.5L99.1001 28.4Z" fill="#CCB73B"/>
<path d="M99.3 29.8C101.2 29.9 104.3 30.7 99.5 30.6L99.3 29.8Z" fill="#CCB73B"/>
<path d="M88.4 28.9C85.5 29.1 81 30.5 88.2 30L88.4 28.9Z" fill="#CCB73B"/>
<path d="M88.3001 30.3C86.3001 30.4 83.1001 31.4 88.2001 31.1L88.3001 30.3Z" fill="#CCB73B"/>
<path d="M115.3 161.3C136.8 145 120.3 137.9 108.6 137.3L107.1 130.7C124.7 132 143.3 144.1 118 163.8L115.3 161.3Z" fill="#38566B"/>
<path d="M119.1 161.5C116.4 162.3 107.9 164.6 111.3 167.6C112.7 168.8 114.7 168 115.3 166.5C116 164.9 119.1 161.5 119.1 161.5Z" fill="#FFC388"/>
<path d="M111.5 166.9C111.5 166.2 111.3 165.7 110.9 165.7C110.5 165.7 110.2 166.3 110.2 166.9C110.2 167.6 110.6 167.9 111 167.9C111.4 167.9 111.5 167.6 111.5 166.9Z" fill="#FFC388"/>
<path d="M112.3 167.8C112.3 167.1 112.1 166.6 111.7 166.6C111.3 166.6 111 167.2 111 167.8C111 168.5 111.4 168.8 111.8 168.8C112.2 168.7 112.3 168.4 112.3 167.8Z" fill="#FFC388"/>
<path d="M113.4 168.1C113.4 167.4 113.2 166.9 112.8 166.9C112.4 166.9 112.1 167.5 112.1 168.1C112.1 168.8 112.5 169.1 112.9 169.1C113.3 169.1 113.4 168.8 113.4 168.1Z" fill="#FFC388"/>
<path d="M113.5 168.1C112.8 168.3 112.3 168.6 112.4 168.9C112.5 169.2 113.2 169.2 113.9 169C114.6 168.8 114.8 168.4 114.6 168.2C114.5 167.9 114.1 167.9 113.5 168.1Z" fill="#FFC388"/>
<path d="M110.4 165.2C110.8 166.7 111.3 165.2 112.2 164.7C113.1 164.2 113.7 164 113.5 163.7C113.2 163.2 110.3 164.8 110.4 165.2Z" fill="#FFC388"/>
<path d="M121.5 155.9L113.4 162.6L117.4 166.2L124.9 157.5L121.5 155.9Z" fill="#38566B"/>
<path d="M118.6 158.3L117.7 159.1L121 162L121.8 161.2L118.6 158.3Z" fill="#EFD967"/>
<path d="M116.3 160.3L115.4 161.1L119 164.1L120 163.2L116.3 160.3Z" fill="#EFD967"/>
<path opacity="0.2" d="M121.5 155.9L113.4 162.7L114.6 163.8C137.4 146.8 126.3 136.7 109.2 135.6L108.2 130.9C107.8 130.9 107.4 130.8 107 130.8L108.5 137.4C118.9 137.8 132.9 143.4 121.5 155.9Z" fill="#466777"/>
<path d="M108.4 163.8L81.8001 166.9L78.7001 174C90.5001 176.5 99.0001 176.2 110.9 173.2L108.4 163.8Z" fill="#233D4C"/>
<path d="M83.4001 210.4C81.1001 193.4 80.7001 170.2 83.4001 164.6L108.1 167.4C109.6 175.4 110.7 205.4 110.9 210.4L108.6 210.1C108.6 210.1 103.7 178.5 95.2001 178.7C86.6001 178.9 85.3001 204.6 85.9001 210.2L83.4001 210.4Z" fill="#38566B"/>
<path d="M95.6001 174.9C100.6 174.9 105.2 175.6 109.3 176.9C109 172.6 108.6 168.9 108.1 166.9L83.4001 164.6C82.3001 166.5 81.7001 171.2 81.6001 177C85.7001 175.7 90.5001 174.9 95.6001 174.9Z" fill="#233D4C"/>
<path d="M101 128L91.6001 128.6L91.7001 130.7L101.1 130.6L101 128Z" fill="#84B2B7"/>
<path d="M111.3 134.2C111.4 132.7 110.2 131.5 108.4 131.2C100.5 129.9 91.1001 129.9 82.7001 132.1C81.4001 132.5 82.3001 133.5 82.3001 134.6C81.6001 144.4 82.5001 155.2 81.6001 164.5C81.8001 167.1 106.6 166.5 108.4 163.9C108.7 158.3 110.8 148.3 111.3 134.2Z" fill="#CCF5FF"/>
<path d="M97.0001 131.4L100.5 128.9L102.3 130.4L99.7001 133.7L97.0001 131.4Z" fill="#B0E2EA"/>
<path d="M96.3 131.6L91.8 129.4L89.8 131L92.1 134L96.3 131.6Z" fill="#B0E2EA"/>
<path d="M98.6 132.3L96.2 130.9L93.9 132.1L96.2 133.8L98.6 132.3Z" fill="#263F4C"/>
<path d="M95.6001 133.2L94.5001 138.9L96.2001 142.1L98.1001 139L96.8001 133L95.6001 133.2Z" fill="#263F4C"/>
<path opacity="0.2" d="M111.2 136.7C109.9 148 107.7 157.7 107.4 162.4C104.3 165.8 83.2001 166 83.1001 163.3C83.9001 155.9 81.2001 145.3 80.3001 136.7C80.1001 146 82.4001 155.9 81.6001 164.5C81.8001 167.1 106.6 166.5 108.4 163.9C108.7 158.6 110.5 149.4 111.2 136.7Z" fill="#466777"/>
<path d="M89.9001 130L80.5001 132L81.2001 154.4L78.7001 174L94.0001 170.4L95.4001 166L96.8001 140.2L89.9001 130Z" fill="#38566B"/>
<path d="M102.3 129.9L110.8 131.1C112 131.3 112.9 132.1 112.8 133.1L110.2 153.5L111.1 173.2L96.7001 170L94.6001 165.9L96.2001 140L102.3 129.9Z" fill="#38566B"/>
<path d="M96.1001 130.9L101 127.9L103 129.9L100.1 132.9L96.1001 130.9Z" fill="#CCF5FF"/>
<path d="M96.4 130.9L91.6 128.5L89.3 130L91.9 132.9L96.4 130.9Z" fill="#CCF5FF"/>
<path d="M92.3001 160.1C92.3001 159.6 92.0001 159.1 91.5001 159.1C91.1001 159.1 90.7001 159.5 90.7001 160.1C90.7001 160.6 91.0001 161.1 91.5001 161.1C91.9001 161.1 92.3001 160.6 92.3001 160.1Z" fill="#EFD967"/>
<path d="M93.1001 146.4C93.1001 145.9 92.8001 145.4 92.3001 145.4C91.9001 145.4 91.5001 145.8 91.5001 146.4C91.5001 146.9 91.8001 147.4 92.3001 147.4C92.7001 147.4 93.1001 146.9 93.1001 146.4Z" fill="#EFD967"/>
<path d="M99.4 159.8C99.4 159.3 99.1 158.8 98.6 158.8C98.2 158.8 97.8 159.2 97.8 159.8C97.8 160.3 98.1 160.8 98.6 160.8C99 160.8 99.4 160.3 99.4 159.8Z" fill="#EFD967"/>
<path d="M99.4 146.4C99.4 145.9 99.1 145.4 98.6 145.4C98.2 145.4 97.8 145.8 97.8 146.4C97.8 146.9 98.1 147.4 98.6 147.4C99 147.4 99.4 146.9 99.4 146.4Z" fill="#EFD967"/>
<path d="M106.1 142.7C106.1 142.4 105.8 142.1 105.4 142C105 141.9 104.6 142.1 104.6 142.4C104.6 142.7 104.9 143 105.3 143.1C105.7 143.2 106 143 106.1 142.7Z" fill="#EFD967"/>
<path d="M87.1001 162.5L81.5001 163.6V164.9L87.1001 163.8V162.5Z" fill="#233D4C"/>
<path d="M108.7 163.1L103.2 161.5V162.8L108.7 164.4V163.1Z" fill="#233D4C"/>
<path opacity="0.2" d="M79.4001 137.6C72.9001 140.1 61.9001 147.6 65.0001 152.5C64.5001 147.8 73.7001 141.7 79.6001 139.4L79.4001 137.6Z" fill="#466777"/>
<path opacity="0.2" d="M80.4001 173.6L82.6001 152.5L80.7001 134L81.2001 154.4L78.7001 174L80.4001 173.6Z" fill="#466777"/>
<path opacity="0.2" d="M96.5001 169.7L96.6001 169.9L98.5001 170.3L96.5001 169.7Z" fill="#466777"/>
<path opacity="0.2" d="M95.2 166.5L94.9 167.8L95.1 167L96.4 169.6L95.2 166.5Z" fill="#466777"/>
<path opacity="0.2" d="M112.1 137.5L108.7 151.4L109.5 172.7L111 173.1L110.1 153.4L112.1 137.5Z" fill="#466777"/>
<path d="M108.9 142.4L102.1 141.2V141.8L108.8 143.1L108.9 142.4Z" fill="#EFD967"/>
<path d="M73.2001 157.9C53.1001 152.9 76.2001 140.1 84.3001 137.6L83.8001 131.3C69.6001 133.2 40.1001 157.7 71.7001 162.6C74.7001 163.2 76.0001 158.6 73.2001 157.9Z" fill="#38566B"/>
<path d="M88.2001 162.3C88.2001 162 88.0001 161.9 87.6001 161.8C88.3001 161.8 88.7001 161.5 88.7001 161.1C88.7001 160.9 88.5001 160.7 88.2001 160.7C88.5001 160.6 88.6001 160.4 88.6001 160.2C88.6001 159.8 88.3001 159.7 87.5001 159.6C87.2001 159.6 86.9001 159.6 86.7001 159.6C86.4001 159.5 86.1001 159.5 85.8001 159.4C86.4001 158.2 86.2001 156.5 85.5001 156.5C84.4001 156.6 84.8001 158.2 84.3001 158.6C84.0001 158.9 83.1001 159.3 82.3001 159.6C81.1001 159.7 78.8001 159.6 77.4001 159.6L76.5001 161.1C79.0001 162.6 82.5001 164.2 85.2001 163.4V163.5C85.4001 163.8 86.3001 163.9 87.0001 163.7C87.7001 163.5 88.0001 163 88.0001 162.6C88.1001 162.6 88.2001 162.4 88.2001 162.3Z" fill="#FFC388"/>
<path d="M80.8001 158.5C77.0001 158.5 72.1001 157.4 67.5001 155.7V161.7C71.3001 163.2 74.3001 163.7 78.8001 164.6L80.8001 158.5Z" fill="#38566B"/>
<path d="M76.6001 158.1L74.8001 157.9L73.2001 163.5L74.9001 163.8L76.6001 158.1Z" fill="#EFD967"/>
<path d="M72.5001 157.3L70.8001 156.8L68.6001 162.2L70.6001 162.8L72.5001 157.3Z" fill="#EFD967"/>
<path opacity="0.2" d="M58.4 151.9C57.8 156.2 60.4 160 68.1 162C71.6 163.3 74.5 163.9 78.7 164.7L79.1 163.5C65.8 160.5 59.8 156.3 58.4 151.9Z" fill="#466777"/>
<path d="M99.6001 120.2L92.4001 120.7L92.6001 129.2L95.4001 131.2L96.9001 131.3L99.6001 129V120.2Z" fill="#FFC673"/>
<path d="M85.9001 211.3H75.7001C75.7001 211.3 82.4001 208.4 84.0001 208.8C85.5001 209.1 85.9001 211.3 85.9001 211.3Z" fill="#CCF5FF"/>
<path d="M108 211.3H117.5C117.5 211.3 111.3 208.4 109.8 208.8C108.3 209.1 108 211.3 108 211.3Z" fill="#CCF5FF"/>
<path opacity="0.4" d="M118.5 133.2C116.3 132.4 113.9 131.7 111.5 131.3C111.3 131.2 111 131.1 110.8 131.1L103 130L103.1 129.9L101.1 127.9L100.9 128L99.7001 128.1V120.2L92.5001 120.7L92.7001 128.5L91.7001 128.6L89.5001 130L89.6001 130.1L80.7001 132.1V132.2C79.1001 132.7 77.4001 133.4 75.7001 134.2C80.4001 136.6 88.1001 138.2 96.6001 138.2C106.1 138.2 114.4 136.2 118.5 133.2Z" fill="#8F3B00"/>
<path d="M120.4 77.3C126.2 77.7 133.9 76.8 136.9 67.5C136.9 67.5 125.9 70.4 127 59.2L120.4 77.3Z" fill="#49241B"/>
<path d="M90.5001 123.1C79.7001 123.7 64.3001 120.8 63.8001 115.4C63.8001 115.4 54.8001 116.6 52.9001 110.5C51.0001 104.4 55.2001 102 55.2001 102L53.3001 93.2C53.3001 93.2 49.7001 92.7 50.7001 95.5C51.7001 98.2 37.0001 89.9 51.3001 84.9C51.3001 84.9 48.2001 77.5 53.9001 75.7C53.9001 75.7 38.3001 72.7 42.7001 65.1C47.0001 57.5 56.4001 59.9 56.4001 59.9C56.4001 59.9 50.9001 55.9 60.3001 51.9C64.8001 50 69.1001 52.5 69.1001 52.5C69.1001 52.5 75.1001 49.6 85.6001 50.4C85.6001 50.4 84.1001 45.1 91.3001 45.7C98.6001 46.3 101.8 49.8 101.8 49.8C101.8 49.8 111.9 43.1 116.5 51.9C116.5 51.9 146.8 40 127.9 79.1L90.5001 123.1Z" fill="#49241B"/>
<path d="M98.5 95.1C112.7 92.2 118.1 84.5 124.5 74C124.5 74.3 130.5 74 130.5 74C142.3 77.2 133.2 88.2 133.4 85.2C133.5 82.1 130.9 83.2 130.9 83.2L131.5 92.8C131.5 92.8 135.2 94.7 135.2 101.5C135.2 108.2 128.1 108.3 128.1 108.3C129 114.2 118.2 119.6 109.9 120.6L87.3 96.3C91.1 96.1 94.8 95.8 98.5 95.1Z" fill="#381913"/>
<path d="M98.2001 96C79.2001 96 62.3001 90.2 51.2001 81.2C51.3001 81.4 51.3001 81.6 51.3001 81.6C37.1001 87 51.8001 96.1 50.7001 93.1C49.7001 90.1 53.3001 90.6 53.3001 90.6L55.2001 100.1C55.2001 100.1 51.0002 102.7 52.9002 109.3C54.8001 115.9 63.8002 114.6 63.8002 114.6C64.3002 120.5 79.6002 123.6 90.5001 123L112.6 94.8C108 95.6 103.2 96 98.2001 96Z" fill="#381913"/>
<path d="M75.1001 123C91.5001 130.4 122 128.6 126.4 102.6C129.7 83.3 110.8 35.1 68.8001 74.4C55.4001 86.9 69.8001 120.6 75.1001 123Z" fill="#FFC673"/>
<mask id="mask0" mask-type="alpha" maskUnits="userSpaceOnUse" x="63" y="59" width="64" height="68">
<path d="M75.1001 123C91.5001 130.4 122 128.6 126.4 102.6C129.7 83.3 110.8 35.1 68.8001 74.4C55.4001 86.9 69.8001 120.6 75.1001 123Z" fill="url(#paint0_linear)"/>
</mask>
<g mask="url(#mask0)">
<path opacity="0.3" d="M75.1001 123C91.5001 130.4 122 128.6 126.4 102.6C129.7 83.3 110.8 35.1 68.8001 74.4C55.4001 86.9 69.8001 120.6 75.1001 123Z" fill="url(#paint1_linear)"/>
<path d="M67.3001 101.9C63.5001 99.9 59.1001 98.2 57.5001 103.5C55.9001 108.8 63.5001 112 67.8001 110.6C72.1001 109.2 67.3001 101.9 67.3001 101.9Z" fill="#FFC673"/>
<path d="M72.7001 98.6C73.9001 95.4 77.3001 86.2 92.3001 97.2L72.7001 98.6Z" fill="#FFECDE"/>
<path d="M117.4 97C115.6 94.3 110.2 86.2 100.2 97.2L117.4 97Z" fill="#FFECDE"/>
<path d="M112.6 94.2C112.6 92.7 111.3 91.6 109.9 91.6C108.4 91.6 107.3 92.9 107.3 94.3C107.3 95.8 108.6 96.9 110 96.9C111.5 96.9 112.7 95.7 112.6 94.2Z" fill="#3A291E"/>
<path d="M83.9001 95C83.9001 93.4 82.5001 92.1 80.9001 92.1C79.3001 92.1 78.0001 93.5 78.0001 95.1C78.0001 96.7 79.4001 98 81.0001 98C82.7001 97.9 83.9001 96.6 83.9001 95Z" fill="#3A291E"/>
<path d="M83.1 94.3C83.1 93.7 82.6 93.2 81.9 93.2C81.3 93.2 80.8 93.7 80.8 94.4C80.8 95 81.3 95.5 82 95.5C82.6 95.4 83.1 94.9 83.1 94.3Z" fill="#705241"/>
<path d="M112.1 93.7C112.1 93.1 111.6 92.7 111 92.7C110.4 92.7 110 93.2 110 93.8C110 94.4 110.5 94.8 111.1 94.8C111.7 94.7 112.1 94.2 112.1 93.7Z" fill="#705241"/>
<path d="M100.1 101.3C100 100.1 98.0001 99.4 95.8001 99.7C93.6001 100 91.9001 101.1 92.1001 102.3C92.2001 103.5 94.2001 104.2 96.4001 103.9C98.6001 103.6 100.3 102.5 100.1 101.3Z" fill="#DD9F4E"/>
<path d="M100.1 100.8C100 99.8 98.4001 99.2 96.5001 99.5C94.6001 99.7 93.2001 100.7 93.4001 101.7C93.5001 102.7 95.1001 103.3 97.0001 103C98.8001 102.7 100.2 101.8 100.1 100.8Z" fill="#FFC673"/>
<path d="M70.4001 88.4C72.5001 87.7 81.8001 87.8 83.9001 87C86.0001 86.2 83.9001 83.7 83.9001 83.7L70.4001 88.4Z" fill="#49241B"/>
<path d="M118.4 87.7C116.6 87 108.7 87.1 106.9 86.3C105 85.5 106.8 83 106.8 83L118.4 87.7Z" fill="#49241B"/>
<path d="M65.8001 103.3C63.4001 102.1 60.7001 101 59.7001 104.3C58.7001 107.6 63.5001 109.7 66.2001 108.8C68.9001 107.8 65.8001 103.3 65.8001 103.3Z" fill="#DD9F4E"/>
<path d="M67.2001 105.4C66.1001 104.9 64.9001 104.4 64.5001 105.8C64.0001 107.3 66.2001 108.2 67.4001 107.8C68.5001 107.5 67.2001 105.4 67.2001 105.4Z" fill="#FFC673"/>
<path d="M88.0001 108L103.2 107.8C103.2 107.8 97.1001 124.5 88.0001 108Z" fill="#3F2B1A"/>
<path d="M89.6001 108.7L91.8001 111.8L99.7001 112L102.5 108.3L89.6001 108.7Z" fill="#FFECDE"/>
<path d="M89.1001 108.2C89.1001 107.9 88.8001 107.6 88.4001 107.6C88.0001 107.6 87.6001 107.8 87.6001 108.1C87.6001 108.4 87.9001 108.7 88.3001 108.7C88.8001 108.8 89.1001 108.5 89.1001 108.2Z" fill="#3F2B1A"/>
<path d="M104.2 108.1C104.2 107.8 103.9 107.5 103.5 107.5C103.1 107.5 102.7 107.7 102.7 108C102.7 108.3 103 108.6 103.4 108.6C103.9 108.6 104.2 108.4 104.2 108.1Z" fill="#3F2B1A"/>
<path d="M82.7001 105.4C82.7001 104.3 81.0001 103.4 78.8001 103.4C76.7001 103.4 74.9001 104.3 74.9001 105.4C74.9001 106.5 76.6001 107.4 78.8001 107.4C80.9001 107.4 82.7001 106.5 82.7001 105.4Z" fill="#EFAC5E"/>
<path d="M120.3 103.2C120.3 102.1 118.6 101.2 116.4 101.2C114.3 101.2 112.5 102.1 112.5 103.2C112.5 104.3 114.2 105.2 116.4 105.2C118.6 105.1 120.3 104.3 120.3 103.2Z" fill="#EFAC5E"/>
<path d="M82.7001 69.9C86.7001 72 101.4 64.3 95.8001 57.6L86.2001 58.4C86.2001 58.4 90.2001 67.2 82.7001 69.9Z" fill="#49241B"/>
<path opacity="0.4" d="M115.2 46.4L69.3001 47L68.7001 52.8C68.4001 58.3 84.7001 60.9 93.3001 61.1C103.1 61.3 117.9 59 118.3 51.9L115.2 46.4Z" fill="#711300"/>
</g>
<defs>
<linearGradient id="paint0_linear" x1="93.1369" y1="110.497" x2="90.6353" y2="133.011" gradientUnits="userSpaceOnUse">
<stop/>
<stop offset="1" stop-color="white"/>
</linearGradient>
<linearGradient id="paint1_linear" x1="93.1369" y1="110.497" x2="90.6353" y2="133.011" gradientUnits="userSpaceOnUse">
<stop stop-color="#E55C00"/>
<stop offset="1" stop-color="#B73400"/>
</linearGradient>
</defs>
</svg>
