<svg width="195" height="215" viewBox="0 0 195 215" fill="none" xmlns="http://www.w3.org/2000/svg">
<path d="M97.7 194C151.272 194 194.7 150.572 194.7 97C194.7 43.4284 151.272 0 97.7 0C44.1283 0 0.699951 43.4284 0.699951 97C0.699951 150.572 44.1283 194 97.7 194Z" fill="#FFE861"/>
<path d="M70.6 177.1C68.8 175.6 66.9 174.8 66.4 175.4C65.9 176 67 177.7 68.9 179.2C70.7 180.7 72.6 181.5 73.1 180.9C73.6 180.3 72.5 178.6 70.6 177.1Z" fill="#D3A535"/>
<path d="M68.7 177.9L74.7 170L69.7999 179.2L68.7 177.9Z" fill="#D3A535"/>
<path d="M86.4999 142.6L85.2 130.9L90.4999 131.3L91.9999 141.3L86.4999 142.6Z" fill="#FABE82"/>
<path d="M82.4998 214C82.4998 214 79.9998 178.9 81.7998 173.2L102 168C102 168 112.1 210.4 112.4 213.6L110.4 214.1C110.4 214.1 100.5 183.4 98.2998 182.4C96.0998 181.4 91.9998 179.6 88.8998 184C86.6998 187 84.1999 213.7 84.1999 213.7L82.4998 214Z" fill="#5B4648"/>
<path d="M83.2998 178.9C93.6998 178.7 100.2 176.7 103 173.5C102.9 173.1 102 168 102 168L81.7998 173.2C79.9998 178.9 82.4998 214 82.4998 214L83.6999 213.9C83.4999 209.8 81.5998 184.3 83.2998 178.9Z" fill="#473336"/>
<path d="M98.7998 179.9C97.2998 179.2 95.0998 179.6 92.7998 181.4C94.8998 181 96.8998 181.9 98.2998 182.5C100.5 183.5 110.4 214.2 110.4 214.2L111.5 213.9C110.1 209.7 100.8 180.8 98.7998 179.9Z" fill="#473336"/>
<path d="M81.2 177.6C80.5 176.1 80.3 147 81.6 144.1C82.9 141.2 92.6 137.6 97.1 140.8C99.7 142.7 104.2 172.2 103.1 173.7C101.8 175.3 81.8 178.8 81.2 177.6Z" fill="#DDBFC1"/>
<path d="M87.8999 177C87.2999 175.7 82.9999 151.4 82.5999 142.7C82.0999 143.1 81.6999 143.5 81.5999 144C80.2999 146.9 80.5999 176 81.1999 177.5C81.3999 178 84.5999 177.7 88.4999 177.2C88.1999 177.2 87.9999 177.1 87.8999 177Z" fill="#CC9FA3"/>
<path d="M95.6999 140.1C102.8 141.9 104.2 152.9 109.2 154.8L108.1 158.5C98.9999 151.3 98.7999 144.7 93.3999 142.9L95.6999 140.1Z" fill="#DDBFC1"/>
<path d="M69.4999 159.6C70.5999 153 77.7999 144.3 83.9999 141.9L84.4999 146.7C84.4999 146.7 77.7999 149.5 71.9999 159.3L69.4999 159.6Z" fill="#DDBFC1"/>
<path d="M73.5999 157.6C73.3999 156.6 71.8999 156.1 70.2999 156.4C68.6999 156.7 68.1999 158.3 68.3999 159.3C68.5999 160.3 69.2999 160.3 70.9999 160C72.5999 159.7 73.7999 158.6 73.5999 157.6Z" fill="#C98D93"/>
<path d="M68.4 165.6C67.4 171.3 71.5 176.9 77.5 178C83.6 179.1 89.3 175.3 90.4 169.6C91.4 163.9 87.3 158.3 81.3 157.2C75.2 156.1 69.4 159.9 68.4 165.6Z" fill="#63AEBA"/>
<path d="M84.7 162C84.5 162.2 84.5 163.3 84 163C83.4 162.4 82.8 163.3 83.3 163.3C83.7 163.3 84.1 163.5 84.1 164C84.1 164.6 83.3 165.2 83.3 165.5C83.3 165.6 83.4 165.7 83.4 165.9C83.4 166 83.3 166.2 83.2 166.2C82.9 166.2 82.7 166 82.5 166C82.3 166 82.1 166.2 82.1 166.6C82.1 167 82.3 167.3 82.3 167.7C82.3 168 82 169.1 82 169.3C82 170 82.7 169.7 82.9 170.1C83.1 170.4 83.1 170.8 83.4 170.8C84.3 170.7 85.4 170.2 85.4 169.3C85.4 168.7 85.2 168.9 85 168.6C85 168.4 84.9 168.2 84.9 168C84.9 167.4 85.2 167.3 85.2 166.9C85.2 166.6 84.9 166.8 84.9 166.5C84.9 166.1 85.4 165.4 85.9 165.4C86.9 165.4 86.6 166 86.9 166C87.1 166 87.5 166.3 87.5 166.6C87.5 167.9 87.8 166.6 87.8 166.3C87.8 164.7 86 165.7 86 164.6C86 164.4 86 164.1 86.2 164.1C86.9 164.1 86.4 163.7 86.9 163.7C87.3 163.7 87.6 164.2 87.7 164.2C87.8 164.2 87.8 164.2 87.9 164.2C88 164.3 88.1 164.5 88.2 164.5C88.3 164.5 88.6 164.1 88.6 163.8C88.6 163.1 87.4 162.9 88.2 162.9C88.5 162.9 89 163.4 89 164.1C89 165 88.3 166.2 88.3 166.7C88.3 167.2 89 168.3 87.2 169.1C86.2 169.7 86.4 170.3 86.4 170.5C86.4 171.1 86.2 171.6 86.2 172.3C86.2 172.8 86.3 173.2 86.8 173.2L89.1 172.3C89.3 172.2 89.5 172.1 89.6 172C90 171.2 90.2 170.4 90.4 169.6C91.1 165.8 89.5 162 86.5 159.6C86.5 159.8 86.6 160 86.6 160.1C86.5 161 85.2 161.2 84.7 162Z" fill="#428E96"/>
<path d="M69.7 169.8C69.7 169.6 69.6 169.4 69.6 169.2C69.6 168.7 69.9999 168.7 69.9999 168.3C69.9999 167.9 69.2 167.4 69.2 166.5C69.2 165.5 69.6999 165.9 69.9999 165.8C70.3999 165.5 70.3 164.7 70.7 164.7C70.8 164.7 70.8999 164.7 70.9999 164.7C71.2999 164.7 71.3999 164 71.3999 163.7C71.3999 162.6 70.7999 162.4 71.9999 163.6C72.0999 163.4 72.2 163.1 72.2 162.9C72.2 162 71.4 161.2 70.6 160.8C69.4 162.1 68.5999 163.8 68.2999 165.6C67.8999 167.6 68.1999 169.6 68.9999 171.3C68.9999 171.1 68.8999 171 68.8999 170.8C68.9999 170 69.7 170.6 69.7 169.8Z" fill="#EAE8A4"/>
<path d="M75.3 175.5C74.8 174.8 74.2 174.3 73.8 173.6C73.6 173.3 73.7 172.9 73.2 172.9C72.8 172.9 72.5 173.3 72.1 173.3C71.7 173.3 71.5 173 71.3 173C71.1 173 70.8 173.4 70.3 173.4C70.2 173.4 70.2 173.4 70.1 173.4C71.6 175.5 73.8 177.1 76.4 177.8C76.3 177.7 76.3 177.7 76.2 177.6C75.9 176.9 75.8 176.2 75.3 175.5Z" fill="#CCCC32"/>
<path d="M80.8 164.2C80.3 164.1 80 163.7 79.9 163.7C79.6 163.7 79.7 163.8 79.5 164C79.5 164 79.5 164 79.5 164.1C79.5 164.9 81 165.3 81.3 165.3C81.6 165.3 82 164.9 82 164.5C82.1 164.2 81.3 164.3 80.8 164.2Z" fill="#428E96"/>
<path d="M79.4999 165L79.3999 164.7C79.1999 164.7 79.0999 165.1 79.1999 165.3C79.1999 165.5 79.4999 165.9 79.8999 165.8C79.9999 165.8 79.9999 165.7 79.9999 165.6C79.9999 165.3 79.7999 165.1 79.4999 165Z" fill="#428E96"/>
<path d="M84.8 161.9C84.6 162.1 84.6 163.2 84.1 162.9C83.5 162.3 82.9 163.2 83.4 163.2C83.8 163.2 84.2 163.4 84.2 163.9C84.2 164.5 83.4 165.1 83.4 165.4C83.4 165.5 83.5 165.6 83.5 165.8C83.5 165.9 83.4 166.1 83.3 166.1C83 166.1 82.8 165.9 82.6 165.9C82.4 165.9 82.2 166.1 82.2 166.5C82.2 166.9 82.4 167.2 82.4 167.6C82.4 167.9 82.1 169 82.1 169.2C82.1 169.9 82.7 169.6 83 170C83.2 170.3 83.2 170.7 83.5 170.7C84.4 170.6 85.5 170.1 85.5 169.2C85.5 168.6 85.3 168.8 85.1 168.5C85.1 168.3 85 168.1 85 167.9C85 167.3 85.3 167.2 85.3 166.8C85.3 166.5 85 166.7 85 166.4C85 166 85.5 165.3 86 165.3C87 165.3 86.7 165.9 87 166C87.2 166 87.6 166.3 87.6 166.6C87.6 167.9 87.9 166.6 87.9 166.3C87.9 164.7 86.1 165.7 86.1 164.6C86.1 164.4 86.1 164.1 86.3 164.1C87 164.1 86.5 163.7 87 163.7C87.4 163.7 87.7 164.2 87.8 164.2C87.9 164.2 87.9 164.2 88 164.2C88.1 164.3 88.2 164.5 88.3 164.5C88.4 164.5 88.7 164.1 88.7 163.8C88.7 163.1 87.5 162.9 88.3 162.9C88.6 162.9 89.1 163.4 89.1 164.1C89.1 165 88.4 166.2 88.4 166.7C88.4 167.2 89.1 168.3 87.3 169.1C86.3 169.7 86.5 170.3 86.5 170.5C86.5 171.1 86.3 171.6 86.3 172.3C86.3 172.8 86.4 173.2 86.9 173.2L89.2 172.3C89.4 172.2 89.6 172.1 89.7 172C90.1 171.2 90.3 170.4 90.5 169.6C91.2 165.8 89.6 162 86.6 159.6C86.6 159.8 86.7 160 86.7 160.1C86.6 160.9 85.4 161.1 84.8 161.9Z" fill="#CCCC32"/>
<path d="M89.2999 162.8C89.2999 163.1 89.1999 163.4 89.0999 163.7C89.0999 163.8 89.1999 163.9 89.1999 164.1C89.1999 165 88.4999 166.2 88.4999 166.7C88.4999 167.2 89.1999 168.3 87.3999 169.1C86.3999 169.7 86.5999 170.3 86.5999 170.5C86.5999 171.1 86.3999 171.6 86.3999 172.3C86.3999 172.8 86.4999 173.2 86.9999 173.2L89.2999 172.3C89.4999 172.2 89.6999 172.1 89.7999 172C90.1999 171.2 90.3999 170.4 90.5999 169.6C90.8999 167.2 90.3999 164.8 89.2999 162.8Z" fill="#D8BD80"/>
<path d="M80.1 160.3C80.4 160.6 80.5 162.8 82.4 162.3C83.2 162.2 83.6 161 83.6 160.8C83.6 160.7 83.4 160.6 83.4 160.5C83.4 160.4 83.6 160.4 83.6 160.3C83.6 160.2 83.6 160.1 83.6 160C83.6 158.6 82.8 159.4 82.8 157.8C82.8 157.7 82.8 157.6 82.8 157.5C82.3 157.3 81.7 157.2 81.2 157.1C80.2 156.9 79.1 156.9 78.1 156.9C78 157 78 157.1 78 157.2C78 158.4 79.6 159.7 80.1 160.3Z" fill="#428E96"/>
<path d="M76.4999 163.4C76.3999 163.4 76.3999 163.5 76.2999 163.6H76.4999C76.4999 163.7 76.4999 163.8 76.4999 163.8C76.4999 164.1 76.6999 164.2 76.9999 164.2C77.1999 164.2 77.2999 164.1 77.2999 163.8C77.2999 163.4 76.9999 163.4 76.4999 163.4Z" fill="#428E96"/>
<path d="M74.9999 162.4C74.9999 162 74.9999 161.6 74.8999 161.2C74.8999 161.1 74.7999 161.1 74.7999 161C74.4999 160.8 73.8999 161.5 73.6999 161.9C73.3999 162.6 73.2999 163.8 74.0999 164.2C75.8999 165.2 75.6999 163.1 74.9999 162.4Z" fill="#428E96"/>
<path d="M80.9 164C80.4 163.9 80.1 163.5 80 163.5C79.7 163.5 79.8 163.6 79.6 163.8C79.6 163.8 79.6 163.8 79.6 163.9C79.6 164.7 81.1 165.1 81.4 165.1C81.7 165.1 82.1 164.7 82.1 164.3C82.1 164.1 81.4 164.2 80.9 164Z" fill="#CCCC32"/>
<path d="M79.6 164.9L79.5 164.6C79.3 164.6 79.2 165 79.3 165.2C79.3 165.4 79.6 165.8 80 165.7C80.1 165.7 80.1 165.6 80.1 165.5C80.1 165.2 79.9 165 79.6 164.9Z" fill="#CCCC32"/>
<path d="M80.2 160.2C80.5 160.5 80.6 162.7 82.5 162.2C83.3 162.1 83.7 160.9 83.7 160.7C83.7 160.6 83.5 160.5 83.5 160.4C83.5 160.3 83.7 160.3 83.7 160.2C83.7 160.1 83.7 160 83.7 159.9C83.7 158.5 82.9 159.3 82.9 157.7C82.9 157.6 82.9 157.5 82.9 157.4C82.4 157.2 81.8 157.1 81.3 157C80.3 156.8 79.2 156.8 78.2 156.8C78.1 156.9 78.1 157 78.1 157.1C78.1 158.3 79.7 159.6 80.2 160.2Z" fill="#A5A229"/>
<path d="M76.5999 163.2C76.4999 163.2 76.4999 163.3 76.3999 163.4H76.5999C76.5999 163.5 76.5999 163.6 76.5999 163.6C76.5999 163.9 76.7999 164 77.0999 164C77.2999 164 77.3999 163.9 77.3999 163.6C77.3999 163.2 77.0999 163.2 76.5999 163.2Z" fill="#EAE8A4"/>
<path d="M75.1 162.2C75.1 161.8 75.1 161.4 75 161C75 160.9 74.9 160.9 74.9 160.8C74.6 160.6 74 161.3 73.8 161.7C73.5 162.4 73.4 163.6 74.2 164C76 165 75.8 162.9 75.1 162.2Z" fill="#EAE8A4"/>
<path opacity="0.5" d="M81.3 157.2C75.2 156.1 69.5 159.9 68.4 165.6C67.4 171.3 71.5 176.9 77.5 178C83.6 179.1 89.3 175.3 90.4 169.6C91.5 163.9 87.4 158.3 81.3 157.2ZM89.8 168.5C88.9 173.6 83.7 177 78.3 176C72.9 175 69.2 170.1 70.1 165C71 159.9 76.2 156.5 81.6 157.5C87 158.5 90.7 163.4 89.8 168.5Z" fill="#519DA5"/>
<path opacity="0.6" d="M81.2999 157.2C77.4999 156.5 73.8999 157.7 71.3999 160C73.8999 157.9 77.2999 156.9 80.8999 157.5C86.9999 158.6 91.0999 164.1 89.9999 169.9C89.5999 172.1 88.4999 174 86.9999 175.4C88.6999 173.9 89.9999 171.9 90.3999 169.5C91.4999 163.9 87.3999 158.3 81.2999 157.2Z" fill="#FFEEA8"/>
<path opacity="0.4" d="M70.9999 161.5C69.0999 165.7 71.9 170.9 77.0999 173.3C82.2999 175.6 88.0999 174.2 89.9999 170C91.8999 165.8 89.0999 160.6 83.8999 158.2C78.5999 155.9 72.8999 157.4 70.9999 161.5Z" fill="#FFEEA8"/>
<path opacity="0.5" d="M89.5 163.4C89.4 163.1 89.2 162.9 89 162.9C88.9 162.9 88.9 163.2 89.1 163.6C89.2 163.9 89.4 164.1 89.6 164.1C89.6 164 89.6 163.7 89.5 163.4Z" fill="#519DA5"/>
<path d="M74.7999 170.4C74.7999 169.2 73.9999 168.3 72.9999 168.3C71.9999 168.3 71.2 169.2 71.2 170.4C71.2 171.6 71.9999 172.5 72.9999 172.5C73.9999 172.5 74.7999 171.6 74.7999 170.4Z" fill="#FFD255"/>
<path d="M75.0999 157.6C70.2999 156.4 65.7999 164.7 72.2999 170.6L73.0999 170.4C73.0999 170.4 67.0999 164.5 73.4999 158.6L75.0999 157.6Z" fill="#FFD255"/>
<path d="M72.2 170.1C72.2 170.1 69.3 173.6 70.2 174.4C71.1 175.2 73.2999 171.1 73.2999 171.1L72.2 170.1Z" fill="#FFD255"/>
<path d="M73.3998 170.7C73.2998 170.2 72.9999 169.9 72.5999 169.9C72.1999 169.9 71.8998 170.3 71.9998 170.7C72.0998 171.2 72.3998 171.5 72.7998 171.5C73.0998 171.5 73.3998 171.1 73.3998 170.7Z" fill="#AA8321"/>
<path d="M89.6999 139.5L88.5999 142.3L90.9998 144L92.3998 140.8L89.6999 139.5Z" fill="#5B4648"/>
<path d="M94.7 171.3L92.0999 169.2L90.7999 142.6H91.2999L95.7999 167.2L94.7 171.3Z" fill="#5B4648"/>
<path d="M69.4999 158.5C68.4999 160.5 68.8999 166.7 75.5999 169.7L76.0999 168.8C76.0999 168.8 68.7999 164.8 71.8999 158.1C70.9999 157.1 69.9999 157.6 69.4999 158.5Z" fill="#FABE82"/>
<path d="M109.5 157.7C112.1 158.5 120.2 157.9 124 151L122.8 150.5C122.8 150.5 117.7 158 109 155.3C107.7 156.4 108.3 157.3 109.5 157.7Z" fill="#FABE82"/>
<path d="M110.8 156.4C110.8 154.7 109.9 153.4 108.7 153.4C107.5 153.4 106.6 154.7 106.6 156.4C106.6 158.1 107.5 159.4 108.7 159.4C109.9 159.4 110.8 158 110.8 156.4Z" fill="#C98D93"/>
<path d="M84.8999 141.2L85.7999 138.2L89.6999 139.5L88.3999 143.7L84.8999 141.2Z" fill="#FFDCDF"/>
<path d="M89.7 139.5L91.4999 137.3L94.4999 139.7L93.2 142L89.7 139.5Z" fill="#FFDCDF"/>
<path d="M126.2 149.9C126.8 148.9 127.1 147.7 126 147.3C125 146.9 124.3 147.6 123.6 148.8C122.9 150.2 122 151.3 123.1 151.7C124.2 152.1 125.4 151.3 126.2 149.9Z" fill="#FABE82"/>
<path d="M121.4 152.7L139.2 112.9H139.7L122.8 154.5C122.8 154.6 120 157.1 121.4 152.7Z" fill="#7F6146"/>
<path d="M125 149.1C124.5 148.5 124 148.3 123.8 148.5C123.6 148.8 123.8 149.5 124.2 150C124.7 150.6 125.2 150.8 125.4 150.6C125.7 150.4 125.5 149.7 125 149.1Z" fill="#FABE82"/>
<path d="M125.9 148.1C125.5 147.5 125 147.2 124.8 147.4C124.6 147.6 124.7 148.4 125.1 149C125.5 149.6 126 149.9 126.2 149.7C126.4 149.4 126.3 148.7 125.9 148.1Z" fill="#FABE82"/>
<path d="M126.6 146.9C126.3 146.2 125.8 145.8 125.6 146.1C125.3 146.3 125.3 147 125.6 147.7C125.9 148.4 126.4 148.8 126.6 148.5C126.9 148.3 126.9 147.6 126.6 146.9Z" fill="#FABE82"/>
<path d="M123.9 148.3C124.2 147.6 124.1 147 123.7 147C123.3 147 122.8 147.5 122.5 148.2C122.2 148.9 122.3 149.5 122.7 149.5C123.2 149.5 123.7 149 123.9 148.3Z" fill="#FABE82"/>
<path opacity="0.5" d="M88.3999 146.3C92.7999 145.4 96.7 144.1 99.7 142.5C98.8 141.6 97.7999 140.9 96.5999 140.4C95.9999 140 95.2999 139.8 94.4999 139.6L91.5999 137.2L91.4999 137.3L90.5999 131.2L86.3999 130.9C86.0999 131 85.7999 131 85.4999 131.1H85.3999L86.2 138.2L85.8999 138.1L85.0999 141.1H85.2C84.6 141.4 84.0999 141.7 83.5999 142C81.2999 143 78.9999 144.8 76.7999 147C79.9999 147.4 84.0999 147.2 88.3999 146.3Z" fill="#66493D"/>
<path d="M112.4 100.1C109.2 97.2 109.3 91.8 112.7 88.2C116.1 84.6 121.5 84 124.8 86.9C128 89.8 127.9 95.2 124.5 98.8C121 102.5 115.6 103.1 112.4 100.1Z" fill="#FABE82"/>
<path d="M121.3 103.6C122.7 92.6 126.2 58 86.1999 38.9C86.1999 38.9 86.1999 51.2 77.3999 49.6C68.5999 48 37.7999 75.5 46.4999 100.1C54.9999 124.7 81.9999 133 81.9999 133L121.3 103.6Z" fill="#87412B"/>
<mask id="mask0" mask-type="alpha" maskUnits="userSpaceOnUse" x="44" y="38" width="78" height="95">
<path d="M121.2 103.8C122.6 92.8 126.2 58 86.1999 38.9C86.1999 38.9 86.1999 51.2 77.3999 49.6C68.5999 48 37.7999 75.5 46.4999 100.1C54.9999 124.7 81.9999 133 81.9999 133L121.2 103.8Z" fill="url(#paint0_linear)"/>
</mask>
<g mask="url(#mask0)">
<path opacity="0.3" d="M121.2 103.8C122.6 92.8 126.2 58 86.1999 38.9C86.1999 38.9 86.1999 51.2 77.3999 49.6C68.5999 48 37.7999 75.5 46.4999 100.1C54.9999 124.7 81.9999 133 81.9999 133L121.2 103.8Z" fill="url(#paint1_linear)"/>
<path d="M61.7 58C59.3 64.2 57.6 71.1 56.9 78.3C55 98.8 67.3 117.6 78.4 128.9C70.5 133.5 50.4 117.3 45.1 102.1C39.7 86.5 51.2 67.8 61.7 58Z" fill="#662C1D"/>
<path d="M62.0999 78C68.6999 64.8 92.1999 53.7 107.9 68.2C123.5 82.6 123.1 118.9 108.8 128.9C96.4999 137.5 80.5999 135.9 66.9999 126.3C58.3999 120.3 49.9999 102.4 62.0999 78Z" fill="#FABE82"/>
</g>
<mask id="mask1" mask-type="alpha" maskUnits="userSpaceOnUse" x="56" y="61" width="64" height="74">
<path d="M62.0999 78C68.6999 64.8 92.1999 53.7 107.9 68.2C123.5 82.6 123.1 118.9 108.8 128.9C96.4999 137.5 80.5999 135.9 66.9999 126.3C58.3999 120.3 49.9999 102.4 62.0999 78Z" fill="url(#paint2_linear)"/>
</mask>
<g mask="url(#mask1)">
<path opacity="0.3" d="M62.0999 78C68.6999 64.8 92.1999 53.7 107.9 68.2C123.5 82.6 123.1 118.9 108.8 128.9C96.4999 137.5 80.5999 135.9 66.9999 126.3C58.3999 120.3 49.9999 102.4 62.0999 78Z" fill="url(#paint3_linear)"/>
<path d="M47.7999 107.3C48.0999 103.6 52.3999 101 57.3999 101.5C62.2999 102 65.9999 105.3 65.6999 109C65.3999 112.7 61.0999 115.3 56.0999 114.8C51.0999 114.3 47.3999 111 47.7999 107.3Z" fill="#FABE82"/>
<path d="M57.2 102.5C57.6 102.5 57.8999 102.6 58.2999 102.7C54.6999 102.8 51.6999 104.8 51.3999 107.6C51.0999 110.4 53.6999 113 57.2999 113.7C56.8999 113.7 56.6 113.7 56.2 113.7C52.1 113.3 49 110.5 49.2 107.4C49.5 104.3 53.1 102.1 57.2 102.5Z" fill="#EFA460"/>
<path d="M59.7 106C60.1 106 60.5999 106.1 60.8999 106.2C59.9999 106.5 59.2999 107.1 59.2999 107.9C59.2999 108.7 59.9999 109.3 60.9999 109.7C60.5999 109.8 60.0999 109.9 59.5999 109.9C57.9999 109.9 56.7 109 56.7 107.9C56.7 106.8 58.1 106 59.7 106Z" fill="#EFA460"/>
<path d="M63.0999 110.3L54.8999 75.5L56.1999 100.1L60.1999 111.6L63.0999 110.3Z" fill="#662C1D"/>
<path d="M97.7 91.4L113.7 102.4C113.7 102.4 117.5 99 117.6 95.3L101.6 85C101.6 85 97.7 89 97.7 91.4Z" fill="#FFD0A6"/>
<path d="M69.2 93.9L87.0999 106.5C87.0999 106.5 90.8999 103.1 90.9999 99.4L72.7 87.4C72.8 87.4 69.2 91.5 69.2 93.9Z" fill="#FFD0A6"/>
<path d="M80.4 84.5C74 84 68.6 89.1 68.4 96C68.2 102.9 73.3 108.8 79.8 109.3C86.2 109.8 91.6 104.7 91.8 97.8C91.9 91 86.8 85 80.4 84.5ZM90.8 97.7C90.7 104.1 85.8 109 79.9 108.5C74 108 69.3 102.5 69.5 96C69.6 89.6 74.5 84.7 80.4 85.2C86.3 85.7 90.9 91.3 90.8 97.7Z" fill="#FFF0E6"/>
<path d="M107.9 82.7C102.1 82.2 97.3 86.9 97.1 93.1C97 99.3 101.6 104.7 107.4 105.1C113.2 105.6 118 100.9 118.2 94.7C118.3 88.5 113.7 83.1 107.9 82.7ZM117.3 94.6C117.2 100.4 112.8 104.7 107.4 104.3C102.1 103.9 97.9 98.9 98 93.1C98.1 87.3 102.6 83 107.9 83.4C113.2 83.8 117.4 88.8 117.3 94.6Z" fill="#FFF0E6"/>
<path d="M101.7 106.6C101.8 105.1 100.2 103.7 98.2 103.4C96.1 103.1 94.3 104.1 94.2 105.5C94.1 107 95.7 108.4 97.7 108.7C99.8 109 101.6 108.1 101.7 106.6Z" fill="#EFA460"/>
<path d="M99.9999 106.9C100.1 105.4 98.4999 104 96.4999 103.7C94.3999 103.4 92.5999 104.4 92.4999 105.8C92.3999 107.3 93.9999 108.7 95.9999 109C98.0999 109.3 99.8999 108.3 99.9999 106.9Z" fill="#FABE82"/>
<path d="M108.5 96.8C108.6 95.6 108 94.6 107.2 94.5C106.4 94.4 105.7 95.3 105.6 96.5C105.5 97.7 106.1 98.7 106.9 98.8C107.7 98.8 108.5 98 108.5 96.8Z" fill="#56473B"/>
<path d="M81.6 100C81.7 98.8 81.1 97.8 80.3 97.7C79.5 97.6 78.8 98.5 78.7 99.7C78.6 100.9 79.2 101.9 80 102C80.8 102.1 81.5 101.2 81.6 100Z" fill="#56473B"/>
<path d="M81.4999 114.3C81.2999 113.1 79.1999 112.3 76.8999 112.6C74.5999 112.9 72.7999 114.1 72.9999 115.4C73.1999 116.6 75.2999 117.4 77.5999 117.1C79.9999 116.8 81.6999 115.6 81.4999 114.3Z" fill="#EFA460"/>
<path d="M115.3 106.5C115 105.4 113.1 105 111.1 105.5C109.1 106 107.7 107.3 108 108.4C108.3 109.5 110.2 109.9 112.2 109.4C114.3 108.8 115.6 107.5 115.3 106.5Z" fill="#EFA460"/>
<path d="M68.9999 98L56.4999 101.1L56.2 100.1L68.5999 97L68.9999 98Z" fill="#FFF0E6"/>
<path d="M97.2 94.4L97.7 95.5L91.1 96.4L90.6 95.4L97.2 94.4Z" fill="#FFF0E6"/>
<path d="M89.9999 115.3L104.9 113.7C104.8 113.7 99.7999 136.8 89.9999 115.3Z" fill="#542C23"/>
<path d="M102.8 118.8C103.5 116.3 103.8 114 103.8 114L90.5999 115.3C91.2999 117.1 91.9999 118.5 92.6999 119.8L102.8 118.8Z" fill="#FFF1D2"/>
<path d="M90.5999 115.3C90.5999 114.9 90.2998 114.6 89.8998 114.6C89.4998 114.6 89.0999 114.8 89.0999 115.2C89.0999 115.6 89.3998 115.9 89.7998 115.9C90.1998 116 90.4999 115.7 90.5999 115.3Z" fill="#542C23"/>
<path d="M105.6 114.1C105.6 113.7 105.3 113.4 104.9 113.4C104.5 113.4 104.1 113.6 104.1 114C104.1 114.4 104.4 114.7 104.8 114.7C105.2 114.8 105.5 114.5 105.6 114.1Z" fill="#542C23"/>
</g>
<defs>
<linearGradient id="paint0_linear" x1="72.4288" y1="129.465" x2="101.9" y2="31.3294" gradientUnits="userSpaceOnUse">
<stop/>
<stop offset="1" stop-color="white"/>
</linearGradient>
<linearGradient id="paint1_linear" x1="72.4288" y1="129.465" x2="101.9" y2="31.3294" gradientUnits="userSpaceOnUse">
<stop stop-color="#C04B00"/>
<stop offset="1" stop-color="#B73400"/>
</linearGradient>
<linearGradient id="paint2_linear" x1="85.5542" y1="121.626" x2="84.9964" y2="135.641" gradientUnits="userSpaceOnUse">
<stop/>
<stop offset="1" stop-color="white"/>
</linearGradient>
<linearGradient id="paint3_linear" x1="85.5542" y1="121.626" x2="84.9964" y2="135.641" gradientUnits="userSpaceOnUse">
<stop stop-color="#C04B00"/>
<stop offset="1" stop-color="#B73400"/>
</linearGradient>
</defs>
</svg>
