<svg width="195" height="238" viewBox="0 0 195 238" fill="none" xmlns="http://www.w3.org/2000/svg">
<path d="M97.7 194C151.272 194 194.7 150.572 194.7 97C194.7 43.4284 151.272 0 97.7 0C44.1283 0 0.699951 43.4284 0.699951 97C0.699951 150.572 44.1283 194 97.7 194Z" fill="#F7C45E"/>
<path d="M82.8999 136.4C82.8999 138.4 85.7999 143.3 91.2999 144.2C89.6999 136.8 87.0999 135.1 82.8999 136.4Z" fill="#82CEC1"/>
<path d="M89.0999 130.8C84.1999 134.2 82.3999 137.7 82.3999 141.9C82.3999 147 93.6999 155.7 93.6999 155.7L94.2999 154.3C94.2999 154.3 84.9999 146.6 84.5999 141.6C84.2999 137.9 89.6999 133.7 89.6999 133.7L89.0999 130.8Z" fill="#FABE82"/>
<path d="M86.2999 145.6C85.3999 144.2 84.7999 142.8 84.6999 141.6C84.3999 137.9 89.7999 133.7 89.7999 133.7L89.0999 130.8C84.1999 134.2 82.3999 137.7 82.3999 141.9C82.3999 143.2 83.1999 144.8 84.3999 146.5C84.9999 146.2 85.5999 145.9 86.2999 145.6Z" fill="#F49F60"/>
<rect x="124.18" y="130.487" width="2.22445" height="3.81847" fill="#F49F60"/>
<path d="M122.5 141.2C122.5 141.2 127.3 128.7 128.7 128.8C130 128.9 124.8 142.2 124.8 142.2L122.5 141.2Z" fill="#FABE82"/>
<path d="M127.5 135.1C128.5 131.9 129.3 128.9 128.6 128.8C128 128.8 126.7 131.3 125.5 134.2C126.3 134.4 126.9 134.7 127.5 135.1Z" fill="#F49F60"/>
<path d="M107.3 128C112.4 132.6 123.5 144.8 124.8 142.1C125.6 140.5 109 126 109 126L107.3 128Z" fill="#FABE82"/>
<g filter="url(#filter0_d)">
<path d="M117.066 140L116.212 137.676H112.138L111.312 140H109.716L113.174 130.368H115.232L118.69 140H117.066ZM114.21 131.964H114.14L112.6 136.262H115.75L114.21 131.964ZM117.474 157.902C117.166 157.967 116.788 158.019 116.34 158.056C115.902 158.093 115.491 158.112 115.108 158.112C113.942 158.112 113.083 157.977 112.532 157.706C111.982 157.435 111.613 156.964 111.426 156.292C111.24 155.62 111.146 154.584 111.146 153.184C111.146 151.784 111.24 150.748 111.426 150.076C111.613 149.404 111.982 148.933 112.532 148.662C113.083 148.391 113.942 148.256 115.108 148.256C115.5 148.256 115.911 148.279 116.34 148.326C116.779 148.373 117.138 148.429 117.418 148.494V149.824C116.672 149.731 116.032 149.684 115.5 149.684C114.586 149.684 113.951 149.754 113.596 149.894C113.242 150.034 113.008 150.328 112.896 150.776C112.784 151.224 112.728 152.027 112.728 153.184C112.728 154.341 112.784 155.144 112.896 155.592C113.008 156.04 113.242 156.334 113.596 156.474C113.951 156.614 114.586 156.684 115.5 156.684C116.228 156.684 116.886 156.637 117.474 156.544V157.902ZM117.474 175.902C117.166 175.967 116.788 176.019 116.34 176.056C115.902 176.093 115.491 176.112 115.108 176.112C113.942 176.112 113.083 175.977 112.532 175.706C111.982 175.435 111.613 174.964 111.426 174.292C111.24 173.62 111.146 172.584 111.146 171.184C111.146 169.784 111.24 168.748 111.426 168.076C111.613 167.404 111.982 166.933 112.532 166.662C113.083 166.391 113.942 166.256 115.108 166.256C115.5 166.256 115.911 166.279 116.34 166.326C116.779 166.373 117.138 166.429 117.418 166.494V167.824C116.672 167.731 116.032 167.684 115.5 167.684C114.586 167.684 113.951 167.754 113.596 167.894C113.242 168.034 113.008 168.328 112.896 168.776C112.784 169.224 112.728 170.027 112.728 171.184C112.728 172.341 112.784 173.144 112.896 173.592C113.008 174.04 113.242 174.334 113.596 174.474C113.951 174.614 114.586 174.684 115.5 174.684C116.228 174.684 116.886 174.637 117.474 174.544V175.902ZM111.236 194V184.368H117.662V185.796H112.818V188.428H117.004V189.856H112.818V192.572H117.662V194H111.236ZM110.928 202.368H115.254C116.029 202.368 116.622 202.494 117.032 202.746C117.452 202.998 117.732 203.348 117.872 203.796C118.022 204.235 118.096 204.804 118.096 205.504C118.096 206.176 118.022 206.736 117.872 207.184C117.732 207.632 117.452 207.987 117.032 208.248C116.612 208.509 116.006 208.64 115.212 208.64H112.51V212H110.928V202.368ZM114.61 207.226C115.208 207.226 115.637 207.179 115.898 207.086C116.16 206.983 116.328 206.82 116.402 206.596C116.486 206.363 116.528 205.999 116.528 205.504C116.528 205.009 116.491 204.65 116.416 204.426C116.342 204.202 116.174 204.043 115.912 203.95C115.66 203.847 115.24 203.796 114.652 203.796H112.51V207.226H114.61ZM113.409 230V221.838H110.483V220.368H117.917V221.838H114.991V230H113.409Z" fill="#F49F60"/>
</g>
<path d="M100.1 116.1H95.1V125.4L103.2 124.9L100.1 116.1Z" fill="#FABE82"/>
<path d="M113.6 139.5L118.3 129.1C118.3 129.1 104.2 120.8 102.1 125.8C100.1 130.7 113.6 139.5 113.6 139.5Z" fill="#9FE2D8"/>
<path d="M104.9 124.1C103.6 124.1 102.5 124.6 102.1 125.7C100 130.7 113.6 139.4 113.6 139.4L116.6 132.9C113.8 131 105.6 128.2 104.9 124.1Z" fill="#82CEC1"/>
<path d="M114.5 154.5L115.1 194.6L114.1 194.8L109.9 157.3L114.5 154.5Z" fill="#FABE82"/>
<path d="M114.9 178L114.5 154.5L109.9 157.3L112.2 178H114.9Z" fill="#F49F60"/>
<path d="M102.3 155.7L93.2999 194.6H92.2999L96.9999 157.3L102.3 155.7Z" fill="#FABE82"/>
<path d="M97.0999 178L102.3 155.7L96.9999 157.3L94.2999 178H97.0999Z" fill="#F49F60"/>
<path d="M115.3 152L104.1 150.9L104.6 172.3C110.5 173.2 114 174.1 118.3 172.3L115.3 152Z" fill="#EFD7B4"/>
<path d="M106 154.1L115.4 152.9L115.3 152L104.1 150.9L104.6 172.3C107 172.7 108.9 173 110.7 173.2L106 154.1Z" fill="#E8CAA3"/>
<path d="M107.7 153.4L94.7999 152.6L91.7 171.5C95.4 172.6 103.4 173 107.4 170.9L107.7 153.4Z" fill="#EFD7B4"/>
<path d="M98.2999 154.2L104.9 154.3L104.7 152.7L94.7999 152.6L91.7 171.5C92.7 171.8 93.9999 172 95.3999 172.2L98.2999 154.2Z" fill="#E8CAA3"/>
<path d="M115.5 153.9L115.2 151.9L106 151.2V152L94.7 152.5L93.7 158.5C96.7 156.4 107.5 154.4 115.5 153.9Z" fill="#D6B987"/>
<path d="M94 154.9C97.2 145.9 89.9 136.4 89.6 133.8C89.2 129.3 90.6 121.2 101.9 122.9C107.6 123.8 115 129 115.8 153.3L94 154.9Z" fill="#9FE2D8"/>
<path d="M100.4 154.4C101.2 144 94.1 133.7 93.7 130.7C93.4 128.7 93.2999 125.9 93.8999 123.4C89.9999 125.6 89.3999 130.7 89.5999 133.8C89.7999 136.4 97.1999 145.9 93.9999 154.9L100.4 154.4Z" fill="#82CEC1"/>
<path d="M93.3 195.1H86.6C86.6 195.1 90 192.9 91.8 192.9C93.7 193 93.3 195.1 93.3 195.1Z" fill="#E8D2A7"/>
<path d="M113.6 195.1H119.6C119.6 195.1 116.6 192.9 114.9 192.9C113.3 193 113.6 195.1 113.6 195.1Z" fill="#E8D2A7"/>
<path d="M109.9 155.3L106.3 155.4L106.5 157.5L110.1 156.9L109.9 155.3Z" fill="#E8CAA3"/>
<path d="M82.8999 136.4C86.0999 136.6 87.9999 138.8 91.2999 144.2C91.2999 144.2 100.8 127.4 96.6999 123.9C92.5999 120.4 82.8999 136.4 82.8999 136.4Z" fill="#9FE2D8"/>
<path opacity="0.5" d="M113 126.4C110.6 125.3 107.9 124.3 105.7 124.2C104.6 123.6 103.5 123.2 102.5 123L100.1 116.2H95.0999V123.3C94.5999 123.5 94.2 123.7 93.7 123.9C93.7 123.8 93.6999 123.6 93.7999 123.5C92.9999 124 92.3 124.6 91.7 125.3C89.6 127.1 87.3999 129.8 85.7999 132.2C94.2999 133.4 101.3 125.3 113 126.4Z" fill="#66493D"/>
<path d="M131.3 92.7C130 94.7 133.6 97.8 131.1 99.3C129.3 100.4 126 96 126.4 92.1C126.9 87.7 121.9 88.3 120.3 83.7C117.5 75.7 112.3 78.1 111.8 73.9C111.3 69.3 104.9 64.4 106.6 62.6C108.6 60.6 118.1 49.3 124.6 55C131.4 60.9 135.9 79.2 132.5 82.7C129.7 85.7 134.7 87.1 131.3 92.7Z" fill="#632B15"/>
<path d="M122.8 53.9C122.4 50.9 120.3 48.7 118 49C115.8 49.3 114.3 51.9 114.6 54.9C115 57.9 117.1 60.1 119.4 59.8C121.7 59.6 123.2 56.9 122.8 53.9Z" fill="#632B15"/>
<path d="M121.2 62.6C120.7 58.7 117.9 55.8 114.9 56.2C112 56.6 110 60.1 110.5 64C111 67.9 113.8 70.8 116.8 70.4C119.7 70.1 121.7 66.6 121.2 62.6Z" fill="#632B15"/>
<path d="M123.9 71.9C123.2 66.7 119.5 62.9 115.6 63.4C111.7 63.9 109.1 68.5 109.8 73.7C110.5 78.9 114.2 82.7 118.1 82.2C122 81.7 124.6 77.1 123.9 71.9Z" fill="#632B15"/>
<path d="M87.7999 108.9C83.7999 115 72.9999 122.6 70.3999 113.1C70.3999 113.1 65.8 120.7 63.1 113.1C63.1 113.1 55.2 124.8 46.6 120.5C38 116.2 42.8999 109.2 42.8999 109.2C42.8999 109.2 36.0999 113 35.8999 105C35.6999 97 43.3999 100 43.3999 100C43.3999 100 31.5 92.4 52 64.1C52 64.1 43.5999 49.9 77.7999 43.7C77.7999 43.7 108.2 30 114.1 46.6C114.1 46.6 131.1 44.7 112.1 67.5C93.1 90.4 87.7999 108.9 87.7999 108.9Z" fill="#874223"/>
<path d="M84.1 89.9C67.8 96.3 51.7 96.9 40 92.7C40.4 98.1 43.3999 99.9 43.3999 99.9C43.3999 99.9 35.6999 96.9 35.8999 104.9C36.0999 112.9 42.8999 109.1 42.8999 109.1C42.8999 109.1 38.1 116.2 46.6 120.4C55.2 124.7 63.1 113 63.1 113C65.7 120.6 70.3999 113 70.3999 113C72.9999 122.6 83.7999 114.9 87.7999 108.8C87.7999 108.8 91.4 96.4 103 79.3C97.5 83.5 91.1 87.1 84.1 89.9Z" fill="#632B15"/>
<path d="M116.2 115.2C124.3 110.9 137.4 98.4 125.3 78.7C115.6 63 108.7 55 88.0999 59C78.5999 60.8 53.9999 82.2 65.4999 103.1C76.9999 123.9 110.1 118.4 116.2 115.2Z" fill="#FABE82"/>
<mask id="mask0" mask-type="alpha" maskUnits="userSpaceOnUse" x="62" y="57" width="69" height="62">
<path d="M116.2 115.2C124.3 110.9 137.4 98.4 125.3 78.7C115.6 63 108.7 55 88.0999 59C78.5999 60.8 53.9999 82.2 65.4999 103.1C76.9999 123.9 110.1 118.4 116.2 115.2Z" fill="url(#paint0_linear)"/>
</mask>
<g mask="url(#mask0)">
<path opacity="0.3" d="M116.2 115.2C124.3 110.9 137.4 98.4 125.3 78.7C115.6 63 108.7 55 88.0999 59C78.5999 60.8 53.9999 82.2 65.4999 103.1C76.9999 123.9 110.1 118.4 116.2 115.2Z" fill="url(#paint1_linear)"/>
<path d="M103.6 69.9C113.5 70.7 120.3 62.3 112.4 55L102.3 57.6C102.3 57.5 121.2 61.1 103.6 69.9Z" fill="#874223"/>
<path d="M73.8999 71.2C78.8999 72.5 86.3999 65 86.6999 58.4L78.4999 58.8C78.4999 58.8 83.9999 67.5 73.8999 71.2Z" fill="#874223"/>
<path d="M104.4 62.8C100.1 68.7 88.2 65.4 94.6 55.6L98.8 54.3C98.7 54.3 92.7 65.1 104.4 62.8Z" fill="#874223"/>
<path d="M68.4999 100.7C62.7999 100.2 59.4999 102.9 60.4999 106.9C61.4999 110.9 70.1999 110.1 73.1999 107.4C76.1999 104.7 68.4999 100.7 68.4999 100.7Z" fill="#FABE82"/>
<path d="M67.3 102.6C63.7 102.3 61.6 104 62.2 106.6C62.8 109.1 68.4 108.7 70.3 106.9C72.2 105.2 67.3 102.6 67.3 102.6Z" fill="#EFA065"/>
<path d="M68.7999 103.3C66.6999 103.1 65.4999 104.1 65.8999 105.6C66.2999 107.1 69.3999 106.8 70.4999 105.8C71.5999 104.8 68.7999 103.3 68.7999 103.3Z" fill="#FABE82"/>
<path d="M67.2999 102C70.4999 102.6 69.9999 107.7 74.2999 107.2C77.7999 106.8 75.9999 100.5 71.3999 98.1C66.7999 95.7 71.9999 92.5 69.1999 89.1C65.1999 84.1 71.1999 81.3 68.1999 79.8C65.2999 78.3 66.4999 73.3 64.1999 74.1C61.6999 75 51.1999 78.2 49.9999 82.5C48.5999 87.4 54.0999 96.8 58.4999 96.6C62.8999 96.5 59.8999 100.5 67.2999 102Z" fill="#874223"/>
<path d="M91.5999 95.2C91.5999 95.2 86.4999 85.5 93.8999 83.9C101.3 82.3 103.7 91.1 102.7 92.4C101.6 93.8 95.0999 95 91.5999 95.2Z" fill="#96273D"/>
<path d="M92.3999 95.2C92.3999 95.2 87.6999 86 94.4999 84.5C101.3 83 103.5 91.3 102.6 92.6C101.6 93.8 95.5999 95 92.3999 95.2Z" fill="#FFECDE"/>
<path d="M122.9 89.6C122.9 89.6 124 79.3 117.1 80.3C110.2 81.3 111 89.9 112.4 90.8C113.7 91.7 119.8 90.6 122.9 89.6Z" fill="#96273D"/>
<path d="M123.2 89.7C123.2 89.7 124.3 79.9 117.7 80.9C111.1 81.9 112 90.1 113.2 90.9C114.5 91.6 120.3 90.6 123.2 89.7Z" fill="#FFECDE"/>
<path d="M102.1 99.8L113.2 98.4C113.2 98.4 111.6 105.9 108 106.2C105.2 106.3 102.1 99.8 102.1 99.8Z" fill="#4C301D"/>
<path d="M105.2 103.2L103 100.1L112.3 99.1L110.9 102.6L105.2 103.2Z" fill="#FFEADC"/>
<path d="M110.9 94.3C110.8 93.5 109.6 93 108.1 93.1C106.7 93.2 105.6 94 105.6 94.8C105.7 95.6 106.9 96.1 108.4 96C109.9 95.8 110.9 95.1 110.9 94.3Z" fill="#EFA065"/>
<path d="M110.6 93.8C110.5 93.1 109.5 92.7 108.3 92.8C107.1 92.9 106.2 93.6 106.3 94.2C106.4 94.9 107.4 95.3 108.6 95.2C109.7 95.1 110.7 94.5 110.6 93.8Z" fill="#FABE82"/>
<path d="M99.3999 90.6C99.1999 88.9 97.8999 87.7 96.4999 87.8C95.0999 88 94.0999 89.5 94.2999 91.1C94.4999 92.8 95.7999 94 97.1999 93.9C98.5999 93.7 99.5999 92.2 99.3999 90.6Z" fill="#71A8B5"/>
<path d="M120.7 87C120.5 85.4 119.3 84.2 118 84.3C116.6 84.4 115.7 85.8 115.8 87.5C116 89.1 117.2 90.3 118.5 90.2C119.9 90.1 120.9 88.6 120.7 87Z" fill="#71A8B5"/>
<path d="M119.5 86.5C119.4 85.9 119 85.4 118.4 85.4C117.9 85.4 117.5 86 117.5 86.6C117.6 87.2 118 87.7 118.6 87.7C119.2 87.7 119.6 87.2 119.5 86.5Z" fill="#9BD3DD"/>
<path d="M98.2 89.9C98.1 89.2 97.6 88.7 97 88.8C96.4 88.9 96 89.4 96.1 90.1C96.2 90.8 96.7 91.3 97.3 91.2C97.9 91.2 98.3 90.6 98.2 89.9Z" fill="#9BD3DD"/>
<path d="M102.5 99.8C102.5 99.4 102.2 99.1 101.9 99.1C101.5 99.1 101.3 99.4 101.3 99.8C101.3 100.2 101.6 100.5 101.9 100.5C102.2 100.5 102.5 100.2 102.5 99.8Z" fill="#4C301D"/>
<path d="M113.8 98.5C113.8 98.1 113.5 97.8 113.2 97.8C112.8 97.8 112.6 98.1 112.6 98.5C112.6 98.9 112.9 99.2 113.2 99.2C113.6 99.2 113.8 98.9 113.8 98.5Z" fill="#4C301D"/>
<path d="M95.1 99.7C95 98.8 92.9 98.5 90.6 98.9C88.3 99.3 86.5 100.3 86.7 101.2C86.8 102.1 88.9 102.4 91.2 102C93.5 101.6 95.3 100.5 95.1 99.7Z" fill="#EFA065"/>
<path d="M128.5 94.6C128.4 93.7 126.3 93.4 124 93.8C121.7 94.2 119.9 95.2 120 96.1C120.1 97 122.2 97.3 124.5 96.9C126.9 96.5 128.7 95.5 128.5 94.6Z" fill="#EFA065"/>
<path d="M85.2 84.2C85.1 84.4 90.5 79.2 92.5 78.4C92.5 78.3 89.2 77.1 85.2 84.2Z" fill="#874223"/>
<path d="M120.1 75.2C120.3 75.3 113 75.2 111.1 75.8C111 75.8 112.5 72.8 120.1 75.2Z" fill="#874223"/>
<path d="M65.4 101.3C60.6 100.6 53.4 92.9 57.2 84.6C57.2 84.6 50.2 90 50.6 96L65.4 101.3Z" fill="#632B15"/>
<path opacity="0.5" d="M103.9 73.1C106.4 72.7 120.4 70.6 119.8 54.8C86.5999 50.4 68.6999 46.6 54.7999 53.6C53.8999 57.7 50.4999 62.4 50.9999 65.5C49.9999 66.9 47.6999 70.3 46.8999 71.6C68.0999 64.1 78.2999 77.4 103.9 73.1Z" fill="#996553"/>
<path d="M74.1999 32.8C52.2999 38.4 47.7999 57.9 50.4999 68C69.6999 52.5 113.1 48.5 119.8 55.9C112.7 35.1 98.9999 26.5 74.1999 32.8Z" fill="#FFE2AE"/>
<path d="M70.4999 51.3C70.4999 44.4 72.3999 38 75.7999 32.4C75.0999 32.5 74.4999 32.7 73.7999 32.9C51.8999 38.5 47.0999 58.8 49.7999 69C55.2999 64.5 62.8999 60.9 71.0999 58.3C70.6999 55.9 70.4999 53.6 70.4999 51.3Z" fill="#D8503F"/>
<path d="M63.6 59.9C63.6 59.9 92.7 32.9 132.1 40.7C152.3 44.7 119.8 56.9 119.8 56.9C112.8 50.5 91.4 54.7 64.8 60.8C63.3 61.2 63.2 60.7 63.6 59.9Z" fill="#D8BF95"/>
<path d="M64.2 61C64.2 61 93.3 34 132.7 41.8C152.9 45.8 119.8 58.7 119.8 58.7C112.5 51.9 93.4 54 64.2 61Z" fill="#755D54"/>
</g>
<defs>
<filter id="filter0_d" x="105.716" y="130.368" width="16.974" height="107.632" filterUnits="userSpaceOnUse" color-interpolation-filters="sRGB">
<feFlood flood-opacity="0" result="BackgroundImageFix"/>
<feColorMatrix in="SourceAlpha" type="matrix" values="0 0 0 0 0 0 0 0 0 0 0 0 0 0 0 0 0 0 127 0"/>
<feOffset dy="4"/>
<feGaussianBlur stdDeviation="2"/>
<feColorMatrix type="matrix" values="0 0 0 0 0 0 0 0 0 0 0 0 0 0 0 0 0 0 0.25 0"/>
<feBlend mode="normal" in2="BackgroundImageFix" result="effect1_dropShadow"/>
<feBlend mode="normal" in="SourceGraphic" in2="effect1_dropShadow" result="shape"/>
</filter>
<linearGradient id="paint0_linear" x1="93.9421" y1="88.4741" x2="113.012" y2="118.637" gradientUnits="userSpaceOnUse">
<stop/>
<stop offset="0.9892" stop-color="#B3B3B3"/>
</linearGradient>
<linearGradient id="paint1_linear" x1="93.9421" y1="88.4741" x2="113.012" y2="118.637" gradientUnits="userSpaceOnUse">
<stop stop-color="#C04B00"/>
<stop offset="0.9892" stop-color="#B73400"/>
</linearGradient>
</defs>
</svg>
