<svg width="195" height="230" viewBox="0 0 195 230" fill="none" xmlns="http://www.w3.org/2000/svg">
<path d="M97.7 194C151.272 194 194.7 150.572 194.7 97C194.7 43.4284 151.272 0 97.7 0C44.1283 0 0.699951 43.4284 0.699951 97C0.699951 150.572 44.1283 194 97.7 194Z" fill="#8475D3"/>
<path d="M70.5999 149.8C50.7999 125.3 29.4999 60 77.9999 59.2C90.3999 23.3 188.1 40.4 127.7 147.1L70.5999 149.8Z" fill="#F78B2B"/>
<path d="M135.4 75.2C132 96.1 115.6 112 95.7999 112C79.7999 112 65.8999 101.6 59.3999 86.5C58.2999 107.6 67.6 135.6 76.6 149.8L121.1 147.1C134.9 115.7 138.1 92 135.4 75.2Z" fill="#E56C1A"/>
<path d="M94.2999 228.4C94.2999 228.4 86.3999 187.2 90.3999 175.1L93.4999 175.2L96.0999 228.9L94.2999 228.4Z" fill="#FABE82"/>
<path d="M95.2999 212L93.4999 175.2L90.3999 175.1C88.0999 182 89.8999 199.4 91.5999 212.1L95.2999 212Z" fill="#F49F60"/>
<path d="M103 229.1C103 229.1 107.1 190.8 102.1 182L99.2 182.3L100.9 228.4L103 229.1Z" fill="#FABE82"/>
<path d="M100.3 211.7L99.2 182.3L102.1 182C104.8 186.8 104.8 200.4 104.3 211.7H100.3Z" fill="#F49F60"/>
<path d="M87.1999 207.7L109.3 206.7C109.3 206.7 124.3 141.4 102.4 136.8C71.6999 130.4 87.1999 207.7 87.1999 207.7Z" fill="#4C2E22"/>
<path d="M106.9 138.9C106.9 137.7 103 135.3 98.7999 135.3C94.5999 135.3 90.9999 137.7 90.9999 138.9C90.9999 140.1 94.4999 139.7 98.7999 139.7C103 139.7 106.9 140.1 106.9 138.9Z" fill="#873E25"/>
<path d="M94.7 137V128.1C100.5 128.6 100.5 128.6 100.5 128.6L101.6 137.5C99.8999 138.7 95.8 138.9 94.7 137Z" fill="#FFCB9C"/>
<path d="M89.4999 189.1L86.8999 184.2L89.2999 177.9L91.5999 183.9L89.4999 189.1Z" fill="#7C4A39"/>
<path d="M93.8999 189.1L91.3999 184.3L93.8999 178L96.0999 183.9L93.8999 189.1Z" fill="#7C4A39"/>
<path d="M98.2 188.8L95.7 183.9L98.2999 177.6L100.4 183.6L98.2 188.8Z" fill="#7C4A39"/>
<path d="M102.6 188.9L100.2 184L102.9 177.7L104.9 183.6L102.6 188.9Z" fill="#7C4A39"/>
<path d="M107 188.7L104.7 183.8L107.5 177.5L109.4 183.5L107 188.7Z" fill="#7C4A39"/>
<path d="M89.3 178.3L86.5 173.6L89.1 167.6L91.5 173.4L89.3 178.3Z" fill="#7C4A39"/>
<path d="M93.8999 178.4L91.2999 173.7L93.8999 167.8L96.2 173.5L93.8999 178.4Z" fill="#7C4A39"/>
<path d="M98.3999 178.1L95.7999 173.5L98.5999 167.5L100.8 173.2L98.3999 178.1Z" fill="#7C4A39"/>
<path d="M103.1 178.2L100.6 173.6L103.4 167.6L105.5 173.3L103.1 178.2Z" fill="#7C4A39"/>
<path d="M107.7 178.2L105.3 173.5L108.2 167.5L110.3 173.3L107.7 178.2Z" fill="#7C4A39"/>
<path d="M88.9999 168.5L86.2 163.8L88.7 158.2L91.2 163.7L88.9999 168.5Z" fill="#7C4A39"/>
<path d="M93.8 168.6L91 164L93.5 158.4L96 163.8L93.8 168.6Z" fill="#7C4A39"/>
<path d="M98.5 168.5L95.6 163.8L98.1 158.2L100.6 163.6L98.5 168.5Z" fill="#7C4A39"/>
<path d="M103.2 168.6L100.4 164L102.9 158.3L105.4 163.8L103.2 168.6Z" fill="#7C4A39"/>
<path d="M108 168.6L105.2 164L107.7 158.3L110.1 163.8L108 168.6Z" fill="#7C4A39"/>
<path d="M88.7 158.9L86.2999 154.2L89.0999 149.1L91.0999 154.1L88.7 158.9Z" fill="#7C4A39"/>
<path d="M93.4999 159.2L90.8999 154.5L93.3999 149.4L95.6999 154.4L93.4999 159.2Z" fill="#7C4A39"/>
<path d="M98.2 159.1L95.2999 154.4L97.7 149.3L100.2 154.3L98.2 159.1Z" fill="#7C4A39"/>
<path d="M103.1 159.4L100 154.7L102.1 149.5L104.9 154.6L103.1 159.4Z" fill="#7C4A39"/>
<path d="M108 159.6L104.7 154.8L106.6 149.6L109.6 154.7L108 159.6Z" fill="#7C4A39"/>
<path opacity="0.4" d="M113.5 174.7C109.2 162.6 111.1 162.2 105.4 152.9C104.9 152.1 103.9 151.7 102.9 152C95.0999 154.7 89.5999 156.7 82.5999 161C82.1999 161.3 81.9999 161.7 82.0999 162.2C85.4999 173.9 89.5999 181.7 95.7999 193C95.8999 193.3 96.2999 193.4 96.5999 193.3C105.4 191 107.7 189.7 112.6 187C113.1 186.9 113.6 175.2 113.5 174.7Z" fill="#8F3B00"/>
<path d="M119.4 179.7C115.1 167.6 112.1 159.3 106.4 150C105.9 149.2 104.9 148.8 103.9 149.1C96.0999 151.8 90.5999 153.8 83.5999 158.1C83.1999 158.4 82.9999 158.8 83.0999 159.3C86.4999 171 90.5999 178.8 96.7999 190.1C96.8999 190.4 97.2999 190.5 97.5999 190.4C106.4 188.1 111.1 185.5 118.9 180.9C119.3 180.6 119.5 180.1 119.4 179.7Z" fill="#AF9456"/>
<path d="M106.9 149.7C106.4 148.9 105.4 148.5 104.4 148.8C96.5999 151.5 91.0999 153.5 84.0999 157.8C83.6999 158.1 83.4999 158.5 83.5999 159C86.9999 170.7 91.0999 178.5 97.2999 189.8C97.3999 190.1 97.7999 190.2 98.0999 190.1C106.9 187.8 111.6 185.2 119.4 180.6C119.8 180.3 120 179.8 119.8 179.4C115.7 167.3 112.6 159 106.9 149.7Z" fill="#E0CB96"/>
<path d="M100.5 150.9C94.9 152.9 90.3 154.8 84.8 158.3C84.4 158.5 84.2 159 84.4 159.4C87.4 169.7 91 176.9 96.2 186.4L100.5 150.9Z" fill="#E8D3A6"/>
<path d="M108.2 185.9C111.6 184.4 114.8 182.6 118.8 180.2C119.2 180 119.4 179.5 119.2 179C117.1 172.9 115.2 167.8 113.2 163L108.2 185.9Z" fill="#E8D3A6"/>
<path d="M101.3 167.2C101.3 167.3 101.3 167.3 101.3 167.2C102 168.8 101.3 170.5 99.6999 171.2C99.5999 171.2 99.4999 171.3 99.3999 171.3C100.1 172.7 101.9 173.3 103.4 172.7C105 172 105.7 170.2 105 168.7C104.5 167.3 102.8 166.7 101.3 167.2Z" fill="#FCEAC3"/>
<path d="M116.182 169.745L115.157 170.143L116.825 174.43L117.85 174.031L116.182 169.745Z" fill="#D3B779"/>
<path d="M116.1 170.7L115.5 171L116.5 173.6L117.2 173.4L116.1 170.7Z" fill="#E8D3A6"/>
<path d="M108.764 153.382L107.791 153.895L109.937 157.963L110.91 157.45L108.764 153.382Z" fill="#D3B779"/>
<path d="M108.721 154.319L108.111 154.663L109.536 157.189L110.146 156.845L108.721 154.319Z" fill="#E0CB96"/>
<path opacity="0.4" d="M96.5999 167.5C96.4999 167.5 96.3999 167.5 96.2999 167.5C96.1999 167.3 96.1999 167.2 96.0999 167C96.2999 167 96.3999 166.9 96.5999 166.9C97.8999 166.5 98.8999 165.9 98.7999 165.6C98.6999 165.3 97.6999 165.7 96.3999 166.1C96.1999 166.2 95.9999 166.2 95.7999 166.3C95.7999 166.2 95.7 166.1 95.7 166.1C95.9 166 96.1999 165.9 96.3999 165.8C97.5999 165.2 98.3999 164.3 98.0999 163.9C97.7999 163.5 96.9999 164.2 95.7999 164.8C95.4999 165 95.0999 165.1 94.7999 165.3C94.3999 165.1 93.9999 165 93.5999 164.9C93.6999 164.8 93.6999 164.8 93.7999 164.7C94.3999 163.9 94.6 163 94.2 162.7C93.8 162.4 93.3999 163.1 92.7999 163.9C92.3999 164.4 91.8999 164.9 91.7999 165.2C91.1999 165.5 90.6999 166.1 90.4999 166.6C88.4999 166.5 85.7 166.5 83.2 166.6V170C86.1 169.6 89.1999 168.9 91.0999 168.2C92.0999 168.7 93.5999 168.2 95.3999 168.5C95.5999 168.5 95.7999 168.5 95.9999 168.5C96.1999 168.5 96.3999 168.5 96.5999 168.5C97.8999 168.3 98.9999 167.9 98.9999 167.6C98.9999 167 97.9999 167.3 96.5999 167.5Z" fill="#8F3B00"/>
<path d="M80.8999 147.2C78.6999 157.1 75.4999 166.7 77.4999 168.2C79.4999 169.8 85.4999 149.1 85.4999 149.1L80.8999 147.2Z" fill="#FABE82"/>
<path d="M80.7 163.2C83 157.5 85.4 149.1 85.4 149.1L80.8 147.2C79.5 153.2 77.8 159 77.1 163C78.2 162.8 79.5 162.8 80.7 163.2Z" fill="#F49F60"/>
<path d="M77.7 165.6C77.7 165.6 93.3 164.7 93.7 165.9C94.1 167 78.5999 170.8 77.2999 168C75.9999 165.1 77.7 165.6 77.7 165.6Z" fill="#FABE82"/>
<path d="M96.5999 165.1C95.9999 163.8 94.0999 163.3 92.8999 163.7C91.5999 164.1 90.6999 165.9 91.5999 166.7C92.4999 167.5 94.1999 166.9 96.2999 167.2C97.7999 167.4 96.9999 166.2 96.5999 165.1Z" fill="#FABE82"/>
<path d="M97.0999 164.5C95.8999 165.1 94.7999 165.3 94.4999 165C94.1999 164.6 95.2999 164.2 96.4999 163.6C97.6999 162.9 98.5999 162.3 98.7999 162.7C98.9999 163 98.2999 163.8 97.0999 164.5Z" fill="#FABE82"/>
<path d="M97.2999 165.7C95.9999 166.1 94.8999 166.2 94.7999 165.8C94.6999 165.5 95.7999 165.3 97.0999 164.9C98.3999 164.5 99.3999 164 99.4999 164.4C99.6999 164.7 98.6999 165.3 97.2999 165.7Z" fill="#FABE82"/>
<path d="M97.4 167.1C96.1 167.3 95 167.1 95 166.8C95 166.5 96.1 166.4 97.4 166.3C98.7 166.1 99.8 165.9 99.8 166.2C99.8 166.6 98.7 167 97.4 167.1Z" fill="#FABE82"/>
<path d="M94.4999 163.4C93.8999 164.2 93 164.6 92.6 164.2C92.2 163.9 92.7999 163.3 93.4999 162.5C94.0999 161.7 94.4999 160.9 94.8999 161.3C95.2999 161.7 95.0999 162.6 94.4999 163.4Z" fill="#FABE82"/>
<path opacity="0.4" d="M117.4 164C114.8 165.1 110.8 166.8 108.5 168C108.1 167.6 107.5 167.3 106.9 167.3C106.7 167.1 106.2 166.9 105.6 166.6C104.8 166.2 104.2 165.7 104 166.1C103.8 166.5 104.3 167.2 105.1 167.6C105.2 167.6 105.3 167.7 105.4 167.7C105.1 167.9 104.8 168.1 104.6 168.4C104.3 168.4 104 168.4 103.7 168.4C102.5 168.3 101.6 168.1 101.6 168.5C101.6 168.9 102.5 169.3 103.7 169.3C103.9 169.3 104.1 169.3 104.4 169.3C104.4 169.4 104.4 169.4 104.4 169.5C104.2 169.5 104 169.6 103.9 169.6C102.7 169.8 101.8 169.8 101.9 170.1C102 170.4 103 170.5 104.1 170.3C104.2 170.3 104.4 170.3 104.5 170.2C104.5 170.4 104.5 170.5 104.6 170.7C104.5 170.7 104.5 170.7 104.4 170.8C103.3 171.1 102.5 171.3 102.6 171.6C102.7 171.9 103.7 171.8 104.7 171.5C104.9 171.4 105 171.4 105.2 171.3C105.3 171.3 105.5 171.2 105.6 171.1C106.9 170.3 108.2 170.1 108.8 169.4C112.6 169 120.9 166.9 121.1 164.8C121.1 164.4 121.1 164.2 121.1 163.9H117.4V164Z" fill="#8F3B00"/>
<path d="M114.3 143.3C118 154.1 122.1 163.1 120.5 164.9C119 166.7 110.7 146.6 110.7 146.6L114.3 143.3Z" fill="#FABE82"/>
<path d="M119.8 162.6C119.8 162.6 106.6 167.9 106.8 168.9C106.9 169.9 120.7 167.2 121 164.5C121.2 161.5 119.8 162.6 119.8 162.6Z" fill="#FABE82"/>
<path d="M104.1 169.3C104 167.9 105.4 166.6 106.8 166.5C108.2 166.3 109.8 167.5 109.4 168.6C108.9 169.7 107.2 169.9 105.4 171C104.1 171.7 104.2 170.4 104.1 169.3Z" fill="#FABE82"/>
<path d="M103.3 168.9C104.7 169 105.8 168.7 105.8 168.2C105.8 167.7 104.7 167.8 103.3 167.7C101.9 167.6 100.8 167.4 100.8 167.9C100.9 168.4 102 168.8 103.3 168.9Z" fill="#FABE82"/>
<path d="M103.7 170.1C105 169.9 106.1 169.5 106 169.2C105.9 168.9 104.9 169.1 103.5 169.3C102.1 169.5 101 169.5 101.1 169.8C101.1 170.1 102.3 170.2 103.7 170.1Z" fill="#FABE82"/>
<path d="M104.3 171.3C105.5 170.9 106.4 170.3 106.3 170C106.2 169.7 105.2 170.1 104 170.5C102.8 170.9 101.7 171.1 101.9 171.4C102 171.8 103.1 171.7 104.3 171.3Z" fill="#FABE82"/>
<path d="M105.1 166.9C106.1 167.4 107 167.3 107.2 166.9C107.4 166.4 106.6 166.2 105.6 165.7C104.6 165.2 103.9 164.7 103.7 165.2C103.6 165.6 104.2 166.4 105.1 166.9Z" fill="#FABE82"/>
<path d="M119.8 158C118.6 154.8 115.8 147.4 114.4 143.3L111.4 146.7C111.4 146.7 114.5 155.9 117.2 160.5C118.2 159.7 118.4 158.3 119.8 158Z" fill="#F49F60"/>
<path d="M84.4999 158.4C83.7999 162.9 76.2999 155.2 77.7999 149.8C79.8999 142.4 93.8999 136 92.2999 138.4C89.9999 141.8 86.0999 148.3 84.4999 158.4Z" fill="#873E25"/>
<path d="M113.8 158.3C116.6 160.2 121.1 154.9 119.6 149.6C117.5 142.3 104.7 136.2 106.2 138.5C108.4 141.9 112.1 148.3 113.8 158.3Z" fill="#873E25"/>
<path d="M96.0999 229.1H87.3999C87.3999 229.1 91.2999 226.9 93.6999 227C96.1999 227 96.0999 229.1 96.0999 229.1Z" fill="#AD8A79"/>
<path d="M100.6 229.1H107.6C107.6 229.1 104.5 226.9 102.5 227C100.6 227 100.6 229.1 100.6 229.1Z" fill="#AD8A79"/>
<path opacity="0.4" d="M115.8 143.8C112.3 140.3 107.5 137.9 106.4 138C105.5 137.1 103.7 136.1 101.4 135.6L100.5 128.5C100.5 128.5 100.5 128.5 99.5999 128.4C98.7999 128.4 98 128.4 97.2 128.4C96.4 128.4 95.5 128.4 94.7 128.4V136C93.2 136.5 92.0999 137.2 91.4999 137.9C89.4999 138.4 84.6 141 81.2 144.5C85.6 145.7 91.2 146.4 97.2 146.4C104.5 146.4 111 145.4 115.8 143.8Z" fill="#8F3B00"/>
<path d="M58.1999 94C58.2999 106.6 68.5999 135 95.5999 135.6C122.3 136.2 134.1 106.3 133.8 94C133.6 86.8 129.9 62.9 96.7998 63.9C69.5998 64.7 58.0999 81.4 58.1999 94Z" fill="#FFCB9C"/>
<mask id="mask0" mask-type="alpha" maskUnits="userSpaceOnUse" x="58" y="63" width="76" height="73">
<path d="M58.1999 94C58.2999 106.6 68.5999 135 95.5999 135.6C122.3 136.2 134.1 106.3 133.8 94C133.6 86.8 129.9 62.9 96.7998 63.9C69.5998 64.7 58.0999 81.4 58.1999 94Z" fill="url(#paint0_linear)"/>
</mask>
<g mask="url(#mask0)">
<path opacity="0.3" d="M58.1999 94C58.2999 106.6 68.5999 135 95.5999 135.6C122.3 136.2 134.1 106.3 133.8 94C133.6 86.8 129.9 62.9 96.7998 63.9C69.5998 64.7 58.0999 81.4 58.1999 94Z" fill="url(#paint1_linear)"/>
<path d="M80.5999 65.9C89.5999 69.1 89.3999 75.6 99.0999 74.5C108.8 73.4 112.2 72.5 117.6 73.8C117.6 73.8 111.9 70.8 102 72.7C92.0998 74.7 85.9998 62.5 83.2998 63.2C80.5998 64 80.5999 65.9 80.5999 65.9Z" fill="#F78B2B"/>
<path d="M83.8999 62.4001C93.1999 64.6001 93.6999 71.1001 103.2 68.9001C112.7 66.8001 116 65.5 121.5 66.1C121.5 66.1 115.5 63.7 105.9 66.8C96.2999 69.9 88.8999 58.4001 86.2999 59.4001C83.6999 60.4001 83.8999 62.4001 83.8999 62.4001Z" fill="#F78B2B"/>
<path opacity="0.5" d="M115.4 118.8C115.4 118.6 115.2 118.4 114.9 118.4C114.6 118.4 114.4 118.6 114.4 118.8C114.4 119 114.6 119.2 114.9 119.2C115.1 119.2 115.4 119 115.4 118.8Z" fill="#DD7F33"/>
<path opacity="0.5" d="M118 115C118 114.8 117.8 114.6 117.5 114.6C117.2 114.6 117 114.8 117 115C117 115.2 117.2 115.4 117.5 115.4C117.7 115.5 118 115.3 118 115Z" fill="#DD7F33"/>
<path opacity="0.5" d="M115.7 113.5C115.7 113.3 115.5 113.1 115.2 113.1C114.9 113.1 114.7 113.3 114.7 113.5C114.7 113.7 114.9 113.9 115.2 113.9C115.5 113.9 115.7 113.7 115.7 113.5Z" fill="#DD7F33"/>
<path opacity="0.5" d="M92.2999 111.5C92.2999 111.3 92.0999 111.1 91.7999 111.1C91.4999 111.1 91.2999 111.3 91.2999 111.5C91.2999 111.7 91.4999 111.9 91.7999 111.9C92.0999 111.9 92.2999 111.7 92.2999 111.5Z" fill="#DD7F33"/>
<path opacity="0.5" d="M86.2999 120.1C86.2999 119.9 86.0999 119.7 85.7999 119.7C85.4999 119.7 85.2999 119.9 85.2999 120.1C85.2999 120.3 85.4999 120.5 85.7999 120.5C86.0999 120.6 86.2999 120.4 86.2999 120.1Z" fill="#DD7F33"/>
<path opacity="0.5" d="M81.8999 118.5C81.8999 118.3 81.6999 118.1 81.3999 118.1C81.0999 118.1 80.8999 118.3 80.8999 118.5C80.8999 118.7 81.0999 118.9 81.3999 118.9C81.6999 119 81.8999 118.8 81.8999 118.5Z" fill="#DD7F33"/>
<path opacity="0.5" d="M85.3999 117.4C85.3999 117.2 85.1999 117 84.8999 117C84.5999 117 84.3999 117.2 84.3999 117.4C84.3999 117.6 84.5999 117.8 84.8999 117.8C85.1999 117.9 85.3999 117.7 85.3999 117.4Z" fill="#DD7F33"/>
<path opacity="0.5" d="M84.2 114.1C84.2 113.9 84 113.7 83.7 113.7C83.4 113.7 83.2 113.9 83.2 114.1C83.2 114.3 83.4 114.5 83.7 114.5C83.9 114.6 84.2 114.4 84.2 114.1Z" fill="#DD7F33"/>
<path opacity="0.5" d="M87.5 114.9C87.5 114.7 87.3 114.5 87 114.5C86.7 114.5 86.5 114.7 86.5 114.9C86.5 115.1 86.7 115.3 87 115.3C87.3 115.4 87.5 115.2 87.5 114.9Z" fill="#DD7F33"/>
<path opacity="0.5" d="M77.7999 115.7C77.7999 115.5 77.5999 115.3 77.2999 115.3C76.9999 115.3 76.7999 115.5 76.7999 115.7C76.7999 115.9 76.9999 116.1 77.2999 116.1C77.5999 116.1 77.7999 115.9 77.7999 115.7Z" fill="#DD7F33"/>
<path opacity="0.5" d="M111.9 114.6C111.9 114.4 111.7 114.2 111.4 114.2C111.1 114.2 110.9 114.4 110.9 114.6C110.9 114.8 111.1 115 111.4 115C111.7 115 111.9 114.8 111.9 114.6Z" fill="#DD7F33"/>
<path opacity="0.5" d="M110.6 117.2C110.6 117 110.4 116.8 110.1 116.8C109.8 116.8 109.6 117 109.6 117.2C109.6 117.4 109.8 117.6 110.1 117.6C110.4 117.6 110.6 117.4 110.6 117.2Z" fill="#DD7F33"/>
<path opacity="0.5" d="M107.8 112.3C107.8 112.1 107.6 111.9 107.3 111.9C107 111.9 106.8 112.1 106.8 112.3C106.8 112.5 107 112.7 107.3 112.7C107.6 112.8 107.8 112.6 107.8 112.3Z" fill="#DD7F33"/>
<path d="M63.5999 115.5C62.1999 113.2 59.7999 112.1 58.2999 113.1C56.7999 114 56.7999 116.6 58.1999 118.9C59.5999 121.2 61.9999 122.3 63.4999 121.3C64.9999 120.4 64.9999 117.8 63.5999 115.5Z" fill="#FFCB9C"/>
<path d="M63.3999 116C62.3999 114.4 60.6999 113.6 59.6999 114.3C58.6999 115 58.5999 116.8 59.5999 118.4C60.5999 120 62.2999 120.8 63.2999 120.1C64.2999 119.5 64.3999 117.6 63.3999 116Z" fill="#EFA460"/>
<path d="M63.4999 115.9C62.9999 115.1 62.0999 114.7 61.5999 115C61.0999 115.3 60.9999 116.3 61.5999 117.1C62.0999 117.9 62.9999 118.3 63.4999 118C63.9999 117.7 63.9999 116.8 63.4999 115.9Z" fill="#FFCB9C"/>
<path d="M135.2 117.5C136.8 115.6 136.9 113.2 135.5 112.1C134.1 111 131.8 111.6 130.2 113.4C128.6 115.3 128.5 117.7 129.9 118.8C131.3 120 133.7 119.4 135.2 117.5Z" fill="#FFCB9C"/>
<path d="M134.2 116.9C135.3 115.6 135.4 113.9 134.4 113.1C133.5 112.3 131.8 112.7 130.8 114C129.7 115.3 129.6 117 130.6 117.8C131.5 118.6 133.1 118.1 134.2 116.9Z" fill="#EFA460"/>
<path d="M131.7 115.7C132.3 115 132.3 114.1 131.8 113.7C131.3 113.3 130.4 113.5 129.8 114.2C129.2 114.9 129.2 115.8 129.7 116.2C130.2 116.6 131.1 116.4 131.7 115.7Z" fill="#FFCB9C"/>
<path d="M105.3 107.8C107.2 110.5 120.5 112.2 124.4 109.5C127 104.3 126.3 92.6 117.4 91.1C112.3 90.2 102.7 97.2 105.3 107.8Z" fill="#E56C1A"/>
<path d="M105.7 107.9C107.5 110.5 120.2 112.1 123.9 109.5C126.4 104.5 125.8 93.5 117.3 92C112.3 91.2 103.2 97.8 105.7 107.9Z" fill="#FFECDE"/>
<path d="M73.1 111.4C75.8 113.4 88.9 110.7 91.7 106.8C92.5 101 88.1 90.2 79.2 91.7C74 92.5 67.2 102.1 73.1 111.4Z" fill="#E56C1A"/>
<path d="M73.2999 111.4C75.8999 113.2 88.4999 110.6 91.1999 107C91.9999 101.6 87.7999 91.5 79.1999 92.9C74.1999 93.7 67.5999 102.8 73.2999 111.4Z" fill="#FFECDE"/>
<path d="M90.9999 116.5L104.7 116.3C104.7 116.3 97.6999 134.8 90.9999 116.5Z" fill="#4C311B"/>
<path d="M92.0999 117.2L93.9998 120.8L101.3 120.7L103.4 116.9L92.0999 117.2Z" fill="#FFEFE9"/>
<path d="M102 111.5C102 110.2 100.3 109.2 98.0999 109.2C95.8999 109.2 94.2 110.2 94.2 111.5C94.2 112.8 95.8999 113.8 98.0999 113.8C100.2 113.8 102 112.8 102 111.5Z" fill="#EFA460"/>
<path d="M101.5 110.9C101.5 110 99.8999 109.2 97.8999 109.2C95.8999 109.2 94.2999 110 94.2999 110.9C94.2999 111.8 95.8999 112.6 97.8999 112.6C99.8999 112.6 101.5 111.9 101.5 110.9Z" fill="#FFCB9C"/>
<path opacity="0.5" d="M99.3999 107.5C99.3999 107.2 99.1999 107 98.8999 107C98.5999 107 98.3999 107.2 98.3999 107.5C98.3999 107.8 98.5999 108 98.8999 108C99.0999 108 99.3999 107.8 99.3999 107.5Z" fill="#DD7F33"/>
<path opacity="0.5" d="M96.8999 107.1C96.8999 106.8 96.6999 106.6 96.3999 106.6C96.0999 106.6 95.8999 106.8 95.8999 107.1C95.8999 107.4 96.0999 107.6 96.3999 107.6C96.6999 107.6 96.8999 107.3 96.8999 107.1Z" fill="#DD7F33"/>
<path opacity="0.5" d="M99.0999 104.2C99.0999 103.9 98.8999 103.7 98.5999 103.7C98.2999 103.7 98.0999 103.9 98.0999 104.2C98.0999 104.5 98.2999 104.7 98.5999 104.7C98.8999 104.7 99.0999 104.5 99.0999 104.2Z" fill="#DD7F33"/>
<path d="M117.6 105.1C117.6 102.4 115.6 100.3 113 100.3C110.5 100.3 108.4 102.5 108.4 105.1C108.4 107.8 110.5 109.9 113 109.9C115.5 109.9 117.6 107.8 117.6 105.1Z" fill="#535E27"/>
<path d="M87.3999 105.1C87.3999 102.4 85.3999 100.3 82.7999 100.3C80.2999 100.3 78.2 102.5 78.2 105.1C78.2 107.8 80.1999 109.9 82.7999 109.9C85.3999 109.9 87.3999 107.8 87.3999 105.1Z" fill="#535E27"/>
<path d="M85.7 104.1C85.7 103.2 85 102.5 84.2 102.5C83.4 102.5 82.7 103.2 82.7 104.1C82.7 105 83.4 105.7 84.2 105.7C85 105.7 85.7 105 85.7 104.1Z" fill="#869B2F"/>
<path d="M115.6 103.9C115.6 103.1 115 102.5 114.2 102.5C113.5 102.5 112.8 103.1 112.8 103.9C112.8 104.7 113.4 105.3 114.2 105.3C115 105.3 115.6 104.7 115.6 103.9Z" fill="#869B2F"/>
<path d="M85.9999 84.8C82.5999 83.9 75.5999 83.2 71.7999 87.3L69.9999 85.6C75.6999 81.5 79.3999 81.9 85.9999 84.8Z" fill="#F78B2B"/>
<path d="M108.4 84.7C111.7 83.8 118.4 83 122.2 87.1L123.9 85.4C118.2 81.3 114.7 81.8 108.4 84.7Z" fill="#F78B2B"/>
<path opacity="0.5" d="M121.8 116.7C122 115.6 120 114.2 117.4 113.7C114.7 113.2 112.4 113.7 112.2 114.8C112 115.9 114 117.3 116.6 117.8C119.2 118.4 121.6 117.9 121.8 116.7Z" fill="#DD7F33"/>
<path opacity="0.5" d="M82.9999 116.6C82.8999 115.5 80.5999 114.8 77.8999 115.2C75.1999 115.5 73.0999 116.8 73.2999 117.9C73.3999 119 75.6999 119.7 78.3999 119.3C81.0999 118.9 83.0999 117.7 82.9999 116.6Z" fill="#DD7F33"/>
</g>
<defs>
<linearGradient id="paint0_linear" x1="96.2854" y1="100.886" x2="98.4397" y2="155.015" gradientUnits="userSpaceOnUse">
<stop/>
<stop offset="0.9892" stop-color="#B3B3B3"/>
</linearGradient>
<linearGradient id="paint1_linear" x1="96.2854" y1="100.886" x2="98.4397" y2="155.015" gradientUnits="userSpaceOnUse">
<stop stop-color="#C04B00"/>
<stop offset="0.9892" stop-color="#B73400"/>
</linearGradient>
</defs>
</svg>
