<svg width="194" height="205" viewBox="0 0 194 205" fill="none" xmlns="http://www.w3.org/2000/svg">
<path d="M97 194C150.572 194 194 150.572 194 97C194 43.4284 150.572 0 97 0C43.4284 0 0 43.4284 0 97C0 150.572 43.4284 194 97 194Z" fill="#A7B238"/>
<path d="M134.6 136.3C134.6 136 133.4 135.7 132 135.6C130.5 135.5 129.3 135.7 129.3 136C129.3 136.3 130.5 136.6 131.9 136.7C133.4 136.8 134.6 136.6 134.6 136.3Z" fill="#97A3AA"/>
<path d="M125.8 150C126.9 148 128.3 145.1 129.2 145.8C130.1 146.5 126.8 151.2 126.8 151.2L125.8 150Z" fill="#FABE82"/>
<path d="M105.9 139.2C114.9 140 117.2 157.7 119.5 156C122.6 153.7 125.8 147.1 125.8 147.1L130.3 150.3C130.3 150.3 123.1 162.3 118.6 161.6C114.1 160.8 107.6 149.1 107.6 149.1L105.9 139.2Z" fill="#DAEBED"/>
<path d="M118.8 159.5C114.3 158.7 107.8 147 107.8 147L106.5 139.3C106.3 139.3 106 139.2 105.8 139.2L107.5 149.1C107.5 149.1 114 160.8 118.5 161.6C123 162.4 130.2 150.3 130.2 150.3L129.5 149.8C127.4 153 122.3 160.1 118.8 159.5Z" fill="#B4CFD1"/>
<path d="M94.9 139.7C94.9 139.1 95.6 130.3 95.6 130.3L100.5 130.6L101.9 140L94.9 139.7Z" fill="#FABE82"/>
<path d="M82.4 204.1L112.9 204.4C112.9 204.4 116.6 142.7 108 139.9C97.4 136.4 87.7 137.9 85 144.7C79.5 158.8 82.4 204.1 82.4 204.1Z" fill="#DAEBED"/>
<path d="M87.4 142.1C87.5 141.7 87.7 141.3 87.9 140.9C86.6 141.9 85.6 143.2 85 144.7C79.4 158.7 82.4 204.1 82.4 204.1H86.4C85.8 195.6 82.9 155.5 87.4 142.1Z" fill="#B4CFD1"/>
<path d="M82.5 167.5C82.3 168.1 82.4 168.7 82.7 168.7C83 168.7 83.1001 168.2 83.3001 167.5C83.5001 166.9 83.8001 166.4 83.4001 166.3C83.1001 166.3 82.7 166.8 82.5 167.5Z" fill="#EFA460"/>
<path d="M68.2 159.5C67.9 160.7 72.6 172.9 75 172.1C77.4 171.3 91.5 162.5 92.5 160.7C93.5 158.9 87.9 146.3 86.3 145.8C84.7 145.3 68.8 157 68.2 159.5Z" fill="#685A53"/>
<path d="M67.3 160C67 161.2 71.7 173.4 74.1 172.6C76.5 171.8 90.6 163 91.6 161.2C92.6 159.4 87 146.8 85.4 146.3C83.7 145.8 67.9 157.5 67.3 160Z" fill="#4F423C"/>
<path d="M89 158.6L90.3 161.1C90.3 161.1 74.9 170.7 74.1 170.9C73.3 171.1 67.9 157 67.9 157C67.9 157 82.6 150.4 84.2 148.6L89 158.6Z" fill="#C1BC95"/>
<path d="M88.4 157.6L89.7 160.1C89.7 160.1 74.3 169.7 73.5 169.9C72.7 170.1 67.3 156 67.3 156C67.3 156 82 149.4 83.6 147.6L88.4 157.6Z" fill="#DBD5AF"/>
<path opacity="0.5" d="M86.4 146.3L85.4 143.3C85.4 143.3 77.8 142.8 74.2 151.5C70.1 161.3 77 166.2 77 166.2L77.6 165.5C79.1 166.7 81.5 168.9 82 168.3C82.4 167.8 80.4 165.1 79 163.6L79.8 162.6C79.8 162.6 76.4 158.1 79.8 153.3C83.9 147.2 86.4 146.3 86.4 146.3Z" fill="#66493D"/>
<path d="M74.1 164.1C74.1 164.1 80 169.2 80.7 168.4C81.4 167.6 75.9 161.9 75.9 161.9L74.1 164.1Z" fill="#FABE82"/>
<path d="M74.1 165.6L77.5 161.6C77.5 161.6 74.2 157.2 78.3 152.3C83.1 146.6 86.3 145.8 86.3 145.8L91.4 138.8C91.4 138.8 77.3 143.5 72.9 151.1C67.3 160.6 74.1 165.6 74.1 165.6Z" fill="#DAEBED"/>
<path d="M86.1 140L99.6 148.4L111 140.4L106.6 138.3L99.5 146.9L91 137.8L86.1 140Z" fill="#EBFFFF"/>
<path d="M142.7 51C145.9 56.3 142.9 57.7 139.4 57.9C143.5 58.8 148 60.9 148.2 66.1C148.6 76.3 130 84.1 130 84.1C121.6 69.3 112.8 61.2 98.6 54.4C86.3 43.9 92.6 39.9 102.9 46.7C102.9 46.7 109.1 33.5 115.8 43.2C115.8 43.2 112.5 28.1 126.1 35.3C133.3 39.1 129.7 48.1 129.7 48.1C129.7 48.1 137.1 41.7 142.7 51Z" fill="#F77C37"/>
<path d="M154.8 99.5C154.6 105.7 151.3 105.2 148.3 103.4C151.2 106.4 153.8 110.6 151.2 115.1C145.9 123.9 126.1 120.2 126.1 120.2C127.1 103.2 124.3 91.6 116.1 78.2C111.5 62.6 119 62.7 123.9 74.1C123.9 74.1 136.3 66.5 136.6 78.3C136.6 78.3 142.1 63.9 149.6 77.3C153.5 84.4 145.6 90 145.6 90C145.6 90 155.2 88.7 154.8 99.5Z" fill="#F77C37"/>
<path d="M38.2 59.4C41.3 54 43.9 55.9 45.8 58.9C44.6 54.9 44.2 49.9 48.6 47.2C57.3 41.8 73.2 54.2 73.2 54.2C64.5 68.8 61.7 80.4 62.7 96.1C59.6 112 53 108.5 53.9 96.1C53.9 96.1 39.4 97.1 44.6 86.6C44.6 86.6 33 96.9 32.6 81.6C32.4 73.5 42 72.2 42 72.2C42 72.2 32.8 68.8 38.2 59.4Z" fill="#E06628"/>
<path d="M69.1 116.8C69.4 125.9 64.2 123.6 62.9 116.1C62.9 116.1 51.2 115.5 54 109.1C54 109.1 45.2 114.6 42 103.7C40.3 97.9 49.4 99.1 49.4 99.1C49.4 99.1 39.9 94.5 43.5 89.4C47.1 84.3 53.7 95.8 53.7 95.8C53.7 95.8 44.7 85.2 50.9 84.5C57.1 83.8 62 97.2 62 97.2L69.1 116.8Z" fill="#E06628"/>
<path d="M128.1 82.1C136.7 88.1 137.8 82.9 131.6 77.4C131.6 77.4 138.4 69.6 131 67.5C131 67.5 141.2 65.5 133.7 57.6C129.8 53.6 125.3 59.1 125.3 59.1C125.3 59.1 127.4 51.6 120.8 50.7C114.1 49.8 119.5 59.6 119.5 59.6C119.5 59.6 116.5 49 111.6 51.8C106.5 54.7 114.8 65.3 114.8 65.3L128.1 82.1Z" fill="#F77C37"/>
<path d="M65.9001 116.7C57.5001 105.2 45.3 75.4 63.4001 57.3C81.4001 39.2 108.5 55.4 108.5 55.4L65.9001 116.7Z" fill="#E06628"/>
<path d="M85.6 98.6C86.1 93.1 87.5 90.1 91.5 89.1C99.4 87.1 105 100 94.5 102.6C90.5 103.6 85.2 103.3 85.6 98.6Z" fill="#D8652B"/>
<path d="M86.2 98.8C86.7 93.3 88.1 90.3 92.1 89.3C100 87.3 105.6 100.2 95.1 102.8C91 103.8 85.7 103.5 86.2 98.8Z" fill="#FFF9E9"/>
<path d="M88.7 98.2C88.2 95.9 89.6 93.6 91.7 93.1C93.8 92.6 95.9 94 96.4 96.3C96.9 98.6 95.5 100.9 93.4 101.4C91.2 101.9 89.1 100.5 88.7 98.2Z" fill="#79ABC6"/>
<path d="M89.4001 96.2C89.3001 95.6 89.6 95 90.2 94.8C90.8 94.7 91.3001 95 91.5001 95.7C91.6001 96.3 91.3 96.9 90.7 97.1C90.1 97.3 89.6001 96.9 89.4001 96.2Z" fill="#9ACCE2"/>
<path d="M111.7 94.3C111 90.2 112.1 86.8 116.2 86.5C126.1 85.8 128.6 98.8 120.4 99.4C116.2 99.7 112.5 98.9 111.7 94.3Z" fill="#D8652B"/>
<path d="M112.2 94.6C111.4 90.5 112.6 87.1 116.7 86.8C126.6 86.1 129.1 99.1 120.9 99.7C116.7 100 113 99.2 112.2 94.6Z" fill="#FFF9E9"/>
<path d="M113 95.7C112.7 93.4 114.2 91.2 116.3 90.8C118.4 90.4 120.4 92 120.7 94.3C121 96.6 119.5 98.8 117.4 99.2C115.2 99.6 113.3 98 113 95.7Z" fill="#79ABC6"/>
<path d="M129.6 101.3C129.5 103.4 124.2 105.1 117.7 105.1C111.2 105.1 106.1 103.4 106.2 101.3C106.3 99.2 111.6 97.5 118.1 97.5C124.6 97.5 129.7 99.2 129.6 101.3Z" fill="#FABE82"/>
<path d="M100.7 105.2C100.3 103.9 102.5 102 105.5 101.1C108.5 100.2 111.3 100.5 111.7 101.8C112.1 103.1 109.9 105 106.9 105.9C103.9 106.8 101.1 106.5 100.7 105.2Z" fill="#EFA460"/>
<path d="M109.1 101.8C109.7 103.1 107.8 105.2 104.9 106.5C102 107.9 99.2 107.9 98.7 106.7C98.1 105.4 100 103.3 102.9 102C105.7 100.6 108.5 100.5 109.1 101.8Z" fill="#FABE82"/>
<path d="M103.6 101.4C103.6 103.5 98.5 105.6 92 106C85.6 106.5 80.3 105.1 80.2 103C80.2 100.9 85.3 98.8 91.8 98.4C98.3 97.9 103.6 99.3 103.6 101.4Z" fill="#FABE82"/>
<path d="M114.6 93.2C114.5 92.6 114.9 92 115.5 91.9C116.1 91.8 116.6 92.2 116.7 92.9C116.8 93.5 116.4 94.1 115.8 94.2C115.2 94.3 114.7 93.9 114.6 93.2Z" fill="#9ACCE2"/>
<path d="M129.6 106.4C129 107.5 127.1 107.2 125.2 106.2C123.3 105.2 122.1 103.7 122.8 102.6C123.4 101.5 125.5 101.5 127.4 102.5C129.3 103.6 130.2 105.3 129.6 106.4Z" fill="#EFA460"/>
<path d="M86.8 103.9C87 105.1 85.4 106.2 83.3 106.7C81.2 107.2 79.3 107 79 105.7C78.8 104.5 80.3 103.1 82.5 102.6C84.6 102.2 86.5 102.7 86.8 103.9Z" fill="#EFA460"/>
<path d="M129.7 102.3C130.9 105.2 134.7 105.3 138 102.5C141.3 99.8 143 95.2 141.8 92.4C140.6 89.5 136.8 89.4 133.5 92.2C130.1 94.9 128.4 99.5 129.7 102.3Z" fill="#FABE82"/>
<path d="M132.1 95.3C134.6 93.2 137.4 93.3 138.4 95.5C139.1 97.1 138.5 99.5 137.1 101.5C139.4 99.4 140.5 96.2 139.6 94.2C138.7 92 135.9 92 133.3 94C132.7 94.5 132.2 95.1 131.7 95.7C131.9 95.5 132 95.4 132.1 95.3Z" fill="#EFA460"/>
<path d="M133.2 98.4C133.8 99 133.8 100.2 133.2 101.2C133.1 101.3 133 101.4 133 101.5C133.5 101.5 134.1 101.2 134.5 100.4C135.1 99.4 135.1 98.1 134.5 97.6C134 97.1 133.2 97.3 132.7 98.1C132.8 98.1 133 98.2 133.2 98.4Z" fill="#EFA460"/>
<path d="M65.0001 101C66.3001 98.4 64.2001 94.7 60.3001 92.7C56.4001 90.8 52.2001 91.3 50.9001 93.9C49.6001 96.5 51.7001 100.2 55.6001 102.2C59.5001 104.2 63.7001 103.6 65.0001 101Z" fill="#FABE82"/>
<path d="M58.6001 102C55.7001 100.5 54.1001 97.8 55.1001 95.8C55.8001 94.3 57.9001 93.7 60.1001 94.1C57.3001 92.9 54.4001 93.4 53.5001 95.2C52.5001 97.2 54.1001 100 57.0001 101.4C57.7001 101.7 58.4001 102 59.1001 102.1C58.9001 102.1 58.7001 102.1 58.6001 102Z" fill="#EFA460"/>
<path d="M60.2001 99.5C60.3001 98.7 61.2001 98.1 62.2001 98.1C62.3001 98.1 62.5001 98.1 62.6001 98.2C62.3001 97.7 61.7001 97.3 61.0001 97.2C60.0001 97.1 59.0001 97.7 59.0001 98.6C58.9001 99.3 59.5001 100 60.4001 100.2C60.2001 99.9 60.1001 99.7 60.2001 99.5Z" fill="#EFA460"/>
<path d="M133.8 109.4C137.4 89.5 117.1 47.4 95.9 50C74.8 52.6 64.3 77.8 62.6 102.7C61.2 122.9 79.5 132.6 100.8 131.9C113.3 131.5 130.8 126.4 133.8 109.4Z" fill="#FABE82"/>
<mask id="mask0" mask-type="alpha" maskUnits="userSpaceOnUse" x="62" y="49" width="73" height="83">
<path d="M133.8 109.4C137.4 89.5 117.1 47.4 95.9 50C74.8 52.6 64.3 77.8 62.6 102.7C61.2 122.9 79.5 132.6 100.8 131.9C113.3 131.5 130.8 126.4 133.8 109.4Z" fill="url(#paint0_linear)"/>
</mask>
<g mask="url(#mask0)">
<path opacity="0.3" d="M133.8 109.4C137.4 89.5 117.1 47.4 95.9 50C74.8 52.6 64.3 77.8 62.6 102.7C61.2 122.9 79.5 132.6 100.8 131.9C113.3 131.5 130.8 126.4 133.8 109.4Z" fill="url(#paint1_linear)"/>
<path d="M80.9 95.6C80.4 91.6 81.7 88.1 85.8 87.6C95.8 86.5 97.6 99.4 89.3 100.3C85.2 100.9 81.5 100.2 80.9 95.6Z" fill="#D8652B"/>
<path d="M81.5001 95.9C81.0001 91.9 82.3001 88.4 86.4001 87.9C96.4001 86.8 98.2001 99.7 89.9001 100.6C85.7001 101.1 82.0001 100.4 81.5001 95.9Z" fill="#FFF9E9"/>
<path d="M83.6 96.4C83.4 94.1 85 91.9 87.2 91.4C89.4 90.9 91.3 92.4 91.4 94.7C91.6 97 90 99.2 87.8 99.7C85.7 100.2 83.8 98.7 83.6 96.4Z" fill="#79ABC6"/>
<path d="M98.7 101.9C98.7 104 93.4 105.9 87 106.2C80.5 106.4 75.3 104.9 75.3 102.8C75.3 100.7 80.6 98.8 87 98.5C93.5 98.3 98.7 99.8 98.7 101.9Z" fill="#FABE82"/>
<path d="M85.4 93.9C85.4 93.3 85.8 92.7 86.4 92.5C87 92.4 87.5 92.8 87.6 93.4C87.6 94 87.2 94.6 86.6 94.8C85.9 95 85.4 94.6 85.4 93.9Z" fill="#9ACCE2"/>
<path d="M111.7 94.3C111 90.2 112.1 86.8 116.2 86.5C126.1 85.8 128.6 98.8 120.4 99.4C116.2 99.7 112.5 98.9 111.7 94.3Z" fill="#D8652B"/>
<path d="M112.2 94.6C111.4 90.5 112.6 87.1 116.7 86.8C126.6 86.1 129.1 99.1 120.9 99.7C116.7 100 113 99.2 112.2 94.6Z" fill="#FFF9E9"/>
<path d="M114.3 95.2C114 92.9 115.5 90.7 117.6 90.3C119.7 89.9 121.7 91.5 122 93.8C122.3 96.1 120.8 98.3 118.7 98.7C116.6 99.1 114.6 97.5 114.3 95.2Z" fill="#79ABC6"/>
<path d="M129.6 101.3C129.5 103.4 124.2 105.1 117.7 105.1C111.2 105.1 106.1 103.4 106.2 101.3C106.3 99.2 111.6 97.5 118.1 97.5C124.6 97.5 129.7 99.2 129.6 101.3Z" fill="#FABE82"/>
<path d="M98.5 102.6C98.5 101.3 100.8 100 103.7 99.7C106.6 99.4 109 100.3 109 101.7C109 103 106.7 104.3 103.8 104.6C100.9 104.8 98.6 103.9 98.5 102.6Z" fill="#EFA460"/>
<path d="M108.4 100.9C108.4 102 106.3 103.1 103.8 103.3C101.3 103.5 99.2 102.7 99.2 101.6C99.2 100.5 101.3 99.4 103.8 99.2C106.3 99 108.4 99.7001 108.4 100.9Z" fill="#FABE82"/>
<path d="M116 92.8C115.9 92.2 116.3 91.6 116.9 91.5C117.5 91.4 118 91.8 118.1 92.5C118.2 93.1 117.8 93.7 117.2 93.8C116.6 93.8 116.1 93.4 116 92.8Z" fill="#9ACCE2"/>
<path d="M126.4 104.2C126 105.4 124.1 105.6 122.1 105C120 104.4 118.6 103.3 119 102.1C119.4 100.9 121.4 100.4 123.4 101C125.4 101.6 126.8 103 126.4 104.2Z" fill="#EFA460"/>
<path d="M86 103.9C86.2 105.1 84.6 106.2 82.5 106.7C80.4 107.2 78.5 107 78.2 105.7C78 104.5 79.5 103.1 81.7 102.6C83.8 102.2 85.8 102.7 86 103.9Z" fill="#EFA460"/>
<path d="M103.1 79.6C97.9 79.7 92.7 80.6 86.7 82.6L86.9 86.1C92.6 84.3 97.6 83.3 102.5 82.9L103.1 79.6Z" fill="#D8652B"/>
<path d="M114.2 82.3C117.8 82.5 121.5 83.4 125.8 84.8L126.1 82.9C121.9 81.2 118.3 80 114.7 79.5L114.2 82.3Z" fill="#D8652B"/>
<path d="M59.2 84.3C59.2 89.6 62.7 89.2 63.4 85C63.4 85 71.5 86.7001 69.5 82.4C69.5 82.4 75.7 87.2 77.8 81.3C78.9 78.2 72.5999 77.3 72.5999 77.3C72.5999 77.3 79.1 76.3 76.5 72.6C73.9 68.9 69.5999 74.6 69.5999 74.6C69.5999 74.6 75.6 69.9 71.3 68.4C67 66.9 59.5 71.1 59.5 71.1L59.2 84.3Z" fill="#E06628"/>
<path d="M92 32.6C98.2001 32.2 98.1 35.5 96.6 38.7C99.3 35.5 103.2 32.4 107.9 34.6C117.2 38.9 115.6 59 115.6 59C98.6 59.8 87.4001 63.9 74.9001 73.4C59.9001 79.6 59.2 72.2 70 66.1C70 66.1 61.1001 54.6 72.8001 53C72.8001 53 57.9001 49 70.4001 40.2C77 35.5 83.5 42.9 83.5 42.9C83.5 42.9 81.3 33.3 92 32.6Z" fill="#E06628"/>
<path d="M110.3 110.2C109.3 108.9 94.2001 109.7 93.0001 111.3C91.9001 112.9 98.1001 118.9 101.6 118.9C105.2 119 112.2 112.8 110.3 110.2Z" fill="#542C23"/>
<path d="M95.3999 114.5C94.3999 113.4 93.8999 112.3 94.2999 111.8C95.2999 110.4 108.3 109.7 109.1 110.9C109.6 111.6 109.3 112.7 108.5 113.8C105.8 113.2 97.7999 113.6 95.3999 114.5Z" fill="#FFF0EE"/>
<path opacity="0.5" d="M112.7 144C111.9 142.9 111.1 141.8 110.1 141L111 140.3L106.6 138.3L105.9 139.2L105.8 139.3L105.9 139.2C105.2 139 104.4 138.8 103.7 138.7L101.2 135L100.5 130.6L95.6 130.3C95.6 130.3 95.4 132.6 95.2 134.9L95.1 134.8L92.7 138.5C92.4 138.5 92.1 138.6 91.8 138.7L91 137.8L86.1 140L86.9 140.5C85.1 141.3 82.9 142.4 80.7 143.7C85.1 145.2 90.8 146 96.9 146C102.9 146.1 108.3 145.3 112.7 144Z" fill="#66493D"/>
</g>
<defs>
<linearGradient id="paint0_linear" x1="98.2896" y1="105.631" x2="94.6542" y2="139.775" gradientUnits="userSpaceOnUse">
<stop/>
<stop offset="1" stop-color="white"/>
</linearGradient>
<linearGradient id="paint1_linear" x1="98.2896" y1="105.631" x2="94.6542" y2="139.775" gradientUnits="userSpaceOnUse">
<stop stop-color="#C04B00"/>
<stop offset="1" stop-color="#B73400"/>
</linearGradient>
</defs>
</svg>
