<svg width="195" height="206" viewBox="0 0 195 206" fill="none" xmlns="http://www.w3.org/2000/svg">
<path d="M97.7 194C151.272 194 194.7 150.572 194.7 97C194.7 43.4284 151.272 0 97.7 0C44.1283 0 0.699951 43.4284 0.699951 97C0.699951 150.572 44.1283 194 97.7 194Z" fill="#9288E2"/>
<path d="M122.6 154.4C127.6 150.9 130.4 146.1 129.1 141.8C125.3 129.3 105.9 127 105.9 127L109 133.1C109 133.1 119.6 135.1 122.4 143.5C123.3 146.2 121.5 148.3 119.3 149.8C116.7 151.5 120.5 155.9 122.6 154.4Z" fill="#CEB6B6"/>
<path d="M120.6 152.1C123.1 150.2 125.2 147.5 124.2 144C121.4 134.6 110.7 131.1 107.7 130.4L109.1 133.1C109.1 133.1 119.7 135.1 122.5 143.5C123.4 146.2 121.6 148.3 119.4 149.8C117.9 150.8 118.5 152.7 119.7 153.8C119.7 153.1 120 152.6 120.6 152.1Z" fill="#BA9B9B"/>
<path d="M72.9 153.6C67.7 150.1 64.8 145.3 66.1 141C70 128.5 90.3 126.2 90.3 126.2L87.1 132.3C87.1 132.3 76.1 134.3 73.1 142.7C72.2 145.4 74.1 147.5 76.4 149C79.1 150.6 75.1 155.1 72.9 153.6Z" fill="#CEB6B6"/>
<path d="M87.1 132.2L88.3999 129.8C84.8999 130.8 74.3999 134.3 71.3999 142.5C70.2999 145.7 72.4999 148.1 75.2999 149.9C76.3999 150.6 76.5 151.7 76.2 152.8C77.4 151.6 77.8999 149.8 76.3999 148.9C74.0999 147.4 72.2 145.3 73.1 142.6C76.1 134.2 87.1 132.2 87.1 132.2Z" fill="#BA9B9B"/>
<path d="M101.8 118.7H93.7L94.2 126.4H102.2L101.8 118.7Z" fill="#FABE82"/>
<path d="M88.6 203.7C91.8 202 83.4 175.6 80.9 164.9C78.4 154.2 78.4 128.1 92.3 125.5C106.2 123 115 129.1 116.9 142.6C118.7 156 110.7 200.2 114.3 204.1L110.2 205.7C110.2 205.7 109.3 176.3 99.6 175.8C90.9 175.4 92.9 195.7 93.5 202.9C93.5 203.3 93.8 205.3 93 205.5C91.6 205.6 88.6 203.7 88.6 203.7Z" fill="#CEB6B6"/>
<path d="M99.4 173.3C88.8 172.9 92.3 199.9 92.7 205.4C93.2 205.4 93.5 204.8 93.5 204C93.5 201 89.5 175.3 99.5 175.7C109.3 176.2 110.1 205.6 110.1 205.6L111.1 205.2C110.8 197.8 108.7 173.7 99.4 173.3Z" fill="#BA9B9B"/>
<path d="M99.0999 126.3H97.2L98.3999 171.7C99.0999 173 99.6999 173 100.3 171.7L99.0999 126.3Z" fill="#E8CFCF"/>
<path d="M103.7 126.5C103.7 125.2 100.9 124.6 97.5999 124.6C94.2999 124.6 91.2 125.4 91.2 126.6C91.2 127.9 94.2999 129.2 97.5999 129.2C100.9 129.3 103.7 127.8 103.7 126.5Z" fill="#E8CFCF"/>
<path d="M102.1 125.9C102 124.8 100.1 123.9 97.9 123.9C95.6 123.9 93.8 124.8 93.9 125.9C94 127 95.9 127.9 98.1 127.9C100.3 127.9 102.1 127 102.1 125.9Z" fill="#FABE82"/>
<path d="M114.7 186.5C114.7 186 114.4 185.5 113.8 185.4L110.4 184.8L111.2 195.5L112.9 195.6C113.6 195.6 114.2 195.1 114.3 194.4L114.7 186.5Z" fill="#E8CFCF"/>
<path d="M85.8 188C85.7 187.6 85.8 187.2 86 186.8C86.2 186.4 86.6 186.2 87 186.1L89.9 185.4L90.9 196.6L89.4 196.7C88.6 196.7 87.9 196.2 87.7 195.4L85.8 188Z" fill="#E8CFCF"/>
<path d="M71.2 135.4L69.3 133.5L65.6 139.6L68.4 139.8L71.2 135.4Z" fill="#E8CFCF"/>
<path d="M125.9 138.4L128.3 137.1L123.2 132L122.3 134.7L125.9 138.4Z" fill="#E8CFCF"/>
<path d="M128.641 138.33L126.163 139.402L126.838 140.962L129.316 139.891L128.641 138.33Z" fill="#E8CFCF"/>
<path d="M129.649 141.123L127.02 141.739L127.408 143.394L130.037 142.778L129.649 141.123Z" fill="#E8CFCF"/>
<path d="M130 143.7L127.4 143.8L127.3 145.6L129.9 145.5L130 143.7Z" fill="#E8CFCF"/>
<path d="M112.4 139.7L101.4 140.3V142.8L112.4 142.2V139.7Z" fill="#778BA0"/>
<path opacity="0.4" d="M117.2 130.2C113.4 128.5 109.8 127.7 107.7 127.3C106.2 126.5 104.6 125.9 102.9 125.5C102.7 125.4 102.5 125.3 102.2 125.2L101.8 118.8H93.7L94 125C93.2 125.2 92.6 125.4 92.1 125.6C91.4 125.7 90.8 125.9 90.2 126.2C89.3 126.3 84.3 127.1 79.1 129.2C84 131.2 91.4 132.4 99.7 132.4C106.4 132.3 112.5 131.5 117.2 130.2Z" fill="#8F3B00"/>
<path d="M67.9 80.4C65.3 68.9 57.9 60.9 51.3 62.3C44.7 63.8 41.5 74.3 44.1 85.7C46.7 97.2 54.1 105.2 60.7 103.8C67.3 102.3 70.5 91.9 67.9 80.4Z" fill="#EADADA"/>
<path d="M70.2001 80.4C67.6001 68.9 60.2001 60.9 53.6001 62.3C47.0001 63.8 43.8001 74.3 46.4001 85.7C49.0001 97.2 56.4001 105.2 63.0001 103.8C69.5001 102.4 72.8001 91.9 70.2001 80.4Z" fill="#CEB6B6"/>
<path d="M153.2 88.5C156.2 77.3 153.2 66.8 146.6 65C139.9 63.2 132.1 70.8 129.1 82C126.1 93.2 129.1 103.7 135.7 105.5C142.4 107.3 150.2 99.6 153.2 88.5Z" fill="#EADADA"/>
<path d="M150.7 88.5C153.7 77.1 150.8 66.5 144.1 64.7C137.4 62.9 129.6 70.7 126.5 82C123.5 93.4 126.4 104 133.1 105.8C139.8 107.6 147.7 99.8 150.7 88.5Z" fill="#CEB6B6"/>
<path d="M49.7 77.1C51.5 102.7 67.1 126 98.5 125.4C136.5 124.7 147.6 97 148.2 77.4C148.7 59.6 136.9 24.7 98.5 25.1C74.7 25.4 47.4 45.1 49.7 77.1Z" fill="#EADADA"/>
<path d="M53.1001 76.1C54.7001 101.2 69.2001 124.1 98.5001 123.5C133.8 122.8 144.2 95.6 144.8 76.4C145.3 59 134.3 24.7 98.5001 25.1C76.4001 25.4 51.0001 44.7 53.1001 76.1Z" fill="#A88686"/>
<path d="M56.7999 80.1C58.2999 102.7 71.5999 123.2 98.4999 122.7C130.9 122.1 140.5 97.6 141 80.3C141.5 64.6 131.4 33.8 98.4999 34.2C78.1999 34.5 54.8999 51.8 56.7999 80.1Z" fill="#FABE82"/>
<mask id="mask0" mask-type="alpha" maskUnits="userSpaceOnUse" x="56" y="34" width="86" height="89">
<path d="M56.7999 80.1C58.2999 102.7 71.5999 123.2 98.4999 122.7C130.9 122.1 140.5 97.6 141 80.3C141.5 64.6 131.4 33.8 98.4999 34.2C78.1999 34.5 54.8999 51.8 56.7999 80.1Z" fill="url(#paint0_linear)"/>
</mask>
<g mask="url(#mask0)">
<path opacity="0.3" d="M56.7999 80.1C58.2999 102.7 71.5999 123.2 98.4999 122.7C130.9 122.1 140.5 97.6 141 80.3C141.5 64.6 131.4 33.8 98.4999 34.2C78.1999 34.5 54.8999 51.8 56.7999 80.1Z" fill="url(#paint1_linear)"/>
<path d="M88.6 106.9H107.9C107.8 106.9 99.9 124.1 88.6 106.9Z" fill="#3F2B1A"/>
<path d="M90.7 107.4L93.4999 111.8H102.9L106.2 107.4H90.7Z" fill="#FFECDE"/>
<path d="M103.5 100.8C103.5 99.3 101.5 98.1 99 98.1C96.5 98.1 94.5 99.3 94.5 100.8C94.5 102.3 96.5 103.5 99 103.5C101.5 103.5 103.5 102.3 103.5 100.8Z" fill="#EFA460"/>
<path d="M102.8 100.1C102.8 98.9 101.2 97.9 99.3 97.9C97.3 97.9 95.8 98.9 95.8 100.1C95.8 101.3 97.4 102.3 99.3 102.3C101.2 102.2 102.8 101.3 102.8 100.1Z" fill="#FABE82"/>
<path d="M73.8 95.8C73.8 95.8 82 92.7 91.3 94.6C91.3 94.6 89.2 81.4 81.1 82.3C73 83.3 73 92.7 73.8 95.8Z" fill="#FFECDE"/>
<path d="M122.6 95.8C122.6 95.8 114.9 92.7 106.3 94.6C106.3 94.6 108.3 81.4 115.8 82.3C123.3 83.3 123.3 92.7 122.6 95.8Z" fill="#FFECDE"/>
<path d="M112.6 76.6C110.4 78.4 123.2 81.7 124.4 81C125.6 80.4 117.4 72.5 112.6 76.6Z" fill="#7C4A3D"/>
<path d="M80.9 76.1C81.7 73.5 68.9 76.9 68.3 78C67.7 79.1 79.2 81.9 80.9 76.1Z" fill="#7C4A3D"/>
<path d="M116.2 90.1C116.2 88.2 115 86.6 113.5 86.6C112 86.6 110.8 88.1 110.8 90.1C110.8 92 112 93.6 113.5 93.6C115 93.5 116.2 92 116.2 90.1Z" fill="#87ABC1"/>
<path d="M114.8 89.2C114.8 88.6 114.4 88 113.9 88C113.4 88 113 88.5 113 89.2C113 89.8 113.4 90.4 113.9 90.4C114.3 90.4 114.8 89.8 114.8 89.2Z" fill="#BFDFEF"/>
<path d="M86 90.1C86 88.2 84.8 86.6 83.3 86.6C81.8 86.6 80.6 88.1 80.6 90.1C80.6 92 81.8 93.6 83.3 93.6C84.7 93.5 86 92 86 90.1Z" fill="#87ABC1"/>
<path d="M84.9 89.2C84.9 88.6 84.5 88 84 88C83.5 88 83.1 88.5 83.1 89.2C83.1 89.8 83.5 90.4 84 90.4C84.5 90.4 84.9 89.8 84.9 89.2Z" fill="#BFDFEF"/>
<path opacity="0.5" d="M139.7 66.1H58.5L56.6 73.9H140.7L139.7 66.1Z" fill="#B28E8E"/>
<path d="M147.1 71.8C143.4 51 129.7 24.6 98.4999 25.1C77.5999 25.4 54.1 42.8 50.2 71.8H147.1Z" fill="#EADADA"/>
<path d="M105.6 25.7C102.8 25.3 99.9 25 96.8 25.1C76.6 25.4 53.9 41.1 50.1 67.4H81.6C85.6 48.3 94.8 34 105.6 25.7Z" fill="#F9E8E8"/>
<path d="M143.8 64C140.3 47.6 127.6 26.7 98.5 27.1C79 27.3 57.1 41.1 53.4 64H143.8Z" fill="#3F2E2E"/>
<path d="M143.8 64C140.3 47.6 127.6 26.7 98.5 27.1C79 27.3 57.1 41.1 53.4 64H143.8Z" fill="#3F2E2E"/>
<path d="M61.2 62.7H83.5999C87.2999 47.3 96 35.8 106.2 29.1C103.5 28.7 100.6 28.4 97.4999 28.5C95.2999 28.5 93.0999 28.7 90.8999 29.1C77.0999 34 64.8 45.8 61.2 62.7Z" fill="#604949"/>
<path d="M128.9 45.8C128.9 51.8 127.2 57.5 124.3 62.6H140.5C138.9 54.9 135.1 46.3 128.3 39.6C128.7 41.6 128.9 43.7 128.9 45.8Z" fill="#513F3F"/>
<path d="M81 99.5C80.9 98.2 78.7 97.4 76.1 97.6C73.5 97.8 71.5 99 71.6 100.3C71.7 101.6 73.9 102.4 76.5 102.2C79.1 102 81.1 100.7 81 99.5Z" fill="#EFA460"/>
<path d="M126.3 100.6C126.5 99.3 124.5 98.1 121.9 97.7C119.3 97.4 117.1 98.2 117 99.4C116.8 100.7 118.8 101.9 121.4 102.3C124 102.7 126.2 101.9 126.3 100.6Z" fill="#EFA460"/>
<path d="M73.5001 114.7C62.8001 114.7 55.7 108.4 52.8 96.2L54.0001 95.9C57.2001 109.5 65.9001 115.4 79.2001 113L79.4001 114.1C77.4001 114.5 75.4001 114.7 73.5001 114.7Z" fill="#705252"/>
<path d="M82.0001 112.6C81.8001 111.7 80.4001 111.2 78.9001 111.5C77.4001 111.8 76.3001 112.8 76.5001 113.7C76.7001 114.6 78.1001 115.1 79.6001 114.8C81.1001 114.5 82.1001 113.5 82.0001 112.6Z" fill="#705252"/>
<path d="M146.2 70H50.7V72.3H146.2V70Z" fill="#FFF8EE"/>
</g>
<defs>
<linearGradient id="paint0_linear" x1="99.1311" y1="99.3988" x2="99.4189" y2="123.864" gradientUnits="userSpaceOnUse">
<stop/>
<stop offset="1" stop-color="white"/>
</linearGradient>
<linearGradient id="paint1_linear" x1="99.1311" y1="99.3988" x2="99.4189" y2="123.864" gradientUnits="userSpaceOnUse">
<stop stop-color="#C04B00"/>
<stop offset="1" stop-color="#B73400"/>
</linearGradient>
</defs>
</svg>
