<svg width="80" height="80" viewBox="0 0 95 95" fill="none" xmlns="http://www.w3.org/2000/svg">
<path d="M92.2539 63.4455C94.03 58.4612 95 53.0942 95 47.5C95 21.2665 73.7334 0 47.5 0C21.2665 0 0 21.2665 0 47.5C0 73.7335 21.2665 95 47.5 95C51.0426 95 54.4934 94.6091 57.8147 93.8734L92.2539 63.4455Z" fill="#3BDCFF"/>
<path d="M92.2543 63.4455L68.6815 39.8729L64.1802 44.3743L39.1013 19.2954L27.636 37.5178L7.29688 43.3551L57.8152 93.8734C73.844 90.3239 86.8263 78.6786 92.2543 63.4455Z" fill="#23BFE1"/>
<path d="M39.1233 27.55C62.1608 27.55 80.9604 46.4364 80.9604 69.4739L75.518 60.2356L32.8945 43.3634V27.55H39.1233Z" fill="#37474F"/>
<path d="M49.9097 43.3634C65.5743 43.3634 78.6678 54.8335 80.9603 69.4739C76.3754 63.2329 68.9882 59.1748 60.6963 59.1748H32.8945V43.3634H49.9097Z" fill="#263238"/>
<path d="M39.1013 19.2954V43.3551L23.199 47.4855L7.29688 43.3551L39.1013 19.2954Z" fill="#546E7A"/>
<path d="M39.1013 43.3551V67.4149L7.29688 43.3551H39.1013Z" fill="#37474F"/>
</svg>
