<svg width="63" height="63" viewBox="0 0 63 63" fill="none" xmlns="http://www.w3.org/2000/svg">
<path d="M31.4 62.8C48.7417 62.8 62.8 48.7417 62.8 31.4C62.8 14.0583 48.7417 0 31.4 0C14.0583 0 0 14.0583 0 31.4C0 48.7417 14.0583 62.8 31.4 62.8Z" fill="#F15249"/>
<path d="M18.2261 45.5647L35.1642 62.5028C49.428 60.8189 60.7201 49.6259 62.503 35.3621L45.4658 18.3249L18.2261 45.5647Z" fill="#AD0E0E"/>
<path d="M46.2581 38.3337C47.6448 39.7205 47.6448 42.0978 46.2581 43.4845L43.4846 46.258C42.0978 47.6448 39.7206 47.6448 38.3338 46.258L16.542 24.4662C15.1553 23.0795 15.1553 20.7022 16.542 19.3154L19.4146 16.4429C20.8013 15.0561 23.1786 15.0561 24.5654 16.4429L46.2581 38.3337Z" fill="white"/>
<path d="M34.768 26.7445L26.7446 34.7678L38.3339 46.258C39.7207 47.6448 42.0979 47.6448 43.4847 46.258L46.3572 43.3855C47.744 41.9987 47.744 39.6214 46.3572 38.2347L34.768 26.7445Z" fill="#D6D6D6"/>
<path d="M38.3338 16.542C39.7206 15.1552 42.0978 15.1552 43.4846 16.542L46.3571 19.4145C47.7439 20.8013 47.7439 23.1785 46.3571 24.5653L24.4663 46.258C23.0796 47.6448 20.7023 47.6448 19.3155 46.258L16.542 43.4845C15.1553 42.0978 15.1553 39.7205 16.542 38.3337L38.3338 16.542Z" fill="white"/>
</svg>
