<svg width="193" height="189" viewBox="0 0 193 189" fill="none" xmlns="http://www.w3.org/2000/svg">
<rect width="193" height="189" rx="35" fill="#EAEAEA"/>
<g clip-path="url(#clip0)">
<path d="M133.627 177.53C131.993 178.072 130.286 178.072 128.616 177.964C125.166 177.205 122.587 175.398 121.498 171.892C121.316 170.084 121.098 168.277 121.934 166.542C122.333 165.928 122.769 165.313 123.168 164.699C124.076 163.723 125.02 162.747 125.311 161.373C125.819 160.94 125.674 160.361 125.456 159.892C124.984 158.988 124.04 158.699 123.132 158.446C122.26 158.337 121.425 158.229 120.554 158.12C119.9 157.976 119.282 157.867 118.592 158.012C118.302 158.012 118.011 158.048 117.721 158.048C115.869 157.867 114.053 157.904 112.201 158.048C110.385 157.904 108.606 157.904 106.79 158.048C104.938 157.904 103.122 157.904 101.27 158.048C100.907 158.048 100.507 158.048 100.144 158.048C92.9171 157.831 85.6902 157.976 78.4634 157.976C77.0107 157.904 75.5218 157.759 74.1055 157.47C73.2702 157.036 72.326 156.711 71.9992 155.699C71.9992 153.892 73.0523 152.59 74.1418 151.361C75.8123 149.482 76.6839 147.422 76.2481 144.892C76.0302 143.229 75.4492 141.711 74.1055 140.59C73.6697 140.084 73.1613 139.651 72.5439 139.434C71.4544 138.422 70.0744 138.277 68.6944 138.133C67.0602 137.482 65.6439 138.133 64.1186 138.675C61.177 139.759 59.4702 141.783 58.9254 144.855C58.526 147.313 59.1796 149.482 60.9591 151.217C61.867 152.084 62.4481 153.169 62.9202 154.289C63.4286 155.446 63.1381 156.313 61.976 156.928C60.6323 157.651 59.216 157.904 57.727 157.976C57.5454 157.976 57.3638 157.976 57.1823 157.976C50.718 157.976 44.2538 157.94 37.7896 158.048C36.3369 158.084 36.0827 157.578 36.0827 156.313C36.1554 152.301 36.1554 148.289 36.119 144.277C36.0827 141.639 36.2643 138.964 35.9375 136.325C35.9375 135.928 35.9012 135.53 35.9012 135.133C35.7196 134.446 35.6106 133.723 35.3564 133.072C34.6301 131.193 33.5769 130.867 31.9064 131.952C30.9622 132.566 30.018 133.181 29.1827 133.94C27.9843 134.988 26.6043 135.422 25.0427 135.458C23.1906 135.458 21.2658 135.566 19.6316 134.41C19.4137 134.301 19.2322 134.157 19.0143 134.048C17.4164 132.566 16.6174 130.687 16 128.663C15.8911 126.819 15.8548 124.976 16.5085 123.205C18.1064 119.482 21.0116 117.747 25.0064 117.783C26.7132 118.036 28.0932 118.831 29.4006 119.916C30.3085 120.675 31.3253 121.361 32.4148 121.904C33.2138 122.301 34.2306 122.518 34.7754 121.47C35.3927 120.313 35.9375 119.12 35.8648 117.783C35.9012 117.241 35.9012 116.735 35.9375 116.193C35.9738 115.651 36.0464 115.145 36.0827 114.602C36.0827 108.277 36.119 101.916 36.119 95.5903C36.3733 95.6265 36.6275 95.6988 36.8454 95.7349C36.1554 96.3855 36.7727 97.1084 36.7727 97.7952C36.7364 104.084 36.7727 110.337 36.7001 116.626C36.7001 118.217 36.4822 119.807 35.538 121.253C34.6664 122.59 33.6133 123.06 32.1606 122.41C30.8169 121.831 29.6548 120.964 28.5653 120.024C24.6432 116.663 19.5227 118.687 17.5979 122.88C16.1816 125.988 16.5448 129.205 18.6874 132.024C20.6485 134.626 24.9701 135.494 27.6938 133.831C29.1101 132.964 30.4175 131.916 31.8701 131.084C33.359 130.253 34.5575 130.687 35.538 132.06C36.3369 133.145 36.5185 134.337 36.5185 135.639C36.5185 142.217 36.5548 148.831 36.5548 155.41C36.5548 157.145 36.7001 157.289 38.4069 157.289C44.5807 157.289 50.7544 157.289 56.9281 157.289C57.9449 157.289 58.8891 157.145 59.8696 156.928C63.0654 156.133 62.666 154.94 61.286 152.626C61.2133 152.482 61.0318 152.373 60.8865 152.229C59.0707 150.241 57.6544 148.108 58.2354 145.217C58.5986 143.446 58.6712 141.53 60.1602 140.193C61.1407 139.325 62.2302 138.711 63.3923 138.133C66.7333 136.506 72.0718 137.048 74.9771 140.229C77.156 142.651 77.6644 146.988 76.1028 149.627C75.3765 150.819 74.4323 151.867 73.6697 153.024C72.3623 154.94 73.1976 156.819 75.4855 157.036C76.7565 157.145 78.0276 157.289 79.2623 157.289C85.2908 157.289 91.3192 157.253 97.3476 157.325C98.5461 157.325 98.8003 156.964 98.8003 155.88C98.764 149.59 98.8003 143.337 98.764 137.048C98.764 135.566 98.5824 134.084 97.9287 132.711C97.3113 131.337 96.3308 130.976 94.9508 131.59C94.0066 131.988 93.135 132.566 92.3724 133.253C91.3918 134.084 90.4113 134.88 89.1766 135.241C84.6734 136.651 79.1534 134.084 78.6086 127.325C78.2818 123.386 80.2792 120.313 83.8018 118.578C85.6902 117.639 87.9781 117.494 89.9392 118.651C91.2466 119.41 92.3361 120.494 93.6434 121.289C96.1492 122.807 97.6019 122.554 98.3645 119.699C98.5824 118.94 98.7277 118.108 98.7277 117.313C98.7277 110.084 98.7277 102.855 98.7277 95.6265C98.8003 95.5903 98.9092 95.5181 98.9819 95.4819C99.345 95.4819 99.7082 95.5181 100.071 95.5181C107.734 95.8072 115.397 94.9397 123.059 96.0241C125.347 96.3494 126.4 97.9397 125.129 99.7831C124.258 101.012 123.713 102.494 122.442 103.398C121.825 103.831 121.498 104.518 121.461 105.241C121.389 106.651 121.062 108.169 121.498 109.398C122.115 111.205 122.769 113.12 124.875 114.06C125.856 114.494 126.836 115 127.853 115.289C129.524 115.795 131.23 115.831 132.865 115.289C135.552 114.386 137.695 112.795 138.457 109.867C138.966 107.807 139.22 105.747 137.913 103.831C136.859 102.277 135.479 100.94 134.826 99.0964C134.39 97.9036 135.007 96.5662 136.278 96.1687C137.804 95.6988 139.365 95.5181 140.963 95.5181C147.391 95.5542 153.855 95.5542 160.283 95.5181C160.864 95.5181 161.191 95.7349 161.554 96.0241C161.59 97.8675 161.627 99.6747 161.663 101.518C161.663 103.325 161.663 105.096 161.663 106.904C161.663 108.711 161.663 110.554 161.663 112.361C161.627 113.735 161.59 115.145 161.554 116.518C161.373 117.639 161.227 118.795 161.046 119.916C160.9 120.205 160.755 120.458 160.61 120.747C159.847 122.373 158.867 122.735 157.269 121.904C156.506 121.506 155.816 121 155.09 120.566C153.71 119.229 152.221 118.072 150.115 118.108C148.117 118 146.265 118.289 144.667 119.663C143.36 120.53 142.452 121.687 142.016 123.205C141.145 124.94 141.363 126.747 141.508 128.59C141.835 130.795 142.851 132.566 144.667 133.904C144.776 133.94 144.849 134.012 144.958 134.048C147.536 136 151.168 136.072 153.71 134.157C154.4 133.651 155.017 133.072 155.671 132.53C155.78 132.458 155.925 132.422 156.034 132.349C158.83 130.542 159.375 130.687 160.973 133.506C161.009 133.542 161.046 133.578 161.082 133.614C161.118 133.759 161.155 133.904 161.155 134.048C161.336 135.855 161.518 137.626 161.663 139.434C161.663 141.241 161.663 143.084 161.663 144.892C161.663 146.699 161.663 148.47 161.663 150.277C161.663 152.084 161.663 153.928 161.663 155.735C161.373 156.458 161.99 157.434 161.118 158.048C155.635 158.012 150.187 157.904 144.704 158.084C143.687 157.94 142.706 157.976 141.689 158.084C141.363 158.012 140.999 157.867 140.709 158.157C140.237 158.193 139.801 158.229 139.329 158.265C138.13 158.229 137.005 158.482 135.951 159.06C135.116 159.494 134.426 160.072 134.862 161.193C135.479 163 136.714 164.373 137.985 165.747C138.058 165.855 138.094 165.964 138.167 166.072C138.167 166.145 138.167 166.217 138.239 166.289C138.239 166.434 138.276 166.578 138.457 166.578C138.639 167.12 138.82 167.663 139.002 168.205C139.038 168.386 139.038 168.53 139.075 168.711C139.075 168.819 139.075 168.892 139.111 169C139.111 169.289 139.111 169.542 139.147 169.831C139.075 169.904 139.075 170.012 139.147 170.084C139.147 170.265 139.147 170.446 139.111 170.627C138.603 173.048 137.622 175.145 135.479 176.627C135.007 177.024 134.063 176.771 133.627 177.53Z" fill="#F80384"/>
<path d="M36.918 95.6265C36.6638 95.5904 36.4095 95.5181 36.1916 95.4819C36.1553 95.3373 36.119 95.1566 36.0827 95.012C36.0827 93.5301 36.0827 92.0843 36.0827 90.6385C36.2643 88.7952 36.228 86.9879 36.0827 85.1446C36.1916 83.3373 36.1916 81.5663 36.0827 79.759C36.119 77.9518 36.1553 76.1084 36.1916 74.3012C36.4822 73 36.4095 71.6265 36.9906 70.3614C37.7532 68.6988 39.3148 68.265 40.8038 69.3855C41.9659 70.253 43.1643 71.1566 44.3627 71.9518C44.9075 72.3132 45.4522 72.7831 46.1785 72.7108C48.3575 73.3976 50.3912 72.9277 52.3522 71.8434C53.4417 71.0843 54.5675 70.3253 55.0033 68.9156C56.3833 67.2891 56.0928 65.3012 56.0564 63.3855C56.2743 61.1446 55.2938 59.4458 53.7322 57.9638C53.2601 57.6024 53.0785 56.8795 52.3159 56.8434C52.0617 56.6265 51.8801 56.3735 51.517 56.3373C51.2264 56.2289 50.9359 56.0843 50.6454 55.9759C49.4106 55.6506 48.1396 55.9397 46.8685 55.9036C44.9801 55.6144 43.9633 56.9518 42.7648 58C42.1838 58.1446 41.8206 58.6144 41.3848 58.9759C38.5522 60.4578 38.1164 60.3494 36.7727 57.9638C36.6274 57.1687 36.4459 56.3735 36.3006 55.5422C36.228 54.5301 36.119 53.5542 36.0464 52.5422C36.1917 50.8072 36.1553 49.1084 36.0464 47.3735C36.228 45.494 36.228 43.5783 36.0464 41.6988C36.1553 39.8916 36.1553 38.1205 36.0464 36.3132C36.3732 35.3373 35.6106 34.1807 36.5185 33.3132C36.8817 32.9879 37.3174 33.0241 37.7532 33.0241C38.9517 33.0241 40.1501 33.0241 41.3848 32.9879C43.2006 32.9879 45.0527 32.9879 46.8685 32.9879C48.6843 32.9879 50.4638 32.9879 52.2796 32.9879C54.0954 32.9879 55.9475 32.9879 57.7633 32.9518C58.6349 32.8072 59.5791 32.7711 60.378 32.4819C61.2496 32.1566 62.3754 32.1205 62.6296 30.8916C62.8838 30.2771 63.0654 29.6265 62.6296 29.0482C61.6491 27.747 60.5959 26.4819 59.6154 25.2169C58.8165 23.8434 58.417 22.3614 58.5622 20.7711L58.6349 20.7349L58.5986 20.6988C58.6349 20.5181 58.6712 20.3012 58.7075 20.1205C58.9617 19.6506 58.7438 19.1084 58.998 18.5663C59.7244 17.0843 60.487 15.6747 61.8307 14.6626C62.3028 14.3735 62.7386 14.0843 63.2107 13.7952C64.9538 13.0361 66.806 12.9277 68.6944 12.9638C73.0523 13.506 75.1586 15.4578 76.4297 20.0482C76.2118 21.8916 76.6476 23.8434 75.4128 25.4699C74.8681 25.9036 74.4323 26.4458 74.0691 27.0602C73.2702 27.8916 72.7254 28.8675 72.326 29.9156C71.9628 30.747 72.5439 32.0482 73.3428 32.2289C75.4128 32.6626 77.4465 33.3494 79.5892 33.0241C81.4049 33.0241 83.1844 33.0241 85.0002 33.0241C86.816 33.0241 88.6681 33.0241 90.4839 33.0241C92.2997 33.0241 94.0792 33.0241 95.895 33.0241C97.0208 33.2048 98.1829 32.7711 99.2361 33.3494C99.1997 33.747 99.1271 34.1446 99.1271 34.5422C99.1271 41.3012 99.1634 48.0964 99.1634 54.8554C99.1634 56.5904 99.7808 58 100.761 59.4096C101.197 60.0241 101.706 60.0602 102.105 59.7711C103.376 58.8313 104.901 58.2891 106.027 57.0964C106.79 56.3012 107.843 55.6144 109.114 55.8313C109.949 56.8072 111.002 56.0843 112.019 56.3012C111.801 55.9759 111.692 55.7952 111.583 55.6144C112.6 55.4699 113.399 56.265 114.38 56.3373C115.651 56.4096 116.522 57.2771 116.995 58.1807C117.467 59.1205 118.12 59.9518 118.52 60.9277C120.227 64.9036 119.065 69.5301 115.542 71.8795C114.67 72.4578 113.581 72.4578 112.673 72.8193C110.748 73.5783 109.078 73.1084 107.443 72.2771C105.737 71.4096 104.502 69.8554 102.65 69.1325C101.379 68.6265 100.18 68.8072 99.9624 70.0361C99.7808 71.0843 99.2361 72.0602 99.2361 73.1446C99.2361 80.5542 99.2361 87.9638 99.2361 95.3373C99.1634 95.3735 99.0545 95.4458 98.9818 95.4819C98.5461 95.4458 98.0739 95.4096 97.6382 95.4096C90.8471 95.4096 84.0197 95.3735 77.2286 95.3735C75.776 95.3735 74.4686 94.9398 73.1976 94.3253C72.2533 93.8554 71.8902 93.0964 72.1807 91.9759C72.5075 90.7108 73.3791 89.8795 74.2144 89.0482C77.7007 85.5422 77.1923 79.7229 73.0886 76.9759C69.4933 74.5542 64.4817 74.8434 61.2859 77.8434C60.7049 78.3855 59.8696 78.5301 59.4338 79.5422C58.5986 81.494 59.0707 83.4096 58.9617 85.3614C58.9254 86.4819 59.3249 87.3855 60.1238 88.1084C61.1044 89.0482 61.7944 90.2048 62.448 91.3614C63.1744 92.6626 62.8838 93.6747 61.6128 94.3614C60.3417 95.0482 58.9617 95.4096 57.5091 95.4096C51.1901 95.4458 44.9075 95.4096 38.5885 95.4458C37.9711 95.5181 37.4264 95.4096 36.918 95.6265Z" fill="#C0FE00"/>
<path d="M99.1636 95.4458C99.1636 88.0362 99.1636 80.6265 99.1636 73.253C99.1636 72.1687 99.7084 71.1928 99.89 70.1446C100.108 68.9157 101.306 68.7711 102.577 69.241C104.429 69.9639 105.664 71.5181 107.371 72.3856C109.005 73.2169 110.676 73.6868 112.601 72.9277C113.508 72.5663 114.598 72.5663 115.469 71.988C119.028 69.6386 120.154 65.0482 118.447 61.0361C118.012 60.0602 117.394 59.1928 116.922 58.2892C116.45 57.3855 115.578 56.5181 114.307 56.4458C113.327 56.3735 112.528 55.5783 111.511 55.7229C110.712 55.7952 109.841 55.5422 109.042 55.9398C107.734 55.7229 106.717 56.4096 105.955 57.2048C104.829 58.3976 103.34 58.9398 102.033 59.8795C101.633 60.1687 101.125 60.1325 100.689 59.5181C99.7447 58.1084 99.091 56.6988 99.091 54.9639C99.1273 48.2048 99.091 41.4096 99.0547 34.6506C99.0547 34.253 99.1273 33.8554 99.1636 33.4578C99.8173 33.0241 100.58 33.241 101.306 33.1325C103.086 33.1325 104.902 33.1325 106.681 33.1325C108.533 33.1325 110.349 33.1325 112.201 33.1325C113.981 33.1325 115.796 33.1325 117.576 33.1325C119.392 33.1687 121.244 33.2048 123.06 33.4578C123.35 33.8193 123.858 33.7831 124.222 33.9639C125.202 34.4699 125.965 35.1566 125.82 36.4217C125.166 37.8675 124.367 39.241 123.241 40.3253C120.045 43.3976 121.353 49.6145 124.984 51.7108C127.49 53.1566 130.068 53.6627 132.865 52.8675C133.155 52.9398 133.482 53.1205 133.7 52.6868C136.242 51.6747 137.913 49.9036 138.566 47.2289C138.93 45.3855 139.22 43.5422 138.167 41.8072C137.186 39.9639 135.516 38.6265 134.717 36.6386C134.681 36.3494 134.644 36.0964 134.608 35.8072C134.681 35.7349 134.681 35.6988 134.644 35.5904C134.79 34.8675 135.262 34.4337 135.915 34.1084C137.005 33.5301 138.203 33.3133 139.402 33.0964C141.217 33.0964 143.07 33.0602 144.885 33.0602C146.701 33.0602 148.481 33.0602 150.296 33.0602C152.112 33.0602 153.964 33.0602 155.78 33.0602C157.596 33.0602 159.375 33.0602 161.191 33.0602C161.772 34.1084 161.663 35.2651 161.772 36.3855C161.772 38.1928 161.772 39.9639 161.772 41.7711C161.772 43.5783 161.772 45.4217 161.772 47.2289C161.772 49.0361 161.772 50.8072 161.772 52.6145C161.772 54.494 161.554 56.3735 162.535 58.1084C163.225 59.8072 164.75 60.241 166.275 59.1566C168.164 57.8193 169.653 55.8675 172.086 55.3976C174.011 55.253 175.827 55.5783 177.57 56.3735C178.296 56.9157 178.986 57.494 179.712 58.0362C180.947 59.6627 181.528 61.506 181.928 63.4578C182.037 65.3374 181.528 67.1084 180.838 68.8434C180.003 70.253 178.986 71.4819 177.497 72.2048C175.681 73.3615 173.611 73.2892 171.578 73.1807C169.871 72.6024 168.636 71.3012 167.147 70.3976C166.748 69.8916 166.203 69.6747 165.622 69.3856C163.842 68.5904 162.934 68.9518 162.317 70.8313C161.954 71.9518 161.627 73.0723 161.772 74.2289C161.627 76.0362 161.663 77.8795 161.736 79.6868C161.736 81.494 161.736 83.2651 161.736 85.0723C161.736 86.8795 161.736 88.7229 161.736 90.5301C161.736 92.3012 161.736 94.1085 161.7 95.8795H161.627C161.264 95.5904 160.937 95.3735 160.356 95.3735C153.928 95.4097 147.464 95.4097 141.036 95.3735C139.438 95.3735 137.876 95.5181 136.351 96.0241C135.08 96.4217 134.463 97.7591 134.898 98.9518C135.552 100.795 136.932 102.133 137.985 103.687C139.293 105.602 139.039 107.663 138.53 109.723C137.804 112.651 135.661 114.241 132.937 115.145C131.303 115.687 129.596 115.651 127.926 115.145C126.873 114.855 125.928 114.349 124.948 113.916C122.842 112.976 122.188 111.06 121.571 109.253C121.135 107.988 121.462 106.47 121.534 105.096C121.571 104.374 121.897 103.687 122.515 103.253C123.822 102.349 124.367 100.867 125.202 99.6386C126.51 97.7952 125.42 96.2048 123.132 95.8795C115.469 94.8313 107.807 95.6627 100.144 95.3735C99.89 95.4458 99.5268 95.4458 99.1636 95.4458Z" fill="#00BDFF"/>
<path d="M36.918 95.6265C37.4264 95.4096 38.0075 95.4819 38.5159 95.4819C44.8349 95.4819 51.1175 95.4819 57.4365 95.4458C58.8891 95.4458 60.2691 95.0482 61.5402 94.3976C62.8113 93.7108 63.1381 92.6988 62.3755 91.3976C61.7218 90.2409 61.0318 89.0843 60.0513 88.1446C59.2523 87.3855 58.8528 86.518 58.8891 85.3976C58.9618 83.4819 58.526 81.5662 59.3612 79.5783C59.797 78.5662 60.6323 78.4217 61.2134 77.8795C64.4092 74.8795 69.3844 74.5903 73.016 77.012C77.1197 79.759 77.6281 85.5783 74.1418 89.0843C73.3066 89.9156 72.435 90.747 72.1081 92.012C71.8176 93.1325 72.1808 93.8915 73.125 94.3614C74.396 94.9759 75.7034 95.4096 77.156 95.4096C83.9471 95.4096 90.7745 95.4096 97.5656 95.4458C98.0014 95.4458 98.4735 95.4819 98.9093 95.518C98.9093 102.747 98.9456 109.976 98.9093 117.205C98.9093 118 98.764 118.831 98.5461 119.59C97.7472 122.446 96.2945 122.663 93.825 121.181C92.5177 120.386 91.4282 119.301 90.1208 118.542C88.1234 117.386 85.8719 117.53 83.9834 118.47C80.4608 120.205 78.4634 123.277 78.7903 127.217C79.335 133.976 84.855 136.542 89.3582 135.133C90.5929 134.735 91.5734 133.94 92.554 133.145C93.3529 132.458 94.1882 131.916 95.1324 131.482C96.5124 130.904 97.4929 131.265 98.1103 132.602C98.764 133.976 98.9456 135.458 98.9456 136.94C98.9819 143.229 98.9456 149.482 98.9819 155.771C98.9819 156.855 98.7277 157.217 97.5293 157.217C91.5008 157.145 85.4724 157.217 79.4439 157.181C78.1729 157.181 76.9018 157.036 75.6671 156.928C73.3792 156.711 72.5439 154.795 73.8513 152.916C74.6502 151.759 75.5945 150.747 76.2845 149.518C77.846 146.879 77.3376 142.542 75.1587 140.12C72.2897 136.94 66.915 136.398 63.5739 138.024C62.3755 138.602 61.286 139.217 60.3418 140.084C58.8528 141.422 58.7802 143.337 58.417 145.108C57.7997 148 59.216 150.132 61.0681 152.12C61.177 152.265 61.3586 152.337 61.4676 152.518C62.8476 154.831 63.2834 156.024 60.0513 156.819C59.0707 157.072 58.0902 157.181 57.1097 157.181C50.936 157.181 44.7623 157.181 38.5886 157.181C36.8817 157.181 36.7364 157.036 36.7364 155.301C36.7364 148.723 36.7001 142.108 36.7001 135.53C36.7001 134.265 36.5185 133.036 35.7196 131.952C34.7391 130.578 33.5043 130.145 32.0517 130.976C30.5991 131.807 29.2917 132.819 27.8754 133.723C25.1517 135.422 20.8301 134.518 18.869 131.916C16.7264 129.06 16.3632 125.879 17.7795 122.771C19.7043 118.578 24.8248 116.554 28.7469 119.916C29.8364 120.855 30.9985 121.723 32.3422 122.301C33.7949 122.952 34.848 122.446 35.7196 121.145C36.6638 119.699 36.8817 118.108 36.8817 116.518C36.9543 110.229 36.8817 103.976 36.9543 97.6867C36.8454 97 36.228 96.2771 36.918 95.6265Z" fill="#FCB602"/>
</g>
<defs>
<clipPath id="clip0">
<rect width="166" height="165" fill="white" transform="translate(16 13)"/>
</clipPath>
</defs>
</svg>
