<svg width="551" height="314" viewBox="0 0 551 314" fill="none" xmlns="http://www.w3.org/2000/svg">
<rect width="551" height="314" rx="23" fill="url(#paint0_linear)"/>
<rect x="179" y="30" width="193" height="189" rx="35" fill="#FFC700"/>
<path d="M309.635 190.937C299.521 190.937 289.406 190.903 279.292 190.972C277.92 190.972 277.44 190.732 277.44 189.223C277.509 182.091 277.509 174.96 277.44 167.794C277.44 166.457 277.852 166.251 279.086 166.183C281.52 166.046 283.303 166.56 285.189 168.48C289.166 172.491 294.206 173.314 299.418 171.223C304.526 169.166 307.406 165.154 307.852 159.703C308.263 154.149 305.863 149.828 301.098 146.948C295.612 143.691 288.138 144.994 284.16 149.897C283.338 150.926 282.515 151.2 281.28 151.2C277.509 151.131 277.509 151.166 277.509 147.326C277.509 140.914 277.543 134.537 277.475 128.126C277.44 126.72 277.92 126.446 279.223 126.446C287.52 126.48 295.818 126.446 304.081 126.48C305.246 126.48 305.692 126.274 305.623 125.006C305.521 122.263 305.555 119.52 305.623 116.777C305.658 115.748 305.418 115.166 304.458 114.617C301.235 112.834 299.829 109.714 299.418 106.32C298.903 101.657 303.361 96.754 308.401 95.9997C313.441 95.2797 318.481 98.7769 319.543 103.748C320.503 108.137 318.823 112.217 314.949 114.651C314.126 115.166 313.749 115.68 313.783 116.674C313.818 119.417 313.852 122.16 313.749 124.903C313.681 126.24 314.195 126.48 315.429 126.48C323.589 126.411 331.749 126.514 339.944 126.411C341.658 126.377 341.966 126.926 341.966 128.503C341.898 148.594 341.898 168.72 341.966 188.811C341.966 190.389 341.692 190.937 339.944 190.937C329.863 190.869 319.749 190.937 309.635 190.937Z" fill="#1855F1"/>
<path d="M209.554 90.9252C209.554 80.708 209.588 70.4908 209.52 60.2394C209.52 58.9708 209.794 58.6279 211.097 58.6279C231.6 58.6622 252.103 58.6622 272.605 58.6279C273.805 58.6279 274.011 59.0394 273.977 60.1022C273.943 67.3708 273.908 74.6051 273.977 81.8737C273.977 82.9709 273.737 83.4852 272.571 83.2794C272.4 83.2452 272.228 83.2452 272.057 83.2794C269.725 83.6223 268.045 82.9366 266.297 81.0852C262.525 77.0394 256.423 76.2166 251.417 78.548C246.445 80.8451 243.325 85.988 243.6 91.4738C243.874 96.9252 247.543 101.691 252.72 103.611C256.594 105.051 263.588 104.331 266.537 100.08C268.354 97.4738 271.097 98.4681 273.531 98.3652C274.148 98.3309 274.011 98.8795 274.011 99.2566C274.011 106.868 273.977 114.445 274.011 122.057C274.011 123.154 273.394 123.051 272.708 123.051C265.063 123.051 257.383 123.085 249.737 123.051C245.863 123.051 245.863 122.982 245.897 126.822C245.897 127.611 245.931 128.434 245.897 129.222C245.725 132.068 245.965 134.297 248.743 136.457C253.303 139.988 252.891 147.12 248.605 150.994C244.285 154.903 237.6 154.388 233.965 149.897C230.262 145.303 231.12 138.651 236.057 135.291C237.394 134.4 237.805 133.508 237.737 132C237.634 129.771 237.702 127.542 237.702 125.314C237.702 123.085 237.702 123.085 235.371 123.085C227.417 123.085 219.497 123.051 211.542 123.154C209.862 123.188 209.52 122.708 209.52 121.097C209.588 111.051 209.554 100.971 209.554 90.9252Z" fill="#193E9F"/>
<path d="M241.714 190.937C231.531 190.937 221.383 190.903 211.2 190.971C209.863 190.971 209.52 190.663 209.52 189.291C209.554 171.36 209.554 153.428 209.52 135.462C209.52 132.96 209.451 130.422 209.52 127.92C209.554 126.96 209.657 126.514 210.788 126.514C218.228 126.548 225.634 126.548 233.074 126.479C234 126.479 234.308 126.788 234.206 127.645C234.171 127.885 234.171 128.091 234.206 128.331C234.446 130.662 234.034 132.548 231.977 134.262C229.508 136.354 228.24 139.44 228.24 142.731C228.206 147.805 229.817 152.605 235.886 155.691C240.651 158.125 246.377 157.302 250.354 153.737C257.04 147.737 257.006 138.651 250.183 132.96C249.188 132.137 249.291 131.245 249.291 130.217C249.291 126.514 249.326 126.514 252.994 126.479C259.406 126.479 265.783 126.514 272.194 126.411C273.566 126.377 274.011 126.685 274.011 128.16C273.943 136.388 273.977 144.617 273.943 152.845C273.943 154.182 274.32 154.594 275.657 154.525C278.297 154.422 280.903 154.457 283.543 154.525C284.606 154.56 285.223 154.251 285.84 153.291C288.274 149.52 291.84 147.977 296.297 148.662C300.103 149.245 303.394 152.434 304.251 156.445C305.177 160.731 303.669 164.228 300.206 166.8C295.817 170.091 289.371 168.96 286.149 164.331C285.291 163.097 284.263 162.685 282.926 162.685C280.423 162.685 277.886 162.72 275.383 162.651C274.251 162.617 273.943 162.96 273.977 164.057C274.011 172.354 273.943 180.617 274.046 188.914C274.08 190.56 273.531 190.834 272.057 190.834C261.943 190.903 251.828 190.937 241.714 190.937Z" fill="#193E9F"/>
<path d="M309.703 58.5936C319.886 58.5936 330.034 58.6279 340.217 58.5593C341.657 58.5593 342 58.9022 342 60.3422C341.932 80.4679 341.966 100.559 341.966 120.685C341.966 123.051 341.966 123.051 339.635 123.051C332.777 123.051 325.92 123.017 319.063 123.085C317.657 123.085 317.04 122.708 317.314 121.268C317.349 121.097 317.349 120.925 317.314 120.754C317.006 118.594 317.657 117.085 319.372 115.474C324.892 110.228 324.617 101.554 319.029 96.2394C313.612 91.0623 304.972 91.3365 299.829 96.8909C294.686 102.445 295.131 111.188 300.823 116.228C301.337 116.708 302.194 116.948 302.194 117.839C302.194 119.451 302.194 121.028 302.126 122.64C302.092 123.188 301.509 123.017 301.166 123.017C293.623 123.051 286.08 123.017 278.537 123.051C277.269 123.051 277.543 122.228 277.543 121.542C277.543 115.131 277.543 108.719 277.543 102.274C277.543 100.182 277.509 98.1251 277.543 96.0337C277.577 95.1766 277.337 94.8337 276.411 94.8337C273.394 94.9023 270.343 94.9366 267.326 94.8337C266.229 94.7994 266.057 95.588 265.646 96.2394C263.143 100.079 258.549 101.725 254.091 100.354C249.874 99.0509 246.891 94.9023 247.028 90.4794C247.166 85.988 250.217 82.1479 254.571 80.9822C258.823 79.8508 263.314 81.6337 265.68 85.4737C266.229 86.3651 266.811 86.708 267.84 86.6737C270.651 86.6051 273.429 86.6051 276.24 86.6394C277.166 86.6394 277.543 86.4337 277.509 85.4051C277.406 80.4337 277.371 75.4622 277.371 70.5251C277.371 66.8565 277.474 63.1536 277.474 59.485C277.474 58.2164 278.331 58.525 279.017 58.525C287.589 58.4907 296.16 58.525 304.732 58.4907C306.412 58.5936 308.057 58.5936 309.703 58.5936Z" fill="#193E9F"/>
<path d="M125.772 263.57C125.772 265.43 125.42 267.18 124.717 268.82C124.014 270.445 123.053 271.867 121.834 273.086C120.631 274.289 119.209 275.242 117.569 275.945C115.944 276.648 114.202 277 112.342 277C111.217 277 110.092 276.859 108.967 276.578V269.359C109.467 269.656 110.006 269.883 110.584 270.039C111.163 270.195 111.748 270.273 112.342 270.273C113.264 270.273 114.131 270.102 114.944 269.758C115.772 269.398 116.491 268.914 117.1 268.305C117.709 267.695 118.186 266.984 118.53 266.172C118.889 265.359 119.069 264.492 119.069 263.57V243.391H125.772V263.57ZM140.664 245.078C140.664 245.672 140.547 246.227 140.313 246.742C140.094 247.258 139.789 247.711 139.398 248.102C139.008 248.477 138.547 248.781 138.016 249.016C137.5 249.234 136.945 249.344 136.352 249.344C135.758 249.344 135.195 249.234 134.664 249.016C134.148 248.781 133.695 248.477 133.305 248.102C132.93 247.711 132.625 247.258 132.391 246.742C132.172 246.227 132.063 245.672 132.063 245.078C132.063 244.5 132.172 243.953 132.391 243.438C132.625 242.906 132.93 242.453 133.305 242.078C133.695 241.688 134.148 241.383 134.664 241.164C135.195 240.93 135.758 240.812 136.352 240.812C136.945 240.812 137.5 240.93 138.016 241.164C138.547 241.383 139.008 241.688 139.398 242.078C139.789 242.453 140.094 242.906 140.313 243.438C140.547 243.953 140.664 244.5 140.664 245.078ZM139.563 277H133.117V251.898H139.563V277ZM164.72 264.227C164.72 263.352 164.548 262.508 164.205 261.695C163.877 260.867 163.423 260.141 162.845 259.516C162.267 258.875 161.588 258.367 160.806 257.992C160.041 257.602 159.22 257.406 158.345 257.406C157.47 257.406 156.642 257.555 155.861 257.852C155.095 258.148 154.423 258.586 153.845 259.164C153.283 259.742 152.838 260.461 152.509 261.32C152.181 262.164 152.017 263.133 152.017 264.227C152.017 265.273 152.181 266.219 152.509 267.062C152.838 267.891 153.283 268.602 153.845 269.195C154.423 269.789 155.095 270.25 155.861 270.578C156.642 270.891 157.47 271.047 158.345 271.047C159.22 271.047 160.041 270.859 160.806 270.484C161.588 270.094 162.267 269.586 162.845 268.961C163.423 268.32 163.877 267.594 164.205 266.781C164.548 265.953 164.72 265.102 164.72 264.227ZM171.166 273.836C171.166 275.602 170.83 277.258 170.158 278.805C169.486 280.352 168.564 281.703 167.392 282.859C166.236 284.016 164.877 284.93 163.314 285.602C161.767 286.273 160.111 286.609 158.345 286.609L155.134 286.562V280.164L158.298 280.211C159.298 280.211 160.15 280.078 160.853 279.812C161.556 279.562 162.15 279.211 162.634 278.758C163.119 278.32 163.502 277.812 163.783 277.234C164.08 276.656 164.314 276.047 164.486 275.406C164.236 275.812 163.877 276.148 163.408 276.414C162.939 276.664 162.416 276.867 161.838 277.023C161.275 277.195 160.681 277.312 160.056 277.375C159.447 277.438 158.877 277.469 158.345 277.469C156.58 277.469 154.916 277.164 153.353 276.555C151.806 275.945 150.447 275.078 149.275 273.953C148.119 272.812 147.205 271.422 146.533 269.781C145.861 268.141 145.525 266.289 145.525 264.227C145.525 262.336 145.861 260.578 146.533 258.953C147.205 257.328 148.119 255.922 149.275 254.734C150.447 253.547 151.806 252.617 153.353 251.945C154.916 251.273 156.58 250.938 158.345 250.938C159.158 250.938 159.963 251.039 160.759 251.242C161.556 251.445 162.33 251.727 163.08 252.086C163.83 252.445 164.541 252.867 165.213 253.352C165.9 253.836 166.541 254.359 167.134 254.922L169.619 251.945H171.166V273.836ZM192.245 277H177.62V270.625H192.245C192.683 270.625 193.058 270.469 193.37 270.156C193.683 269.844 193.839 269.469 193.839 269.031C193.839 268.578 193.683 268.281 193.37 268.141C193.058 268 192.683 267.93 192.245 267.93H185.589C184.48 267.93 183.441 267.719 182.472 267.297C181.503 266.875 180.659 266.305 179.941 265.586C179.222 264.852 178.652 264 178.23 263.031C177.823 262.062 177.62 261.023 177.62 259.914C177.62 258.805 177.823 257.766 178.23 256.797C178.652 255.828 179.222 254.984 179.941 254.266C180.659 253.547 181.503 252.984 182.472 252.578C183.441 252.156 184.48 251.945 185.589 251.945H198.55V258.32H185.589C185.152 258.32 184.777 258.477 184.464 258.789C184.152 259.102 183.995 259.477 183.995 259.914C183.995 260.367 184.152 260.758 184.464 261.086C184.777 261.398 185.152 261.555 185.589 261.555H192.245C193.339 261.555 194.37 261.742 195.339 262.117C196.308 262.477 197.152 262.984 197.87 263.641C198.589 264.297 199.159 265.086 199.581 266.008C200.003 266.93 200.214 267.938 200.214 269.031C200.214 270.141 200.003 271.18 199.581 272.148C199.159 273.102 198.589 273.945 197.87 274.68C197.152 275.398 196.308 275.969 195.339 276.391C194.37 276.797 193.339 277 192.245 277ZM230.341 277H228.794L226.309 273.555C225.7 274.102 225.052 274.617 224.364 275.102C223.692 275.57 222.981 275.984 222.231 276.344C221.481 276.688 220.708 276.961 219.911 277.164C219.13 277.367 218.333 277.469 217.52 277.469C215.755 277.469 214.091 277.172 212.528 276.578C210.981 275.984 209.622 275.125 208.45 274C207.294 272.859 206.38 271.469 205.708 269.828C205.036 268.188 204.7 266.32 204.7 264.227C204.7 262.273 205.036 260.484 205.708 258.859C206.38 257.219 207.294 255.812 208.45 254.641C209.622 253.469 210.981 252.562 212.528 251.922C214.091 251.266 215.755 250.938 217.52 250.938C218.333 250.938 219.138 251.039 219.934 251.242C220.731 251.445 221.505 251.727 222.255 252.086C223.005 252.445 223.716 252.867 224.388 253.352C225.075 253.836 225.716 254.359 226.309 254.922L228.794 251.945H230.341V277ZM223.895 264.227C223.895 263.352 223.723 262.508 223.38 261.695C223.052 260.867 222.598 260.141 222.02 259.516C221.442 258.875 220.763 258.367 219.981 257.992C219.216 257.602 218.395 257.406 217.52 257.406C216.645 257.406 215.817 257.555 215.036 257.852C214.27 258.148 213.598 258.586 213.02 259.164C212.458 259.742 212.013 260.461 211.684 261.32C211.356 262.164 211.192 263.133 211.192 264.227C211.192 265.32 211.356 266.297 211.684 267.156C212.013 268 212.458 268.711 213.02 269.289C213.598 269.867 214.27 270.305 215.036 270.602C215.817 270.898 216.645 271.047 217.52 271.047C218.395 271.047 219.216 270.859 219.981 270.484C220.763 270.094 221.442 269.586 222.02 268.961C222.598 268.32 223.052 267.594 223.38 266.781C223.723 265.953 223.895 265.102 223.895 264.227ZM269.327 267.93C269.327 269.242 269.077 270.484 268.577 271.656C268.077 272.812 267.389 273.82 266.514 274.68C265.655 275.539 264.639 276.219 263.467 276.719C262.311 277.219 261.069 277.469 259.741 277.469C258.553 277.469 257.413 277.266 256.319 276.859C255.225 276.438 254.233 275.828 253.342 275.031C252.467 275.828 251.483 276.438 250.389 276.859C249.311 277.266 248.17 277.469 246.967 277.469C245.639 277.469 244.397 277.219 243.241 276.719C242.084 276.219 241.069 275.539 240.194 274.68C239.334 273.82 238.655 272.812 238.155 271.656C237.655 270.484 237.405 269.242 237.405 267.93V251.945H243.803V267.93C243.803 268.367 243.881 268.781 244.038 269.172C244.209 269.547 244.436 269.883 244.717 270.18C245.014 270.461 245.35 270.688 245.725 270.859C246.116 271.016 246.53 271.094 246.967 271.094C247.405 271.094 247.819 271.016 248.209 270.859C248.6 270.688 248.944 270.461 249.241 270.18C249.538 269.883 249.764 269.547 249.92 269.172C250.092 268.781 250.178 268.367 250.178 267.93V251.945H256.553V267.93C256.553 268.367 256.639 268.781 256.811 269.172C256.983 269.547 257.209 269.883 257.491 270.18C257.788 270.461 258.123 270.688 258.498 270.859C258.889 271.016 259.303 271.094 259.741 271.094C260.178 271.094 260.592 271.016 260.983 270.859C261.373 270.688 261.709 270.461 261.991 270.18C262.288 269.883 262.522 269.547 262.694 269.172C262.866 268.781 262.952 268.367 262.952 267.93V251.945H269.327V267.93ZM299.627 250.117V263.57H306.353C307.275 263.57 308.142 263.398 308.955 263.055C309.767 262.695 310.478 262.211 311.088 261.602C311.697 260.992 312.173 260.281 312.517 259.469C312.877 258.641 313.056 257.766 313.056 256.844C313.056 255.922 312.877 255.055 312.517 254.242C312.173 253.414 311.697 252.695 311.088 252.086C310.478 251.477 309.767 251 308.955 250.656C308.142 250.297 307.275 250.117 306.353 250.117H299.627ZM299.627 277H292.9V243.391H306.353C307.588 243.391 308.775 243.555 309.916 243.883C311.056 244.195 312.119 244.648 313.103 245.242C314.103 245.82 315.009 246.523 315.822 247.352C316.65 248.164 317.353 249.07 317.931 250.07C318.525 251.07 318.978 252.141 319.291 253.281C319.619 254.422 319.783 255.609 319.783 256.844C319.783 258.688 319.431 260.43 318.728 262.07C318.025 263.695 317.064 265.117 315.845 266.336C314.627 267.555 313.197 268.516 311.556 269.219C309.931 269.922 308.197 270.273 306.353 270.273H299.627V277ZM343.909 274.07C343.394 274.539 342.839 274.984 342.245 275.406C341.667 275.812 341.058 276.172 340.417 276.484C339.777 276.781 339.113 277.016 338.425 277.188C337.753 277.375 337.066 277.469 336.363 277.469C334.816 277.469 333.363 277.195 332.003 276.648C330.644 276.102 329.448 275.328 328.417 274.328C327.402 273.312 326.597 272.086 326.003 270.648C325.425 269.195 325.136 267.57 325.136 265.773V251.898H331.511V265.773C331.511 266.617 331.636 267.375 331.886 268.047C332.152 268.703 332.503 269.258 332.941 269.711C333.378 270.164 333.886 270.508 334.464 270.742C335.058 270.977 335.691 271.094 336.363 271.094C337.019 271.094 337.636 270.945 338.214 270.648C338.808 270.336 339.323 269.93 339.761 269.43C340.198 268.93 340.542 268.367 340.792 267.742C341.042 267.102 341.167 266.445 341.167 265.773V251.898H347.566V277H346.019L343.909 274.07ZM374.458 277H353.528L364.098 258.32H353.528V251.945H374.458L363.888 270.625H374.458V277ZM400.014 277H379.084L389.655 258.32H379.084V251.945H400.014L389.444 270.625H400.014V277ZM412.422 277H405.977V241.914H412.422V277ZM429.705 270.859C429.955 270.938 430.205 270.992 430.455 271.023C430.705 271.039 430.955 271.047 431.205 271.047C431.83 271.047 432.431 270.961 433.009 270.789C433.587 270.617 434.127 270.375 434.627 270.062C435.142 269.734 435.595 269.344 435.986 268.891C436.392 268.422 436.72 267.906 436.97 267.344L441.658 272.055C441.064 272.898 440.377 273.656 439.595 274.328C438.83 275 437.994 275.57 437.087 276.039C436.197 276.508 435.252 276.859 434.252 277.094C433.267 277.344 432.252 277.469 431.205 277.469C429.439 277.469 427.775 277.141 426.212 276.484C424.666 275.828 423.306 274.914 422.134 273.742C420.978 272.57 420.064 271.18 419.392 269.57C418.72 267.945 418.384 266.164 418.384 264.227C418.384 262.242 418.72 260.43 419.392 258.789C420.064 257.148 420.978 255.75 422.134 254.594C423.306 253.438 424.666 252.539 426.212 251.898C427.775 251.258 429.439 250.938 431.205 250.938C432.252 250.938 433.275 251.062 434.275 251.312C435.275 251.562 436.22 251.922 437.111 252.391C438.017 252.859 438.861 253.438 439.642 254.125C440.423 254.797 441.111 255.555 441.705 256.398L429.705 270.859ZM432.986 257.664C432.689 257.555 432.392 257.484 432.095 257.453C431.814 257.422 431.517 257.406 431.205 257.406C430.33 257.406 429.502 257.57 428.72 257.898C427.955 258.211 427.283 258.664 426.705 259.258C426.142 259.852 425.697 260.57 425.369 261.414C425.041 262.242 424.877 263.18 424.877 264.227C424.877 264.461 424.884 264.727 424.9 265.023C424.931 265.32 424.97 265.625 425.017 265.938C425.08 266.234 425.15 266.523 425.228 266.805C425.306 267.086 425.408 267.336 425.533 267.555L432.986 257.664Z" fill="#123181"/>
<defs>
<linearGradient id="paint0_linear" x1="275.5" y1="0" x2="275.5" y2="314" gradientUnits="userSpaceOnUse">
<stop stop-color="#00A3FF"/>
<stop offset="1" stop-color="#00FDEE"/>
</linearGradient>
</defs>
</svg>
