<svg width="166" height="165" viewBox="0 0 166 165" fill="none" xmlns="http://www.w3.org/2000/svg">
<path d="M117.627 164.53C115.993 165.072 114.286 165.072 112.616 164.964C109.166 164.205 106.587 162.398 105.498 158.892C105.316 157.084 105.098 155.277 105.934 153.542C106.333 152.928 106.769 152.313 107.168 151.699C108.076 150.723 109.02 149.747 109.311 148.373C109.819 147.94 109.674 147.361 109.456 146.892C108.984 145.988 108.04 145.699 107.132 145.446C106.26 145.337 105.425 145.229 104.554 145.12C103.9 144.976 103.282 144.867 102.592 145.012C102.302 145.012 102.011 145.048 101.721 145.048C99.8688 144.867 98.053 144.904 96.2009 145.048C94.3851 144.904 92.6056 144.904 90.7898 145.048C88.9377 144.904 87.1219 144.904 85.2698 145.048C84.9066 145.048 84.5071 145.048 84.144 145.048C76.9171 144.831 69.6902 144.976 62.4634 144.976C61.0107 144.904 59.5218 144.759 58.1055 144.47C57.2702 144.036 56.326 143.711 55.9992 142.699C55.9992 140.892 57.0523 139.59 58.1418 138.361C59.8123 136.482 60.6839 134.422 60.2481 131.892C60.0302 130.229 59.4492 128.711 58.1055 127.59C57.6697 127.084 57.1613 126.651 56.5439 126.434C55.4544 125.422 54.0744 125.277 52.6944 125.133C51.0602 124.482 49.6439 125.133 48.1186 125.675C45.177 126.759 43.4702 128.783 42.9254 131.855C42.526 134.313 43.1796 136.482 44.9591 138.217C45.867 139.084 46.4481 140.169 46.9202 141.289C47.4286 142.446 47.1381 143.313 45.976 143.928C44.6323 144.651 43.216 144.904 41.727 144.976C41.5454 144.976 41.3638 144.976 41.1823 144.976C34.718 144.976 28.2538 144.94 21.7896 145.048C20.3369 145.084 20.0827 144.578 20.0827 143.313C20.1554 139.301 20.1554 135.289 20.119 131.277C20.0827 128.639 20.2643 125.964 19.9375 123.325C19.9375 122.928 19.9012 122.53 19.9012 122.133C19.7196 121.446 19.6106 120.723 19.3564 120.072C18.6301 118.193 17.5769 117.867 15.9064 118.952C14.9622 119.566 14.018 120.181 13.1827 120.94C11.9843 121.988 10.6043 122.422 9.0427 122.458C7.19059 122.458 5.26584 122.566 3.63163 121.41C3.41373 121.301 3.23215 121.157 3.01426 121.048C1.41636 119.566 0.617408 117.687 3.71821e-05 115.663C-0.108911 113.819 -0.145226 111.976 0.50846 110.205C2.10636 106.482 5.01163 104.747 9.00638 104.783C10.7132 105.036 12.0932 105.831 13.4006 106.916C14.3085 107.675 15.3253 108.361 16.4148 108.904C17.2138 109.301 18.2306 109.518 18.7754 108.47C19.3927 107.313 19.9375 106.12 19.8648 104.783C19.9012 104.241 19.9012 103.735 19.9375 103.193C19.9738 102.651 20.0464 102.145 20.0827 101.602C20.0827 95.2771 20.119 88.9156 20.119 82.5903C20.3733 82.6265 20.6275 82.6988 20.8454 82.7349C20.1554 83.3855 20.7727 84.1084 20.7727 84.7952C20.7364 91.0843 20.7727 97.3373 20.7001 103.626C20.7001 105.217 20.4822 106.807 19.538 108.253C18.6664 109.59 17.6133 110.06 16.1606 109.41C14.8169 108.831 13.6548 107.964 12.5653 107.024C8.64322 103.663 3.52268 105.687 1.59794 109.88C0.181617 112.988 0.544776 116.205 2.68741 119.024C4.64847 121.626 8.97007 122.494 11.6938 120.831C13.1101 119.964 14.4175 118.916 15.8701 118.084C17.359 117.253 18.5575 117.687 19.538 119.06C20.3369 120.145 20.5185 121.337 20.5185 122.639C20.5185 129.217 20.5548 135.831 20.5548 142.41C20.5548 144.145 20.7001 144.289 22.4069 144.289C28.5807 144.289 34.7544 144.289 40.9281 144.289C41.9449 144.289 42.8891 144.145 43.8696 143.928C47.0654 143.133 46.666 141.94 45.286 139.626C45.2133 139.482 45.0318 139.373 44.8865 139.229C43.0707 137.241 41.6544 135.108 42.2354 132.217C42.5986 130.446 42.6712 128.53 44.1602 127.193C45.1407 126.325 46.2302 125.711 47.3923 125.133C50.7333 123.506 56.0718 124.048 58.9771 127.229C61.156 129.651 61.6644 133.988 60.1028 136.627C59.3765 137.819 58.4323 138.867 57.6697 140.024C56.3623 141.94 57.1976 143.819 59.4855 144.036C60.7565 144.145 62.0276 144.289 63.2623 144.289C69.2908 144.289 75.3192 144.253 81.3476 144.325C82.5461 144.325 82.8003 143.964 82.8003 142.88C82.764 136.59 82.8003 130.337 82.764 124.048C82.764 122.566 82.5824 121.084 81.9287 119.711C81.3113 118.337 80.3308 117.976 78.9508 118.59C78.0066 118.988 77.135 119.566 76.3724 120.253C75.3918 121.084 74.4113 121.88 73.1766 122.241C68.6734 123.651 63.1534 121.084 62.6086 114.325C62.2818 110.386 64.2792 107.313 67.8018 105.578C69.6902 104.639 71.9781 104.494 73.9392 105.651C75.2466 106.41 76.3361 107.494 77.6434 108.289C80.1492 109.807 81.6019 109.554 82.3645 106.699C82.5824 105.94 82.7277 105.108 82.7277 104.313C82.7277 97.0843 82.7277 89.8554 82.7277 82.6265C82.8003 82.5903 82.9092 82.5181 82.9819 82.4819C83.345 82.4819 83.7082 82.5181 84.0713 82.5181C91.734 82.8072 99.3967 81.9397 107.059 83.0241C109.347 83.3494 110.4 84.9397 109.129 86.7831C108.258 88.012 107.713 89.494 106.442 90.3976C105.825 90.8313 105.498 91.5181 105.461 92.2409C105.389 93.6506 105.062 95.1687 105.498 96.3976C106.115 98.2048 106.769 100.12 108.875 101.06C109.856 101.494 110.836 102 111.853 102.289C113.524 102.795 115.23 102.831 116.865 102.289C119.552 101.386 121.695 99.7952 122.457 96.8675C122.966 94.8072 123.22 92.747 121.913 90.8313C120.859 89.2771 119.479 87.9397 118.826 86.0964C118.39 84.9036 119.007 83.5662 120.278 83.1687C121.804 82.6988 123.365 82.5181 124.963 82.5181C131.391 82.5542 137.855 82.5542 144.283 82.5181C144.864 82.5181 145.191 82.7349 145.554 83.0241C145.59 84.8675 145.627 86.6747 145.663 88.5181C145.663 90.3253 145.663 92.0964 145.663 93.9036C145.663 95.7108 145.663 97.5542 145.663 99.3614C145.627 100.735 145.59 102.145 145.554 103.518C145.373 104.639 145.227 105.795 145.046 106.916C144.9 107.205 144.755 107.458 144.61 107.747C143.847 109.373 142.867 109.735 141.269 108.904C140.506 108.506 139.816 108 139.09 107.566C137.71 106.229 136.221 105.072 134.115 105.108C132.117 105 130.265 105.289 128.667 106.663C127.36 107.53 126.452 108.687 126.016 110.205C125.145 111.94 125.363 113.747 125.508 115.59C125.835 117.795 126.851 119.566 128.667 120.904C128.776 120.94 128.849 121.012 128.958 121.048C131.536 123 135.168 123.072 137.71 121.157C138.4 120.651 139.017 120.072 139.671 119.53C139.78 119.458 139.925 119.422 140.034 119.349C142.83 117.542 143.375 117.687 144.973 120.506C145.009 120.542 145.046 120.578 145.082 120.614C145.118 120.759 145.155 120.904 145.155 121.048C145.336 122.855 145.518 124.626 145.663 126.434C145.663 128.241 145.663 130.084 145.663 131.892C145.663 133.699 145.663 135.47 145.663 137.277C145.663 139.084 145.663 140.928 145.663 142.735C145.373 143.458 145.99 144.434 145.118 145.048C139.635 145.012 134.187 144.904 128.704 145.084C127.687 144.94 126.706 144.976 125.689 145.084C125.363 145.012 124.999 144.867 124.709 145.157C124.237 145.193 123.801 145.229 123.329 145.265C122.13 145.229 121.005 145.482 119.951 146.06C119.116 146.494 118.426 147.072 118.862 148.193C119.479 150 120.714 151.373 121.985 152.747C122.058 152.855 122.094 152.964 122.167 153.072C122.167 153.145 122.167 153.217 122.239 153.289C122.239 153.434 122.276 153.578 122.457 153.578C122.639 154.12 122.82 154.663 123.002 155.205C123.038 155.386 123.038 155.53 123.075 155.711C123.075 155.819 123.075 155.892 123.111 156C123.111 156.289 123.111 156.542 123.147 156.831C123.075 156.904 123.075 157.012 123.147 157.084C123.147 157.265 123.147 157.446 123.111 157.627C122.603 160.048 121.622 162.145 119.479 163.627C119.007 164.024 118.063 163.771 117.627 164.53Z" fill="#F80384"/>
<path d="M20.918 82.6265C20.6638 82.5904 20.4095 82.5181 20.1916 82.4819C20.1553 82.3373 20.119 82.1566 20.0827 82.012C20.0827 80.5301 20.0827 79.0843 20.0827 77.6386C20.2643 75.7952 20.228 73.988 20.0827 72.1446C20.1916 70.3374 20.1916 68.5663 20.0827 66.759C20.119 64.9518 20.1553 63.1084 20.1916 61.3012C20.4822 60 20.4095 58.6265 20.9906 57.3615C21.7532 55.6988 23.3148 55.2651 24.8038 56.3855C25.9659 57.253 27.1643 58.1566 28.3627 58.9518C28.9075 59.3133 29.4522 59.7831 30.1785 59.7108C32.3575 60.3976 34.3912 59.9277 36.3522 58.8434C37.4417 58.0843 38.5675 57.3253 39.0033 55.9157C40.3833 54.2892 40.0928 52.3012 40.0564 50.3855C40.2743 48.1446 39.2938 46.4458 37.7322 44.9639C37.2601 44.6024 37.0785 43.8795 36.3159 43.8434C36.0617 43.6265 35.8801 43.3735 35.517 43.3374C35.2264 43.2289 34.9359 43.0843 34.6454 42.9759C33.4106 42.6506 32.1396 42.9398 30.8685 42.9036C28.9801 42.6145 27.9633 43.9518 26.7648 45C26.1838 45.1446 25.8206 45.6145 25.3848 45.9759C22.5522 47.4578 22.1164 47.3494 20.7727 44.9639C20.6274 44.1687 20.4459 43.3735 20.3006 42.5422C20.228 41.5301 20.119 40.5542 20.0464 39.5422C20.1917 37.8072 20.1553 36.1084 20.0464 34.3735C20.228 32.494 20.228 30.5783 20.0464 28.6988C20.1553 26.8916 20.1553 25.1205 20.0464 23.3133C20.3732 22.3374 19.6106 21.1807 20.5185 20.3133C20.8817 19.988 21.3174 20.0241 21.7532 20.0241C22.9517 20.0241 24.1501 20.0241 25.3848 19.988C27.2006 19.988 29.0527 19.988 30.8685 19.988C32.6843 19.988 34.4638 19.988 36.2796 19.988C38.0954 19.988 39.9475 19.988 41.7633 19.9518C42.6349 19.8072 43.5791 19.7711 44.378 19.4819C45.2496 19.1566 46.3754 19.1205 46.6296 17.8916C46.8838 17.2771 47.0654 16.6265 46.6296 16.0482C45.6491 14.747 44.5959 13.4819 43.6154 12.2169C42.8165 10.8434 42.417 9.36145 42.5622 7.77109L42.6349 7.73494L42.5986 7.6988C42.6349 7.51807 42.6712 7.30121 42.7075 7.12048C42.9617 6.65061 42.7438 6.10844 42.998 5.56627C43.7244 4.08434 44.487 2.6747 45.8307 1.66265C46.3028 1.3735 46.7386 1.08434 47.2107 0.795183C48.9538 0.0361472 50.806 -0.0722866 52.6944 -0.036142C57.0523 0.506027 59.1586 2.45783 60.4297 7.0482C60.2118 8.89157 60.6476 10.8434 59.4128 12.4699C58.8681 12.9036 58.4323 13.4458 58.0691 14.0602C57.2702 14.8916 56.7254 15.8675 56.326 16.9157C55.9628 17.747 56.5439 19.0482 57.3428 19.2289C59.4128 19.6627 61.4465 20.3494 63.5892 20.0241C65.4049 20.0241 67.1844 20.0241 69.0002 20.0241C70.816 20.0241 72.6681 20.0241 74.4839 20.0241C76.2997 20.0241 78.0792 20.0241 79.895 20.0241C81.0208 20.2048 82.1829 19.7711 83.2361 20.3494C83.1997 20.747 83.1271 21.1446 83.1271 21.5422C83.1271 28.3012 83.1634 35.0964 83.1634 41.8554C83.1634 43.5904 83.7808 45 84.7613 46.4096C85.1971 47.0241 85.7055 47.0602 86.105 46.7711C87.3761 45.8313 88.9013 45.2892 90.0271 44.0964C90.7898 43.3012 91.8429 42.6145 93.114 42.8313C93.9492 43.8072 95.0024 43.0843 96.0192 43.3012C95.8014 42.9759 95.6924 42.7952 95.5835 42.6145C96.6003 42.4699 97.3993 43.2651 98.3798 43.3374C99.6508 43.4096 100.522 44.2771 100.995 45.1807C101.467 46.1205 102.12 46.9518 102.52 47.9277C104.227 51.9036 103.065 56.5301 99.5419 58.8795C98.6703 59.4578 97.5808 59.4578 96.6729 59.8193C94.7482 60.5783 93.0777 60.1084 91.4435 59.2771C89.7366 58.4096 88.5019 56.8554 86.6497 56.1325C85.3787 55.6265 84.1803 55.8072 83.9624 57.0361C83.7808 58.0843 83.2361 59.0602 83.2361 60.1446C83.2361 67.5542 83.2361 74.9639 83.2361 82.3374C83.1634 82.3735 83.0545 82.4458 82.9818 82.4819C82.5461 82.4458 82.0739 82.4096 81.6382 82.4096C74.8471 82.4096 68.0197 82.3735 61.2286 82.3735C59.776 82.3735 58.4686 81.9398 57.1976 81.3253C56.2533 80.8554 55.8902 80.0964 56.1807 78.9759C56.5075 77.7108 57.3791 76.8795 58.2144 76.0482C61.7007 72.5422 61.1923 66.7229 57.0886 63.9759C53.4933 61.5542 48.4817 61.8434 45.2859 64.8434C44.7049 65.3855 43.8696 65.5301 43.4338 66.5422C42.5986 68.494 43.0707 70.4096 42.9617 72.3615C42.9254 73.4819 43.3249 74.3855 44.1238 75.1084C45.1044 76.0482 45.7944 77.2048 46.448 78.3615C47.1744 79.6627 46.8838 80.6747 45.6128 81.3615C44.3417 82.0482 42.9617 82.4096 41.5091 82.4096C35.1901 82.4458 28.9075 82.4096 22.5885 82.4458C21.9711 82.5181 21.4264 82.4096 20.918 82.6265Z" fill="#C0FE00"/>
<path d="M83.1634 82.4458C83.1634 75.0362 83.1634 67.6265 83.1634 60.253C83.1634 59.1687 83.7081 58.1928 83.8897 57.1446C84.1076 55.9157 85.306 55.7711 86.5771 56.241C88.4292 56.9639 89.6639 58.5181 91.3708 59.3856C93.005 60.2169 94.6755 60.6868 96.6003 59.9277C97.5082 59.5663 98.5977 59.5663 99.4692 58.988C103.028 56.6386 104.154 52.0482 102.447 48.0361C102.011 47.0602 101.394 46.1928 100.922 45.2892C100.45 44.3855 99.5782 43.5181 98.3071 43.4458C97.3266 43.3735 96.5276 42.5783 95.5108 42.7229C94.7119 42.7952 93.8403 42.5422 93.0413 42.9398C91.734 42.7229 90.7171 43.4096 89.9545 44.2048C88.8287 45.3976 87.3397 45.9398 86.0323 46.8795C85.6329 47.1687 85.1245 47.1325 84.6887 46.5181C83.7444 45.1084 83.0908 43.6988 83.0908 41.9639C83.1271 35.2048 83.0908 28.4096 83.0544 21.6506C83.0544 21.253 83.1271 20.8554 83.1634 20.4578C83.8171 20.0241 84.5797 20.241 85.306 20.1325C87.0855 20.1325 88.9013 20.1325 90.6808 20.1325C92.5329 20.1325 94.3487 20.1325 96.2008 20.1325C97.9803 20.1325 99.7961 20.1325 101.576 20.1325C103.391 20.1687 105.243 20.2048 107.059 20.4578C107.35 20.8193 107.858 20.7831 108.221 20.9639C109.202 21.4699 109.965 22.1566 109.819 23.4217C109.166 24.8675 108.367 26.241 107.241 27.3253C104.045 30.3976 105.352 36.6145 108.984 38.7108C111.49 40.1566 114.068 40.6627 116.865 39.8675C117.155 39.9398 117.482 40.1205 117.7 39.6868C120.242 38.6747 121.912 36.9036 122.566 34.2289C122.929 32.3855 123.22 30.5422 122.167 28.8072C121.186 26.9639 119.516 25.6265 118.717 23.6386C118.68 23.3494 118.644 23.0964 118.608 22.8072C118.68 22.7349 118.68 22.6988 118.644 22.5904C118.789 21.8675 119.261 21.4337 119.915 21.1084C121.005 20.5301 122.203 20.3133 123.401 20.0964C125.217 20.0964 127.069 20.0602 128.885 20.0602C130.701 20.0602 132.48 20.0602 134.296 20.0602C136.112 20.0602 137.964 20.0602 139.78 20.0602C141.596 20.0602 143.375 20.0602 145.191 20.0602C145.772 21.1084 145.663 22.2651 145.772 23.3855C145.772 25.1928 145.772 26.9639 145.772 28.7711C145.772 30.5783 145.772 32.4217 145.772 34.2289C145.772 36.0361 145.772 37.8072 145.772 39.6145C145.772 41.494 145.554 43.3735 146.535 45.1084C147.225 46.8072 148.75 47.241 150.275 46.1566C152.164 44.8193 153.653 42.8675 156.086 42.3976C158.01 42.253 159.826 42.5783 161.569 43.3735C162.296 43.9157 162.986 44.494 163.712 45.0362C164.947 46.6627 165.528 48.506 165.927 50.4578C166.036 52.3374 165.528 54.1084 164.838 55.8434C164.003 57.253 162.986 58.4819 161.497 59.2048C159.681 60.3615 157.611 60.2892 155.577 60.1807C153.87 59.6024 152.636 58.3012 151.147 57.3976C150.747 56.8916 150.203 56.6747 149.622 56.3856C147.842 55.5904 146.934 55.9518 146.317 57.8313C145.954 58.9518 145.627 60.0723 145.772 61.2289C145.627 63.0362 145.663 64.8795 145.736 66.6868C145.736 68.494 145.736 70.2651 145.736 72.0723C145.736 73.8795 145.736 75.7229 145.736 77.5301C145.736 79.3012 145.736 81.1085 145.699 82.8795H145.627C145.264 82.5904 144.937 82.3735 144.356 82.3735C137.928 82.4097 131.464 82.4097 125.036 82.3735C123.438 82.3735 121.876 82.5181 120.351 83.0241C119.08 83.4217 118.462 84.7591 118.898 85.9518C119.552 87.7952 120.932 89.1325 121.985 90.6868C123.292 92.6024 123.038 94.6627 122.53 96.7229C121.804 99.6506 119.661 101.241 116.937 102.145C115.303 102.687 113.596 102.651 111.926 102.145C110.872 101.855 109.928 101.349 108.948 100.916C106.841 99.9759 106.188 98.0603 105.57 96.253C105.135 94.988 105.461 93.4699 105.534 92.0964C105.57 91.3735 105.897 90.6868 106.515 90.253C107.822 89.3494 108.367 87.8675 109.202 86.6386C110.509 84.7952 109.42 83.2048 107.132 82.8795C99.4692 81.8313 91.8066 82.6627 84.1439 82.3735C83.8897 82.4458 83.5266 82.4458 83.1634 82.4458Z" fill="#00BDFF"/>
<path d="M20.918 82.6265C21.4264 82.4096 22.0075 82.4819 22.5159 82.4819C28.8349 82.4819 35.1175 82.4819 41.4365 82.4458C42.8891 82.4458 44.2691 82.0482 45.5402 81.3976C46.8113 80.7108 47.1381 79.6988 46.3755 78.3976C45.7218 77.241 45.0318 76.0843 44.0513 75.1446C43.2523 74.3855 42.8528 73.5181 42.8891 72.3976C42.9618 70.4819 42.526 68.5663 43.3612 66.5783C43.797 65.5663 44.6323 65.4217 45.2134 64.8795C48.4092 61.8795 53.3844 61.5904 57.016 64.0121C61.1197 66.759 61.6281 72.5783 58.1418 76.0843C57.3066 76.9157 56.435 77.747 56.1081 79.0121C55.8176 80.1325 56.1808 80.8916 57.125 81.3615C58.396 81.9759 59.7034 82.4096 61.156 82.4096C67.9471 82.4096 74.7745 82.4096 81.5656 82.4458C82.0014 82.4458 82.4735 82.4819 82.9093 82.5181C82.9093 89.747 82.9456 96.9759 82.9093 104.205C82.9093 105 82.764 105.831 82.5461 106.59C81.7472 109.446 80.2945 109.663 77.825 108.181C76.5177 107.386 75.4282 106.301 74.1208 105.542C72.1234 104.386 69.8719 104.53 67.9834 105.47C64.4608 107.205 62.4634 110.277 62.7903 114.217C63.335 120.976 68.855 123.542 73.3582 122.133C74.5929 121.735 75.5734 120.94 76.554 120.145C77.3529 119.458 78.1882 118.916 79.1324 118.482C80.5124 117.904 81.4929 118.265 82.1103 119.602C82.764 120.976 82.9456 122.458 82.9456 123.94C82.9819 130.229 82.9456 136.482 82.9819 142.771C82.9819 143.855 82.7277 144.217 81.5293 144.217C75.5008 144.145 69.4724 144.217 63.4439 144.181C62.1729 144.181 60.9018 144.036 59.6671 143.928C57.3792 143.711 56.5439 141.795 57.8513 139.916C58.6502 138.759 59.5945 137.747 60.2845 136.518C61.846 133.88 61.3376 129.542 59.1587 127.12C56.2897 123.94 50.915 123.398 47.5739 125.024C46.3755 125.602 45.286 126.217 44.3418 127.084C42.8528 128.422 42.7802 130.337 42.417 132.108C41.7997 135 43.216 137.133 45.0681 139.12C45.177 139.265 45.3586 139.337 45.4676 139.518C46.8476 141.831 47.2834 143.024 44.0513 143.819C43.0707 144.072 42.0902 144.181 41.1097 144.181C34.936 144.181 28.7623 144.181 22.5886 144.181C20.8817 144.181 20.7364 144.036 20.7364 142.301C20.7364 135.723 20.7001 129.108 20.7001 122.53C20.7001 121.265 20.5185 120.036 19.7196 118.952C18.7391 117.578 17.5043 117.145 16.0517 117.976C14.5991 118.807 13.2917 119.819 11.8754 120.723C9.15167 122.422 4.83007 121.518 2.86902 118.916C0.726377 116.06 0.363218 112.88 1.77954 109.771C3.70428 105.578 8.82482 103.554 12.7469 106.916C13.8364 107.855 14.9985 108.723 16.3422 109.301C17.7949 109.952 18.848 109.446 19.7196 108.145C20.6638 106.699 20.8817 105.108 20.8817 103.518C20.9543 97.2289 20.8817 90.9759 20.9543 84.6868C20.8454 84 20.228 83.2771 20.918 82.6265Z" fill="#FCB602"/>
</svg>
