<svg width="80" height="80" viewBox="0 0 194 212" fill="none" xmlns="http://www.w3.org/2000/svg">
<path d="M97 194C150.572 194 194 150.572 194 97C194 43.4284 150.572 0 97 0C43.4284 0 0 43.4284 0 97C0 150.572 43.4284 194 97 194Z" fill="#9CD5FF"/>
<path d="M93.4 25.3C49.8 28.5 45.9 64.7 95.7 64.8C138.6 64.9 139.8 26.8 93.4 25.3Z" fill="#234154"/>
<path d="M92.5997 39.3C108.4 39.7 119.3 43.5 125.5 48.5C126.9 38.2 116.5 27 93.5997 26.2C72.6997 27.9 61.6997 38.4 62.2997 48.1C68.7997 43.6 78.9997 40.2 92.5997 39.3Z" fill="#2E4F68"/>
<path d="M88.8998 28.6C86.0998 35.2 100.6 38 97.9998 28.2C97.9998 28.2 99.4998 34.1 92.8998 33.3C89.0998 32.9 88.9998 29.7 88.8998 28.6Z" fill="#CCB73B"/>
<path d="M98.7998 28.4C101.5 28.5 105.9 29.8 98.9998 29.5L98.7998 28.4Z" fill="#CCB73B"/>
<path d="M99 29.8C100.9 29.9 104 30.7 99.2 30.6L99 29.8Z" fill="#CCB73B"/>
<path d="M88.0997 28.9C85.1997 29.1 80.6997 30.5 87.8997 30L88.0997 28.9Z" fill="#CCB73B"/>
<path d="M87.9998 30.3C85.9998 30.4 82.7998 31.4 87.8998 31.1L87.9998 30.3Z" fill="#CCB73B"/>
<path d="M115 161.3C136.5 145 120 137.9 108.3 137.3L106.8 130.7C124.4 132 143 144.1 117.7 163.8L115 161.3Z" fill="#38566B"/>
<path d="M118.8 161.5C116.1 162.3 107.6 164.6 111 167.6C112.4 168.8 114.4 168 115 166.5C115.7 164.9 118.8 161.5 118.8 161.5Z" fill="#FFC388"/>
<path d="M111.2 166.9C111.2 166.2 111 165.7 110.6 165.7C110.2 165.7 109.9 166.3 109.9 166.9C109.9 167.6 110.3 167.9 110.7 167.9C111.1 167.9 111.2 167.6 111.2 166.9Z" fill="#FFC388"/>
<path d="M112 167.8C112 167.1 111.8 166.6 111.4 166.6C111 166.6 110.7 167.2 110.7 167.8C110.7 168.5 111.1 168.8 111.5 168.8C111.9 168.7 112 168.4 112 167.8Z" fill="#FFC388"/>
<path d="M113.1 168.1C113.1 167.4 112.9 166.9 112.5 166.9C112.1 166.9 111.8 167.5 111.8 168.1C111.8 168.8 112.2 169.1 112.6 169.1C113 169.1 113.1 168.8 113.1 168.1Z" fill="#FFC388"/>
<path d="M113.2 168.1C112.5 168.3 112 168.6 112.1 168.9C112.2 169.2 112.9 169.2 113.6 169C114.3 168.8 114.5 168.4 114.3 168.2C114.2 167.9 113.8 167.9 113.2 168.1Z" fill="#FFC388"/>
<path d="M110.1 165.2C110.5 166.7 111 165.2 111.9 164.7C112.8 164.2 113.4 164 113.2 163.7C112.9 163.2 110 164.8 110.1 165.2Z" fill="#FFC388"/>
<path d="M121.2 155.9L113.1 162.6L117.1 166.2L124.6 157.5L121.2 155.9Z" fill="#38566B"/>
<path d="M118.3 158.3L117.4 159.1L120.7 162L121.5 161.2L118.3 158.3Z" fill="#EFD967"/>
<path d="M116 160.3L115.1 161.1L118.7 164.1L119.7 163.2L116 160.3Z" fill="#EFD967"/>
<path opacity="0.2" d="M121.2 155.9L113.1 162.7L114.3 163.8C137.1 146.8 126 136.7 108.9 135.6L107.9 130.9C107.5 130.9 107.1 130.8 106.7 130.8L108.2 137.4C118.6 137.8 132.6 143.4 121.2 155.9Z" fill="#466777"/>
<path d="M108.1 163.8L81.4999 166.9L78.3999 174C90.1999 176.5 98.6999 176.2 110.6 173.2L108.1 163.8Z" fill="#233D4C"/>
<path d="M83.0997 210.4C80.7997 193.4 80.3997 170.2 83.0997 164.6L107.8 167.4C109.3 175.4 110.4 205.4 110.6 210.4L108.3 210.1C108.3 210.1 103.4 178.5 94.8997 178.7C86.2997 178.9 84.9997 204.6 85.5997 210.2L83.0997 210.4Z" fill="#38566B"/>
<path d="M95.2998 174.9C100.3 174.9 104.9 175.6 109 176.9C108.7 172.6 108.3 168.9 107.8 166.9L83.0998 164.6C81.9998 166.5 81.3998 171.2 81.2998 177C85.3998 175.7 90.1998 174.9 95.2998 174.9Z" fill="#233D4C"/>
<path d="M100.7 128L91.2998 128.6L91.3998 130.7L100.8 130.6L100.7 128Z" fill="#84B2B7"/>
<path d="M111 134.2C111.1 132.7 109.9 131.5 108.1 131.2C100.2 129.9 90.7998 129.9 82.3998 132.1C81.0998 132.5 81.9998 133.5 81.9998 134.6C81.2998 144.4 82.1998 155.2 81.2998 164.5C81.4998 167.1 106.3 166.5 108.1 163.9C108.4 158.3 110.5 148.3 111 134.2Z" fill="#CCF5FF"/>
<path d="M96.6997 131.4L100.2 128.9L102 130.4L99.3997 133.7L96.6997 131.4Z" fill="#B0E2EA"/>
<path d="M96 131.6L91.5 129.4L89.5 131L91.8 134L96 131.6Z" fill="#B0E2EA"/>
<path d="M98.2996 132.3L95.8996 130.9L93.5996 132.1L95.8996 133.8L98.2996 132.3Z" fill="#263F4C"/>
<path d="M95.2997 133.2L94.1997 138.9L95.8997 142.1L97.7997 139L96.4997 133L95.2997 133.2Z" fill="#263F4C"/>
<path opacity="0.2" d="M110.9 136.7C109.6 148 107.4 157.7 107.1 162.4C104 165.8 82.8997 166 82.7997 163.3C83.5997 155.9 80.8997 145.3 79.9997 136.7C79.7997 146 82.0997 155.9 81.2997 164.5C81.4997 167.1 106.3 166.5 108.1 163.9C108.4 158.6 110.2 149.4 110.9 136.7Z" fill="#466777"/>
<path d="M89.5999 130L80.1999 132L80.8999 154.4L78.3999 174L93.6999 170.4L95.0999 166L96.4999 140.2L89.5999 130Z" fill="#38566B"/>
<path d="M102 129.9L110.5 131.1C111.7 131.3 112.6 132.1 112.5 133.1L109.9 153.5L110.8 173.2L96.3998 170L94.2998 165.9L95.8998 140L102 129.9Z" fill="#38566B"/>
<path d="M95.7998 130.9L100.7 127.9L102.7 129.9L99.7998 132.9L95.7998 130.9Z" fill="#CCF5FF"/>
<path d="M96.1 130.9L91.3 128.5L89 130L91.6 132.9L96.1 130.9Z" fill="#CCF5FF"/>
<path d="M91.9999 160.1C91.9999 159.6 91.6999 159.1 91.1999 159.1C90.7999 159.1 90.3999 159.5 90.3999 160.1C90.3999 160.6 90.6999 161.1 91.1999 161.1C91.5999 161.1 91.9999 160.6 91.9999 160.1Z" fill="#EFD967"/>
<path d="M92.7997 146.4C92.7997 145.9 92.4997 145.4 91.9997 145.4C91.5997 145.4 91.1997 145.8 91.1997 146.4C91.1997 146.9 91.4997 147.4 91.9997 147.4C92.3997 147.4 92.7997 146.9 92.7997 146.4Z" fill="#EFD967"/>
<path d="M99.1 159.8C99.1 159.3 98.8 158.8 98.3 158.8C97.9 158.8 97.5 159.2 97.5 159.8C97.5 160.3 97.8 160.8 98.3 160.8C98.7 160.8 99.1 160.3 99.1 159.8Z" fill="#EFD967"/>
<path d="M99.1 146.4C99.1 145.9 98.8 145.4 98.3 145.4C97.9 145.4 97.5 145.8 97.5 146.4C97.5 146.9 97.8 147.4 98.3 147.4C98.7 147.4 99.1 146.9 99.1 146.4Z" fill="#EFD967"/>
<path d="M105.8 142.7C105.8 142.4 105.5 142.1 105.1 142C104.7 141.9 104.3 142.1 104.3 142.4C104.3 142.7 104.6 143 105 143.1C105.4 143.2 105.7 143 105.8 142.7Z" fill="#EFD967"/>
<path d="M86.7997 162.5L81.1997 163.6V164.9L86.7997 163.8V162.5Z" fill="#233D4C"/>
<path d="M108.4 163.1L102.9 161.5V162.8L108.4 164.4V163.1Z" fill="#233D4C"/>
<path opacity="0.2" d="M79.0997 137.6C72.5997 140.1 61.5997 147.6 64.6997 152.5C64.1997 147.8 73.3997 141.7 79.2997 139.4L79.0997 137.6Z" fill="#466777"/>
<path opacity="0.2" d="M80.0999 173.6L82.2999 152.5L80.3999 134L80.8999 154.4L78.3999 174L80.0999 173.6Z" fill="#466777"/>
<path opacity="0.2" d="M96.1997 169.7L96.2997 169.9L98.1997 170.3L96.1997 169.7Z" fill="#466777"/>
<path opacity="0.2" d="M94.9001 166.5L94.6001 167.8L94.8001 167L96.1001 169.6L94.9001 166.5Z" fill="#466777"/>
<path opacity="0.2" d="M111.8 137.5L108.4 151.4L109.2 172.7L110.7 173.1L109.8 153.4L111.8 137.5Z" fill="#466777"/>
<path d="M108.6 142.4L101.8 141.2V141.8L108.5 143.1L108.6 142.4Z" fill="#EFD967"/>
<path d="M72.8998 157.9C52.7998 152.9 75.8998 140.1 83.9998 137.6L83.4998 131.3C69.2998 133.2 39.7998 157.7 71.3998 162.6C74.3998 163.2 75.6998 158.6 72.8998 157.9Z" fill="#38566B"/>
<path d="M87.8997 162.3C87.8997 162 87.6997 161.9 87.2997 161.8C87.9997 161.8 88.3997 161.5 88.3997 161.1C88.3997 160.9 88.1997 160.7 87.8997 160.7C88.1997 160.6 88.2997 160.4 88.2997 160.2C88.2997 159.8 87.9997 159.7 87.1997 159.6C86.8997 159.6 86.5997 159.6 86.3997 159.6C86.0997 159.5 85.7997 159.5 85.4997 159.4C86.0997 158.2 85.8997 156.5 85.1997 156.5C84.0997 156.6 84.4997 158.2 83.9997 158.6C83.6997 158.9 82.7997 159.3 81.9997 159.6C80.7997 159.7 78.4997 159.6 77.0997 159.6L76.1997 161.1C78.6997 162.6 82.1997 164.2 84.8997 163.4V163.5C85.0997 163.8 85.9997 163.9 86.6997 163.7C87.3997 163.5 87.6997 163 87.6997 162.6C87.7997 162.6 87.8997 162.4 87.8997 162.3Z" fill="#FFC388"/>
<path d="M80.4997 158.5C76.6997 158.5 71.7997 157.4 67.1997 155.7V161.7C70.9997 163.2 73.9997 163.7 78.4997 164.6L80.4997 158.5Z" fill="#38566B"/>
<path d="M76.2999 158.1L74.4999 157.9L72.8999 163.5L74.5999 163.8L76.2999 158.1Z" fill="#EFD967"/>
<path d="M72.1998 157.3L70.4998 156.8L68.2998 162.2L70.2998 162.8L72.1998 157.3Z" fill="#EFD967"/>
<path opacity="0.2" d="M58.1 151.9C57.5 156.2 60.1 160 67.8 162C71.3 163.3 74.2 163.9 78.4 164.7L78.8 163.5C65.5 160.5 59.5 156.3 58.1 151.9Z" fill="#466777"/>
<path d="M99.2996 120.2L92.0996 120.7L92.2996 129.2L95.0996 131.2L96.5996 131.3L99.2996 129V120.2Z" fill="#FFC673"/>
<path d="M85.5999 211.3H75.3999C75.3999 211.3 82.0999 208.4 83.6999 208.8C85.1999 209.1 85.5999 211.3 85.5999 211.3Z" fill="#CCF5FF"/>
<path d="M107.7 211.3H117.2C117.2 211.3 111 208.4 109.5 208.8C108 209.1 107.7 211.3 107.7 211.3Z" fill="#CCF5FF"/>
<path opacity="0.4" d="M118.2 133.2C116 132.4 113.6 131.7 111.2 131.3C111 131.2 110.7 131.1 110.5 131.1L102.7 130L102.8 129.9L100.8 127.9L100.6 128L99.3999 128.1V120.2L92.1999 120.7L92.3999 128.5L91.3999 128.6L89.1999 130L89.2999 130.1L80.3999 132.1V132.2C78.7999 132.7 77.0999 133.4 75.3999 134.2C80.0999 136.6 87.7999 138.2 96.2999 138.2C105.8 138.2 114.1 136.2 118.2 133.2Z" fill="#8F3B00"/>
<path d="M120.1 77.3C125.9 77.7 133.6 76.8 136.6 67.5C136.6 67.5 125.6 70.4 126.7 59.2L120.1 77.3Z" fill="#49241B"/>
<path d="M90.1998 123.1C79.3998 123.7 63.9998 120.8 63.4998 115.4C63.4998 115.4 54.4998 116.6 52.5998 110.5C50.6998 104.4 54.8998 102 54.8998 102L52.9998 93.2C52.9998 93.2 49.3998 92.7 50.3998 95.5C51.3998 98.2 36.6998 89.9 50.9998 84.9C50.9998 84.9 47.8998 77.5 53.5998 75.7C53.5998 75.7 37.9998 72.7 42.3998 65.1C46.6998 57.5 56.0998 59.9 56.0998 59.9C56.0998 59.9 50.5998 55.9 59.9998 51.9C64.4998 50 68.7998 52.5 68.7998 52.5C68.7998 52.5 74.7998 49.6 85.2998 50.4C85.2998 50.4 83.7998 45.1 90.9998 45.7C98.2998 46.3 101.5 49.8 101.5 49.8C101.5 49.8 111.6 43.1 116.2 51.9C116.2 51.9 146.5 40 127.6 79.1L90.1998 123.1Z" fill="#49241B"/>
<path d="M98.2 95.1C112.4 92.2 117.8 84.5 124.2 74C124.2 74.3 130.2 74 130.2 74C142 77.2 132.9 88.2 133.1 85.2C133.2 82.1 130.6 83.2 130.6 83.2L131.2 92.8C131.2 92.8 134.9 94.7 134.9 101.5C134.9 108.2 127.8 108.3 127.8 108.3C128.7 114.2 117.9 119.6 109.6 120.6L87 96.3C90.8 96.1 94.5 95.8 98.2 95.1Z" fill="#381913"/>
<path d="M97.8996 96C78.8996 96 61.9996 90.2 50.8996 81.2C50.9996 81.4 50.9996 81.6 50.9996 81.6C36.7996 87 51.4996 96.1 50.3996 93.1C49.3996 90.1 52.9996 90.6 52.9996 90.6L54.8996 100.1C54.8996 100.1 50.6996 102.7 52.5996 109.3C54.4996 115.9 63.4996 114.6 63.4996 114.6C63.9996 120.5 79.2996 123.6 90.1996 123L112.3 94.8C107.7 95.6 102.9 96 97.8996 96Z" fill="#381913"/>
<path d="M74.7996 123C91.1996 130.4 121.7 128.6 126.1 102.6C129.4 83.3 110.5 35.1 68.4996 74.4C55.0996 86.9 69.4996 120.6 74.7996 123Z" fill="#FFC673"/>
<mask id="mask0" mask-type="alpha" maskUnits="userSpaceOnUse" x="62" y="59" width="65" height="68">
<path d="M74.7996 123C91.1996 130.4 121.7 128.6 126.1 102.6C129.4 83.3 110.5 35.1 68.4996 74.4C55.0996 86.9 69.4996 120.6 74.7996 123Z" fill="url(#paint0_linear)"/>
</mask>
<g mask="url(#mask0)">
<path opacity="0.3" d="M74.7996 123C91.1996 130.4 121.7 128.6 126.1 102.6C129.4 83.3 110.5 35.1 68.4996 74.4C55.0996 86.9 69.4996 120.6 74.7996 123Z" fill="url(#paint1_linear)"/>
<path d="M66.9997 101.9C63.1997 99.9 58.7997 98.2 57.1997 103.5C55.5997 108.8 63.1997 112 67.4997 110.6C71.7997 109.2 66.9997 101.9 66.9997 101.9Z" fill="#FFC673"/>
<path d="M72.3999 98.6C73.5999 95.4 76.9999 86.2 91.9999 97.2L72.3999 98.6Z" fill="#FFECDE"/>
<path d="M117.1 97C115.3 94.3 109.9 86.2 99.8999 97.2L117.1 97Z" fill="#FFECDE"/>
<path d="M112.3 94.2C112.3 92.7 111 91.6 109.6 91.6C108.1 91.6 107 92.9 107 94.3C107 95.8 108.3 96.9 109.7 96.9C111.2 96.9 112.4 95.7 112.3 94.2Z" fill="#3A291E"/>
<path d="M83.5997 95C83.5997 93.4 82.1997 92.1 80.5997 92.1C78.9997 92.1 77.6997 93.5 77.6997 95.1C77.6997 96.7 79.0997 98 80.6997 98C82.3997 97.9 83.5997 96.6 83.5997 95Z" fill="#3A291E"/>
<path d="M82.8 94.3C82.8 93.7 82.3 93.2 81.6 93.2C81 93.2 80.5 93.7 80.5 94.4C80.5 95 81 95.5 81.7 95.5C82.3 95.4 82.8 94.9 82.8 94.3Z" fill="#705241"/>
<path d="M111.8 93.7C111.8 93.1 111.3 92.7 110.7 92.7C110.1 92.7 109.7 93.2 109.7 93.8C109.7 94.4 110.2 94.8 110.8 94.8C111.4 94.7 111.8 94.2 111.8 93.7Z" fill="#705241"/>
<path d="M99.7997 101.3C99.6997 100.1 97.6997 99.4 95.4997 99.7C93.2997 100 91.5997 101.1 91.7997 102.3C91.8997 103.5 93.8997 104.2 96.0997 103.9C98.2997 103.6 99.9997 102.5 99.7997 101.3Z" fill="#DD9F4E"/>
<path d="M99.7996 100.8C99.6996 99.8 98.0996 99.2 96.1996 99.5C94.2996 99.7 92.8996 100.7 93.0996 101.7C93.1996 102.7 94.7996 103.3 96.6996 103C98.4996 102.7 99.8996 101.8 99.7996 100.8Z" fill="#FFC673"/>
<path d="M70.0996 88.4C72.1996 87.7 81.4996 87.8 83.5996 87C85.6996 86.2 83.5996 83.7 83.5996 83.7L70.0996 88.4Z" fill="#49241B"/>
<path d="M118.1 87.7C116.3 87 108.4 87.1 106.6 86.3C104.7 85.5 106.5 83 106.5 83L118.1 87.7Z" fill="#49241B"/>
<path d="M65.5 103.3C63.1 102.1 60.4 101 59.4 104.3C58.4 107.6 63.2 109.7 65.9 108.8C68.6 107.8 65.5 103.3 65.5 103.3Z" fill="#DD9F4E"/>
<path d="M66.8997 105.4C65.7997 104.9 64.5997 104.4 64.1997 105.8C63.6997 107.3 65.8997 108.2 67.0997 107.8C68.1997 107.5 66.8997 105.4 66.8997 105.4Z" fill="#FFC673"/>
<path d="M87.6997 108L102.9 107.8C102.9 107.8 96.7997 124.5 87.6997 108Z" fill="#3F2B1A"/>
<path d="M89.2998 108.7L91.4998 111.8L99.3998 112L102.2 108.3L89.2998 108.7Z" fill="#FFECDE"/>
<path d="M88.7998 108.2C88.7998 107.9 88.4998 107.6 88.0998 107.6C87.6998 107.6 87.2998 107.8 87.2998 108.1C87.2998 108.4 87.5998 108.7 87.9998 108.7C88.4998 108.8 88.7998 108.5 88.7998 108.2Z" fill="#3F2B1A"/>
<path d="M103.9 108.1C103.9 107.8 103.6 107.5 103.2 107.5C102.8 107.5 102.4 107.7 102.4 108C102.4 108.3 102.7 108.6 103.1 108.6C103.6 108.6 103.9 108.4 103.9 108.1Z" fill="#3F2B1A"/>
<path d="M82.3996 105.4C82.3996 104.3 80.6996 103.4 78.4996 103.4C76.3996 103.4 74.5996 104.3 74.5996 105.4C74.5996 106.5 76.2996 107.4 78.4996 107.4C80.5996 107.4 82.3996 106.5 82.3996 105.4Z" fill="#EFAC5E"/>
<path d="M120 103.2C120 102.1 118.3 101.2 116.1 101.2C114 101.2 112.2 102.1 112.2 103.2C112.2 104.3 113.9 105.2 116.1 105.2C118.3 105.1 120 104.3 120 103.2Z" fill="#EFAC5E"/>
<path d="M82.3999 69.9C86.3999 72 101.1 64.3 95.4999 57.6L85.8999 58.4C85.8999 58.4 89.8999 67.2 82.3999 69.9Z" fill="#49241B"/>
<path opacity="0.4" d="M114.9 46.4L68.9996 47L68.3996 52.8C68.0996 58.3 84.3996 60.9 92.9996 61.1C102.8 61.3 117.6 59 118 51.9L114.9 46.4Z" fill="#711300"/>
</g>
<defs>
<linearGradient id="paint0_linear" x1="92.8364" y1="110.497" x2="90.3348" y2="133.011" gradientUnits="userSpaceOnUse">
<stop/>
<stop offset="1" stop-color="white"/>
</linearGradient>
<linearGradient id="paint1_linear" x1="92.8364" y1="110.497" x2="90.3348" y2="133.011" gradientUnits="userSpaceOnUse">
<stop stop-color="#E55C00"/>
<stop offset="1" stop-color="#B73400"/>
</linearGradient>
</defs>
</svg>
