<svg width="202" height="105" viewBox="0 0 202 105" fill="none" xmlns="http://www.w3.org/2000/svg">
<path d="M4 103C11.6667 87.6667 37.2 61.6 78 80C129 103 118 27 160.5 32.5C194.5 36.9 199.333 13.3333 197.5 1" stroke="#00DAE8" stroke-width="7" stroke-dasharray="10 10"/>
<circle cx="156" cy="35" r="20" fill="#FF9B52"/>
<path d="M167.348 32.4618C167.217 32.0588 166.869 31.7651 166.449 31.7041L159.712 30.7252L156.7 24.6205C156.512 24.2405 156.125 24 155.701 24C155.278 24 154.891 24.2405 154.703 24.6206L151.69 30.7253L144.953 31.7042C144.534 31.7651 144.185 32.0589 144.054 32.4619C143.924 32.8649 144.033 33.3073 144.336 33.6031L149.211 38.3549L148.06 45.0645C147.989 45.4822 148.16 45.9043 148.503 46.1534C148.846 46.4025 149.3 46.4354 149.676 46.2382L155.701 43.0703L161.727 46.2382C162.105 46.4368 162.559 46.4006 162.899 46.1534C163.242 45.9043 163.414 45.4822 163.342 45.0645L162.191 38.3549L167.066 33.6031C167.37 33.3073 167.479 32.8648 167.348 32.4618Z" fill="url(#paint0_linear)"/>
<circle cx="48" cy="73" r="20" fill="#FF9B52"/>
<path d="M59.348 70.4618C59.217 70.0588 58.8687 69.7651 58.4493 69.7041L51.7124 68.7252L48.6996 62.6205C48.512 62.2405 48.125 62 47.7013 62C47.2776 62 46.8905 62.2405 46.703 62.6206L43.6901 68.7253L36.9532 69.7042C36.5339 69.7651 36.1854 70.0589 36.0545 70.4619C35.9236 70.8649 36.0328 71.3073 36.3362 71.6031L41.2111 76.3549L40.0603 83.0645C39.9887 83.4822 40.1604 83.9043 40.5032 84.1534C40.8461 84.4025 41.3005 84.4354 41.6756 84.2382L47.7013 81.0703L53.7269 84.2382C54.1049 84.4368 54.5591 84.4006 54.8994 84.1534C55.2422 83.9043 55.4139 83.4822 55.3423 83.0645L54.1915 76.3549L59.0663 71.6031C59.3697 71.3073 59.4789 70.8648 59.348 70.4618Z" fill="url(#paint1_linear)"/>
<defs>
<linearGradient id="paint0_linear" x1="155.701" y1="46.366" x2="155.701" y2="24" gradientUnits="userSpaceOnUse">
<stop stop-color="#FFE59A"/>
<stop offset="1" stop-color="#FFFFD5"/>
</linearGradient>
<linearGradient id="paint1_linear" x1="47.7013" y1="84.366" x2="47.7013" y2="62" gradientUnits="userSpaceOnUse">
<stop stop-color="#FFE59A"/>
<stop offset="1" stop-color="#FFFFD5"/>
</linearGradient>
</defs>
</svg>
