<svg width="129" height="64" viewBox="0 0 129 64" fill="none" xmlns="http://www.w3.org/2000/svg">
<path d="M19 64C29.4934 64 38 55.4934 38 45C38 34.5066 29.4934 26 19 26C8.50659 26 0 34.5066 0 45C0 55.4934 8.50659 64 19 64Z" fill="url(#paint0_linear)"/>
<path d="M30.6468 41.2157C30.5158 40.8127 30.1675 40.519 29.7482 40.458L23.0113 39.4791L19.9984 33.3744C19.8109 32.9944 19.4238 32.7539 19.0001 32.7539C18.5764 32.7539 18.1893 32.9944 18.0018 33.3745L14.9889 39.4792L8.25204 40.4581C7.8327 40.519 7.48425 40.8128 7.35332 41.2158C7.2224 41.6188 7.33165 42.0612 7.63506 42.357L12.51 47.1088L11.3591 53.8184C11.2875 54.2361 11.4592 54.6582 11.802 54.9073C12.1449 55.1564 12.5993 55.1893 12.9744 54.9921L19.0001 51.8242L25.0258 54.9921C25.4037 55.1907 25.8579 55.1545 26.1982 54.9073C26.541 54.6582 26.7128 54.2362 26.6411 53.8184L25.4903 47.1088L30.3651 42.357C30.6686 42.0612 30.7777 41.6187 30.6468 41.2157Z" fill="white"/>
<path d="M64 38C74.4934 38 83 29.4934 83 19C83 8.50659 74.4934 0 64 0C53.5066 0 45 8.50659 45 19C45 29.4934 53.5066 38 64 38Z" fill="url(#paint1_linear)"/>
<path d="M75.6468 15.2157C75.5158 14.8127 75.1675 14.519 74.7482 14.458L68.0113 13.4791L64.9984 7.37445C64.8109 6.99445 64.4238 6.75391 64.0001 6.75391C63.5764 6.75391 63.1893 6.99445 63.0018 7.37452L59.9889 13.4792L53.252 14.4581C52.8327 14.519 52.4842 14.8128 52.3533 15.2158C52.2224 15.6188 52.3317 16.0612 52.6351 16.357L57.51 21.1088L56.3591 27.8184C56.2875 28.2361 56.4592 28.6582 56.802 28.9073C57.1449 29.1564 57.5993 29.1893 57.9744 28.9921L64.0001 25.8242L70.0258 28.9921C70.4037 29.1907 70.8579 29.1545 71.1982 28.9073C71.541 28.6582 71.7128 28.2362 71.6411 27.8184L70.4903 21.1088L75.3651 16.357C75.6686 16.0612 75.7777 15.6187 75.6468 15.2157Z" fill="white"/>
<path d="M110 63C120.493 63 129 54.4934 129 44C129 33.5066 120.493 25 110 25C99.5066 25 91 33.5066 91 44C91 54.4934 99.5066 63 110 63Z" fill="url(#paint2_linear)"/>
<path d="M121.647 40.2157C121.516 39.8127 121.168 39.519 120.748 39.458L114.011 38.4791L110.998 32.3744C110.811 31.9944 110.424 31.7539 110 31.7539C109.576 31.7539 109.189 31.9944 109.002 32.3745L105.989 38.4792L99.252 39.4581C98.8327 39.519 98.4842 39.8128 98.3533 40.2158C98.2224 40.6188 98.3317 41.0612 98.6351 41.357L103.51 46.1088L102.359 52.8184C102.288 53.2361 102.459 53.6582 102.802 53.9073C103.145 54.1564 103.599 54.1893 103.974 53.9921L110 50.8242L116.026 53.9921C116.404 54.1907 116.858 54.1545 117.198 53.9073C117.541 53.6582 117.713 53.2362 117.641 52.8184L116.49 46.1088L121.365 41.357C121.669 41.0612 121.778 40.6187 121.647 40.2157Z" fill="white"/>
<defs>
<linearGradient id="paint0_linear" x1="19" y1="64" x2="19" y2="26" gradientUnits="userSpaceOnUse">
<stop stop-color="#ACACAC"/>
<stop offset="1" stop-color="white"/>
</linearGradient>
<linearGradient id="paint1_linear" x1="64" y1="38" x2="64" y2="0" gradientUnits="userSpaceOnUse">
<stop stop-color="#ACACAC"/>
<stop offset="1" stop-color="white"/>
</linearGradient>
<linearGradient id="paint2_linear" x1="110" y1="63" x2="110" y2="25" gradientUnits="userSpaceOnUse">
<stop stop-color="#ACACAC"/>
<stop offset="1" stop-color="white"/>
</linearGradient>
</defs>
</svg>
