<svg width="94" height="94" viewBox="0 0 94 94" fill="none" xmlns="http://www.w3.org/2000/svg">
<path d="M48.123 26.0106C54.764 19.2792 59.598 11.5088 63.5283 3.15113C64.8385 0.395347 68.0912 -0.598542 72.1119 0.35017C72.0216 1.56994 71.886 2.78972 71.7957 4.32573C72.7444 3.78361 73.6028 3.51255 74.1901 2.97042C76.223 1.16335 78.1204 1.56994 80.2889 2.78972C85.5294 5.72621 89.6405 9.56624 91.7638 15.3037C92.2156 16.5235 92.2156 17.3366 91.041 18.1498C89.5502 19.1889 88.24 20.4087 86.2974 21.9899C88.9177 21.9899 90.9055 21.9899 93.1191 21.9899C93.4805 25.7847 93.2547 29.0826 91.3121 32.0643C90.7699 32.8775 89.7309 33.6003 88.8273 33.781C79.2499 35.6332 70.079 38.5697 61.6309 43.5844C61.5406 43.6295 61.3598 43.5844 61.2243 43.5844C59.9142 35.5881 55.4417 29.941 48.123 26.0106Z" fill="#B95300"/>
<path d="M17.4935 54.5623C18.4874 52.4842 19.391 50.5416 20.3397 48.599C16.0931 50.5868 11.982 52.2583 7.73535 48.87C11.485 47.334 15.4154 45.8432 19.2103 44.1717C23.0503 42.5001 26.6644 40.5123 30.4593 38.886C31.8146 38.3438 33.5765 38.0728 34.9318 38.4342C41.2114 40.2864 46.8133 48.8249 46.1356 55.3303C46.0453 56.279 45.7742 57.3181 45.1869 58.0409C39.8109 64.8174 35.6998 72.2716 32.1308 80.1324C31.9953 80.4034 31.8598 80.6293 31.4983 81.2618C29.6009 70.6904 25.0832 61.9261 17.4935 54.5623Z" fill="#B95300"/>
<path d="M93.1192 85.147C86.5686 86.9089 80.6053 85.4632 74.3257 82.6171C75.9972 86.5023 77.4429 89.9809 79.0693 93.7758C73.8287 92.0591 70.0339 89.0774 67.5492 84.6049C65.6969 81.2618 64.3416 77.6477 62.7604 74.169C62.0828 72.6782 61.5407 71.097 60.863 69.6062C58.3331 64.0043 54.2672 60.1642 47.6714 58.9445C49.2074 57.3181 50.5175 55.8273 52.0084 54.5171C52.4149 54.1557 53.4088 54.2913 54.0413 54.472C59.9595 56.1435 64.703 59.4866 68.3624 64.5012C70.6212 67.6184 72.7897 70.7808 75.2292 73.7173C79.521 78.9126 85.2585 82.0298 91.4929 84.2886C91.8543 84.4242 92.2157 84.5145 92.5319 84.6501C92.7126 84.6952 92.803 84.8308 93.1192 85.147Z" fill="#FF9A04"/>
<path d="M16.2285 58.7186C14.1955 60.0287 12.3884 61.1581 10.5362 62.3327C8.77428 63.4621 7.01239 64.5916 4.79872 65.9469C6.28956 66.2631 7.32862 66.5342 8.36769 66.7149C13.5178 67.6636 17.8096 74.3046 16.4995 79.4547C15.867 81.9394 14.5569 82.6171 12.1625 81.7587C4.48248 79.003 -2.20368 64.4108 0.687635 56.776C1.90741 53.5684 4.03072 52.3486 7.41898 53.1167C10.8976 53.9298 13.563 56.0531 16.2285 58.7186Z" fill="#994500"/>
<path d="M50.2016 52.439C48.3945 44.6234 44.2383 38.7505 37.1455 35.046C39.4043 33.2841 41.5277 31.5222 43.7865 30.0313C44.4642 29.5796 45.6387 29.4892 46.4971 29.7151C51.5569 31.0704 57.5202 38.886 57.2492 44.0813C57.204 45.3914 56.3456 46.8823 55.3969 47.8762C53.9061 49.5477 52.0539 50.8578 50.2016 52.439Z" fill="#FF9A04"/>
<path d="M91.7187 69.5158C88.5564 72.6782 85.2585 74.3046 81.2377 73.0848C79.9728 72.6782 78.5723 71.9102 77.7139 70.9163C75.4551 68.3412 73.377 65.5403 71.2988 62.7845C67.5492 57.8602 63.2122 53.7491 56.9326 52.1679C60.0046 48.6442 61.3148 48.2376 65.0644 50.406C67.3233 51.7162 69.4466 53.3425 71.2085 55.24C76.9459 61.4744 82.9996 67.1215 91.7187 69.5158Z" fill="#FF9A04"/>
<path d="M15.2798 86.683C19.2553 82.8881 22.734 79.5902 26.6192 75.8857C27.1161 79.0029 27.7034 81.7587 27.8841 84.5145C28.0196 86.7282 26.1674 88.6708 23.8634 88.4901C21.0624 88.2642 18.2615 87.3607 15.2798 86.683Z" fill="#994500"/>
<path d="M13.6987 64.7723C15.551 63.5977 17.087 62.649 19.0296 61.384C20.927 64.7271 22.7793 67.9346 24.5412 71.2326C24.7219 71.594 24.4508 72.362 24.1797 72.7686C23.1859 74.0787 22.0564 75.2533 20.5656 76.9248C19.5265 71.7295 17.8098 67.7088 13.6987 64.7723Z" fill="#B95300"/>
</svg>
