<svg width="330" height="103" viewBox="0 0 330 103" fill="none" xmlns="http://www.w3.org/2000/svg">
<rect width="330" height="103" rx="25" fill="url(#paint0_linear)"/>
<path d="M101.728 77C100.789 77 100 76.68 99.36 76.04C98.72 75.4 98.4 74.6107 98.4 73.672V30.344C98.4 29.3627 98.72 28.5733 99.36 27.976C100 27.336 100.789 27.016 101.728 27.016C103.008 27.016 103.989 27.6133 104.672 28.808L123.68 66.888L142.176 28.808C142.859 27.6133 143.84 27.016 145.12 27.016C146.059 27.016 146.848 27.336 147.488 27.976C148.128 28.5733 148.448 29.3627 148.448 30.344V73.672C148.448 74.6107 148.107 75.4 147.424 76.04C146.784 76.68 146.016 77 145.12 77C144.181 77 143.392 76.68 142.752 76.04C142.112 75.4 141.792 74.6107 141.792 73.672V41.864L126.304 73.416C125.579 74.5253 124.619 75.08 123.424 75.08C122.016 75.08 120.992 74.4187 120.352 73.096L105.056 42.44V73.672C105.056 74.6107 104.736 75.4 104.096 76.04C103.456 76.68 102.667 77 101.728 77ZM158.011 77C156.816 77 155.899 76.488 155.259 75.464C154.619 74.44 154.555 73.352 155.067 72.2L173.051 29.256C173.691 27.7627 174.736 27.016 176.187 27.016C177.723 27.016 178.768 27.7627 179.323 29.256L197.371 72.328C197.84 73.5227 197.755 74.6107 197.115 75.592C196.518 76.5307 195.6 77 194.363 77C193.723 77 193.104 76.8293 192.507 76.488C191.952 76.104 191.547 75.592 191.291 74.952L187.707 65.992H164.731L161.083 74.952C160.784 75.6347 160.336 76.1467 159.739 76.488C159.184 76.8293 158.608 77 158.011 77ZM166.971 60.488H185.467L176.315 37.704L166.971 60.488ZM207.043 77C206.104 77 205.315 76.68 204.675 76.04C204.035 75.4 203.715 74.6107 203.715 73.672V30.344C203.715 29.3627 204.035 28.5733 204.675 27.976C205.315 27.336 206.104 27.016 207.043 27.016H219.843C223.043 27.016 225.88 27.72 228.355 29.128C230.83 30.536 232.75 32.4987 234.115 35.016C235.523 37.4907 236.227 40.3493 236.227 43.592C236.227 46.7067 235.523 49.48 234.115 51.912C232.75 54.344 230.83 56.2427 228.355 57.608C225.88 58.9733 223.043 59.656 219.843 59.656H210.371V73.672C210.371 74.6107 210.051 75.4 209.411 76.04C208.814 76.68 208.024 77 207.043 77ZM210.371 53.512H219.843C222.744 53.512 225.134 52.5947 227.011 50.76C228.888 48.8827 229.827 46.4933 229.827 43.592C229.827 41.544 229.4 39.752 228.547 38.216C227.694 36.6373 226.52 35.4 225.027 34.504C223.534 33.608 221.806 33.16 219.843 33.16H210.371V53.512Z" fill="white"/>
<defs>
<linearGradient id="paint0_linear" x1="165" y1="0" x2="165" y2="103" gradientUnits="userSpaceOnUse">
<stop stop-color="#FFC700"/>
<stop offset="1" stop-color="#FA00FF"/>
</linearGradient>
</defs>
</svg>
