<svg width="551" height="314" viewBox="0 0 551 314" fill="none" xmlns="http://www.w3.org/2000/svg">
<mask id="mask0" mask-type="alpha" maskUnits="userSpaceOnUse" x="0" y="0" width="551" height="314">
<path d="M0 23C0 10.2974 10.2975 0 23 0H528C540.703 0 551 10.2975 551 23V291C551 303.703 540.703 314 528 314H23C10.2974 314 0 303.703 0 291V23Z" fill="white"/>
<path d="M1 23C1 10.8497 10.8497 1 23 1H528C540.15 1 550 10.8497 550 23V291C550 303.15 540.15 313 528 313H23C10.8497 313 1 303.15 1 291V23Z" stroke="white" stroke-opacity="0.24" stroke-width="2"/>
</mask>
<g mask="url(#mask0)">
<rect width="551" height="314" rx="23" fill="url(#paint0_linear)"/>
<rect x="179" y="33" width="193" height="189" rx="35" fill="#FF7A00"/>
<path d="M309.062 191.789C303.002 191.789 296.942 191.789 290.895 191.789C285.686 191.776 281.212 187.87 280.554 182.752C280.49 182.198 280.464 181.643 280.464 181.089C280.464 169.19 280.464 157.292 280.451 145.406C280.451 142.776 281.199 140.417 282.901 138.406C284.938 136.008 287.543 134.706 290.689 134.642C293.809 134.577 296.916 134.629 300.036 134.629C308.881 134.629 317.739 134.655 326.584 134.616C329.253 134.603 331.677 135.261 333.753 136.962C336.203 138.973 337.621 141.577 337.634 144.761C337.673 157.073 337.673 169.371 337.647 181.682C337.634 187.238 332.85 191.802 327.113 191.802C324.109 191.802 321.092 191.802 318.087 191.802C315.083 191.789 312.079 191.789 309.062 191.789ZM334.037 141.345C334.114 141.075 333.934 140.894 333.805 140.701C332.18 138.432 330.001 137.168 327.177 137.156C323.232 137.143 319.286 137.143 315.328 137.143C307.244 137.143 299.173 137.143 291.088 137.143C286.64 137.143 283.017 140.546 283.004 144.865C282.965 157.085 282.978 169.306 283.004 181.527C283.004 184.737 285.119 187.625 288.11 188.721C289.025 189.133 290.005 189.262 290.998 189.262C302.809 189.262 314.619 189.262 326.43 189.262C326.713 189.262 326.984 189.262 327.268 189.262C331.613 189.223 335.094 185.73 335.107 181.385C335.12 175.739 335.12 170.093 335.12 164.459C335.12 158.065 335.12 151.658 335.12 145.264C335.107 143.859 334.965 142.505 334.037 141.345Z" fill="#050505"/>
<path d="M258.094 191.814C257.798 191.801 257.488 191.789 257.192 191.789C246.335 191.789 235.492 191.789 224.635 191.789C218.769 191.789 214.127 187.161 214.127 181.295C214.127 169.139 214.101 156.982 214.166 144.826C214.192 140.855 216.151 137.903 219.568 135.918C221.257 134.938 223.114 134.603 225.061 134.603C236.962 134.616 248.862 134.616 260.776 134.616C266.591 134.616 271.284 139.205 271.31 145.019C271.349 154.146 271.323 163.286 271.323 172.413C271.323 175.314 271.362 178.201 271.323 181.102C271.258 185.794 269.041 189.12 264.773 191.041C263.316 191.698 261.756 191.814 260.17 191.789C259.744 191.776 259.306 191.801 258.881 191.814C258.623 191.737 258.352 191.737 258.094 191.814ZM216.667 163.209C216.667 165.013 216.667 166.818 216.667 168.623C216.667 172.851 216.667 177.093 216.667 181.321C216.667 183.732 217.596 185.73 219.401 187.328C221.012 188.772 222.972 189.21 225.061 189.223C230.386 189.236 235.711 189.21 241.036 189.21C247.637 189.21 254.226 189.236 260.828 189.223C263.252 189.223 265.302 188.243 266.875 186.452C268.138 185.008 268.744 183.203 268.744 181.256C268.757 177.415 268.744 173.586 268.744 169.745C268.744 161.559 268.744 153.373 268.744 145.187C268.744 143.82 268.46 142.467 267.803 141.294C266.281 138.612 263.922 137.168 260.815 137.168C248.785 137.143 236.755 137.168 224.726 137.155C223.475 137.155 222.263 137.362 221.18 137.929C218.279 139.476 216.68 141.874 216.68 145.225C216.68 151.22 216.667 157.214 216.667 163.209Z" fill="#050505"/>
<path d="M271.323 96.5224C271.323 102.414 271.297 108.292 271.336 114.183C271.349 117.007 270.536 119.52 268.654 121.622C266.81 123.684 264.464 124.832 261.692 125.076C261.395 125.102 261.086 125.089 260.789 125.089C252.137 125.089 243.473 125.089 234.821 125.089C231.392 125.089 227.949 125.089 224.519 125.089C219.62 125.076 215.339 121.583 214.359 116.787C214.205 116.053 214.14 115.305 214.14 114.557C214.14 102.568 214.14 90.5924 214.14 78.6036C214.14 72.5576 218.679 67.9425 224.726 67.9296C236.394 67.9167 248.063 67.9296 259.719 67.9167C261.679 67.9167 263.613 68.0328 265.405 68.9609C269.221 70.9591 271.259 74.1045 271.31 78.4102C271.362 84.4562 271.31 90.4893 271.323 96.5224C271.31 96.5224 271.31 96.5224 271.323 96.5224ZM221.812 121.995C222.701 122.537 223.707 122.576 224.7 122.576C228.8 122.588 232.9 122.576 237 122.576C244.93 122.576 252.847 122.563 260.776 122.576C265.147 122.588 268.77 119.056 268.783 114.686C268.796 102.581 268.796 90.4635 268.783 78.3587C268.783 77.1469 268.564 75.9867 267.958 74.9167C267.661 74.2335 267.249 73.6405 266.759 73.099C265.083 71.2685 262.994 70.4305 260.518 70.4305C253.427 70.4434 246.348 70.4305 239.257 70.4305C234.447 70.4305 229.638 70.4176 224.829 70.4305C220.084 70.4563 216.667 73.8725 216.667 78.5778C216.667 90.5409 216.68 102.491 216.667 114.454C216.667 117.007 217.634 119.082 219.543 120.719C220.2 121.299 220.896 121.867 221.812 121.995Z" fill="#050505"/>
<path d="M280.464 96.4965C280.464 90.6825 280.49 84.8557 280.451 79.0417C280.438 76.283 281.122 73.7821 282.94 71.6679C285.054 69.1928 287.775 67.9424 291.024 67.9424C303.015 67.9295 314.993 67.9166 326.984 67.9424C331.806 67.9553 335.494 70.5851 337.144 75.1099C337.492 76.0639 337.66 77.0565 337.66 78.0749C337.66 90.3216 337.673 102.568 337.66 114.815C337.66 119.391 334.411 123.542 330.001 124.715C328.97 124.986 327.951 125.089 326.894 125.089C314.967 125.089 303.054 125.089 291.127 125.089C285.093 125.089 280.49 120.513 280.477 114.467C280.451 108.485 280.464 102.491 280.464 96.4965ZM334.179 74.7876C334.179 74.4653 333.96 74.2462 333.792 74.0013C332.103 71.5777 329.756 70.4562 326.816 70.4562C316.141 70.4691 305.465 70.4562 294.789 70.4562C293.59 70.4562 292.378 70.4562 291.179 70.4562C289.967 70.4562 288.755 70.5851 287.685 71.1394C284.539 72.7379 282.953 75.3291 282.978 78.8999C283.004 83.038 282.991 87.189 282.991 91.3271C282.991 99.0618 282.991 106.797 282.991 114.531C282.991 117.935 285.029 120.9 288.136 122.047C289.271 122.485 290.457 122.55 291.669 122.537C300.204 122.524 308.753 122.524 317.288 122.524C320.666 122.524 324.031 122.511 327.41 122.511C329.369 122.511 331.084 121.789 332.503 120.526C334.256 118.966 335.081 116.916 335.081 114.531C335.068 107.467 335.081 100.415 335.081 93.351C335.081 88.4781 335.068 83.6052 335.094 78.7323C335.094 77.4432 334.927 76.2186 334.372 75.0583C334.308 74.9681 334.333 74.8263 334.179 74.7876Z" fill="#050505"/>
<path d="M275.875 164.008C275.385 164.008 274.882 164.021 274.392 164.008C273.747 163.982 273.244 163.505 273.18 162.887C273.115 162.242 273.528 161.61 274.186 161.533C275.294 161.404 276.416 161.404 277.525 161.533C278.144 161.597 278.595 162.229 278.557 162.809C278.505 163.48 277.976 163.982 277.28 164.008C276.816 164.021 276.352 164.008 275.875 164.008Z" fill="#050505"/>
<path d="M311.86 129.627C311.86 130.104 311.873 130.568 311.86 131.045C311.834 131.819 311.344 132.296 310.609 132.308C309.913 132.321 309.345 131.806 309.32 131.071C309.294 130.13 309.294 129.189 309.32 128.248C309.345 127.487 309.861 126.997 310.583 126.984C311.292 126.971 311.821 127.461 311.86 128.222C311.873 128.686 311.86 129.163 311.86 129.627Z" fill="#050505"/>
<path d="M275.849 94.5628C275.359 94.5628 274.856 94.5886 274.366 94.5628C273.657 94.5242 273.167 93.9827 273.18 93.2995C273.193 92.6421 273.721 92.0877 274.405 92.0749C275.372 92.062 276.339 92.062 277.306 92.0749C278.015 92.0877 278.582 92.6807 278.569 93.3511C278.557 94.0085 278.041 94.5371 277.332 94.5628C276.842 94.5757 276.339 94.55 275.849 94.5628Z" fill="#050505"/>
<path d="M242.377 129.692C242.377 130.168 242.39 130.633 242.377 131.11C242.351 131.819 241.887 132.283 241.203 132.308C240.481 132.334 239.94 131.909 239.901 131.174C239.862 130.168 239.862 129.15 239.901 128.145C239.927 127.41 240.455 126.959 241.165 126.971C241.874 126.984 242.351 127.461 242.377 128.209C242.39 128.699 242.377 129.189 242.377 129.692Z" fill="#050505"/>
<path d="M334.037 141.345C334.953 142.492 335.108 143.859 335.108 145.251C335.108 151.645 335.108 158.052 335.108 164.446C335.108 170.093 335.108 175.739 335.095 181.372C335.082 185.717 331.601 189.197 327.255 189.249C326.972 189.249 326.701 189.249 326.417 189.249C314.607 189.249 302.796 189.249 290.986 189.249C289.993 189.249 289.013 189.12 288.098 188.708C287.698 188.243 287.298 187.792 286.924 187.302C286.035 186.104 285.532 184.802 285.532 183.319C285.519 171.24 285.532 159.174 285.519 147.095C285.519 146.102 285.738 145.148 286.164 144.246C287.169 142.144 288.768 140.713 290.973 139.953C291.798 139.656 292.662 139.644 293.513 139.644C300.643 139.631 307.773 139.631 314.903 139.631C319.352 139.631 323.8 139.631 328.248 139.631C329.679 139.631 331.046 139.811 332.348 140.481C332.929 140.778 333.406 141.229 334.037 141.345ZM299.741 162.732C299.741 166.805 299.741 170.892 299.741 174.966C299.741 176.512 300.643 177.402 302.177 177.415C304.137 177.415 306.084 177.415 308.044 177.415C310.584 177.415 313.021 176.835 315.174 175.52C319.842 172.645 322.601 168.546 322.678 162.912C322.743 158.619 321.105 155.023 317.985 152.096C315.716 149.969 313.034 148.654 309.952 148.229C307.309 147.868 304.64 148.126 301.984 148.087C300.63 148.074 299.766 149.119 299.766 150.433C299.741 154.533 299.741 158.632 299.741 162.732Z" fill="#FDCA2F"/>
<path d="M334.037 141.345C333.393 141.229 332.916 140.778 332.361 140.494C331.059 139.837 329.692 139.644 328.261 139.644C323.813 139.644 319.365 139.644 314.916 139.644C307.786 139.644 300.656 139.631 293.526 139.656C292.675 139.656 291.811 139.682 290.986 139.966C288.794 140.739 287.182 142.17 286.177 144.259C285.751 145.161 285.532 146.102 285.532 147.108C285.532 159.187 285.532 171.253 285.545 183.332C285.545 184.815 286.048 186.104 286.937 187.315C287.311 187.818 287.711 188.269 288.111 188.721C285.119 187.625 283.005 184.75 283.005 181.527C282.979 169.306 282.966 157.085 283.005 144.865C283.018 140.546 286.654 137.156 291.089 137.143C299.173 137.13 307.245 137.143 315.329 137.143C319.274 137.143 323.22 137.143 327.178 137.156C330.002 137.168 332.181 138.432 333.805 140.701C333.947 140.894 334.115 141.087 334.037 141.345Z" fill="#FDFDFD"/>
<path d="M216.667 163.209C216.667 157.214 216.667 151.22 216.667 145.225C216.667 141.861 218.266 139.463 221.167 137.929C222.237 137.362 223.462 137.156 224.713 137.156C236.742 137.168 248.772 137.156 260.802 137.168C263.909 137.168 266.269 138.625 267.79 141.294C268.461 142.467 268.731 143.807 268.731 145.187C268.731 153.373 268.731 161.559 268.731 169.745C268.731 173.586 268.744 177.415 268.731 181.257C268.731 183.203 268.125 184.995 266.862 186.452C265.289 188.244 263.239 189.223 260.815 189.223C254.213 189.223 247.625 189.21 241.023 189.21C235.698 189.21 230.373 189.236 225.048 189.223C222.959 189.223 221.012 188.772 219.388 187.328C217.596 185.73 216.667 183.732 216.654 181.321C216.654 177.093 216.654 172.851 216.654 168.623C216.667 166.805 216.667 165.014 216.667 163.209ZM232.01 162.706C232.01 166.999 232.023 171.279 231.998 175.571C231.998 176.203 232.281 176.577 232.797 176.835C233.3 177.08 233.777 176.938 234.177 176.629C234.602 176.293 234.667 175.804 234.667 175.301C234.667 172.568 234.667 169.848 234.667 167.115C234.667 166.767 234.628 166.444 235.157 166.625C235.337 166.689 235.543 166.638 235.737 166.638C238.689 166.638 241.655 166.638 244.607 166.638C244.852 166.638 245.097 166.573 245.278 166.883C247.031 169.886 248.811 172.89 250.577 175.894C250.809 176.293 251.003 176.757 251.428 176.99C251.957 177.286 252.511 177.273 252.975 176.848C253.504 176.371 253.607 175.791 253.246 175.172C251.57 172.31 249.894 169.448 248.205 166.599C247.973 166.2 247.973 166.019 248.424 165.761C250.848 164.369 252.421 162.332 252.924 159.548C253.117 158.465 253.259 157.343 253.027 156.286C252.447 153.721 251.196 151.568 248.875 150.073C247.38 149.119 245.819 148.539 244.079 148.513C240.572 148.461 237.078 148.5 233.571 148.5C232.384 148.5 231.998 148.887 231.998 150.085C232.01 154.288 232.01 158.503 232.01 162.706Z" fill="#FDFDFD"/>
<path d="M267.97 74.9296C268.576 75.9996 268.796 77.1598 268.796 78.3715C268.796 90.4764 268.809 102.594 268.796 114.699C268.783 119.069 265.16 122.589 260.789 122.589C252.859 122.576 244.943 122.589 237.013 122.589C232.913 122.589 228.813 122.589 224.713 122.589C223.72 122.589 222.714 122.537 221.824 122.008C219.787 120.126 219.13 117.754 219.156 115.034C219.22 106.578 219.181 98.1209 219.181 89.6643C219.181 86.8024 219.181 83.9535 219.181 81.0916C219.181 78.2684 220.239 75.9867 222.624 74.3753C223.952 73.4729 225.383 73.0088 226.982 73.0088C238.844 73.0088 250.693 73.0217 262.555 73.0088C264.206 73.0088 265.65 73.5631 267.029 74.4139C267.313 74.5815 267.493 75.0198 267.97 74.9296ZM241.874 98.8428C242.428 100.08 242.918 101.176 243.408 102.272C244.814 105.392 246.219 108.524 247.612 111.657C247.882 112.263 248.346 112.572 248.965 112.533C249.597 112.495 249.932 112.056 250.113 111.476C250.745 109.401 251.376 107.338 252.008 105.263C252.859 102.478 253.71 99.7066 254.561 96.922C255.786 92.9129 257.011 88.8908 258.249 84.8816C258.429 84.2886 258.274 83.8117 257.797 83.4636C257.32 83.1026 256.792 83.1284 256.302 83.4636C255.967 83.6956 255.838 84.0824 255.734 84.4433C254.845 87.331 253.968 90.2186 253.078 93.1062C251.776 97.3732 250.487 101.64 249.159 105.894C248.991 106.436 248.952 107.029 248.579 107.57C248.346 107.067 248.114 106.616 247.908 106.152C246.309 102.568 244.698 98.9975 243.099 95.4138C242.854 94.8723 242.493 94.4727 241.848 94.4598C241.191 94.4598 240.83 94.8852 240.597 95.4138C239.411 98.0565 238.238 100.699 237.065 103.342C236.446 104.734 235.801 106.139 235.169 107.544C235.092 107.467 235.053 107.454 235.04 107.416C233.209 101.46 231.379 95.504 229.548 89.5483C228.98 87.7048 228.413 85.8742 227.807 84.0437C227.536 83.2315 226.66 82.9737 225.95 83.4507C225.396 83.8245 225.254 84.3402 225.538 85.2039C226.17 87.2407 226.827 89.2646 227.459 91.3015C229.522 97.992 231.572 104.695 233.609 111.399C233.803 112.031 234.125 112.495 234.808 112.559C235.517 112.624 235.904 112.185 236.162 111.592C237.632 108.279 239.115 104.979 240.585 101.666C240.997 100.751 241.41 99.8612 241.874 98.8428Z" fill="#FDCA2F"/>
<path d="M267.971 74.9295C267.507 75.0198 267.313 74.5815 267.004 74.3881C265.624 73.5373 264.18 72.983 262.53 72.983C250.668 72.983 238.818 72.983 226.956 72.983C225.358 72.983 223.926 73.4471 222.598 74.3494C220.2 75.9737 219.156 78.2426 219.156 81.0658C219.156 83.9276 219.156 86.7766 219.156 89.6385C219.156 98.0951 219.194 106.552 219.13 115.008C219.117 117.728 219.762 120.1 221.799 121.983C220.884 121.867 220.187 121.286 219.53 120.745C217.609 119.121 216.642 117.032 216.654 114.48C216.667 102.517 216.654 90.5666 216.654 78.6035C216.654 73.8854 220.071 70.4692 224.816 70.4563C229.625 70.4305 234.435 70.4563 239.244 70.4563C246.335 70.4563 253.414 70.4692 260.505 70.4563C262.981 70.4563 265.07 71.2813 266.746 73.1248C267.249 73.6662 267.674 74.2592 267.971 74.9295Z" fill="#FDFDFD"/>
<path d="M334.36 75.0584C334.914 76.2186 335.094 77.4562 335.082 78.7324C335.056 83.6053 335.069 88.4782 335.069 93.3511C335.069 100.415 335.056 107.467 335.069 114.531C335.069 116.916 334.243 118.966 332.49 120.526C331.085 121.789 329.357 122.511 327.397 122.511C324.019 122.511 320.654 122.524 317.276 122.524C308.74 122.524 300.192 122.524 291.656 122.537C290.444 122.537 289.258 122.472 288.123 122.047C288.201 121.763 287.956 121.673 287.814 121.531C286.318 120.01 285.532 118.205 285.532 116.053C285.545 104.218 285.532 92.3842 285.532 80.5501C285.532 79.725 285.635 78.9258 285.931 78.1523C287.182 74.9166 289.941 73.0087 293.423 72.9958C305.169 72.9829 316.927 72.9958 328.673 72.9829C330.543 72.9829 332.219 73.5115 333.715 74.6201C333.844 74.7103 333.947 74.8908 334.153 74.7748C334.102 74.9811 334.218 75.0326 334.36 75.0584ZM318.475 89.2001C318.475 87.8207 318.281 86.9828 317.572 85.6808C316.115 83.051 313.82 81.7747 310.855 81.8263C307.863 81.8908 305.697 83.3733 304.459 86.1191C304.047 87.0344 303.802 88.027 303.957 89.0583C304.06 89.7544 304.614 90.1669 305.259 90.1412C305.929 90.1025 306.432 89.5868 306.471 88.8778C306.677 85.8097 309.062 83.9018 312.08 84.5206C314.503 85.0233 316.128 87.1762 315.87 89.7673C315.703 91.34 314.852 92.4745 313.627 93.364C312.299 94.3308 310.893 95.2203 309.565 96.1871C307.193 97.9017 306.11 100.312 305.942 103.187C305.904 103.909 306.277 104.425 306.858 104.773C307.27 105.018 307.657 104.786 308.005 104.579C308.469 104.309 308.521 103.845 308.547 103.342C308.637 101.266 309.411 99.5389 311.112 98.2497C312.518 97.1927 314.078 96.3676 315.445 95.2461C317.353 93.6734 318.488 91.7268 318.475 89.2001ZM306.045 109.014C306.045 109.336 306.032 109.658 306.058 109.981C306.11 110.716 306.6 111.167 307.296 111.193C308.005 111.218 308.56 110.793 308.624 110.084C308.689 109.401 308.689 108.717 308.637 108.034C308.585 107.299 308.005 106.861 307.283 106.887C306.574 106.913 306.084 107.428 306.058 108.189C306.045 108.46 306.045 108.743 306.045 109.014Z" fill="#FDCA2F"/>
<path d="M334.179 74.7878C333.973 74.9167 333.869 74.7362 333.74 74.6331C332.245 73.5245 330.569 72.983 328.699 72.9959C316.953 73.0088 305.194 72.9959 293.448 73.0088C289.967 73.0088 287.208 74.9296 285.957 78.1653C285.66 78.9388 285.557 79.738 285.557 80.5631C285.557 92.3972 285.557 104.231 285.557 116.066C285.557 118.218 286.344 120.023 287.839 121.544C287.981 121.686 288.226 121.776 288.149 122.06C285.042 120.913 283.004 117.948 283.004 114.544C283.004 106.81 283.004 99.0749 283.004 91.3402C283.004 87.2021 283.03 83.0511 282.992 78.913C282.966 75.3421 284.552 72.751 287.698 71.1525C288.768 70.611 289.98 70.4692 291.192 70.4692C292.391 70.4692 293.603 70.4692 294.802 70.4692C305.478 70.4692 316.154 70.4692 326.83 70.4692C329.769 70.4692 332.103 71.5908 333.805 74.0143C333.96 74.2464 334.179 74.4655 334.179 74.7878Z" fill="#FDFDFD"/>
<path d="M334.36 75.0583C334.205 75.0196 334.089 74.9681 334.179 74.7876C334.334 74.8263 334.308 74.9681 334.36 75.0583Z" fill="#FDFDFD"/>
<path d="M299.74 162.732C299.74 158.632 299.74 154.533 299.74 150.434C299.74 149.132 300.604 148.074 301.958 148.087C304.614 148.126 307.283 147.855 309.926 148.229C313.02 148.655 315.689 149.97 317.959 152.097C321.079 155.023 322.716 158.607 322.652 162.912C322.575 168.546 319.815 172.645 315.148 175.52C313.008 176.835 310.571 177.415 308.018 177.415C306.058 177.415 304.111 177.415 302.151 177.415C300.617 177.415 299.714 176.513 299.714 174.966C299.727 170.892 299.74 166.805 299.74 162.732ZM302.216 163.054C302.229 163.054 302.254 163.054 302.267 163.054C302.267 166.793 302.28 170.531 302.254 174.27C302.254 174.734 302.358 174.901 302.86 174.888C304.562 174.85 306.251 174.863 307.953 174.875C315.058 174.953 321.827 168.224 319.79 159.896C318.642 155.203 315.444 152.264 310.79 150.988C308.108 150.253 305.323 150.691 302.59 150.562C302.254 150.55 302.19 150.73 302.229 151.014C302.306 151.723 302.241 152.432 302.241 153.128C302.216 156.441 302.216 159.754 302.216 163.054Z" fill="#050505"/>
<path d="M232.011 162.706C232.011 158.491 232.011 154.288 232.011 150.073C232.011 148.874 232.397 148.487 233.584 148.487C237.091 148.487 240.585 148.448 244.092 148.5C245.833 148.526 247.393 149.106 248.888 150.06C251.209 151.542 252.447 153.695 253.04 156.273C253.285 157.33 253.143 158.452 252.937 159.535C252.434 162.319 250.861 164.356 248.437 165.748C247.986 166.006 247.986 166.187 248.218 166.586C249.907 169.435 251.596 172.297 253.259 175.159C253.62 175.778 253.504 176.358 252.988 176.835C252.511 177.26 251.97 177.273 251.441 176.977C251.016 176.745 250.822 176.281 250.59 175.881C248.811 172.877 247.045 169.874 245.291 166.87C245.11 166.573 244.878 166.625 244.621 166.625C241.668 166.625 238.702 166.625 235.75 166.625C235.556 166.625 235.35 166.677 235.17 166.612C234.641 166.432 234.68 166.754 234.68 167.102C234.68 169.835 234.68 172.555 234.68 175.288C234.68 175.791 234.615 176.293 234.19 176.616C233.777 176.925 233.313 177.067 232.81 176.822C232.281 176.564 231.998 176.19 232.011 175.559C232.011 171.292 232.011 166.999 232.011 162.706ZM234.705 164.073C235.131 163.931 235.543 163.969 235.943 163.957C239.051 163.957 242.171 163.957 245.278 163.957C245.536 163.957 245.807 163.969 246.039 163.892C248.231 163.08 249.713 161.572 250.294 159.29C251.377 154.997 247.883 151.194 243.782 151.156C240.92 151.13 238.071 151.156 235.208 151.143C234.796 151.143 234.667 151.233 234.667 151.671C234.68 155.629 234.68 159.574 234.68 163.531C234.68 163.699 234.693 163.866 234.705 164.073Z" fill="#050505"/>
<path d="M241.874 98.8427C241.41 99.8611 240.984 100.751 240.585 101.64C239.102 104.94 237.632 108.253 236.162 111.566C235.891 112.159 235.505 112.598 234.808 112.533C234.125 112.469 233.803 112.005 233.609 111.373C231.572 104.67 229.509 97.9661 227.459 91.2755C226.827 89.2387 226.183 87.2148 225.538 85.178C225.267 84.3143 225.396 83.7986 225.951 83.4248C226.66 82.9478 227.549 83.2056 227.807 84.0178C228.413 85.8483 228.981 87.6918 229.548 89.5223C231.379 95.4781 233.21 101.434 235.04 107.39C235.053 107.415 235.092 107.441 235.169 107.518C235.814 106.1 236.446 104.708 237.065 103.316C238.238 100.673 239.411 98.0305 240.598 95.3878C240.83 94.8593 241.204 94.4339 241.848 94.4339C242.493 94.4339 242.854 94.8335 243.099 95.3878C244.698 98.9716 246.297 102.542 247.908 106.126C248.115 106.59 248.334 107.042 248.579 107.544C248.94 106.99 248.991 106.41 249.159 105.868C250.487 101.614 251.776 97.3473 253.079 93.0803C253.955 90.1927 254.845 87.305 255.735 84.4174C255.851 84.0435 255.967 83.6697 256.302 83.4377C256.792 83.1025 257.321 83.0767 257.798 83.4377C258.262 83.7857 258.429 84.2627 258.249 84.8557C257.011 88.8649 255.799 92.8869 254.561 96.8961C253.71 99.6806 252.859 102.452 252.008 105.237C251.377 107.312 250.745 109.375 250.113 111.45C249.933 112.03 249.597 112.482 248.966 112.507C248.347 112.546 247.882 112.224 247.612 111.631C246.219 108.498 244.814 105.379 243.408 102.246C242.918 101.176 242.428 100.08 241.874 98.8427Z" fill="#050505"/>
<path d="M318.475 89.2C318.501 91.7267 317.366 93.6733 315.445 95.2331C314.078 96.3418 312.518 97.1797 311.113 98.2368C309.398 99.513 308.637 101.24 308.547 103.329C308.521 103.819 308.47 104.283 308.005 104.566C307.657 104.773 307.271 105.005 306.858 104.76C306.265 104.412 305.904 103.896 305.943 103.174C306.097 100.299 307.18 97.8887 309.566 96.1742C310.907 95.2073 312.299 94.3307 313.627 93.351C314.839 92.4615 315.703 91.3271 315.871 89.7543C316.141 87.1632 314.517 85.0104 312.08 84.5076C309.063 83.8888 306.677 85.7967 306.471 88.8649C306.42 89.5739 305.917 90.0895 305.259 90.1282C304.602 90.154 304.06 89.7415 303.957 89.0453C303.802 88.014 304.047 87.0343 304.46 86.1061C305.698 83.3732 307.864 81.8778 310.855 81.8133C313.82 81.7489 316.116 83.038 317.572 85.6678C318.282 86.9698 318.462 87.8207 318.475 89.2Z" fill="#050505"/>
<path d="M306.045 109.014C306.045 108.73 306.045 108.46 306.045 108.176C306.071 107.428 306.548 106.913 307.27 106.874C308.005 106.848 308.572 107.287 308.624 108.021C308.676 108.705 308.676 109.388 308.611 110.071C308.547 110.78 307.992 111.206 307.283 111.18C306.587 111.154 306.097 110.69 306.045 109.968C306.032 109.659 306.045 109.336 306.045 109.014Z" fill="#050505"/>
<path d="M302.216 163.054C302.216 159.741 302.216 156.441 302.216 153.128C302.216 152.419 302.28 151.71 302.203 151.014C302.177 150.73 302.242 150.549 302.564 150.562C305.297 150.691 308.082 150.253 310.764 150.988C315.419 152.251 318.616 155.19 319.764 159.896C321.801 168.223 315.032 174.953 307.928 174.875C306.226 174.862 304.537 174.849 302.835 174.888C302.332 174.901 302.229 174.733 302.229 174.269C302.242 170.531 302.242 166.792 302.242 163.054C302.254 163.054 302.229 163.054 302.216 163.054Z" fill="#FDCA2F"/>
<path d="M234.706 164.072C234.693 163.866 234.68 163.699 234.68 163.531C234.68 159.573 234.693 155.629 234.667 151.671C234.667 151.233 234.796 151.143 235.209 151.143C238.071 151.155 240.92 151.13 243.783 151.155C247.87 151.194 251.377 154.997 250.294 159.29C249.714 161.572 248.231 163.08 246.039 163.892C245.807 163.982 245.536 163.956 245.278 163.956C242.171 163.956 239.051 163.956 235.943 163.956C235.531 163.969 235.131 163.931 234.706 164.072Z" fill="#FDFDFD"/>
<path d="M347.988 147.263C347.988 132.528 348.001 117.794 347.988 103.059C347.988 92.2948 347.988 81.5307 347.962 70.7665C347.962 68.691 347.459 66.7057 346.479 64.9009C343.72 59.7831 339.414 57.0631 333.573 57.0373C321.853 56.9728 310.145 57.0115 298.438 57.0115C284.939 57.0115 271.452 57.0115 257.952 57.0115C254.303 57.0115 250.642 57.0244 246.993 57.0244C236.897 57.0244 226.789 56.9986 216.693 57.0244C213.998 57.0373 211.484 57.8881 209.279 59.448C205.05 62.4387 202.987 66.5381 203 71.7462C203.039 85.7461 203.013 99.746 203.013 113.759C203.013 119.005 203.013 124.239 203.013 129.486C203.013 139.129 203.013 148.771 203.013 158.414C203.013 168.25 203.013 178.099 203.013 187.935C203.013 191.261 204.135 194.213 206.249 196.753C209.202 200.311 213.044 201.986 217.66 201.986C229.948 201.974 242.222 201.986 254.51 201.986C268.112 201.986 281.715 201.986 295.305 201.986C298.851 201.986 302.383 201.974 305.929 201.986C315.174 202.012 324.406 201.999 333.65 201.999C334.811 201.999 335.958 201.87 337.093 201.6C343.179 200.143 348.014 194.522 347.988 187.574C347.949 174.116 347.975 160.683 347.988 147.263ZM345.474 187.522C345.448 193.207 341.76 197.861 336.358 199.137C335.443 199.357 334.501 199.473 333.547 199.473C324.909 199.473 316.27 199.473 307.631 199.473C290.728 199.473 273.811 199.473 256.908 199.473C243.821 199.473 230.734 199.473 217.66 199.473C213.818 199.473 210.607 198.08 208.145 195.064C206.43 192.963 205.54 190.539 205.527 187.858C205.489 177.39 205.514 166.935 205.514 156.467C205.514 142.016 205.514 127.552 205.514 113.101C205.514 99.1788 205.514 85.2691 205.514 71.3466C205.514 64.7591 210.865 59.5253 217.505 59.5382C227.021 59.564 236.549 59.5511 246.064 59.5511C249.365 59.5511 252.679 59.5253 255.98 59.5124V59.5511H256.96C257.037 59.6026 257.101 59.6155 257.166 59.5511H258.739C258.855 59.564 258.971 59.5511 259.087 59.5511H261.756C273.205 59.5511 284.655 59.564 296.104 59.564C297.252 59.564 298.412 59.564 299.56 59.5511H302.216C302.242 59.5511 302.28 59.564 302.306 59.564L302.345 59.5898L302.383 59.564C303.247 59.564 304.098 59.5511 304.962 59.5511C314.439 59.5511 323.916 59.5511 333.392 59.5511C335.971 59.5511 338.369 60.1828 340.471 61.7039C343.32 63.7536 344.984 66.5252 345.396 70.0188C345.487 70.7794 345.5 71.5657 345.5 72.3392C345.5 83.4257 345.5 94.5121 345.5 105.599C345.5 119.495 345.5 133.392 345.5 147.289C345.5 151.646 345.525 156.003 345.525 160.361C345.512 169.384 345.512 178.46 345.474 187.522Z" fill="#050505"/>
</g>
<path d="M164.68 267.391C164.68 268.781 164.414 270.094 163.883 271.328C163.367 272.547 162.648 273.617 161.727 274.539C160.82 275.445 159.75 276.164 158.516 276.695C157.297 277.211 155.992 277.469 154.602 277.469C153.352 277.469 152.148 277.25 150.992 276.812C149.852 276.375 148.82 275.734 147.898 274.891C146.977 275.734 145.938 276.375 144.781 276.812C143.625 277.25 142.422 277.469 141.172 277.469C139.781 277.469 138.469 277.211 137.234 276.695C136.016 276.164 134.945 275.445 134.023 274.539C133.117 273.617 132.398 272.547 131.867 271.328C131.352 270.094 131.094 268.781 131.094 267.391V243.391H137.82V267.391C137.82 267.859 137.906 268.305 138.078 268.727C138.25 269.133 138.484 269.492 138.781 269.805C139.094 270.102 139.453 270.336 139.859 270.508C140.266 270.68 140.703 270.766 141.172 270.766C141.641 270.766 142.078 270.68 142.484 270.508C142.891 270.336 143.242 270.102 143.539 269.805C143.852 269.492 144.094 269.133 144.266 268.727C144.438 268.305 144.523 267.859 144.523 267.391V243.391H151.25V267.391C151.25 267.859 151.336 268.305 151.508 268.727C151.68 269.133 151.914 269.492 152.211 269.805C152.523 270.102 152.883 270.336 153.289 270.508C153.695 270.68 154.133 270.766 154.602 270.766C155.07 270.766 155.508 270.68 155.914 270.508C156.32 270.336 156.672 270.102 156.969 269.805C157.281 269.492 157.523 269.133 157.695 268.727C157.883 268.305 157.977 267.859 157.977 267.391V243.391H164.68V267.391ZM196.353 264.227C196.353 266.102 196.017 267.852 195.345 269.477C194.673 271.086 193.759 272.484 192.603 273.672C191.447 274.844 190.088 275.773 188.525 276.461C186.978 277.133 185.314 277.469 183.533 277.469C181.767 277.469 180.103 277.133 178.541 276.461C176.994 275.773 175.634 274.844 174.463 273.672C173.306 272.484 172.392 271.086 171.72 269.477C171.048 267.852 170.713 266.102 170.713 264.227C170.713 262.32 171.048 260.555 171.72 258.93C172.392 257.305 173.306 255.906 174.463 254.734C175.634 253.547 176.994 252.617 178.541 251.945C180.103 251.273 181.767 250.938 183.533 250.938C185.314 250.938 186.978 251.258 188.525 251.898C190.088 252.523 191.447 253.422 192.603 254.594C193.759 255.75 194.673 257.148 195.345 258.789C196.017 260.414 196.353 262.227 196.353 264.227ZM189.908 264.227C189.908 263.195 189.736 262.266 189.392 261.438C189.064 260.594 188.611 259.875 188.033 259.281C187.455 258.672 186.775 258.211 185.994 257.898C185.228 257.57 184.408 257.406 183.533 257.406C182.658 257.406 181.83 257.57 181.048 257.898C180.283 258.211 179.611 258.672 179.033 259.281C178.47 259.875 178.025 260.594 177.697 261.438C177.369 262.266 177.205 263.195 177.205 264.227C177.205 265.195 177.369 266.094 177.697 266.922C178.025 267.75 178.47 268.469 179.033 269.078C179.611 269.688 180.283 270.172 181.048 270.531C181.83 270.875 182.658 271.047 183.533 271.047C184.408 271.047 185.228 270.883 185.994 270.555C186.775 270.227 187.455 269.766 188.033 269.172C188.611 268.578 189.064 267.859 189.392 267.016C189.736 266.172 189.908 265.242 189.908 264.227ZM208.691 277H202.292V251.898H203.839L205.948 254.875C206.98 253.938 208.152 253.219 209.464 252.719C210.777 252.203 212.136 251.945 213.542 251.945H219.191V258.32H213.542C212.87 258.32 212.238 258.445 211.644 258.695C211.05 258.945 210.534 259.289 210.097 259.727C209.659 260.164 209.316 260.68 209.066 261.273C208.816 261.867 208.691 262.5 208.691 263.172V277ZM248.356 277H246.809L244.325 273.555C243.716 274.102 243.067 274.617 242.38 275.102C241.708 275.57 240.997 275.984 240.247 276.344C239.497 276.688 238.723 276.961 237.927 277.164C237.145 277.367 236.348 277.469 235.536 277.469C233.77 277.469 232.106 277.141 230.544 276.484C228.997 275.812 227.637 274.891 226.466 273.719C225.309 272.531 224.395 271.133 223.723 269.523C223.052 267.898 222.716 266.133 222.716 264.227C222.716 262.336 223.052 260.578 223.723 258.953C224.395 257.328 225.309 255.922 226.466 254.734C227.637 253.547 228.997 252.617 230.544 251.945C232.106 251.273 233.77 250.938 235.536 250.938C236.098 250.938 236.677 250.984 237.27 251.078C237.88 251.172 238.466 251.328 239.028 251.547C239.606 251.75 240.145 252.023 240.645 252.367C241.145 252.711 241.567 253.133 241.911 253.633V241.914H248.356V277ZM241.911 264.227C241.911 263.352 241.739 262.508 241.395 261.695C241.067 260.867 240.614 260.141 240.036 259.516C239.458 258.875 238.778 258.367 237.997 257.992C237.231 257.602 236.411 257.406 235.536 257.406C234.661 257.406 233.833 257.562 233.052 257.875C232.286 258.188 231.614 258.641 231.036 259.234C230.473 259.812 230.028 260.523 229.7 261.367C229.372 262.211 229.208 263.164 229.208 264.227C229.208 265.148 229.372 266.023 229.7 266.852C230.028 267.68 230.473 268.406 231.036 269.031C231.614 269.656 232.286 270.148 233.052 270.508C233.833 270.867 234.661 271.047 235.536 271.047C236.411 271.047 237.231 270.859 237.997 270.484C238.778 270.094 239.458 269.586 240.036 268.961C240.614 268.32 241.067 267.594 241.395 266.781C241.739 265.953 241.911 265.102 241.911 264.227ZM278.914 250.117V263.57H285.641C286.562 263.57 287.43 263.398 288.242 263.055C289.055 262.695 289.766 262.211 290.375 261.602C290.984 260.992 291.461 260.281 291.805 259.469C292.164 258.641 292.344 257.766 292.344 256.844C292.344 255.922 292.164 255.055 291.805 254.242C291.461 253.414 290.984 252.695 290.375 252.086C289.766 251.477 289.055 251 288.242 250.656C287.43 250.297 286.562 250.117 285.641 250.117H278.914ZM278.914 277H272.188V243.391H285.641C286.875 243.391 288.062 243.555 289.203 243.883C290.344 244.195 291.406 244.648 292.391 245.242C293.391 245.82 294.297 246.523 295.109 247.352C295.938 248.164 296.641 249.07 297.219 250.07C297.812 251.07 298.266 252.141 298.578 253.281C298.906 254.422 299.07 255.609 299.07 256.844C299.07 258.688 298.719 260.43 298.016 262.07C297.312 263.695 296.352 265.117 295.133 266.336C293.914 267.555 292.484 268.516 290.844 269.219C289.219 269.922 287.484 270.273 285.641 270.273H278.914V277ZM323.197 274.07C322.681 274.539 322.127 274.984 321.533 275.406C320.955 275.812 320.345 276.172 319.705 276.484C319.064 276.781 318.4 277.016 317.712 277.188C317.041 277.375 316.353 277.469 315.65 277.469C314.103 277.469 312.65 277.195 311.291 276.648C309.931 276.102 308.736 275.328 307.705 274.328C306.689 273.312 305.884 272.086 305.291 270.648C304.712 269.195 304.423 267.57 304.423 265.773V251.898H310.798V265.773C310.798 266.617 310.923 267.375 311.173 268.047C311.439 268.703 311.791 269.258 312.228 269.711C312.666 270.164 313.173 270.508 313.752 270.742C314.345 270.977 314.978 271.094 315.65 271.094C316.306 271.094 316.923 270.945 317.502 270.648C318.095 270.336 318.611 269.93 319.048 269.43C319.486 268.93 319.83 268.367 320.08 267.742C320.33 267.102 320.455 266.445 320.455 265.773V251.898H326.853V277H325.306L323.197 274.07ZM353.745 277H332.816L343.386 258.32H332.816V251.945H353.745L343.175 270.625H353.745V277ZM379.302 277H358.372L368.942 258.32H358.372V251.945H379.302L368.731 270.625H379.302V277ZM391.709 277H385.264V241.914H391.709V277ZM408.992 270.859C409.242 270.938 409.492 270.992 409.742 271.023C409.992 271.039 410.242 271.047 410.492 271.047C411.117 271.047 411.719 270.961 412.297 270.789C412.875 270.617 413.414 270.375 413.914 270.062C414.43 269.734 414.883 269.344 415.273 268.891C415.68 268.422 416.008 267.906 416.258 267.344L420.945 272.055C420.352 272.898 419.664 273.656 418.883 274.328C418.117 275 417.281 275.57 416.375 276.039C415.484 276.508 414.539 276.859 413.539 277.094C412.555 277.344 411.539 277.469 410.492 277.469C408.727 277.469 407.062 277.141 405.5 276.484C403.953 275.828 402.594 274.914 401.422 273.742C400.266 272.57 399.352 271.18 398.68 269.57C398.008 267.945 397.672 266.164 397.672 264.227C397.672 262.242 398.008 260.43 398.68 258.789C399.352 257.148 400.266 255.75 401.422 254.594C402.594 253.438 403.953 252.539 405.5 251.898C407.062 251.258 408.727 250.938 410.492 250.938C411.539 250.938 412.562 251.062 413.562 251.312C414.562 251.562 415.508 251.922 416.398 252.391C417.305 252.859 418.148 253.438 418.93 254.125C419.711 254.797 420.398 255.555 420.992 256.398L408.992 270.859ZM412.273 257.664C411.977 257.555 411.68 257.484 411.383 257.453C411.102 257.422 410.805 257.406 410.492 257.406C409.617 257.406 408.789 257.57 408.008 257.898C407.242 258.211 406.57 258.664 405.992 259.258C405.43 259.852 404.984 260.57 404.656 261.414C404.328 262.242 404.164 263.18 404.164 264.227C404.164 264.461 404.172 264.727 404.188 265.023C404.219 265.32 404.258 265.625 404.305 265.938C404.367 266.234 404.438 266.523 404.516 266.805C404.594 267.086 404.695 267.336 404.82 267.555L412.273 257.664Z" fill="#123181"/>
<defs>
<linearGradient id="paint0_linear" x1="275.5" y1="0" x2="275.5" y2="314" gradientUnits="userSpaceOnUse">
<stop stop-color="#00A3FF"/>
<stop offset="1" stop-color="#00FDEE"/>
</linearGradient>
</defs>
</svg>
