<svg width="125" height="125" viewBox="0 0 125 125" fill="none" xmlns="http://www.w3.org/2000/svg">
<g filter="url(#filter0_d)">
<path d="M96.8132 98.585C80.5063 111.897 29.5888 111.897 13.6146 98.585C-2.69234 85.2732 -1.02839 28.3654 13.6146 13.3897C28.2576 -1.58607 82.1702 -1.58607 96.8132 13.3897C111.456 28.3654 113.12 85.2734 96.8132 98.585Z" fill="#6DAFE0"/>
<g opacity="0.2">
<path opacity="0.2" d="M55.547 75.2895C40.904 86.9374 24.597 92.9277 9.28858 93.2604C-2.02653 73.9583 0.303137 27.0344 13.6149 13.3899C25.5955 1.07658 63.2012 -1.25309 84.833 6.40115C90.1575 28.3656 79.1754 56.3202 55.547 75.2895Z" fill="white"/>
</g>
<path d="M46.5613 30.0296L80.1734 51.6611C83.1686 53.325 83.1686 56.9859 80.1734 58.9826L46.5613 80.6141C42.9007 82.9437 38.2414 80.6141 38.2414 76.9535V33.6902C37.9086 30.0296 42.9005 27.6999 46.5613 30.0296Z" fill="white"/>
</g>
<defs>
<filter id="filter0_d" x="0" y="0" width="124.428" height="124.569" filterUnits="userSpaceOnUse" color-interpolation-filters="sRGB">
<feFlood flood-opacity="0" result="BackgroundImageFix"/>
<feColorMatrix in="SourceAlpha" type="matrix" values="0 0 0 0 0 0 0 0 0 0 0 0 0 0 0 0 0 0 127 0"/>
<feOffset dx="7" dy="7"/>
<feGaussianBlur stdDeviation="4.5"/>
<feColorMatrix type="matrix" values="0 0 0 0 0 0 0 0 0 0 0 0 0 0 0 0 0 0 0.25 0"/>
<feBlend mode="normal" in2="BackgroundImageFix" result="effect1_dropShadow"/>
<feBlend mode="normal" in="SourceGraphic" in2="effect1_dropShadow" result="shape"/>
</filter>
</defs>
</svg>
