<svg width="194" height="230" viewBox="0 0 194 230" fill="none" xmlns="http://www.w3.org/2000/svg">
<path d="M97 194C150.572 194 194 150.572 194 97C194 43.4284 150.572 0 97 0C43.4284 0 0 43.4284 0 97C0 150.572 43.4284 194 97 194Z" fill="#8475D3"/>
<path d="M69.9 149.8C50.1 125.3 28.7999 60 77.2999 59.2C89.6999 23.3 187.4 40.4 127 147.1L69.9 149.8Z" fill="#F78B2B"/>
<path d="M134.7 75.2C131.3 96.1 114.9 112 95.0997 112C79.0997 112 65.1998 101.6 58.6998 86.5C57.5998 107.6 66.8998 135.6 75.8998 149.8L120.4 147.1C134.2 115.7 137.4 92 134.7 75.2Z" fill="#E56C1A"/>
<path d="M93.5998 228.4C93.5998 228.4 85.6998 187.2 89.6998 175.1L92.7998 175.2L95.3998 228.9L93.5998 228.4Z" fill="#FABE82"/>
<path d="M94.6 212L92.8 175.2L89.7 175.1C87.4 182 89.2 199.4 90.9 212.1L94.6 212Z" fill="#F49F60"/>
<path d="M102.3 229.1C102.3 229.1 106.4 190.8 101.4 182L98.5 182.3L100.2 228.4L102.3 229.1Z" fill="#FABE82"/>
<path d="M99.6 211.7L98.5 182.3L101.4 182C104.1 186.8 104.1 200.4 103.6 211.7H99.6Z" fill="#F49F60"/>
<path d="M86.5002 207.7L108.6 206.7C108.6 206.7 123.6 141.4 101.7 136.8C71.0002 130.4 86.5002 207.7 86.5002 207.7Z" fill="#4C2E22"/>
<path d="M106.2 138.9C106.2 137.7 102.3 135.3 98.0998 135.3C93.8998 135.3 90.2998 137.7 90.2998 138.9C90.2998 140.1 93.7998 139.7 98.0998 139.7C102.3 139.7 106.2 140.1 106.2 138.9Z" fill="#873E25"/>
<path d="M94 137V128.1C99.8 128.6 99.8 128.6 99.8 128.6L100.9 137.5C99.2 138.7 95.1 138.9 94 137Z" fill="#FFCB9C"/>
<path d="M88.8002 189.1L86.2002 184.2L88.6002 177.9L90.9002 183.9L88.8002 189.1Z" fill="#7C4A39"/>
<path d="M93.2002 189.1L90.7002 184.3L93.2002 178L95.4002 183.9L93.2002 189.1Z" fill="#7C4A39"/>
<path d="M97.5 188.8L95 183.9L97.6 177.6L99.7 183.6L97.5 188.8Z" fill="#7C4A39"/>
<path d="M101.9 188.9L99.5 184L102.2 177.7L104.2 183.6L101.9 188.9Z" fill="#7C4A39"/>
<path d="M106.3 188.7L104 183.8L106.8 177.5L108.7 183.5L106.3 188.7Z" fill="#7C4A39"/>
<path d="M88.5998 178.3L85.7998 173.6L88.3998 167.6L90.7998 173.4L88.5998 178.3Z" fill="#7C4A39"/>
<path d="M93.2001 178.4L90.6001 173.7L93.2001 167.8L95.5001 173.5L93.2001 178.4Z" fill="#7C4A39"/>
<path d="M97.7001 178.1L95.1001 173.5L97.9001 167.5L100.1 173.2L97.7001 178.1Z" fill="#7C4A39"/>
<path d="M102.4 178.2L99.8999 173.6L102.7 167.6L104.8 173.3L102.4 178.2Z" fill="#7C4A39"/>
<path d="M107 178.2L104.6 173.5L107.5 167.5L109.6 173.3L107 178.2Z" fill="#7C4A39"/>
<path d="M88.3 168.5L85.5 163.8L88 158.2L90.5 163.7L88.3 168.5Z" fill="#7C4A39"/>
<path d="M93.0998 168.6L90.2998 164L92.7998 158.4L95.2998 163.8L93.0998 168.6Z" fill="#7C4A39"/>
<path d="M97.7999 168.5L94.8999 163.8L97.3999 158.2L99.8999 163.6L97.7999 168.5Z" fill="#7C4A39"/>
<path d="M102.5 168.6L99.7002 164L102.2 158.3L104.7 163.8L102.5 168.6Z" fill="#7C4A39"/>
<path d="M107.3 168.6L104.5 164L107 158.3L109.4 163.8L107.3 168.6Z" fill="#7C4A39"/>
<path d="M88.0001 158.9L85.6001 154.2L88.4001 149.1L90.4001 154.1L88.0001 158.9Z" fill="#7C4A39"/>
<path d="M92.8002 159.2L90.2002 154.5L92.7002 149.4L95.0002 154.4L92.8002 159.2Z" fill="#7C4A39"/>
<path d="M97.5001 159.1L94.6001 154.4L97.0001 149.3L99.5001 154.3L97.5001 159.1Z" fill="#7C4A39"/>
<path d="M102.4 159.4L99.2998 154.7L101.4 149.5L104.2 154.6L102.4 159.4Z" fill="#7C4A39"/>
<path d="M107.3 159.6L104 154.8L105.9 149.6L108.9 154.7L107.3 159.6Z" fill="#7C4A39"/>
<path opacity="0.4" d="M112.8 174.7C108.5 162.6 110.4 162.2 104.7 152.9C104.2 152.1 103.2 151.7 102.2 152C94.4 154.7 88.9 156.7 81.9 161C81.5 161.3 81.3 161.7 81.4 162.2C84.8 173.9 88.9 181.7 95.1 193C95.2 193.3 95.6 193.4 95.9 193.3C104.7 191 107 189.7 111.9 187C112.4 186.9 112.9 175.2 112.8 174.7Z" fill="#8F3B00"/>
<path d="M118.7 179.7C114.4 167.6 111.4 159.3 105.7 150C105.2 149.2 104.2 148.8 103.2 149.1C95.4 151.8 89.9 153.8 82.9 158.1C82.5 158.4 82.3 158.8 82.4 159.3C85.8 171 89.9 178.8 96.1 190.1C96.2 190.4 96.6 190.5 96.9 190.4C105.7 188.1 110.4 185.5 118.2 180.9C118.6 180.6 118.8 180.1 118.7 179.7Z" fill="#AF9456"/>
<path d="M106.2 149.7C105.7 148.9 104.7 148.5 103.7 148.8C95.9 151.5 90.4 153.5 83.4 157.8C83 158.1 82.8 158.5 82.9 159C86.3 170.7 90.4 178.5 96.6 189.8C96.7 190.1 97.1 190.2 97.4 190.1C106.2 187.8 110.9 185.2 118.7 180.6C119.1 180.3 119.3 179.8 119.1 179.4C115 167.3 111.9 159 106.2 149.7Z" fill="#E0CB96"/>
<path d="M99.8001 150.9C94.2001 152.9 89.6 154.8 84.1 158.3C83.7 158.5 83.5 159 83.7 159.4C86.7 169.7 90.3001 176.9 95.5001 186.4L99.8001 150.9Z" fill="#E8D3A6"/>
<path d="M107.5 185.9C110.9 184.4 114.1 182.6 118.1 180.2C118.5 180 118.7 179.5 118.5 179C116.4 172.9 114.5 167.8 112.5 163L107.5 185.9Z" fill="#E8D3A6"/>
<path d="M100.6 167.2C100.6 167.3 100.6 167.3 100.6 167.2C101.3 168.8 100.6 170.5 99.0002 171.2C98.9002 171.2 98.8002 171.3 98.7002 171.3C99.4002 172.7 101.2 173.3 102.7 172.7C104.3 172 105 170.2 104.3 168.7C103.8 167.3 102.1 166.7 100.6 167.2Z" fill="#FCEAC3"/>
<path d="M115.482 169.745L114.457 170.143L116.125 174.43L117.15 174.031L115.482 169.745Z" fill="#D3B779"/>
<path d="M115.4 170.7L114.8 171L115.8 173.6L116.5 173.4L115.4 170.7Z" fill="#E8D3A6"/>
<path d="M108.064 153.382L107.091 153.895L109.237 157.963L110.21 157.45L108.064 153.382Z" fill="#D3B779"/>
<path d="M108.021 154.319L107.411 154.663L108.836 157.189L109.446 156.845L108.021 154.319Z" fill="#E0CB96"/>
<path opacity="0.4" d="M95.9 167.5C95.8 167.5 95.7 167.5 95.6 167.5C95.5 167.3 95.5 167.2 95.4 167C95.6 167 95.7 166.9 95.9 166.9C97.2 166.5 98.2 165.9 98.1 165.6C98 165.3 97 165.7 95.7 166.1C95.5 166.2 95.3 166.2 95.1 166.3C95.1 166.2 95 166.1 95 166.1C95.2 166 95.5 165.9 95.7 165.8C96.9 165.2 97.7 164.3 97.4 163.9C97.1 163.5 96.3 164.2 95.1 164.8C94.8 165 94.4 165.1 94.1 165.3C93.7 165.1 93.3 165 92.9 164.9C93 164.8 93 164.8 93.1 164.7C93.7 163.9 93.9 163 93.5 162.7C93.1 162.4 92.7 163.1 92.1 163.9C91.7 164.4 91.2 164.9 91.1 165.2C90.5 165.5 90 166.1 89.8 166.6C87.8 166.5 85 166.5 82.5 166.6V170C85.4 169.6 88.5 168.9 90.4 168.2C91.4 168.7 92.9 168.2 94.7 168.5C94.9 168.5 95.1 168.5 95.3 168.5C95.5 168.5 95.7 168.5 95.9 168.5C97.2 168.3 98.3 167.9 98.3 167.6C98.3 167 97.3 167.3 95.9 167.5Z" fill="#8F3B00"/>
<path d="M80.1999 147.2C77.9999 157.1 74.8 166.7 76.8 168.2C78.8 169.8 84.8 149.1 84.8 149.1L80.1999 147.2Z" fill="#FABE82"/>
<path d="M79.9999 163.2C82.2999 157.5 84.6999 149.1 84.6999 149.1L80.0999 147.2C78.7999 153.2 77.0999 159 76.3999 163C77.4999 162.8 78.7999 162.8 79.9999 163.2Z" fill="#F49F60"/>
<path d="M77 165.6C77 165.6 92.6 164.7 93 165.9C93.4 167 77.9 170.8 76.6 168C75.3 165.1 77 165.6 77 165.6Z" fill="#FABE82"/>
<path d="M95.9 165.1C95.3 163.8 93.4 163.3 92.2 163.7C90.9 164.1 90 165.9 90.9 166.7C91.8 167.5 93.5 166.9 95.6 167.2C97.1 167.4 96.3 166.2 95.9 165.1Z" fill="#FABE82"/>
<path d="M96.4 164.5C95.2 165.1 94.0999 165.3 93.7999 165C93.4999 164.6 94.5999 164.2 95.7999 163.6C96.9999 162.9 97.8999 162.3 98.0999 162.7C98.2999 163 97.6 163.8 96.4 164.5Z" fill="#FABE82"/>
<path d="M96.6001 165.7C95.3001 166.1 94.2001 166.2 94.1001 165.8C94.0001 165.5 95.1001 165.3 96.4001 164.9C97.7001 164.5 98.7001 164 98.8001 164.4C99.0001 164.7 98.0001 165.3 96.6001 165.7Z" fill="#FABE82"/>
<path d="M96.6998 167.1C95.3998 167.3 94.2998 167.1 94.2998 166.8C94.2998 166.5 95.3998 166.4 96.6998 166.3C97.9998 166.1 99.0998 165.9 99.0998 166.2C99.0998 166.6 97.9998 167 96.6998 167.1Z" fill="#FABE82"/>
<path d="M93.7999 163.4C93.1999 164.2 92.2999 164.6 91.8999 164.2C91.4999 163.9 92.0999 163.3 92.7999 162.5C93.3999 161.7 93.7999 160.9 94.1999 161.3C94.5999 161.7 94.3999 162.6 93.7999 163.4Z" fill="#FABE82"/>
<path opacity="0.4" d="M116.7 164C114.1 165.1 110.1 166.8 107.8 168C107.4 167.6 106.8 167.3 106.2 167.3C106 167.1 105.5 166.9 104.9 166.6C104.1 166.2 103.5 165.7 103.3 166.1C103.1 166.5 103.6 167.2 104.4 167.6C104.5 167.6 104.6 167.7 104.7 167.7C104.4 167.9 104.1 168.1 103.9 168.4C103.6 168.4 103.3 168.4 103 168.4C101.8 168.3 100.9 168.1 100.9 168.5C100.9 168.9 101.8 169.3 103 169.3C103.2 169.3 103.4 169.3 103.7 169.3C103.7 169.4 103.7 169.4 103.7 169.5C103.5 169.5 103.3 169.6 103.2 169.6C102 169.8 101.1 169.8 101.2 170.1C101.3 170.4 102.3 170.5 103.4 170.3C103.5 170.3 103.7 170.3 103.8 170.2C103.8 170.4 103.8 170.5 103.9 170.7C103.8 170.7 103.8 170.7 103.7 170.8C102.6 171.1 101.8 171.3 101.9 171.6C102 171.9 103 171.8 104 171.5C104.2 171.4 104.3 171.4 104.5 171.3C104.6 171.3 104.8 171.2 104.9 171.1C106.2 170.3 107.5 170.1 108.1 169.4C111.9 169 120.2 166.9 120.4 164.8C120.4 164.4 120.4 164.2 120.4 163.9H116.7V164Z" fill="#8F3B00"/>
<path d="M113.6 143.3C117.3 154.1 121.4 163.1 119.8 164.9C118.3 166.7 110 146.6 110 146.6L113.6 143.3Z" fill="#FABE82"/>
<path d="M119.1 162.6C119.1 162.6 105.9 167.9 106.1 168.9C106.2 169.9 120 167.2 120.3 164.5C120.5 161.5 119.1 162.6 119.1 162.6Z" fill="#FABE82"/>
<path d="M103.4 169.3C103.3 167.9 104.7 166.6 106.1 166.5C107.5 166.3 109.1 167.5 108.7 168.6C108.2 169.7 106.5 169.9 104.7 171C103.4 171.7 103.5 170.4 103.4 169.3Z" fill="#FABE82"/>
<path d="M102.6 168.9C104 169 105.1 168.7 105.1 168.2C105.1 167.7 104 167.8 102.6 167.7C101.2 167.6 100.1 167.4 100.1 167.9C100.2 168.4 101.3 168.8 102.6 168.9Z" fill="#FABE82"/>
<path d="M103 170.1C104.3 169.9 105.4 169.5 105.3 169.2C105.2 168.9 104.2 169.1 102.8 169.3C101.4 169.5 100.3 169.5 100.4 169.8C100.4 170.1 101.6 170.2 103 170.1Z" fill="#FABE82"/>
<path d="M103.6 171.3C104.8 170.9 105.7 170.3 105.6 170C105.5 169.7 104.5 170.1 103.3 170.5C102.1 170.9 101 171.1 101.2 171.4C101.3 171.8 102.4 171.7 103.6 171.3Z" fill="#FABE82"/>
<path d="M104.4 166.9C105.4 167.4 106.3 167.3 106.5 166.9C106.7 166.4 105.9 166.2 104.9 165.7C103.9 165.2 103.2 164.7 103 165.2C102.9 165.6 103.5 166.4 104.4 166.9Z" fill="#FABE82"/>
<path d="M119.1 158C117.9 154.8 115.1 147.4 113.7 143.3L110.7 146.7C110.7 146.7 113.8 155.9 116.5 160.5C117.5 159.7 117.7 158.3 119.1 158Z" fill="#F49F60"/>
<path d="M83.8002 158.4C83.1002 162.9 75.6002 155.2 77.1002 149.8C79.2002 142.4 93.2002 136 91.6002 138.4C89.3002 141.8 85.4002 148.3 83.8002 158.4Z" fill="#873E25"/>
<path d="M113.1 158.3C115.9 160.2 120.4 154.9 118.9 149.6C116.8 142.3 104 136.2 105.5 138.5C107.7 141.9 111.4 148.3 113.1 158.3Z" fill="#873E25"/>
<path d="M95.4002 229.1H86.7002C86.7002 229.1 90.6002 226.9 93.0002 227C95.5002 227 95.4002 229.1 95.4002 229.1Z" fill="#AD8A79"/>
<path d="M99.8999 229.1H106.9C106.9 229.1 103.8 226.9 101.8 227C99.8999 227 99.8999 229.1 99.8999 229.1Z" fill="#AD8A79"/>
<path opacity="0.4" d="M115.1 143.8C111.6 140.3 106.8 137.9 105.7 138C104.8 137.1 103 136.1 100.7 135.6L99.8 128.5C99.8 128.5 99.8 128.5 98.9 128.4C98.1 128.4 97.3 128.4 96.5 128.4C95.7 128.4 94.8 128.4 94 128.4V136C92.5 136.5 91.4 137.2 90.8 137.9C88.8 138.4 83.9 141 80.5 144.5C84.9 145.7 90.5 146.4 96.5 146.4C103.8 146.4 110.3 145.4 115.1 143.8Z" fill="#8F3B00"/>
<path d="M57.5002 94C57.6002 106.6 67.9002 135 94.9002 135.6C121.6 136.2 133.4 106.3 133.1 94C132.9 86.8 129.2 62.9 96.1001 63.9C68.9001 64.7 57.4002 81.4 57.5002 94Z" fill="#FFCB9C"/>
<mask id="mask0" mask-type="alpha" maskUnits="userSpaceOnUse" x="57" y="63" width="77" height="73">
<path d="M57.5002 94C57.6002 106.6 67.9002 135 94.9002 135.6C121.6 136.2 133.4 106.3 133.1 94C132.9 86.8 129.2 62.9 96.1001 63.9C68.9001 64.7 57.4002 81.4 57.5002 94Z" fill="url(#paint0_linear)"/>
</mask>
<g mask="url(#mask0)">
<path opacity="0.3" d="M57.5002 94C57.6002 106.6 67.9002 135 94.9002 135.6C121.6 136.2 133.4 106.3 133.1 94C132.9 86.8 129.2 62.9 96.1001 63.9C68.9001 64.7 57.4002 81.4 57.5002 94Z" fill="url(#paint1_linear)"/>
<path d="M79.8999 65.9C88.8999 69.1 88.6999 75.6 98.3999 74.5C108.1 73.4 111.5 72.5 116.9 73.8C116.9 73.8 111.2 70.8 101.3 72.7C91.3999 74.7 85.2999 62.5 82.5999 63.2C79.8999 64 79.8999 65.9 79.8999 65.9Z" fill="#F78B2B"/>
<path d="M83.1998 62.4001C92.4998 64.6001 92.9999 71.1001 102.5 68.9001C112 66.8001 115.3 65.5 120.8 66.1C120.8 66.1 114.8 63.7 105.2 66.8C95.5998 69.9 88.1998 58.4001 85.5998 59.4001C82.9998 60.4001 83.1998 62.4001 83.1998 62.4001Z" fill="#F78B2B"/>
<path opacity="0.5" d="M114.7 118.8C114.7 118.6 114.5 118.4 114.2 118.4C113.9 118.4 113.7 118.6 113.7 118.8C113.7 119 113.9 119.2 114.2 119.2C114.4 119.2 114.7 119 114.7 118.8Z" fill="#DD7F33"/>
<path opacity="0.5" d="M117.3 115C117.3 114.8 117.1 114.6 116.8 114.6C116.5 114.6 116.3 114.8 116.3 115C116.3 115.2 116.5 115.4 116.8 115.4C117 115.5 117.3 115.3 117.3 115Z" fill="#DD7F33"/>
<path opacity="0.5" d="M115 113.5C115 113.3 114.8 113.1 114.5 113.1C114.2 113.1 114 113.3 114 113.5C114 113.7 114.2 113.9 114.5 113.9C114.8 113.9 115 113.7 115 113.5Z" fill="#DD7F33"/>
<path opacity="0.5" d="M91.6001 111.5C91.6001 111.3 91.4001 111.1 91.1001 111.1C90.8001 111.1 90.6001 111.3 90.6001 111.5C90.6001 111.7 90.8001 111.9 91.1001 111.9C91.4001 111.9 91.6001 111.7 91.6001 111.5Z" fill="#DD7F33"/>
<path opacity="0.5" d="M85.6001 120.1C85.6001 119.9 85.4001 119.7 85.1001 119.7C84.8001 119.7 84.6001 119.9 84.6001 120.1C84.6001 120.3 84.8001 120.5 85.1001 120.5C85.4001 120.6 85.6001 120.4 85.6001 120.1Z" fill="#DD7F33"/>
<path opacity="0.5" d="M81.2002 118.5C81.2002 118.3 81.0002 118.1 80.7002 118.1C80.4002 118.1 80.2002 118.3 80.2002 118.5C80.2002 118.7 80.4002 118.9 80.7002 118.9C81.0002 119 81.2002 118.8 81.2002 118.5Z" fill="#DD7F33"/>
<path opacity="0.5" d="M84.7002 117.4C84.7002 117.2 84.5002 117 84.2002 117C83.9002 117 83.7002 117.2 83.7002 117.4C83.7002 117.6 83.9002 117.8 84.2002 117.8C84.5002 117.9 84.7002 117.7 84.7002 117.4Z" fill="#DD7F33"/>
<path opacity="0.5" d="M83.5 114.1C83.5 113.9 83.3 113.7 83 113.7C82.7 113.7 82.5 113.9 82.5 114.1C82.5 114.3 82.7 114.5 83 114.5C83.2 114.6 83.5 114.4 83.5 114.1Z" fill="#DD7F33"/>
<path opacity="0.5" d="M86.8003 114.9C86.8003 114.7 86.6003 114.5 86.3003 114.5C86.0003 114.5 85.8003 114.7 85.8003 114.9C85.8003 115.1 86.0003 115.3 86.3003 115.3C86.6003 115.4 86.8003 115.2 86.8003 114.9Z" fill="#DD7F33"/>
<path opacity="0.5" d="M77.1001 115.7C77.1001 115.5 76.9001 115.3 76.6001 115.3C76.3001 115.3 76.1001 115.5 76.1001 115.7C76.1001 115.9 76.3001 116.1 76.6001 116.1C76.9001 116.1 77.1001 115.9 77.1001 115.7Z" fill="#DD7F33"/>
<path opacity="0.5" d="M111.2 114.6C111.2 114.4 111 114.2 110.7 114.2C110.4 114.2 110.2 114.4 110.2 114.6C110.2 114.8 110.4 115 110.7 115C111 115 111.2 114.8 111.2 114.6Z" fill="#DD7F33"/>
<path opacity="0.5" d="M109.9 117.2C109.9 117 109.7 116.8 109.4 116.8C109.1 116.8 108.9 117 108.9 117.2C108.9 117.4 109.1 117.6 109.4 117.6C109.7 117.6 109.9 117.4 109.9 117.2Z" fill="#DD7F33"/>
<path opacity="0.5" d="M107.1 112.3C107.1 112.1 106.9 111.9 106.6 111.9C106.3 111.9 106.1 112.1 106.1 112.3C106.1 112.5 106.3 112.7 106.6 112.7C106.9 112.8 107.1 112.6 107.1 112.3Z" fill="#DD7F33"/>
<path d="M62.8997 115.5C61.4997 113.2 59.0997 112.1 57.5997 113.1C56.0997 114 56.0997 116.6 57.4997 118.9C58.8997 121.2 61.2997 122.3 62.7997 121.3C64.2997 120.4 64.2997 117.8 62.8997 115.5Z" fill="#FFCB9C"/>
<path d="M62.7001 116C61.7001 114.4 60.0001 113.6 59.0001 114.3C58.0001 115 57.9001 116.8 58.9001 118.4C59.9001 120 61.6001 120.8 62.6001 120.1C63.6001 119.5 63.7001 117.6 62.7001 116Z" fill="#EFA460"/>
<path d="M62.8002 115.9C62.3002 115.1 61.4002 114.7 60.9002 115C60.4002 115.3 60.3002 116.3 60.9002 117.1C61.4002 117.9 62.3002 118.3 62.8002 118C63.3002 117.7 63.3002 116.8 62.8002 115.9Z" fill="#FFCB9C"/>
<path d="M134.5 117.5C136.1 115.6 136.2 113.2 134.8 112.1C133.4 111 131.1 111.6 129.5 113.4C127.9 115.3 127.8 117.7 129.2 118.8C130.6 120 133 119.4 134.5 117.5Z" fill="#FFCB9C"/>
<path d="M133.5 116.9C134.6 115.6 134.7 113.9 133.7 113.1C132.8 112.3 131.1 112.7 130.1 114C129 115.3 128.9 117 129.9 117.8C130.8 118.6 132.4 118.1 133.5 116.9Z" fill="#EFA460"/>
<path d="M131 115.7C131.6 115 131.6 114.1 131.1 113.7C130.6 113.3 129.7 113.5 129.1 114.2C128.5 114.9 128.5 115.8 129 116.2C129.5 116.6 130.4 116.4 131 115.7Z" fill="#FFCB9C"/>
<path d="M104.6 107.8C106.5 110.5 119.8 112.2 123.7 109.5C126.3 104.3 125.6 92.6 116.7 91.1C111.6 90.2 102 97.2 104.6 107.8Z" fill="#E56C1A"/>
<path d="M105 107.9C106.8 110.5 119.5 112.1 123.2 109.5C125.7 104.5 125.1 93.5 116.6 92C111.6 91.2 102.5 97.8 105 107.9Z" fill="#FFECDE"/>
<path d="M72.3998 111.4C75.0998 113.4 88.1998 110.7 90.9998 106.8C91.7998 101 87.3998 90.2 78.4998 91.7C73.2998 92.5 66.4998 102.1 72.3998 111.4Z" fill="#E56C1A"/>
<path d="M72.6 111.4C75.2 113.2 87.8 110.6 90.5 107C91.3 101.6 87.1 91.5 78.5 92.9C73.5 93.7 66.9 102.8 72.6 111.4Z" fill="#FFECDE"/>
<path d="M90.2998 116.5L104 116.3C104 116.3 96.9998 134.8 90.2998 116.5Z" fill="#4C311B"/>
<path d="M91.3999 117.2L93.2999 120.8L100.6 120.7L102.7 116.9L91.3999 117.2Z" fill="#FFEFE9"/>
<path d="M101.3 111.5C101.3 110.2 99.6 109.2 97.4 109.2C95.2 109.2 93.5 110.2 93.5 111.5C93.5 112.8 95.2 113.8 97.4 113.8C99.5 113.8 101.3 112.8 101.3 111.5Z" fill="#EFA460"/>
<path d="M100.8 110.9C100.8 110 99.2001 109.2 97.2001 109.2C95.2001 109.2 93.6001 110 93.6001 110.9C93.6001 111.8 95.2001 112.6 97.2001 112.6C99.2001 112.6 100.8 111.9 100.8 110.9Z" fill="#FFCB9C"/>
<path opacity="0.5" d="M98.7002 107.5C98.7002 107.2 98.5002 107 98.2002 107C97.9002 107 97.7002 107.2 97.7002 107.5C97.7002 107.8 97.9002 108 98.2002 108C98.4002 108 98.7002 107.8 98.7002 107.5Z" fill="#DD7F33"/>
<path opacity="0.5" d="M96.2002 107.1C96.2002 106.8 96.0002 106.6 95.7002 106.6C95.4002 106.6 95.2002 106.8 95.2002 107.1C95.2002 107.4 95.4002 107.6 95.7002 107.6C96.0002 107.6 96.2002 107.3 96.2002 107.1Z" fill="#DD7F33"/>
<path opacity="0.5" d="M98.3999 104.2C98.3999 103.9 98.1999 103.7 97.8999 103.7C97.5999 103.7 97.3999 103.9 97.3999 104.2C97.3999 104.5 97.5999 104.7 97.8999 104.7C98.1999 104.7 98.3999 104.5 98.3999 104.2Z" fill="#DD7F33"/>
<path d="M116.9 105.1C116.9 102.4 114.9 100.3 112.3 100.3C109.8 100.3 107.7 102.5 107.7 105.1C107.7 107.8 109.8 109.9 112.3 109.9C114.8 109.9 116.9 107.8 116.9 105.1Z" fill="#535E27"/>
<path d="M86.7 105.1C86.7 102.4 84.7 100.3 82.1 100.3C79.6 100.3 77.5 102.5 77.5 105.1C77.5 107.8 79.5 109.9 82.1 109.9C84.7 109.9 86.7 107.8 86.7 105.1Z" fill="#535E27"/>
<path d="M85 104.1C85 103.2 84.3 102.5 83.5 102.5C82.7 102.5 82 103.2 82 104.1C82 105 82.7 105.7 83.5 105.7C84.3 105.7 85 105 85 104.1Z" fill="#869B2F"/>
<path d="M114.9 103.9C114.9 103.1 114.3 102.5 113.5 102.5C112.8 102.5 112.1 103.1 112.1 103.9C112.1 104.7 112.7 105.3 113.5 105.3C114.3 105.3 114.9 104.7 114.9 103.9Z" fill="#869B2F"/>
<path d="M85.2998 84.8C81.8998 83.9 74.8998 83.2 71.0998 87.3L69.2998 85.6C74.9998 81.5 78.6998 81.9 85.2998 84.8Z" fill="#F78B2B"/>
<path d="M107.7 84.7C111 83.8 117.7 83 121.5 87.1L123.2 85.4C117.5 81.3 114 81.8 107.7 84.7Z" fill="#F78B2B"/>
<path opacity="0.5" d="M121.1 116.7C121.3 115.6 119.3 114.2 116.7 113.7C114 113.2 111.7 113.7 111.5 114.8C111.3 115.9 113.3 117.3 115.9 117.8C118.5 118.4 120.9 117.9 121.1 116.7Z" fill="#DD7F33"/>
<path opacity="0.5" d="M82.3001 116.6C82.2001 115.5 79.9001 114.8 77.2001 115.2C74.5001 115.5 72.4001 116.8 72.6001 117.9C72.7001 119 75.0001 119.7 77.7001 119.3C80.4001 118.9 82.4001 117.7 82.3001 116.6Z" fill="#DD7F33"/>
</g>
<defs>
<linearGradient id="paint0_linear" x1="95.5856" y1="100.886" x2="97.7399" y2="155.015" gradientUnits="userSpaceOnUse">
<stop/>
<stop offset="0.9892" stop-color="#B3B3B3"/>
</linearGradient>
<linearGradient id="paint1_linear" x1="95.5856" y1="100.886" x2="97.7399" y2="155.015" gradientUnits="userSpaceOnUse">
<stop stop-color="#C04B00"/>
<stop offset="0.9892" stop-color="#B73400"/>
</linearGradient>
</defs>
</svg>
