<svg width="359" height="335" viewBox="0 0 359 335" fill="none" xmlns="http://www.w3.org/2000/svg">
<g filter="url(#filter0_d)">
<rect x="6" y="6" width="339" height="315" rx="23" fill="url(#paint0_linear)"/>
</g>
<g clip-path="url(#clip0)">
<path d="M233.324 150.108V208.746C233.324 214.382 228.703 219 223.125 219H179.375V154.507H170.625V219.028H126.875C121.27 219.028 116.676 214.382 116.676 208.773V150.108C116.676 147.717 118.672 145.71 121.051 145.71H228.977C231.355 145.71 233.324 147.689 233.324 150.108Z" fill="#D32F2F"/>
<path d="M245 129.573V144.225C245 149.861 240.379 154.479 234.801 154.479H115.199C109.621 154.507 105 149.861 105 144.225V129.573C105 123.937 109.621 119.319 115.199 119.319H234.773C240.379 119.319 245 123.937 245 129.573Z" fill="#F44336"/>
<path d="M175 125.422C173.715 125.422 172.512 124.872 171.692 123.91C170.844 122.947 170.489 121.655 170.68 120.391C172.84 105.738 184.215 78 211.914 78C227.719 78 233.324 86.5771 233.324 93.9446C233.324 107.003 215.223 125.422 175 125.422ZM211.914 86.797C191.024 86.797 183.094 106.755 180.442 116.515C196.93 115.745 207.321 111.539 213.309 107.965C221.621 103.017 224.574 97.4634 224.574 93.9171C224.574 88.6664 218.039 86.797 211.914 86.797Z" fill="#FFC107"/>
<path d="M175 125.422C134.75 125.422 116.676 107.003 116.676 93.9172C116.676 86.5496 122.281 77.9725 138.086 77.9725C165.785 78 177.188 105.738 179.348 120.391C179.539 121.655 179.156 122.947 178.336 123.91C177.488 124.872 176.285 125.422 175 125.422ZM138.086 86.7971C131.961 86.7971 125.426 88.6664 125.426 93.9447C125.426 101.422 138.441 115.085 169.559 116.515C166.906 106.755 158.977 86.7971 138.086 86.7971Z" fill="#FFC107"/>
<path d="M179.375 154.507V219.027H170.625V154.507H179.375Z" fill="#FF8F00"/>
<path d="M179.375 122.782V154.507H170.625V122.782C170.625 121.435 171.09 120.198 171.855 119.319C172.676 118.439 173.77 117.862 175 117.862C176.23 117.862 177.324 118.439 178.145 119.319C178.91 120.198 179.375 121.435 179.375 122.782Z" fill="#FFC107"/>
<path d="M170.625 154.507H116.676V208.746C116.676 214.382 121.297 219 126.875 219H170.625V154.507Z" fill="#B82929"/>
<path d="M139.809 119.319H115.199C109.621 119.319 105 123.937 105 129.573V144.225C105 149.861 109.621 154.479 115.199 154.479H116.648H170.625H175H170.625V125.339C158.074 124.927 147.848 122.645 139.809 119.319Z" fill="#D43A2F"/>
<path d="M169.531 116.515C138.441 115.058 125.426 101.422 125.426 93.9446C125.426 88.6664 131.961 86.797 138.086 86.797C158.977 86.797 166.906 106.755 169.531 116.515ZM138.086 78C122.281 78 116.676 86.5771 116.676 93.9446C116.676 102.274 124.031 112.803 139.809 119.319C147.848 122.645 158.074 124.927 170.625 125.367V122.782C170.625 121.435 171.09 120.198 171.855 119.319C172.676 118.439 173.77 117.862 175 117.862V105.436C169.258 92.0478 157.801 78 138.086 78Z" fill="#DEA806"/>
<path d="M175 154.507H170.625V219.027H175V154.507Z" fill="#DE7C00"/>
<path d="M175 117.834C173.77 117.834 172.676 118.411 171.855 119.291C171.09 120.171 170.625 121.408 170.625 122.755V125.339V154.479H175V117.834Z" fill="#DEA806"/>
</g>
<defs>
<filter id="filter0_d" x="0" y="0" width="359" height="335" filterUnits="userSpaceOnUse" color-interpolation-filters="sRGB">
<feFlood flood-opacity="0" result="BackgroundImageFix"/>
<feColorMatrix in="SourceAlpha" type="matrix" values="0 0 0 0 0 0 0 0 0 0 0 0 0 0 0 0 0 0 127 0"/>
<feOffset dx="4" dy="4"/>
<feGaussianBlur stdDeviation="5"/>
<feColorMatrix type="matrix" values="0 0 0 0 0 0 0 0 0 0 0 0 0 0 0 0 0 0 0.25 0"/>
<feBlend mode="normal" in2="BackgroundImageFix" result="effect1_dropShadow"/>
<feBlend mode="normal" in="SourceGraphic" in2="effect1_dropShadow" result="shape"/>
</filter>
<linearGradient id="paint0_linear" x1="175.5" y1="6" x2="175.5" y2="321" gradientUnits="userSpaceOnUse">
<stop stop-color="#EB00FF"/>
<stop offset="1" stop-color="#BD00FF"/>
</linearGradient>
<clipPath id="clip0">
<rect width="140" height="141" fill="white" transform="translate(105 78)"/>
</clipPath>
</defs>
</svg>
